<?xml version="1.0" standalone="no"?>
<!DOCTYPE svg PUBLIC "-//W3C//DTD SVG 1.1//EN" "http://www.w3.org/Graphics/SVG/1.1/DTD/svg11.dtd" >
<svg xmlns="http://www.w3.org/2000/svg" xmlns:xlink="http://www.w3.org/1999/xlink" version="1.1">
<metadata></metadata>
<defs>
<font id="shaky_hand_some_comic3d" horiz-adv-x="899" >
<font-face units-per-em="2048" ascent="1536" descent="-512" />
<missing-glyph horiz-adv-x="405" />
<glyph horiz-adv-x="0" />
<glyph horiz-adv-x="682" />
<glyph unicode=" "  horiz-adv-x="405" />
<glyph unicode="&#x09;" horiz-adv-x="405" />
<glyph unicode="&#xa0;" horiz-adv-x="405" />
<glyph unicode="!" horiz-adv-x="567" d="M39 188q-7 81 25.5 147t105.5 89q56 8 84 0q75 -5 125 -86l70 -68q64 -67 75 -180q8 -101 -41 -154t-125 -53q-83 0 -147 64l-66 63q-43 26 -71.5 72t-34.5 106zM43 1544q57 16 193 -6q78 -12 149 -12q-4 -8 -4 -10l98 -99q-104 -282 -104 -669q0 -16 1 -46.5t1 -44.5 v-39q-4 -91 14 -161q-4 0 -19 -1t-18 -1q-68 -10 -92 14l-88 86q-31 17 -47 63q-14 41 -14 121v37q0 6 1 18.5t1 18.5t1 17t1 16v31q0 47 4 145q2 45 2 135q0 112 -10 191q-8 46 -37 122l-15 31l-2 4h-12zM57 1526h21q5 -15 19.5 -53t22.5 -65.5t13 -57.5q9 -69 10 -146 t-2.5 -178t-3.5 -149q0 -16 -3 -75.5t-0.5 -101t13.5 -75.5q14 -46 40.5 -53.5t82.5 1.5q-6 21 -8.5 48t-2.5 44.5t0.5 50.5t0.5 44q-11 455 96 745q-32 0 -141 16t-158 5zM59 190q10 -113 101 -165.5t174 -6.5t74 172q-7 79 -48 144.5t-110 68.5q-17 8 -70 0 q-68 -21 -98.5 -80t-22.5 -133z" />
<glyph unicode="&#x22;" horiz-adv-x="729" d="M39 1516l43 20l2 2q28 8 80 8q10 0 115 -12l-5 -10l72 -70q0 36 12 66l19 28l16 8q133 0 199 -45q0 -1 -1 -4t-1 -4l98 -96q-5 -39 -35 -190q-39 -179 -39 -291q-94 19 -114 39l-84 82q-27 12 -34.5 30.5t-10.5 63.5q0 19 -4 59l-7 51q0 3 -1 8.5t-1 8.5q-4 22 -8 67 q-33 -171 -26 -383q-86 6 -115 35l-82 80q-30 14 -42 41.5t-19 81.5q-9 52 -13 158q-3 74 -14 168zM61 1503q7 -51 12.5 -155.5t12.5 -155.5q8 -71 29.5 -94t91.5 -27q-7 244 45 447q-34 8 -87 8t-75 -8zM367 1435.5q-1 -44.5 1.5 -72t10 -89.5t8.5 -72q2 -21 4 -45.5t2 -35 t3.5 -24t8.5 -18t18 -11.5t29.5 -11t45.5 -10q0 86 32.5 246t38.5 210q-47 33 -174 33l-18 -29q-9 -27 -10 -71.5z" />
<glyph unicode="#" horiz-adv-x="974" d="M31 477v187q55 0 96 6q9 0 25 4q8 2 28 2q-2 29 -2 96q0 7 1 21.5t1 21.5v59v9q-2 0 -2 4l-82 80q-33 12 -42.5 45.5t-6.5 109.5h45q99 0 148 -4q0 84 45 268l24 115q-12 8 4 19l2 8h11q3 2 12 5.5t14 6.5l-2 -14q90 -11 156 -43l-4 -10l88 -87q33 164 110 164 q76 3 95 -53l79 -78q27 -27 27 -80q0 -86 -65 -245h12v-13l96 -96q0 -104 -12 -145q-88 0 -127 4q-2 -72 -35 -213q24 -16 29 -37l84 -82q22 -22 16 -59q-13 -78 -113 -78q-19 0 -51 4q0 -100 -43 -334q-3 -17 -28 -168q-70 25 -134 25l-96 96h-12q-8 52 -8 108q0 54 12 160 l10 82q-18 0 -26 2l-41 -254l-29 -166q-74 -5 -100 21l-84 82q-41 15 -41 65q0 16 8 62l6 28q0 9 2 11q0 2 1 6t1 6q24 116 27 160q-18 6 -21 8l-94 92zM51 494q42 -12 127 0q3 -13 4 -28t1.5 -28t-0.5 -32.5t-1.5 -31t-4 -33.5t-4.5 -31.5t-5.5 -33.5t-5.5 -30.5t-6 -31.5 t-6 -28q-2 -11 -5 -29.5t-4.5 -28t-2.5 -23.5t1 -21.5t7.5 -16.5t15.5 -13t25.5 -6t37.5 -1q8 47 23 133t27 157t20 132q51 -4 162 -4q5 -64 -12.5 -215t-4.5 -232q56 0 109 -18q7 46 28.5 154t32.5 190.5t8 155.5q150 -31 164 57q2 12 0 22.5t-8 18t-12.5 13t-18 10t-20 7 t-23.5 4.5t-23 3t-24 2t-22 2q5 23 23 97.5t26 124t8 102.5q48 -7 129 -7q10 35 10 117q-101 0 -149 17q3 14 26.5 72.5t43 117t31.5 119.5t-7 97.5t-72 33.5q-31 0 -53.5 -35t-34.5 -95.5t-19 -116t-12 -122t-8 -88.5q-104 13 -145 29q28 66 32 192t19 179q-63 31 -145 34 q-8 -40 -30 -126.5t-34.5 -155.5t-9.5 -129q-63 6 -192 6q-3 -82 21.5 -104t113.5 -17q1 -29 -2.5 -163t6.5 -163q-26 0 -78.5 -6t-77.5 -6v-149zM317 614q58 241 58 342v13q41 16 164 16q0 -68 -1 -104t-7.5 -90.5t-20.5 -100.5q-5 -18 -10.5 -32t-10 -24.5t-13 -17.5 t-13.5 -12t-17.5 -6t-18.5 -2t-23 1.5t-24.5 4l-30 6zM320 1512l4 -5h2q-4 3 -6 5zM326 1507q4 -4 4 -6l2 6h-6zM332 1507h2q0 9 2 13zM463 635q15 18 26 61q20 68 27 166l-24 -4v-4q0 -81 -29 -219z" />
<glyph unicode="$" horiz-adv-x="733" d="M40 1089q1 20 5 41q18 83 72 151.5t125 61.5q0 133 16 209h21q74 0 92 -6h20q3 -3 6 -16l95 -92q8 -8 8 -49q-2 -8 -2 -25q52 -8 80 -27v-10l96 -96v-31q0 -93 -23 -151q-123 69 -205 69q-86 0 -120 -78h2q-17 -49 -17 -69q0 -17 2 -23q8 -5 31 -14q106 -58 170 -148 l49 -47q56 -53 99 -141q47 -96 47 -201q0 -71 -23.5 -132t-76.5 -105t-128 -54v-34q0 -130 -8 -189q-88 0 -131 8l-94 95q-2 0 -7.5 1t-7.5 1v94v35l-75 18l-92 92q-9 0 -17 4q0 78 -2 109q0 6 -1 25t-1 32v72l80 -57q40 -27 59.5 -39t54 -25.5t66.5 -13.5q19 0 57 10 q87 26 87 94q0 39 -23.5 88.5t-66.5 104.5t-73.5 89.5t-74.5 80.5l-35 37q-14 14 -18 20q-21 25 -25.5 30.5t-23.5 28.5t-23.5 32t-17.5 30.5t-16 35t-8 34t-4 40.5zM61 1089q-1 -18 3 -36.5t6.5 -31.5t13.5 -31.5t16 -28t21 -29t21 -26t24.5 -28t23.5 -26.5 q9 -10 37.5 -40.5t51.5 -55.5t56 -64t55.5 -72t45 -71.5t28.5 -71t2.5 -63t-28.5 -53.5t-69 -37q-30 -9 -60 -9.5t-52.5 5t-50.5 19.5t-45.5 25.5t-48 32.5t-46.5 31q0 -28 2 -88t2 -90q29 -7 178 -33q4 -24 5.5 -54t1.5 -50.5t-0.5 -56.5t-0.5 -50q33 -6 104 -6q7 50 7 221 q69 4 119 37.5t74 85t31 113t-4.5 123t-37.5 114.5q-35 77 -85 129t-126 92q-33 15 -57 30t-44.5 36t-30 44t-8.5 54.5t15 67.5q16 41 46.5 62.5t65 24.5t76 -6t76 -23.5t68.5 -33.5q5 13 8.5 28t4.5 34t1.5 29t0 34t-0.5 29q-20 13 -57 17t-67 14t-44 37q-7 14 -7.5 48 t2 56t-0.5 29h-18q-14 6 -89 6q-14 -72 -14 -213q-39 12 -74.5 -2t-59 -46t-39.5 -69t-23 -76q-4 -19 -5 -37zM621 1251l53 -51l-51 51h-2z" />
<glyph unicode="%" horiz-adv-x="1523" d="M43 950q0 92 33 224q17 62 45.5 130t76.5 137t97 91h-2q30 18 72 18q93 0 180 -125l51 -49q51 -49 88 -121.5t45 -126.5q6 -38 6 -79q0 -81 -22 -177q131 219 217 377l51 111q28 71 57 117l-4 6l6 -2l7 8l2 27l12 -7l26 -12v-2q33 -10 82 -20v-13l97 -96v-16l-4 -11 q-39 -43 -95 -149q-13 -29 -53 -100q-2 -4 -47 -68q-82 -122 -117 -191l-22 -47q80 80 151 113q53 13 121.5 -37.5t95.5 -89.5l-2 2l4 -8l62 -59q16 -16 22 -25l7 -12l4 -2q39 -56 55.5 -84t29 -74.5t9.5 -104.5q-5 -136 -48.5 -260.5t-133.5 -197.5q-70 -58 -127 -58 q-56 0 -101 45l-71 70q-61 37 -100 129.5t-46 185.5l-4 70q-6 61 -6 141q0 49 2 74q-95 -237 -180 -377q-33 -53 -107 -215l-51 -116l-80 8q-37 0 -67 6l-95 94q-8 0 -20 4q53 82 90 187q0 1 2 4t2 4q33 94 62 139v-2l90 172q-37 -21 -78 -21q-70 0 -152 82l-59 60 q-55 39 -100 102q-66 93 -66 217zM63 951.5q-2 -58.5 13.5 -110t48.5 -96.5q130 -191 263 -120q97 52 167 221q66 163 63 315q0 38 -6 68q-6 45 -34.5 105t-71.5 112.5t-95 74.5t-106 -8l4 3q-39 -17 -76 -60t-63.5 -97t-44.5 -102t-29 -90q-16 -64 -23.5 -110.5t-9.5 -105z M214 1053q-1 58 6.5 115t21 103.5t42.5 70t68 12.5l17 -4q26 -12 44 -34.5t28.5 -56.5t14.5 -56.5t9 -63.5q13 -64 16.5 -123.5t-13.5 -125t-60 -99.5q-47 -43 -84.5 -34.5t-61 41.5t-35.5 85q-5 23 -8.5 67.5t-4.5 102.5zM289 23q14 -1 36.5 -3t41 -3.5t36.5 -4.5 q16 34 45.5 103t55 122t53.5 99q53 87 98.5 184.5t99.5 228.5t81 191q20 43 45.5 84.5t65 98.5t52.5 77q13 21 63 116t87 136v4q-45 9 -82 27q-25 -32 -63 -121t-56 -121q-104 -192 -340 -586q-79 -127 -182 -325q-27 -45 -65.5 -150.5t-71.5 -156.5zM332 948 q0 -112 10 -164h2v-8q24 7 49 29q68 57 68 188q0 51 -17 142q-17 95 -20 104q-92 -10 -92 -291zM870 486.5q1 -34.5 5.5 -90t5.5 -77.5q4 -53 18 -107.5t40.5 -104t61.5 -78.5t85.5 -24t107.5 52q86 70 128.5 193t47.5 256q3 58 -11 105.5t-30 73.5t-61 89q-24 35 -81 77.5 t-102 25.5q-41 -15 -97.5 -63t-78.5 -85q-18 -33 -27.5 -73t-11 -87.5t-0.5 -82zM972.5 508.5q-0.5 27.5 2 68.5t14.5 74t33 60q37 53 52 64q29 22 54 -1l17 -10q42 -34 60 -91.5t16 -113.5t-4 -115q0 -135 -12 -191q-18 -78 -62 -106q-24 -15 -44.5 -18.5t-35 5t-27 22.5 t-20.5 36.5t-14 43.5t-10 47t-6 44t-3 38q-1 17 -5.5 66.5t-5 77zM1051 1491q3 -1 8 -4t8 -4q0 2 2 2zM1090 430q0 -3 6 -108q4 -36 4 -60q6 -83 12 -106l21 10h-3q16 11 28.5 28t19 43t11 45t6 53t1.5 47v46v16q4 66 4 103q0 56 -16 115q-12 -9 -41 -52l-6 -10 q-47 -62 -47 -170z" />
<glyph unicode="&#x26;" horiz-adv-x="1122" d="M33 428q0 130 52.5 267t139.5 177q-1 2 -3.5 6.5t-4.5 6.5l-14 18q-38 57 -64 129q-20 59 -20 121q0 146 137 277q88 88 143 100l-2 -2q37 26 70 26q42 0 87.5 -33t82.5 -85l55 -54q53 -53 91 -128t40 -126q4 -131 -85.5 -248t-215.5 -169q3 -40 27 -84l57 -47 q62 -46 96 -80q27 55 52 178q20 104 51 182q49 -8 147 -8v-12l97 -97q7 -276 -84 -446l-43 -55q-37 -47 -37 -54v-4q53 -48 73 -82l60 -57q73 -73 82 -151q-33 -9 -114 0t-107 24l-2 2l-17 14l-76 74l-10 6h2q-26 15 -47 49l-43 -26q-109 -72 -176 -88q-129 -25 -244 90 l-53 53q-68 46 -116 121t-60 149q-4 36 -4 66zM54 469q-2 -57 3 -102q10 -56 42 -113.5t77 -104t106.5 -71t123.5 -12.5q51 13 150.5 74t123.5 73q11 -18 28.5 -60.5t35.5 -74.5t40 -45q25 -15 96.5 -25t100.5 -2q-2 16 -7.5 31.5t-10.5 27.5t-15.5 26.5t-17 22.5t-21 22.5 t-20.5 20t-23.5 21t-21.5 19.5q-1 1 -17.5 16.5t-27 26t-21 26t-10.5 25.5q0 11 38.5 56.5t43.5 58.5q89 167 82 425q-72 0 -115 7q-20 -48 -46.5 -180t-63.5 -193q-26 29 -69 64t-79 63.5t-71 63t-57 77.5t-25 92q126 48 215.5 162t85.5 244q-2 44 -31 106.5t-73.5 114.5 t-96.5 73.5t-100 -16.5q-52 -10 -136 -94q-58 -57 -89.5 -112t-40 -123t19.5 -142q10 -30 25 -58.5t37 -66t32 -55.5q-44 -11 -82 -52t-60.5 -96.5t-39 -119.5t-18.5 -121zM205 498q5 57 35.5 162.5t56.5 95.5l16 -6q12 -18 41.5 -53t60.5 -72t66.5 -81.5t61 -87t42.5 -83 t13.5 -75t-29.5 -56.5q-65 -58 -132 -50t-120 53t-84.5 115.5t-27.5 137.5zM297.5 1136.5q2.5 51.5 15.5 100.5t42.5 90.5t66.5 54.5l-10 -4q21 5 37 -2.5t25.5 -18t17.5 -33t10.5 -33.5t7.5 -34q10 -45 13 -77t-5 -71.5t-31 -70.5q-36 -58 -89 -55t-85 68 q-18 34 -15.5 85.5zM322 393q-6 -82 34 -155q46 -27 90 -27q55 0 109 45q23 23 23 53q0 92 -195 324q-18 -24 -37 -110.5t-24 -129.5zM414 1006q29 7 57 45q33 47 33 104q0 22 -12 88q-37 -31 -57.5 -90.5t-20.5 -120.5v-26zM823 236q9 -14 17 -19h2z" />
<glyph unicode="'" horiz-adv-x="399" d="M31 1516l43 20l2 2q28 8 80 8q9 0 114 -12l-4 -10l99 -97q-57 -219 -50 -475q-85 6 -114 35l-82 80q-30 14 -42.5 41.5t-19.5 81.5q-8 44 -12 158q-3 74 -14 168zM53 1503q7 -51 12.5 -155.5t12.5 -155.5q8 -71 29.5 -94t91.5 -27q-7 244 45 447q-34 8 -87 8t-75 -8z" />
<glyph unicode="(" horiz-adv-x="606" d="M29 696q0 384 155 707l15 31q2 5 22.5 51.5t34.5 79.5l10 47q0 14 2 20q0 4 1 14t1 11l23 -4q28 -5 35 -8q80 -22 118 -48l-4 -10l99 -96q-103 -284 -156 -639q-12 -94 -12 -176q0 -188 94 -516q29 -91 43 -150q30 -123 61 -207l-59 -10q-60 -11 -102 -8q-45 6 -66 27 l-84 84q-36 18 -57 77q-8 8 -8 17q-135 269 -162 565q-4 45 -4 141zM53 557q22 -277 154 -547q6 -12 14 -31t11.5 -26.5t11 -18.5t15.5 -15.5t20.5 -9.5t29.5 -7q20 -3 43.5 -0.5t53.5 8.5t43 8q-22 60 -53 176t-46 164q-63 212 -84 362.5t2 335.5q52 356 152 631 q-19 11 -129 45q-11 -62 -15 -73q-25 -66 -73 -164q-181 -381 -150 -838z" />
<glyph unicode=")" horiz-adv-x="606" d="M35 -100q36 97 63 215q13 54 43 149q95 337 95 514q0 74 -13 176q-27 180 -62.5 330t-94.5 313q38 27 116 45l41 13q7 0 19 6l2 -19l94 -94l4 -37v-2q4 -34 8 -47h2q39 -99 72 -164q156 -325 156 -704q0 -85 -5 -141q-27 -288 -159 -559l-10 -23q-9 -23 -15 -34t-17 -24 t-27 -19t-40 -9q-36 -5 -102 8l-60 10l-94 95zM63 -82q13 -2 43 -8t53.5 -8.5t43.5 0.5q21 3 34 7t23.5 16.5t14 18t14.5 31t16 35.5q132 270 154 547q31 457 -150 838q-48 98 -73 164q-4 11 -15 73q-110 -34 -129 -45q100 -275 152 -631q23 -185 2 -335.5t-84 -362.5 q-15 -48 -46 -164t-53 -176z" />
<glyph unicode="*" horiz-adv-x="763" d="M29 1348l75 -11l37 -6h2q37 -7 62 -8l-25 33l-16 18q-59 64 -74 109l19 18q56 70 98 70q34 0 72 -35q5 -6 28 -37l55 -55q29 62 50 139q81 -13 176 -76l-8 -6l98 -98q-52 -42 -84 -74q14 0 22 2l21 -24q0 -1 -1 -2t-1 -2l82 -80l16 -19q-10 -35 -16 -49l-23 -72 q-50 24 -110 47q-41 14 -47 17l32 -57q40 -82 84 -138l4 -2q-91 -37 -147 -102l-98 96q-2 -1 -9 -8q-3 36 -12 70l-22 -33q-42 -60 -56 -90q-36 14 -77 41l-21 4l-94 94l-17 4q18 49 56 100l-97 95h-10l-8 53zM57 1323q5 -16 9 -45t6 -37q28 2 103 19.5t120 13.5 q-13 -34 -46.5 -73.5t-67.5 -80t-48 -76.5q48 -33 72 -40q12 22 59.5 94t65.5 116q80 -136 88 -229q37 42 114 74q-29 36 -72.5 115.5t-62.5 107.5q28 -14 90.5 -37t94.5 -39q4 19 16.5 53.5t17.5 51.5q-20 -2 -42 -2.5t-37 -0.5t-40.5 3t-36 4.5t-40.5 6t-39 5.5 q82 105 170 176q-74 49 -125 58q-21 -85 -70 -172q-8 11 -39.5 60.5t-52.5 72.5q-30 27 -56 27t-39.5 -12t-43.5 -47q-7 -7 -10 -11q13 -34 63.5 -89.5t63.5 -89.5q-19 1 -185 23zM219 938l17 -14l-17 16v-2z" />
<glyph unicode="+" horiz-adv-x="1169" d="M16 555v31q-1 37 2 57t15.5 39.5t41 26.5t75.5 6l86 -6q124 -9 165 -9q45 0 68 2q0 48 4 150q4 110 4 184q0 53 -2 80v27q8 9 84 17.5t117 8.5v-12l96 -96l-8 -393h41q34 0 104 4q83 4 127 2l19 -19v-10l96 -94q5 -88 -16 -113.5t-107 -29.5q-21 0 -35 -2 q-2 0 -50.5 -3.5t-72.5 -3.5q-70 0 -122 17q12 -47 12 -117q0 -32 -4 -94q-4 -36 -4 -53q-2 -16 -2 -50q0 -29 -1.5 -48t-7.5 -41.5t-16.5 -35t-31 -20t-48.5 -4.5q-36 6 -59 29l-78 77q-74 35 -74 177q0 57 12 147q0 3 1.5 11.5t1.5 11.5v10q-11 -1 -24 -1t-28.5 0.5 t-23.5 0.5q-41 -2 -135 -2q-78 0 -111 2l-96 94q-2 0 -6.5 1t-6.5 1q0 5 -1 21t-1 22zM37 618.5q0 -11.5 1 -39.5t1 -47q69 -4 220 -0.5t220 0.5q2 -25 -5 -85t-13 -118.5t-5.5 -117t22.5 -97.5t67 -44q32 -5 51.5 4.5t26.5 29t10 45t1 53.5t1 54q1 13 4.5 68t3.5 80.5 t-5 67t-17 73.5q24 -13 51.5 -20.5t69 -8t58 -0.5t71.5 4l55 4q76 3 94.5 26t13.5 103q-41 1 -123 -3.5t-146 -1t-120 21.5l10 479q-35 0 -95 -4.5t-64 -9.5v-17q3 -83 -2 -235t-5 -199q-93 -3 -113.5 -3.5t-112 6t-113.5 7.5q-30 1 -50 -0.5t-32.5 -9t-19.5 -14t-9 -23.5 t-2 -28.5z" />
<glyph unicode="," horiz-adv-x="604" d="M39.5 -293.5q-0.5 16.5 3 33t7 29.5t11 30t13 27.5t14.5 28.5q17 31 29 65q0 2 2 6.5t2 5.5q41 139 41 226q0 33 -8 69l16 29l12 8h-2q70 30 213 25q6 0 26.5 -1t31.5 -1h53q-10 -10 -12 -11l98 -98q-149 -121 -187 -260q-12 -53 -49 -162q-37 -112 -51 -180q-47 8 -96 4 q-7 0 -27.5 -1t-27.5 -1l-97 96h-12q-3 16 -3.5 32.5zM61 -305q14 0 40.5 1.5t47.5 1.5t39 -3q12 54 49.5 165.5t49.5 164.5q37 138 162 241q-18 0 -63.5 1.5t-70.5 1t-61.5 -5.5t-65.5 -17l-12 -23q22 -111 -35 -297q-4 -14 -45.5 -102t-34.5 -129z" />
<glyph unicode="-" horiz-adv-x="698" d="M39 602l45 29l6 -4q31 18 152 18h47q27 -2 78 -2q120 0 192 -25q-2 -4 -2 -10l96 -96q-10 -49 -10 -143q-74 -43 -160 -43q-13 0 -28 1t-33 2.5t-29 2.5l-65 6h-41q-30 -4 -60.5 -1t-48.5 21l-90 91q-23 10 -35 34q-11 16 -6 70q0 12 4 20q-1 5 -6 16t-6 13zM59 590 q6 1 7.5 -6t1 -19t-1.5 -25t0.5 -26t5.5 -20q8 -16 20 -25.5t29.5 -12.5t32 -3t37.5 1t36 1q23 -1 63 -5t63.5 -5t55.5 0t60.5 9.5t56.5 24.5q0 81 9 125q-33 11 -74.5 15t-95 4t-78.5 2h-18.5h-25h-28h-30t-28 -1t-25.5 -2t-20.5 -2t-14 -3t-3.5 -5z" />
<glyph unicode="." horiz-adv-x="567" d="M39 188q-7 81 25.5 147t105.5 89q56 8 84 0q75 -5 125 -86l70 -68q64 -67 75 -180q8 -101 -41 -154t-125 -53q-83 0 -147 64l-66 63q-43 26 -71.5 72t-34.5 106zM59 190q10 -113 101 -165.5t174 -6.5t74 172q-7 79 -48 144.5t-110 68.5q-17 8 -70 0q-68 -21 -98.5 -80 t-22.5 -133z" />
<glyph unicode="/" horiz-adv-x="765" d="M12 -20q13 69 58 176q0 6 6 12q20 45 30 88q35 100 87 340l8 41q33 158 53 227q74 252 152 443l10 39q4 8 4 10l6 16q36 110 61 137q21 19 72.5 32t99.5 9l-4 -12l99 -96l-13 -58q-36 -132 -53 -174h-2q-65 -184 -156 -516l-53 -186q-33 -108 -57 -197q-71 -243 -82 -274 q-17 -49 -29.5 -74t-35 -41t-41 -21t-66.5 -14l-43 -4l-98 99zM37 0q88 17 106 25q33 15 57 66q9 19 21 52q30 87 75.5 250t63.5 221q18 62 61.5 218t77.5 269t72 218q25 65 64 213q-34 3 -74.5 -9t-58.5 -28q-14 -15 -27.5 -47t-30.5 -87t-20 -63q-78 -190 -150 -440 q-23 -81 -66 -290.5t-81 -317.5q-9 -30 -45 -115.5t-45 -134.5z" />
<glyph unicode="0" horiz-adv-x="987" d="M35 723q0 168 26 317q38 191 68 269q69 178 211 224q58 18 131 17q75 -10 141 -65q47 -41 76 -82l55 -55q44 -44 76 -113q94 -196 115 -334q20 -140 20 -254q0 -322 -176 -534l-2 -2l-31 -41q-24 -32 -33 -43.5t-33.5 -40.5t-38.5 -41t-39.5 -30.5t-46 -23.5t-47 -5 t-52.5 10l-2 2q-38 13 -82 57l-66 63q-63 49 -118.5 138t-88.5 172q-63 158 -63 395zM56 807q-6 -117 8 -246.5t53 -224.5q114 -278 241 -324q25 -10 49.5 -9.5t45.5 7.5t43 22.5t39 31.5t37 39.5t33.5 41.5t31 42t27.5 36q68 79 109 173t54 196.5t10 199.5t-20 209 q-25 157 -112 330q-20 45 -40.5 74.5t-64.5 64.5q-26 22 -59 37t-53 19l-19 4q-83 2 -146.5 -29t-99 -66.5t-67 -118t-41.5 -124t-30 -143.5q-2 -9 -3 -13q-20 -112 -26 -229zM231.5 785.5q-1.5 84.5 2 164t17 162t36.5 142.5t63.5 96.5t95.5 33.5l35 -6q53 -39 93.5 -136.5 t58.5 -194t18 -170.5q0 -89 -3 -154.5t-12.5 -153.5t-33.5 -164t-61 -135q-75 -111 -167 -13q-67 71 -109 203q-16 51 -19 87q-5 43 -9 98.5t-5.5 140zM348 733q0 -163 14 -287q12 -101 74 -210q9 -3 21 -3q31 0 67 50h-2q36 58 59.5 132t33.5 160t13 151t3 151 q0 78 -25 191.5t-67 197.5q-54 -5 -93 -54.5t-59.5 -130t-29.5 -166.5t-9 -182z" />
<glyph unicode="1" horiz-adv-x="692" d="M16 1331l13 25q86 68 233.5 127.5t265.5 66.5v-14l97 -94l8 -139q14 -224 14 -283q0 -78 -10 -180l-12 -117q-41 -434 -47 -639v-64q1 -29 0 -43t-7.5 -31.5t-22.5 -28.5t-44 -21q-42 -11 -64 -11q-46 0 -75 29l-78 78q-46 16 -64 78q-12 38 -12 94q0 71 25 198l6 35 q16 94 16 125q4 146 16 406q0 12 2.5 44t2.5 44q4 70 4 98l-17 -6q-62 -26 -123 -68l-98 99l-8 -6q-12 75 -12 143q0 37 6 55h-15zM39 1331q-11 11 5 -115q4 -35 7 -49q24 17 124 64.5t134 87.5q-3 -130 -15 -395.5t-15 -401.5q0 -39 -11 -105t-21.5 -119.5t-14 -119 t11.5 -102.5q19 -52 55.5 -67t97.5 3q32 10 46.5 25.5t16.5 36t1 49t0 65.5q1 61 5 130.5t7 117t11 135.5t10.5 116.5t13 135t12.5 121.5q8 74 9 156.5t-1.5 133.5t-10 152.5t-9.5 143.5q-106 -7 -243.5 -64.5t-219.5 -122.5z" />
<glyph unicode="2" horiz-adv-x="987" d="M47 -4q-3 43 18.5 88.5t46 74t68.5 72.5q65 69 92 111v-2q69 141 110 230t93 224t80 250q12 50 12 95t-18 82l-29 10h-2q-46 9 -93.5 -4t-95 -47t-80 -63t-77.5 -75l-98 99l-11 -11q0 189 7 273q51 52 188.5 99.5t222.5 47.5q179 3 271 -137l55 -55q111 -111 111 -324 q0 -90 -23 -180q-59 -214 -133 -374.5t-193 -291.5q19 0 107 5q149 3 170 -62l82 -80q20 -20 20 -55q0 -40 -37 -113l-94 6q-137 9 -184 9q-49 0 -74 -2q-78 -3 -174 4q-129 6 -137 6q-11 0 -92 -6l-99 98q-2 0 -5.5 -1t-4.5 -1zM66 18q71 6 203.5 -1.5t187.5 -4.5 q30 3 88 1.5t86.5 -3t85 -5.5t84.5 -5q27 53 30.5 88t-15 54t-52.5 25.5t-88 4.5q-180 -9 -350 0q179 149 280.5 338t171.5 451q19 73 22.5 151t-13.5 154t-53 135t-101 95t-152 34q-83 0 -214 -43.5t-177 -91.5q-6 -72 -6 -215q42 43 72.5 70t76 57.5t93 40.5t96.5 0 q212 -47 153 -310q-40 -168 -108.5 -330t-175.5 -376q-17 -29 -58 -74t-77 -81t-64 -80.5t-26 -78.5zM614 1186l2 -2q0 2 -2 2z" />
<glyph unicode="3" horiz-adv-x="960" d="M113 1214q0 195 6 254l18 -6q2 2 2 4q42 51 195 72q67 12 151 12q209 0 285 -129l61 -59q59 -59 76 -156q11 -64 11 -98q0 -38 -6 -69.5t-22 -60t-29.5 -48.5t-44 -47.5t-49.5 -42.5t-60 -47l-21 -17l25 -35l39 -36l10 -11q66 -66 117 -207q41 -139 41 -245 q0 -209 -170 -289q-55 -27 -146 -47.5t-174 -20.5q-127 0 -176 49l-78 76q-59 32 -59 101q0 36 32 108q149 -65 207 -59q56 5 98.5 48.5t62.5 103.5t20 124q0 35 -13 82q-18 56 -57 107q-12 7 -12 8q-39 22 -56 39l-65 63q-36 21 -50.5 38.5t-22 55.5t0.5 99q74 -15 147 24 t117.5 108.5t44.5 141.5q0 23 -10 53q-37 13 -72 13q-71 0 -146 -38.5t-120 -99.5l-98 99zM133 1278q27 36 75.5 63t105 37t111 5t97 -35t58.5 -82q19 -61 -1 -132t-64 -126t-108.5 -86.5t-127.5 -18.5q-1 -17 -0.5 -30.5t0 -24.5t3 -21t4.5 -16t8.5 -14t9.5 -11.5 t14.5 -11.5t16.5 -11t21.5 -13.5t24.5 -14.5q55 -36 99.5 -92.5t62.5 -118.5q11 -41 12.5 -90t-13.5 -100t-38 -93t-62 -70.5t-86 -31.5q-60 -6 -198 54q-68 -145 74 -180q110 -27 286 15q75 18 121 40q61 29 98.5 75.5t51 96t12 113.5t-12 116t-28.5 117 q-36 105 -88.5 172.5t-141.5 97.5q23 18 64 49.5t60 46.5t49.5 42.5t43 46.5t29 49.5t20.5 60.5t4 69.5t-9 86.5q-12 68 -45.5 115t-76.5 70.5t-101.5 32.5t-112 6t-117.5 -13q-31 -4 -56.5 -8.5t-68 -13.5t-64.5 -22t-16 -28l6 12q-6 -59 -6 -180z" />
<glyph unicode="4" horiz-adv-x="1132" d="M8 418q41 70 123 198q143 229 223 388l49 110q67 147 78 170q33 60 62 107v-2l6 8q48 68 84 141h180v-12l96 -96q-2 -89 -18 -197q-17 -140 -17 -203q0 -47 5 -86q6 -78 14 -248l8 -133h2q62 -8 107 -8q0 -8 -2 -12l98 -97q-8 -51 -27 -90h2l-14 -37l-18 -10 q-100 23 -136 25q-4 -37 -4 -105q0 -49 4 -143q4 -133 2 -197q-112 0 -184 -8l-98 99q-2 0 -5.5 -1.5t-4.5 -1.5l-9 121q-8 114 -8 187v32h-6q-30 0 -92 -4t-88 -4h-68q-13 0 -40 -1t-42 -1q-56 0 -147 12l-94 95zM45 432q42 -5 83 -6.5t107.5 -0.5t81.5 1q26 0 100.5 6.5 t125.5 2t92 -26.5q-6 -44 -7 -101t1 -98.5t6.5 -109t5.5 -99.5q53 6 158 6q2 51 -4.5 221.5t4.5 223.5q49 0 151 -25q2 7 17.5 47t19.5 62q-30 0 -95 9t-99 9q-6 82 -15.5 245.5t-15.5 245.5q-10 95 9.5 261.5t21.5 212.5h-148q-23 -46 -74 -124t-71 -118 q-27 -52 -69.5 -151t-57.5 -130q-46 -92 -98 -182t-123.5 -205.5t-106.5 -175.5zM317 590q34 77 98.5 204.5t90.5 184.5q111 232 135 285h6q-17 -96 -19.5 -204t2.5 -257.5t5 -206.5v-6q-40 -15 -157 -5t-161 5zM487 604q25 -2 70 -2q34 0 57 4q0 60 -4 178q-2 18 -2 56 q-42 -86 -73 -144z" />
<glyph unicode="5" horiz-adv-x="890" d="M57 51q-17 34 2 144q0 2 1 5.5t1 4.5q7 35 7 88q52 -33 139.5 -71t134.5 -42q58 15 109.5 88t76 160.5t15.5 149.5q-11 35 -37 67q-114 62 -299 74l-96 94q-2 0 -6.5 1t-6.5 1q-14 85 -14 176q0 62 8 180q0 33 2 41q0 5 1 20.5t1 20.5q0 59 -6 230l-10 4q6 12 6 16l10 25 l8 -4q27 13 89.5 19.5t105.5 6.5q37 0 115 -4q39 -2 114 -2q22 0 58 4q33 1 59 2t46.5 -10t29.5 -37l80 -80q23 -23 26 -84q0 -29 -8.5 -48.5t-19 -30t-33.5 -15.5t-39 -5.5t-49 -0.5t-51 -2q-43 0 -117 -4q-29 -2 -90 -2q12 -58 12 -115q0 -32 -4 -72q0 -7 -2 -24t-2 -23 q-6 -27 -6 -49q27 -11 74 -22l26 -6q70 -19 115.5 -43t75.5 -74l69 -68q49 -49 68 -141q8 -41 8 -100q0 -149 -55 -312q-44 -125 -161 -209.5t-249 -89.5q-160 0 -209 49l-76 76q-32 16 -47 43zM71 116q-3 -30 5 -57q29 -59 211 -59q132 5 244 84.5t151 204.5q78 233 47 405 q-13 67 -41.5 108t-68.5 60t-80.5 29t-93.5 27t-93 43q-21 12 -32.5 25.5t-14.5 33.5t-3 34.5t4 46t5 48.5q11 111 -12 199q35 0 110 3t113 3q18 1 48 1.5t46 1t37 5t31.5 13t18.5 25.5t8 42q-1 30 -9.5 49t-19.5 27.5t-30 11t-35.5 1t-43 -4t-45.5 -2.5q-38 0 -114.5 3 t-114.5 3q-109 0 -169 -13q-23 -4 -19 -10q6 -223 6 -254q-1 -26 -5.5 -99t-5.5 -111t1 -97.5t10 -109.5q387 -23 446 -252q16 -66 -8 -162.5t-82 -175t-127 -86.5q-47 -4 -124 27.5t-134 66.5q0 -14 -7 -61t-10 -77zM104 1489l7 18l-1 -1q-2 -2 -3 -4q0 -5 -3 -13z" />
<glyph unicode="6" horiz-adv-x="929" d="M29 653q0 199 57 338q43 101 109.5 194.5t151 171t189.5 130t214 65.5l-2 -12l98 -96l-10 -193q-95 10 -205 -66.5t-189 -191.5q3 0 9.5 1t9.5 1q43 0 74 -10q88 -30 159 -121l66 -65q46 -47 77 -109t40 -123q8 -86 8 -161q0 -147 -31 -274t-102 -187q-82 -62 -179 -62 q-135 0 -256 121l-47 45q-75 56 -131 139.5t-78 169.5q-32 131 -32 295zM52.5 566q7.5 -109 29.5 -201q28 -118 116 -219.5t204.5 -136.5t238.5 50q48 41 78.5 119t39.5 169.5t9 171.5t-8 149q-14 99 -78 185.5t-154 111.5q-29 9 -56 11t-53 -5.5t-45 -15t-45.5 -27.5 t-41.5 -32t-45 -38q-2 72 44 165.5t115.5 171.5t157 129.5t160.5 45.5l10 160q-103 -13 -201.5 -63t-177.5 -125.5t-141.5 -167t-104.5 -191.5q-34 -80 -46.5 -194t-5 -223zM319 233q-176 533 72 601l119 -23q32 -40 55.5 -115.5t32.5 -140.5q52 -226 -16 -365 q-35 -62 -74 -86.5t-74 -13t-65 48.5t-50 94zM362 492q0 -138 74 -357l8 -26h13q56 0 106 90q35 71 35 178q0 84 -20 172q-12 77 -41 160l-39 8q-71 -22 -103.5 -82t-32.5 -143z" />
<glyph unicode="7" horiz-adv-x="1067" d="M51 1333q0 24 9.5 73t21.5 79l-2 2l-10 -2l-4 22q-16 32 23.5 38t88.5 -5q2 0 6 -1t6 -1q30 -6 46 -6q56 -4 163 8l47 4q70 6 207 6q132 0 312 -8l-9 -12l99 -96l-72 -115q-75 -110 -117 -201q-126 -311 -235 -745l-8 -31q-2 -6 -12 -44t-12.5 -46.5t-12 -41t-14 -45.5 t-14 -41.5t-17 -46.5t-18 -42t-21.5 -47l2 -2q-1 -4 -4 -9.5t-4 -9.5q-19 -41 -29.5 -49t-56.5 -22q-40 -11 -113 -7h-49l-96 97h-13q-7 69 5 149t28 134.5t45 138.5q34 100 47 151q24 95 67 202t76.5 175.5t95.5 189.5q4 7 6 11t5 10.5t6 11.5l39 76h-4q-70 -2 -211 -2 q-129 0 -184 4l-97 94q-2 0 -6 1t-6 1zM72 1354q81 -5 176.5 -5t214 2.5t180.5 2.5q-34 -69 -99 -194t-103 -201.5t-83.5 -189t-72.5 -216.5q-12 -44 -53 -164.5t-61.5 -213.5t-12.5 -169q12 0 36 -0.5t39 -1t35 1.5t35 6q46 13 54 21q6 5 26 51l4 8q9 19 17.5 39t15.5 36.5 t15 39.5t13 37t12.5 40t11 37t11.5 40.5t10 38t10.5 40.5t10.5 39q99 416 238 748q22 49 50.5 97t67 107.5t58.5 92.5q-315 12 -479 0q-13 -1 -69 -7.5t-71 -6.5t-73 1q-4 0 -92 14q-61 10 -62 -1q0 -3 2 -6l6 -19q-3 10 -10 -40q-8 -68 -8 -105z" />
<glyph unicode="8" horiz-adv-x="962" d="M51 463q9 97 57 212t117 154q-69 73 -117.5 167t-48.5 184q0 43 17 92q33 87 136.5 181t197.5 97q35 8 123.5 -34t169 -99t96.5 -90l71 -72q18 -18 25 -32q16 -36 16 -88q0 -101 -60 -213.5t-140 -163.5l34 -35l13 -10q73 -73 120 -193t44 -215q-5 -133 -71 -244 t-183 -153q-59 -19 -119 -19q-155 0 -268 113l-54 51q-39 27 -63 58q-58 66 -88.5 164.5t-24.5 187.5zM72 461q-9 -86 19.5 -178.5t86.5 -157.5q76 -80 178.5 -107.5t204.5 7.5q79 25 134.5 86.5t81 136t28.5 160.5q3 74 -26 166t-85 172t-121 112q50 21 98.5 76t78.5 122 t41.5 138.5t-11.5 124.5q-13 31 -92.5 89.5t-164 98.5t-107.5 23q-89 4 -188.5 -87.5t-131.5 -176.5q-19 -61 -13.5 -120.5t35.5 -122.5t65.5 -112t76.5 -90q-75 -24 -129 -143.5t-59 -216.5zM262 379q-4 80 11 158t56 134t97 50q39 5 86.5 -39.5t78.5 -95.5t48 -94 q57 -185 -59 -267q-51 -34 -105.5 -44.5t-105 9t-78.5 70.5q-25 39 -29 119zM285 1063q-16 71 9 178q31 131 94 156q47 19 104 -31l-31 -6q61 7 115 -54.5t63 -136.5q11 -102 -63 -179q-63 -66 -142 -68q-88 -3 -130 82q-12 26 -19 59zM377 307q0 -70 12 -102q21 -6 45 -6 q68 0 133 43q70 51 70 139q0 32 -16 102q-36 75 -66 117q-10 4 -27 4q-47 5 -83 -42t-52 -115t-16 -140zM397.5 1050.5q-5.5 -54.5 3.5 -87.5l5 -19q8 -2 24 -2q69 0 128 69.5t60 155.5q-9 38 -28 74q-10 2 -27 2l-43 43h-4q-35 0 -62 -38t-39 -90.5t-17.5 -107z" />
<glyph unicode="9" horiz-adv-x="1042" d="M131 987q0 165 75 324.5t193 226.5l41 16q81 -9 166 -38q96 -38 125 -57q39 -27 64 -68l67 -66q29 -29 49 -76q99 -205 99 -489q0 -216 -64 -393q-21 -52 -56 -100.5t-84 -92t-88 -73.5t-97 -70l-33 -23l-27 -20l-2 2q-5 -4 -16 -13t-17 -14.5t-18 -15t-19 -15t-19 -14.5 t-18.5 -12.5t-18 -10t-16.5 -7t-15 -4t-13 0.5q-10 5 -20 15l-82 82h-2q-19 8 -32 26.5t-19.5 37.5t-10 49t-4 46t-0.5 43v25l78 31q133 49 183 79q43 25 71 56q44 47 80 145q-46 -4 -70 -4q-41 0 -76 6q-83 14 -145 76l-64 61q-71 48 -108 135t-37 193zM153.5 1041 q-7.5 -100 11.5 -184t75.5 -144t144.5 -74q199 -27 332 98q-9 -27 -35 -119.5t-52 -154.5t-65 -103q-29 -31 -74 -58t-77.5 -40.5t-93.5 -35t-80 -29.5q0 -120 15 -159q10 -25 26 -32q18 -6 49 9t55 33t56 45t36 30q8 6 43 30.5t47 33.5l44 33t46.5 37t41.5 36.5t42 42 t34 42t32.5 48t23.5 49.5q70 190 61.5 438t-95.5 433q-12 27 -29 48t-30.5 33.5t-41.5 27t-42.5 20t-53.5 20.5q-87 30 -158 39l-34 -14q-69 -39 -125.5 -117t-89 -170t-40 -192zM344 997q-1 43 3.5 95t19.5 114t39 109t67 73.5t98 14.5l-18 6q43 8 76 -27.5t49.5 -93 t24.5 -107.5t8 -85q0 -60 -17 -128.5t-57 -131.5t-94 -82q-43 -15 -75.5 -2.5t-55 36.5t-37.5 62.5t-22 74.5t-9 72zM461 895q4 -78 20 -125q23 -6 56 4q72 24 112.5 126t40.5 196q0 101 -35 192q-58 6 -100 -36.5t-61 -110.5t-27 -130.5t-6 -115.5z" />
<glyph unicode=":" horiz-adv-x="575" d="M45 227q9 94 73.5 151.5t143.5 57.5q46 0 86 -22t64 -64l61 -61l2 -2l8 -6q55 -55 47 -160q-4 -51 -23 -99t-58 -85.5t-89 -40.5q-29 -8 -77 0q-40 11 -72 43l-66 65q-57 28 -81.5 88.5t-18.5 134.5zM45 905q-7 81 25.5 147t105.5 89q56 8 84 0q75 -5 125 -86l70 -68 q64 -67 75 -180q8 -101 -41 -154t-124 -53q-84 0 -148 64l-65 63q-43 26 -72 72.5t-35 105.5zM66 225q-8 -74 22 -133t98 -80q53 -8 70 0q69 3 110 68.5t48 144.5q9 126 -74 172t-173.5 -6.5t-100.5 -165.5zM66 907q10 -113 100.5 -165.5t173.5 -6.5t74 172q-7 79 -48 144.5 t-110 68.5q-17 8 -70 0q-68 -21 -98 -80t-22 -133zM473 289q2 0 2 -2z" />
<glyph unicode=";" horiz-adv-x="620" d="M51 905q-7 81 25.5 147t105.5 89q56 8 84 0q75 -5 125 -86l70 -68q65 -68 76 -180q8 -101 -41 -154t-125 -53q-84 0 -148 64l-65 63q-43 26 -72 72.5t-35 105.5zM55.5 -293.5q-0.5 16.5 3 33t7 29.5t11 30t13 27.5t14.5 28.5q17 31 29 65q0 2 2 6.5t2 5.5q41 139 41 226 q0 33 -8 69l16 29l13 8h-2q70 30 213 25q6 0 26 -1t31 -1h53q-10 -10 -12 -11l98 -98q-147 -120 -186 -260q-12 -53 -49 -162q-40 -121 -52 -180q-47 8 -96 4q-7 0 -27.5 -1t-27.5 -1l-96 96h-13q-3 16 -3.5 32.5zM72 907q10 -113 100.5 -165.5t173.5 -6.5t74 172 q-7 79 -48 144.5t-110 68.5q-17 8 -69 0q-68 -21 -98.5 -80t-22.5 -133zM78 -305q14 0 40.5 1.5t47.5 1.5t39 -3q12 54 49 165.5t49 164.5q37 138 162 241q-18 0 -63.5 1.5t-70 1t-61 -5.5t-65.5 -17l-12 -23q22 -111 -35 -297q-4 -14 -45.5 -102t-34.5 -129z" />
<glyph unicode="&#x3c;" horiz-adv-x="1161" d="M6 475q0 123 19 158q26 51 137 117l35 20v-2q196 136 378 221l72 35l146 70q33 9 84 28l22 11q18 8 29.5 12t26 7.5t22 -0.5t8.5 -15l94 -95q5 -5 2 -14q13 -18 17 -94q4 -78 16 -117l-733 -321q0 -2 4 -2q32 -16 35 -17q45 -22 72 -31q198 -75 284 -124l17 -7 q39 -13 41 -14q91 -34 131 -68q16 -13 32 -38l76 -76q35 -35 35 -92q0 -18 -8 -68q-2 -10 -3.5 -23t-3.5 -31t-3 -30q-138 73 -216 119l-4 4q-176 98 -256.5 142t-227 116t-271.5 121l-92 90zM27 487q118 -47 255 -113.5t219 -110.5t250.5 -138.5t223.5 -124.5q1 22 7.5 62 t8 61t-7.5 48t-33 48q-22 19 -52.5 33.5t-70.5 28t-59 22.5q-85 48 -283 123q-23 9 -77.5 35t-96.5 40t-82 17v74l764 336q-5 18 -8.5 64.5t-6.5 85t-7 42.5h-8q5 14 -8 12q-11 -2 -46 -18q-18 -8 -24 -10q-63 -25 -90 -31q-29 -13 -211 -102q-156 -70 -375 -219 q-10 -6 -41.5 -25.5t-51.5 -32.5t-42.5 -33t-30.5 -36q-16 -29 -16 -138z" />
<glyph unicode="=" horiz-adv-x="1187" d="M47 401q0 5 6 86q0 4 1 15t1 14l934 -37l8 -2q10 -7 17 -24l86 -86q16 -18 30 -113q3 -21 13 -55q-67 4 -90 6q-36 4 -82 4q-153 -12 -457 -12q-314 0 -342 28l-90 90q-20 7 -23 15q-12 27 -12 71zM57 737l13 6q0 -2 2 -2q1 1 14 41q4 18 7.5 43t7 46t3.5 24q-3 2 -8 7 l-10 10l-4 6l934 -37q0 -3 1 -8.5t1 -8.5l94 -92q8 -44 8 -82q0 -106 -96 -119q-58 -10 -113 -10q-72 0 -223 21q-133 18 -223 18q-4 0 -17 -1t-22 -1q-23 -2 -86 -2q-133 0 -168 35l-82 80q-25 11 -33 26zM74 496q-15 -122 2 -154q17 -22 205 -26.5t360 0.5t225 10 q27 2 79.5 -4.5t74.5 -6.5q-2 6 -7 42.5t-11.5 66.5t-14.5 35zM76 748q8 -14 34 -22t64 -10t70 -2t70.5 1.5t47.5 1.5q62 1 258.5 -23.5t299.5 -5.5q44 7 64 32t19.5 60.5t-6.5 79.5l-901 37l-18 -109q-4 -34 -2 -40z" />
<glyph unicode="&#x3e;" horiz-adv-x="1163" d="M47 915q15 49 19 121q4 77 14 94q-4 25 20 25q15 0 66 -20l12 -9l-2 2l12 -6q48 -18 86 -28l146 -70l72 -35q143 -65 378 -221l33 -18q108 -61 139 -117l72 -72q13 -13 25 -33q18 -33 18 -151q-118 -46 -247.5 -108.5t-232.5 -118t-234 -127.5l-48 -27l2 -2 q-87 -51 -215 -119l-98 98l-10 -6l-4 45l-7 49q0 1 -1 4t-1 5q-6 30 -6 59q0 65 47 104q42 38 129 66l27 10l33 13q23 13 47.5 25.5t53 24.5t47 20t52.5 21t48 19l34 12q40 16 74 33q3 1 35 17q78 34 117 41l-641 282l-90 88zM74 928l764 -336v-74q-40 -3 -82 -17t-96.5 -40 t-77.5 -35q-198 -75 -283 -123q-19 -9 -59 -22.5t-70.5 -28t-52.5 -33.5q-24 -21 -33 -48t-7.5 -48t8 -61t7.5 -62q55 30 223.5 124.5t250.5 138.5t219 110.5t255 113.5q0 109 -16 138q-8 16 -30.5 36t-42.5 33t-51.5 32.5t-41.5 25.5q-219 149 -375 219q-182 88 -211 102 q-27 6 -90 31q-6 2 -24 10q-56 26 -56 12q1 -2 2 -6h-8q-4 -4 -7 -42.5t-6.5 -85t-8.5 -64.5z" />
<glyph unicode="?" horiz-adv-x="716" d="M29 1440l12 8l-8 27q116 77 235 77q40 0 90 -6q148 -26 201 -114l68 -68q59 -59 59 -168q0 -75 -22 -168q-16 -72 -86 -211q-30 -53 -64 -147q-22 -67 -22 -162q0 -12 1 -33t1 -33v-73q-46 0 -64 -2q-9 0 -30 -1t-31 -1q-54 0 -90 14l-93 92l-16 6q8 63 8 164q0 37 4 115 q7 97 36.5 158.5t96.5 134.5q83 93 68 204l-19 3q-18 4 -28 4q-78 0 -160 -56l-98 99l-8 -7q-15 39 -19 84q-2 6 -2 23l-6 37h-14zM55 1462q2 -2 2 -4q8 -22 14.5 -67t10.5 -60q51 35 119 43.5t127 -19.5t75 -93q26 -118 -73 -228q-64 -70 -92 -128.5t-35 -149.5 q-2 -36 -3 -126.5t-7 -137.5q26 -9 56 -10.5t72 1t56 2.5q0 19 -1 72t-0.5 78.5t5.5 66.5t16 74q17 47 74.5 167.5t75.5 191.5q15 64 20.5 113.5t-1 98t-29.5 83t-68 60t-113 36.5q-88 14 -155.5 0.5t-143.5 -62.5l-2 4q0 -4 2 -4zM59 1456q7 -7 7 -14zM121 199 q0 102 74 141q28 25 69 25q43 0 90.5 -22t73.5 -48q9 -9 29 -39l69 -68q56 -59 56 -133q0 -69 -46.5 -119.5t-115.5 -50.5q-60 0 -113 37l-20 17l-76 73l-10 8q-36 24 -58 75t-22 104zM146 245.5q-14 -58.5 5.5 -119t61.5 -89.5q43 -29 86.5 -33.5t76.5 11t56 45.5t31 67 t-4 78.5t-45 75.5q-21 21 -59.5 39.5t-80 23t-67.5 -19.5q-47 -20 -61 -78.5zM449 1221l2 -2q0 2 -2 2z" />
<glyph unicode="@" horiz-adv-x="1415" d="M49 535q-20 210 129 503q112 210 350 361q91 57 185 57q14 0 27.5 -1t29.5 -4t26.5 -5t30 -7t27.5 -7t30.5 -8.5t28.5 -8.5h-2q2 0 7.5 -2t7.5 -2q94 -31 154 -68t98 -100l53 -51q61 -61 88 -150q61 -169 61 -389q0 -108 -14 -200q-13 -78 -70.5 -141t-131 -94.5 t-142.5 -31.5q-80 0 -121 41l-74 74q-3 1 -8 4t-6 4q-44 -54 -101.5 -89.5t-105.5 -35.5q-49 0 -84 35l-73 72q-35 15 -56 53q-86 145 -86 277q0 25 8 79q-36 -125 -36 -223q0 -25 4 -57q14 -72 65 -146q25 -23 53 -41q67 -54 201 -83q65 0 123 8h-2q59 11 106 8 q32 -1 54 -15t28 -36l84 -82q17 -17 17 -39q0 -33 -37 -62q-35 -26 -123 -26q-31 0 -43 -2l-64 -8q-106 -13 -145 -13q-125 0 -209 70l-31 29l-51 49q-16 12 -24 20q-92 77 -157 215.5t-79 268.5zM70 537q15 -135 74.5 -266.5t152.5 -202.5q29 -25 63 -40t61 -21.5t71 -6.5 t67 2t75 9t71 9q11 2 47.5 2t66 4.5t45.5 18.5q41 32 29 64.5t-64 35.5q-33 3 -109.5 -9.5t-121.5 -6.5q-133 27 -209 90q-80 57 -142.5 136.5t-80.5 164.5q-16 113 28.5 270.5t132 297t185.5 196.5q73 39 174.5 38.5t192.5 -33.5t160 -101.5t79 -153.5q7 -68 -14 -235 q-37 -301 -123 -381q-50 -47 -111 -6q-33 22 -34.5 76t21 120t51 144t54 148t30 132.5t-20.5 97.5q-11 19 -55.5 29t-57.5 6q-10 -3 -27 -9.5t-67.5 -29.5t-97 -49t-105 -69t-103 -89.5t-80.5 -109.5t-47 -130t8 -151t73 -172q30 -50 83.5 -53.5t105 28.5t96 86t59.5 109 q17 0 41 -12q-51 -134 29 -187q64 -42 175 -13q117 32 189 118q47 58 59 125q47 315 -47 584q-35 109 -98.5 161t-183.5 89q-57 18 -82.5 25.5t-71 15.5t-75.5 4.5t-70 -17t-80 -39.5q-133 -83 -208.5 -157t-135.5 -193q-69 -134 -103.5 -251.5t-23.5 -241.5zM354 809 q37 71 102 136t131.5 107t127 74t99.5 46l38 14q15 4 69.5 -8.5t67.5 -34.5h-2q8 -11 10 -21l88 -86q9 -15 15 -30q0 6 -1 15t-1 11q-6 50 -39 98q-126 76 -268 76q-100 0 -170 -37h2q-76 -44 -147 -141t-122 -219zM434.5 566.5q-0.5 37.5 12.5 73.5t34 73t50.5 72.5 t60 67.5t64.5 61t62.5 51.5t55.5 40.5q5 -2 13 -7t25.5 -23t26.5 -39.5t5.5 -57.5t-27.5 -76q-4 -7 -15 -29q-131 -250 -216 -315q-86 -66 -135 37q-16 33 -16.5 70.5zM551 459q12 5 26 16t25.5 23t26.5 31t25.5 33.5t26 39.5t24 38.5t23 40.5t20 36.5t19 35.5t15.5 29 l17 29l14 29q-106 -83 -184 -183.5t-78 -189.5v-8zM952 420q56 27 90.5 149t49.5 273q-12 -45 -64 -187q-64 -162 -76 -235z" />
<glyph unicode="A" horiz-adv-x="1089" d="M27 0q65 120 96 346q12 120 24 164q48 219 105 416l6 20q64 239 76 291q8 24 26 104l11 50q4 18 45 174q66 -47 213 -47l18 -19v-8l96 -96q-1 -18 -1 -37q0 -127 30 -266q34 -160 98 -367q65 -220 72 -250q47 -185 123 -579q-55 14 -88 14q-19 0 -59 -4t-76 -4l-97 96 h-12q-9 51 -41 188q-29 112 -39 164q-11 0 -33.5 -1t-35.5 -1q-18 -2 -66 -2h-49q-16 -65 -27 -125q-34 -177 -57 -254q-1 -6 -5 -18.5t-5 -18.5q-6 -28 -12.5 -32.5t-40.5 -6.5q-2 0 -10 -1t-13 -1q-7 -1 -15 -1q-25 0 -51 8q-15 3 -18 -2l-76 10l-94 94zM59 18l45 -6 q7 4 17.5 1.5t34 -6.5t39.5 -1q9 1 21 1.5t15.5 1t10 1t7 3t3.5 4.5t3.5 7.5t2.5 11.5t4.5 16.5t5.5 21.5q24 74 52 220t34 171q12 -1 36 -1q42 0 120 2q29 1 54 1q76 0 102 -8q0 -81 39.5 -240t46.5 -201q20 0 59.5 3.5t72 3.5t60.5 -7q-67 354 -119 555 q-20 79 -62.5 221.5t-70 240t-48.5 226.5q-18 108 -18 201q0 18 1 35q-154 0 -199 33q-14 -48 -37 -149.5t-37 -149.5q-23 -99 -91 -344.5t-95 -380.5q-11 -52 -24 -157t-31 -186.5t-54 -144.5zM360 606q13 107 71.5 320.5t70.5 326.5q24 0 52 -139.5t55 -310t40 -207.5 q-13 0 -45 4t-65.5 8t-66 6.5t-53 -0.5t-20.5 -12zM498 633l75 -8q5 0 15.5 -2t15.5 -2q4 -1 8 -3t9 -2q-13 61 -21 117l-16 105l-11 63q0 1 -1 3.5t-1 4.5q-3 -12 -12 -45t-12 -49q-5 -19 -23 -83.5t-26 -98.5z" />
<glyph unicode="B" horiz-adv-x="954" d="M53 782q0 70 2 105q4 53 4 160v106q0 131 2 199q0 31 -2 37q-4 36 -4 59q0 30 6 41q1 17 15 28.5t41 16.5t51 6.5t59 1.5q56 0 74 4q74 8 125 8q104 0 191.5 -36t140.5 -111l63 -64q58 -58 78 -141q14 -61 14 -115q0 -110 -48.5 -203t-139.5 -134q7 -8 10 -15l68 -63 q110 -110 110 -305q0 -79 -18 -146q-17 -63 -49 -112t-70 -81.5t-91.5 -57.5t-103.5 -39.5t-116 -28.5h-2q-72 -15 -154 -15q-89 0 -112 23l-86 86q-16 4 -21 12q-27 21 -27 90q0 27 9 101q6 41 6 65q-4 104 -8 152l-4 71q-13 199 -13 295zM76 887q-2 -41 -2 -94 q0 -105 9 -261q14 -234 15 -268q0 -16 -8 -77q-6 -51 -6 -90v-15q2 -44 20 -59q16 -15 70 -19q22 -1 44 -1q32 0 62 3q52 5 78 12q82 16 141.5 36.5t118.5 55t99 89t61 129.5q17 63 19 129v15q0 58 -14 115q-16 64 -47 117t-84.5 91t-121.5 51q65 7 116.5 38t81.5 77 q31 45 50 103q18 53 18 109v9q-2 60 -14 118q-15 66 -50.5 113.5t-82.5 71.5q-47 23 -105 37q-49 11 -98 12h-18q-59 -2 -117 -8q-15 -4 -65 -4h-14q-5 0 -9 1q-57 0 -97 -6q-44 -6 -44 -26l10 -12q-13 8 -15 -14q-1 -3 -1 -10q0 -22 5 -85q1 -11 1 -18q-1 -35 -1 -106 q1 -52 1 -126v-57q0 -125 -6 -176zM94 12q0 -4 4 -4zM254 887q-3 39 -3 96q-1 77 5 185q10 189 10 212l17 6q21 -11 62.5 -22t79.5 -21t76.5 -26t65 -45t33.5 -70q3 -15 3 -31q-1 -45 -23 -93q-30 -66 -81 -116t-119 -74q-35 -12 -67 -12q-31 0 -59 11zM266 760l10 12v-4 q30 17 61 17q24 1 49 -9q58 -22 109.5 -72.5t88 -110t45.5 -104.5q5 -24 4 -49q-1 -66 -33 -132q-46 -92 -134 -142q-61 -35 -124 -34q-29 0 -59 7q7 48 7 119q0 82 -10 196q-10 121 -10 207q0 63 6 107q-4 -2 -10 -8zM367 905q91 26 159 118q57 77 56 148q0 14 -2 27l-5 12 q-33 13 -96 29q-55 13 -96 31q0 -62 -6 -148q-10 -165 -10 -217zM387 553q0 -89 10 -199q11 -168 11 -184q94 32 154 126q49 77 48 155q0 17 -2 34q-17 69 -86 154q-53 29 -84 29q-24 0 -45 -6q-6 -65 -6 -109z" />
<glyph unicode="C" horiz-adv-x="931" d="M29 621q0 114 14.5 226t45 224.5t87.5 207t133 151.5q72 45 164 83.5t172 38.5q102 0 148 -69v-4l77 -78q1 -1 19 -25v-22q7 -31 7 -77q0 -19 -1 -40v-57q-85 26 -139 26q-129 0 -218 -88.5t-128 -234.5q-64 -247 -64 -377q0 -128 47 -217q69 -38 283 -43q57 0 98 -4 q-2 -4 -2 -13l96 -96q-20 -111 -20 -250h-57q-64 0 -91 0.5t-80 5t-86 13.5t-76.5 27.5t-82.5 45.5q-46 34 -74 62l-53 53q-191 149 -215 399q-4 39 -4 132zM48 647q-1 -23 -1 -45q0 -59 6 -110q12 -133 66 -227.5t162 -174.5q24 -16 47 -29t50 -22.5t46 -16.5t51 -11 t47 -6.5t52 -3.5t48.5 -1h55h53.5q0 109 19 223q-19 1 -86 2.5t-109.5 4.5t-95.5 14t-82 30q-53 38 -87 90.5t-46 114.5q-12 63 -14 123v18q0 53 9 113q11 71 22 122.5t27 114.5q3 13 5 19q32 119 96 200.5t163 117.5q47 17 100 17q59 0 126 -21q0 12 0.5 36t1 39t-1.5 36 t-6 38v23q-33 47 -95 56q-17 3 -36 3q-46 0 -96 -17q-70 -23 -124.5 -49t-98.5 -55q-58 -43 -105.5 -110.5t-77 -144.5t-51.5 -165.5t-29.5 -174.5t-10.5 -171z" />
<glyph unicode="D" horiz-adv-x="1026" d="M55 313q0 80 8 244q7 166 7 258v37q-4 114 -4 192q0 184 14 457q3 53 135 53q86 0 197 -15.5t143 -27.5q138 -54 213 -165l47 -46q176 -176 176 -604q0 -13 -6 -211q0 -10 -1 -30t-1 -29q-4 -75 -43 -158t-94 -143l-27 -29q-64 -70 -129 -106q-88 -44 -194 -74.5 t-195 -30.5q-63 0 -111 13l-92 92q-12 4 -16 4q-27 150 -27 319zM77 276q1 -142 23 -264q48 -11 101 -11q65 0 137 16q132 29 244 87q25 12 47.5 29.5t32.5 27t36.5 39.5t34.5 38q54 58 91.5 138t41.5 152q8 226 8 306v16q-8 349 -144 512q-72 86 -183 129q-33 13 -139 29 q-97 15 -190 15q-9 -1 -17 -1q-101 -2 -101 -33q-13 -288 -13 -480q0 -96 3 -169v-42q0 -90 -6 -224q-7 -149 -7 -278v-32zM246 1391h6q113 0 189 -24.5t130 -102.5q55 -77 88 -190q33 -112 39 -234l2 -52q0 -96 -19 -193q-24 -123 -74 -221t-139 -163t-204 -72 q-11 40 -11 121q-1 56 5 132q8 118 9 190q0 41 -3 67q-8 106 -10.5 228.5t-2.5 277t-1 229.5q-14 5 -4 7zM367 1274q2 -72 2 -223q0 -340 12 -502q4 -50 4 -82q0 -52 -8 -154q-6 -65 -6 -129q77 31 137.5 93t97.5 143.5t55.5 174t18.5 191.5q0 129 -31 249.5t-86 203.5 q-66 31 -196 35z" />
<glyph unicode="E" horiz-adv-x="858" d="M51 965q0 291 29 526v27h16q73 7 113 14q3 0 10 1t10 1q112 17 184 17q14 0 27 -1q23 0 39 2q46 4 76 4q66 0 88 -22q17 -17 25 -33l75 -74h-2l7 -6q30 -35 30 -84q0 -42 -18 -98q-63 0 -92 -2q-188 -8 -267 -8v-25q0 -55 -6 -149q-6 -65 -6 -125v-45q21 -3 47 -3 q16 0 35 1h78v-13l96 -96q0 -123 -12 -176q-3 0 -15.5 1t-15.5 1q-133 14 -192 37q-13 -274 -21 -373q73 -2 168 -24q67 -19 96 -36t39 -44l82 -80q-1 0 -2 1t-2 1l4 -2q16 -16 22 -37.5t11 -65.5l10 -77h-19q-58 0 -139 10q-77 11 -128 11q-25 0 -44 -3l-51 -10 q-99 -21 -137 -21q-47 0 -111 25l-90 90q-16 5 -20 8q16 57 16 107q0 17 -4 53q0 5 -1 16.5t-1 16.5l-6 71q-31 444 -31 691zM74 1078q-2 -80 -2 -152q0 -129 5 -237q8 -168 25 -413q0 -22 6 -80q5 -50 5 -85v-12q-1 -38 -11 -76q27 -11 54.5 -15.5t59 -2t52.5 6t59.5 12 t55.5 11.5q22 3 50 4q48 0 114 -10q94 -13 140 -13h11q-4 23 -7.5 52.5t-5 42t-6.5 30t-12.5 24.5t-23 18t-37 18.5t-55.5 17.5q-99 25 -182 25q-59 0 -109 -13q24 257 33 529q10 -5 21 -10t25 -8.5t23.5 -6.5t27.5 -5.5t25.5 -4t28.5 -3.5t24.5 -2.5t26.5 -2.5l23 -2 q10 45 10 147q-31 2 -63 0q-13 -1 -26 -1l-38 2q-32 3 -58 10t-44 27t-23 52q-4 29 -4 72q0 54 6 128q7 90 7 146q0 28 -2 48q66 0 364 10q16 50 16 87q0 52 -32 77q-16 14 -51 16q-13 1 -29 0q-25 0 -55 -2q-49 -4 -56 -4q-14 1 -29 1q-67 -1 -173 -15q-128 -18 -148 -19 h12v-6q-24 -191 -28 -413z" />
<glyph unicode="F" horiz-adv-x="827" d="M51 625q0 489 35 850q0 3 -1 12.5t-1 13.5v29q108 22 235 22q66 0 103 -2h16q4 0 13.5 1t13.5 1q23 2 84 2q98 0 131 -26q14 -14 20 -29l82 -82q20 -19 24 -61q1 -15 1 -30q0 -24 -4 -46q-2 -16 -2 -41l-15 -14q-31 -2 -102 -2q-166 0 -254 28q6 -39 6 -114 q0 -56 -8 -162q-8 -86 -8 -127q65 -8 164 -8l2 -15l94 -94q1 -5 6 -38.5t6 -51.5q4 -41 17 -104q-7 0 -101 -7q-3 0 -33 -3t-45 -3q-78 0 -131 39q-6 -91 -6 -180q0 -17 1 -52t1 -52q0 -21 1 -63t1 -64q0 -143 -16 -271l-80 15q-75 14 -113 26l-94 92l-14 6q-2 97 -14 256 q-15 216 -15 349zM72 625q0 -113 13 -315t15 -275q32 -9 90 -20t76 -15q14 108 14 289v58q-1 53 -1 100q0 152 6 247q35 -30 75 -42q36 -11 63 -12h7q30 2 80 7.5t78 5.5q-6 30 -12 86t-11 80q-38 0 -82.5 3t-97.5 8.5t-78 7.5q-5 38 -5 87q0 41 4 89q8 108 13 182 q1 19 1 39q0 62 -13 141q90 -38 268 -38q51 0 109 3q0 7 4 55q2 24 2 43t-2 33q-4 28 -20 41q-14 12 -50 17q-33 5 -62 5q-3 -1 -6 -1q-32 0 -75 -2t-53 -2q-44 2 -85 2q-128 0 -233 -21l2 -38q-34 -321 -34 -848z" />
<glyph unicode="G" horiz-adv-x="1011" d="M76 729q0 209 68 398t200 315q37 34 166 74t219 40q95 0 115 -51l18 -6v-10l96 -96q0 -77 11 -144l-113 11q-134 0 -238.5 -62t-160.5 -184q-58 -128 -58 -307q0 -164 47 -310q17 -51 41 -88q68 -53 149 -53h9q19 86 19 201q0 82 -2 125h-62l-96 96h-12q-5 46 -5 78v12 q0 41 -12 92q105 -16 168 -16h31q110 -4 172 -13l16 -18v-8l84 -82l12 -14q5 -82 5 -101q0 -18 -1 -53t-1 -53q-4 -82 -4 -124q0 -17 1 -28q0 -32 3 -69q4 -54 4 -84q0 -85 -29 -142q-41 -84 -120 -126t-173 -42q-74 0 -145 27.5t-121 77.5l-64 61q-57 41 -84 88 q-72 122 -112.5 277t-40.5 311zM98 810q-2 -36 -2 -72q0 -138 30 -276q39 -175 122 -308q42 -69 122.5 -109t165.5 -42h8q81 0 157 39q80 42 120 122q19 40 24 84q3 25 3 59q0 26 -2 59q-4 72 -4 87q-1 13 -1 33q0 51 4 148q2 53 2 91q0 61 -5 86q-55 8 -168 11.5t-170 11.5 q6 -20 6 -53v-15q-1 -19 -1 -34q0 -20 1 -34q110 0 168 11q0 -35 4 -147q3 -62 3 -113q0 -40 -1 -73q-4 -75 -22 -140q-13 -1 -26 -1q-103 0 -180 65q-87 74 -126 196q-30 92 -42 202q-5 52 -5 105q0 60 7 121q13 114 52 198q45 98 123.5 160t175.5 82q53 12 110 12 q47 0 97 -8q-6 37 -6 119l-17 6q-7 36 -73 41h-27q-54 0 -117 -14q-80 -17 -153 -44t-97 -49q-117 -111 -183.5 -277t-76.5 -340z" />
<glyph unicode="H" horiz-adv-x="1032" d="M47 1532q77 20 148 20q56 0 77 -16q20 -17 29 -37l70 -69h-2l10 -9q31 -31 31 -126v-23v-35q0 -99 -15 -260q-4 -26 -8 -73h29h20q144 0 201 -17q12 89 16 289v38q4 202 19 326h26q5 0 14 1t13 1q27 2 49 2q76 0 100 -26l5 -5q0 -2 1 -6t1 -6l94 -92q4 -7 4 -28 q0 -29 -8 -83q-1 -6 -2.5 -16.5l-2.5 -17.5t-1 -9q-11 -197 -11 -430v-346q0 -345 -24 -596q-94 0 -125 31l-80 80q-41 16 -59 80q-15 44 -15 139v16q0 43 -2 66q-6 109 -6 305q-64 1 -99 3t-85 10.5t-82 23.5q-23 -115 -23 -260q0 -27 11 -275l6 -176q-147 15 -191 15 l-96 96h-12q-2 25 -2 94q0 67 2 100v37q0 8 1 20t1 17q0 6 -1 18.5t-1 18.5v39q-4 86 -4 287q0 190 4 286q1 25 5 80t5 78q12 136 12 207q0 106 -20 180l2 -2zM86 1520l6 -11q22 -76 23 -170v-15q-1 -90 -11 -202q-12 -122 -12 -168q-4 -144 -4 -287.5t4 -285.5q1 -22 1 -56 q1 -43 -1 -105q-1 -51 -2 -89q0 -46 2 -74q60 0 162 -12q-1 50 -7.5 170t-8.5 195q-1 20 -1 42q1 60 5 134q6 102 22 176q40 -25 111 -34t167 -11t122 -4q0 -275 6 -416q1 -23 1 -44q-1 -15 -1 -29v-21q0 -25 2 -53q4 -40 14 -70q16 -57 37 -68.5t92 -11.5q19 192 22 452 q1 120 1 226q0 124 -2 228q-1 37 0 76q0 167 12 376q0 8 5.5 44.5t8 61t-1.5 39.5q-13 15 -41 19q-16 2 -39 2q-16 0 -38 -1q-50 -3 -52 -3q-12 -100 -16 -322.5t-23 -339.5q-64 23 -208.5 25.5t-178.5 7.5q2 61 15.5 213t13.5 235q0 10 1 38.5t0.5 44t-3.5 37.5t-10.5 37 t-20.5 24q-16 10 -56 11h-15q-30 0 -56 -3q-32 -4 -47 -8zM371 1430q2 -1 5 -5l3 -4z" />
<glyph unicode="I" horiz-adv-x="423" d="M47 1415q0 68 4 101v34h92q5 0 17 1t18 1q56 0 103 -8v-12l96 -96q0 -20 1 -65t1 -64q0 -15 1 -47t1 -48q0 -41 -4 -131q-27 -488 -27 -862q0 -230 4 -336q-120 0 -159 39l-80 80q-41 20 -53 64q-10 36 -10 98q0 16 1 33q0 59 2 84q0 11 1 42t1 42q0 12 1 36t1 37 q9 312 19 434q2 23 2 68q0 66 -17 236q-16 160 -16 239zM57 1530l17 -4q-6 -45 -6 -107q0 -93 14 -227q18 -169 18 -268q0 -30 -2 -54q-6 -77 -10.5 -170t-6 -160t-3.5 -177t-4 -166v-36v-41q2 -28 10.5 -54t26.5 -38.5t49 -20t78 -7.5q-5 157 -5 325q0 399 27 859q3 1 3 76 q0 38 -1 94q-2 170 -2 172q-28 4 -61 5q-16 0 -36.5 0.5t-44.5 -0.5q-48 -1 -61 -1z" />
<glyph unicode="J" horiz-adv-x="669" d="M25 78q0 28 14 82q0 3 2 11.5t2 10.5q92 -28 137 -28q43 0 71 25.5t48 86.5q72 226 72 543q0 109 -12 263.5t-21 233.5t-31 271l47 -47q31 8 129 18h13q4 0 12 1l8 1q0 -10 2 -14l94 -94q11 -73 11 -146q0 -16 -1 -47t-1 -47q-3 -40 -3 -74q0 -36 3 -73v-2q2 -37 2 -113 q0 -184 -27 -504q-10 -136 -16 -252v-59q1 -26 0.5 -47.5t-9 -44.5t-24.5 -41l-2 2q-53 -67 -201 -92q-73 -17 -115 -17q-48 0 -73 25l-80 80q-51 15 -51 88zM52 38q17 -37 65.5 -37t120.5 17q148 26 196 86q20 23 26 55t3 62q-1 15 -1 32t1 36q5 83 19 269.5t20 326.5 q4 84 4 164q0 54 -2 106q-1 17 -1 50q0 50 2 137q1 34 1 62q0 94 -8 126q-116 -11 -146 -23l-16 13q18 -152 28.5 -247.5t19.5 -251.5q8 -119 8 -213q0 -30 -1 -58q-3 -114 -20 -248t-52 -242q-14 -42 -32.5 -69t-39.5 -40.5t-51.5 -15.5t-61 3t-75.5 18q-13 -47 -13 -79 q0 -23 6 -39z" />
<glyph unicode="K" horiz-adv-x="1017" d="M51 1481l45 22q38 18 174 47l25 4v-14l96 -94q2 -57 2 -195q0 -57 -4 -159q51 64 133 178l29 35l-2 -2q14 25 29 59q0 6 6 12q53 121 104 148q4 1 11 2q42 0 192 -45l-6 -11l98 -96q-12 -23 -24.5 -44t-27 -42.5t-24.5 -36t-27 -37t-23 -31t-25.5 -33t-22.5 -28.5 q-4 -5 -29.5 -38t-32.5 -42t-28.5 -37.5t-31.5 -43t-26 -38t-27.5 -43.5t-21.5 -40l-55 -54q-95 -95 -125 -137q212 -346 526 -747q-54 0 -88 -6q-65 -9 -90 -9q-50 0 -73 17l-2 2q-6 3 -13 10l-76 76q-3 1 -7 4t-5 4q-34 22 -96 149q-15 33 -35 62l-57 90l-25 37l-57 82 q-2 -21 -2 -131q0 -86 18 -307l8 -80q-35 0 -71 4q-30 2 -54.5 2t-42.5 -2l-96 96q-8 0 -12 -2q2 15 2 32q0 46 -12 105l-4 23q-11 69 -11 80q11 312 11 505q0 327 -17 738zM72 1468q15 -387 15 -728q0 -265 -9 -502q0 -33 14 -104q12 -59 13 -96q0 -8 -1 -15q10 1 22 1 q21 0 51 -3q47 -5 63 -5q-1 9 -8.5 96t-9.5 112q0 24 -4 98q-2 47 -3 80q0 20 1 34q2 40 7.5 95t16.5 100q30 -68 71.5 -136t97.5 -149.5t83 -124.5q10 -15 33 -65t46 -90t41 -50q20 -15 60 -15t89 7.5t64 7.5q-272 346 -512 734q23 35 53.5 68t73.5 73.5t60 58.5 q52 98 182.5 266t177.5 248q-123 35 -163 35q-9 0 -13 -2q-22 -10 -44 -49.5t-43.5 -89.5t-29.5 -64q-5 -7 -36 -48.5t-40.5 -54.5t-38.5 -51t-43 -55.5t-40.5 -50.5t-44.5 -53.5t-40.5 -45.5t-43.5 -46q36 186 36 480q0 77 -2 161q-133 -26 -170 -45z" />
<glyph unicode="L" horiz-adv-x="794" d="M51 1055v491h39q16 4 55 4h21q49 0 63.5 -5t20.5 -27l88 -86q8 -8 14 -43l6 -29q27 -110 27 -299v-80q0 -16 -0.5 -44.5t-0.5 -51.5t1 -43q4 -126 4 -191q0 -62 -4 -194q-4 -72 -12 -123q-1 -8 -6.5 -38.5t-6.5 -47.5q33 2 101 2q115 0 229 -27l-4 -10l98 -96 q-6 -25 -6 -60q-5 -145 -26 -166q-8 -5 -37 -5q-37 0 -109 8q-38 6 -53 6q-8 0 -30 -1t-34 -1q-13 0 -41.5 -1t-44.5 -1q-147 0 -202 55l-76 74q-43 26 -57 65q-13 40 -13 119q0 41 4 123q3 62 3 100q0 23 -1 37q-10 244 -10 586zM71 986q0 -97 2.5 -245.5t8.5 -271.5 q1 -11 1 -27q1 -36 -3 -90q-4 -80 -4.5 -148t12.5 -108q8 -27 32 -45t52 -26t70 -11q36 -3 64 -3q6 1 10 1q32 0 74.5 2t60.5 2q11 0 59 -6t79 -8t52 4q10 10 15 52t6 92.5t2 58.5q-97 20 -203.5 20t-208.5 -14q-8 29 -8 73v10q1 50 5.5 86t11 88.5t7.5 86.5q4 98 4 194.5 t-4 190.5v45v113q0 27 1 53q0 85 -4 147q-5 82 -23 156q-3 11 -6 28q-6 33 -15 38.5t-57 5.5h-19q-63 0 -63 -4h-10q0 -72 -0.5 -257.5t-0.5 -282.5z" />
<glyph unicode="M" horiz-adv-x="1386" d="M53 -35q4 122 4 221q0 12 -1 37t-1 37v74q0 15 -1 43t-1 41v71q0 124 21 412q20 274 20 410q0 117 -14 254q71 -58 119 -58q6 0 67 9q35 6 90 6q0 -9 2 -13l97 -96q25 -152 96 -412q50 -179 80 -315q10 -59 31 -127q11 49 35.5 133.5t27.5 95.5l8 31q38 128 55 197l25 80 q92 296 98 438l21 18q41 -7 145 -20q110 -13 166 -23q0 -2 -1 -6t-1 -6l98 -96q-55 -628 -73 -1221q0 -16 0.5 -31.5t3.5 -35t4.5 -30.5t7.5 -35t7.5 -30.5t9 -35.5t8.5 -31l18 -68q-77 0 -106 2q-14 0 -52 1t-49 1l-96 97h-12q-23 118 -23 252q0 40 4 122q0 8 1 31t1 31 q0 12 1 35t1 34q0 13 1 37t1 37q-24 -70 -120 -319l-23 -54q-6 -9 -18 -53q-22 -77 -44 -100q-19 -19 -48 -19q-10 0 -21 2q-20 6 -35 21l-78 78q-24 7 -41 32t-24.5 48.5t-16.5 62.5q-8 39 -20 68q-73 136 -129 293q-8 -112 -8 -254q0 -60 8 -170q8 -98 8 -154 q0 -86 -20 -192q-26 14 -52 14q-10 0 -20 -2q-20 -4 -37.5 -3.5t-32.5 3.5q-8 0 -31.5 2t-31.5 2l-96 96h-13zM74 -14l53 -4q11 -4 27 -4q18 0 40 4q44 8 60 -5q16 77 16 156.5t-8 178t-8 159.5q0 123 15.5 366t15.5 365q0 -204 69 -443.5t172 -420.5q9 -19 22 -72 t30.5 -87.5t46.5 -41.5q36 -7 56 18t35.5 78t22.5 66q128 321 165 435q76 232 104 474q0 -90 10 -510q2 -46 2 -100v-70q-2 -96 -8 -178q-3 -50 -4 -106q0 -36 2 -72q4 -94 18 -168q30 0 88 -2t88 -2q-3 10 -15 53t-16.5 61t-12 52t-10 62t-1.5 55q18 591 72 1208 q-46 8 -144.5 20.5t-144.5 20.5q-2 -48 -10 -100.5t-23.5 -113.5t-27 -101t-33.5 -111.5t-29 -95.5q-20 -85 -56 -203t-61 -217.5t-39 -206.5q-55 126 -85 209.5t-54 191.5q-21 103 -86.5 343.5t-87.5 373.5q-22 -1 -75 -9q-33 -5 -61 -5q-16 0 -30 2q-38 5 -70 31 q9 -143 9 -248q0 -53 -2 -96q-7 -130 -22 -343.5t-15 -343.5q0 -48 1.5 -153t1.5 -193t-3 -157z" />
<glyph unicode="N" horiz-adv-x="1054" d="M53 328v21q0 93 15 274q16 172 16 256q0 44 -2 67l-6 76l-4 47q-11 139 -11 240q0 114 15 213l4 4q-4 24 54 24h18h38q42 0 62 -8.5t41 -38.5l6 -10l74 -74q12 -12 18 -22q27 -37 43 -146q12 -84 27 -116l18 -41q100 -227 133 -312h-2l19 -47q47 -131 92 -235l-12 311 q-15 443 -15 711l17 18q35 6 71 6q55 0 107 -8q0 -8 4 -16l92 -92q19 -80 19 -173q0 -17 -5 -94q-20 -324 -20 -702q0 -318 14 -578q-71 0 -182 15l-94 94q-6 2 -15 2q-18 79 -59 194l-6 15q-60 180 -170 401q0 5 -4 21v2l-14 26l-7 -2q-28 50 -69 148l-4 -295 q-4 -402 -4 -615q-37 0 -102.5 9t-96.5 18l-94 94q-9 0 -17 4q11 58 11 111q0 54 -7 133zM74 330q1 -22 6 -72q4 -50 6 -80q1 -22 1 -52q-1 -10 -1 -20q0 -42 -6 -77q27 -8 82.5 -15.5t85.5 -7.5q0 200 5 601.5t5 600.5q32 -135 88 -287.5t115 -261.5q57 -115 77.5 -158 t56 -127t62.5 -165q45 -124 64 -197q102 -12 156 -12q-16 279 -16 569q0 341 22 697q3 45 3 86q0 94 -16 168q-48 6 -87 6t-68 -6q0 -228 13 -647t15 -572q-24 44 -48.5 96.5t-41.5 90t-43.5 103t-37 92t-40.5 103.5t-36 93q-28 72 -150 352q-15 32 -30.5 130t-39.5 130 q-5 8 -10.5 14.5t-9.5 10.5t-11 7l-10.5 4.5t-12.5 2t-13.5 0.5h-17.5h-19t-19.5 0.5t-21 0.5t-18.5 -0.5t-11.5 -3t0.5 -7.5l-6 -7q-8 -51 -12 -105q-3 -36 -3 -79q0 -22 1 -45q2 -70 4 -106.5t8.5 -124.5t7.5 -105q1 -27 1 -60q1 -102 -13 -256q-16 -177 -16 -273v-29z M457 621v2v-2zM465 606v2v-2z" />
<glyph unicode="O" horiz-adv-x="1161" d="M39 807q0 105 12 207q13 91 56.5 185t109 172.5t156.5 128.5t188 50q175 0 303 -172l49 -47q99 -99 155 -257.5t56 -299.5q0 -88 -14.5 -186t-42.5 -197.5t-72.5 -189.5t-100.5 -160.5t-131.5 -112t-160.5 -41.5q-136 0 -237 101l-58 55q-72 51 -126 141.5t-84 198 t-44 214t-14 210.5zM59 807q0 -85 9.5 -172t29.5 -179t55.5 -171.5t82.5 -143.5t115 -100.5t149 -36.5q98 0 183.5 58t143.5 151t100 209.5t61.5 233t19.5 221.5q0 64 -13 136t-37.5 145t-63.5 140t-86.5 118.5t-111.5 82.5t-135 31q-94 0 -182.5 -48t-151 -124t-104 -167 t-51.5 -179q-13 -114 -13 -205zM219 711q0 285 100 467t238 182q49 0 94.5 -31.5t83 -93t60 -166t22.5 -238.5q0 -215 -61 -407q-38 -105 -111.5 -192t-144.5 -87q-78 0 -138 123q-13 27 -40.5 78t-41 80t-30.5 75t-24 97t-7 113zM336 608q0 -79 15.5 -147t31.5 -104.5 t49 -100.5l4 -2q10 -18 41 -82v-4q8 -2 23 -2q65 0 132 82t103 182q62 195 62 401q0 261 -84 402q-22 10 -54 10q-132 0 -227.5 -178t-95.5 -457z" />
<glyph unicode="P" horiz-adv-x="919" d="M51 1286v41q0 112 27 186l10 37q21 1 51 1q58 0 148 -3q37 -2 110 -2q203 -6 312 -164l51 -51q75 -75 110 -190q30 -98 30 -205q0 -18 -1 -37q-1 -43 -11 -78t-22.5 -59.5t-39.5 -50.5t-48 -42t-61 -44l-33 -21l-14 -10q-40 -27 -61.5 -40t-61 -28.5t-72.5 -15.5 q-51 0 -88 29v-39q0 -117 -2 -176q-4 -118 -4 -199q0 -131 14 -227q-50 -13 -88 -13q-55 0 -84 29l-80 80q-62 27 -65 139q-4 172 -4 262q0 234 -6 353q-13 301 -13 419v37q0 6 -1 20t-1 21q0 6 -1 20t-1 21zM72 1344.5q0 -34.5 2 -93.5t2 -84q0 -141 12 -419 q6 -115 7 -324.5t3 -290.5q4 -89 47 -116q24 -15 61 -15q30 0 70 10q-13 94 -13 208q1 116 5 246q3 90 3 155q0 29 -1 53q26 -28 57.5 -39t59 -8t61 17.5t57.5 29t54 34.5q2 2 3.5 2.5t3 2t3 2.5t3.5 2t3 2q100 71 124 93q71 66 81 160q2 14 2 29q1 20 1 39q0 58 -9 112 q-12 74 -41.5 141.5t-74 118.5t-112 81.5t-149.5 32.5q-25 0 -147 4q-61 2 -97.5 2t-48.5 -2l-6 -23q-14 -34 -20 -81t-6 -81.5zM259 1184v48q0 57 1 148v25q29 21 85 25q13 1 25 1q39 0 68 -10q68 -21 112 -70t58 -109q10 -45 10 -95q0 -15 -2 -33q-4 -68 -34 -130 t-72 -110t-106 -74q-48 -19 -101 -20q-16 0 -33 2q-1 63 -5.5 202.5t-5.5 199.5zM375 1159q0 -43 1 -91t2.5 -107.5t2.5 -92.5l2 -49q97 34 156 130t59 204q0 78 -37 139l-24 13q-33 10 -66 10q-59 0 -94 -21v-16q-2 -39 -2 -119z" />
<glyph unicode="Q" horiz-adv-x="1081" d="M31 756q0 76 8 174q9 104 25.5 179t61 158t116.5 142q114 84 190 119v12q39 10 84 10q147 0 240 -135l55 -53q36 -39 61 -82l2 -2q99 -157 139 -330.5t40 -380.5v-59q-1 -77 -19 -158.5t-54.5 -161t-86 -144t-120.5 -108t-152 -53.5q19 -146 19 -267q0 -30 -1 -58 q-17 -1 -32 -1q-68 0 -97 29l-84 84q-34 17 -46.5 52.5t-14.5 91.5q-3 30 -3 65q-4 49 -10 68l-22 20l-60 58q-66 45 -115 130t-75 189t-37.5 206t-11.5 206zM52 784v-25q0 -66 4 -143q5 -91 22 -179t43.5 -167.5t71.5 -142.5t104 -94q26 -14 42 -28t25 -25t13 -30.5 t4.5 -33.5t1.5 -45.5t2 -54.5q3 -85 28 -118q21 -27 81 -27q13 0 28 1q1 26 1 53q0 125 -23 273q101 6 186 67t137.5 152t81.5 193t31 200q1 26 1 52q0 195 -34 358q-38 185 -143 352q-52 95 -134 134q-51 25 -110 25q-35 0 -74 -9l15 -4q-16 0 -92 -48t-111 -75 q-68 -56 -110.5 -137t-59 -155t-25.5 -175q-6 -67 -7 -144zM248 889q3 13 11.5 60.5t13.5 72t16 71.5t21 75t27 66t35 61.5t43 43.5t54 29q27 9 51 8.5t45 -14t39 -32.5t33 -47.5t27.5 -57.5t23 -63.5t18 -65t13 -62t9 -56t5.5 -44.5q5 -77 5 -146q0 -220 -46 -368 q-16 -48 -42.5 -97t-69.5 -96.5t-88 -62.5q-24 -11 -44 -12.5t-35.5 7.5t-27 19.5t-22.5 32t-17.5 35.5t-16 40.5t-14.5 37.5q-87 220 -87 401q0 86 20 164zM346 627q0 -189 84 -402l14 -32l2 -3l5 -14q18 0 45 12q54 17 102.5 90t73.5 148q47 154 47 348q0 79 -6 158 q-28 212 -86 328q-19 0 -43 -7q-39 -11 -72 -46t-53 -73.5t-39 -101.5t-27 -100.5t-20 -100.5l-8 -51q-19 -81 -19 -153zM426 -104q2 -1 5 -5l3 -4z" />
<glyph unicode="R" horiz-adv-x="1001" d="M49 586q0 146 12 436q13 325 13 457l10 24q33 49 131 49q78 0 217 -34q159 -40 207 -61q91 -39 135 -109l66 -64q73 -73 92 -225q4 -40 4 -66q0 -58 -10.5 -114t-33.5 -108.5t-56.5 -92.5t-83 -65t-109.5 -27q94 -114 168 -287q11 -25 57 -115q34 -61 49 -91.5t33.5 -86 t20.5 -102.5q-59 -19 -121 -19q-78 0 -105 31l-2 2v-2l-79 80q-19 8 -27 18q-24 24 -45 125l-4 17l-17 67q-10 21 -35.5 77.5t-37.5 80.5l-19 37q-58 126 -59 127q-10 2 -29 2v-78q0 -19 1 -57t1 -56q0 -95 -8 -168v-63v-27q0 -112 -15 -155q-20 -57 -71 -57q-27 0 -63 16 q-14 7 -25 18l-76 76q-2 2 -4 2q-27 14 -43.5 40.5t-23 66t-7.5 68.5q0 14 -0.5 33t0.5 42v61q-8 117 -8 277zM72 700q-1 -37 -1 -82q0 -127 7 -309q1 -11 1 -40q-1 -15 -1 -35v-23q0 -43 2 -69q2 -34 16.5 -73t42.5 -53q34 -15 58.5 -12.5t37.5 19t21.5 42t10 56.5t2 62.5 t-1 60t0.5 49.5q4 57 6 113q1 34 1 80v67q-1 91 -1 111q52 0 123 -11q33 -81 103.5 -230.5t89.5 -191.5q5 -15 15 -62.5t21.5 -87t24.5 -52.5q23 -26 95 -27h8q66 0 100 14q-3 58 -29.5 122.5t-69.5 142t-59 114.5q-42 97 -84.5 170t-101.5 140q11 -1 22 -1q73 0 130 36 q66 40 100 110t48 150q8 48 9 96q0 32 -4 63q-7 53 -20.5 95t-29.5 72t-43 53.5t-51 38.5t-65 29.5t-72.5 23t-86.5 21.5q-14 3 -21 5q-131 36 -212 36q-87 0 -114 -42l-6 -16q0 -147 -9 -389t-13 -386zM262 1374h12h8q184 0 250 -45q58 -43 80 -109q15 -43 14 -86 q0 -23 -4 -46q-12 -66 -44.5 -127.5t-87 -106.5t-115.5 -59q-26 -6 -45.5 -5t-30.5 9.5t-18 21.5t-8.5 30t-2 36.5t1.5 40t2 41v39.5q-6 119 -6 354zM385 1257q0 -235 6 -352q0 -64 -2 -76q0 -2 -1 -4.5t-1 -3.5q92 31 154.5 122.5t62.5 191.5q0 51 -24 100q-69 22 -195 22z " />
<glyph unicode="S" horiz-adv-x="903" d="M39 242q83 -15 160 -15q132 0 243 75t111 165q0 63 -45 121l-74 53q-132 93 -174 135l-43 43q-81 64 -125.5 132.5t-44.5 160.5q0 108 62.5 211t160.5 166t199 63q95 0 180.5 -28t116.5 -82l78 -78q6 -6 20 -29q-8 -25 -8 -186h-20l-11 4q-86 86 -190 86 q-72 0 -137.5 -57.5t-65.5 -147.5q0 -57 35 -110q30 -27 70 -54q63 -48 114 -118l41 -39q78 -78 123 -182.5t45 -208.5q0 -78 -33 -155.5t-91 -140.5t-148.5 -102t-196.5 -39q-118 0 -233 43l-92 92l-17 7l4 30q6 34 6 62q0 53 -20 123zM68 215q12 -43 12 -96q0 -28 -8 -78 q103 -39 217 -39q103 0 190.5 37.5t144 98t88 135.5t31.5 151q0 121 -59 237.5t-160 192.5q-44 33 -74.5 59.5t-64.5 63.5t-52 77.5t-18 82.5q0 96 70 157.5t147 61.5q111 0 201 -90h6q0 154 6 172q-24 47 -103.5 70.5t-172.5 23.5q-97 0 -190.5 -60.5t-152 -158.5 t-58.5 -201q0 -66 28 -123.5t72.5 -100t98 -82t107.5 -76.5t98.5 -75t72.5 -86t28 -102q0 -63 -54.5 -124t-142 -98.5t-177.5 -37.5q-82 0 -131 8z" />
<glyph unicode="T" horiz-adv-x="1048" d="M20 1550q124 -39 183 -39q31 0 82 7l73 10q159 23 269 23q20 0 39 -1q3 0 9 -1t9 -1h18q117 -6 152 -18q47 -16 64 -55l77 -78q31 -31 31 -94q0 -47 -10 -91q-29 -2 -96 -2q-71 0 -197 7q10 -46 10 -168q-4 -106 -20 -324q-2 -23 -9.5 -108t-9.5 -130q-8 -80 -8 -245 q0 -179 -29 -340q-10 0 -31.5 -6t-29.5 -7q-24 -3 -46 -3q-36 0 -67 8l-94 94q-12 4 -14 4q14 90 14 260q0 126 -10 283l-4 75l-4 72q-11 165 -11 285q0 151 9 243q-82 0 -201 17l-94 94q-11 0 -15 2q0 39 2 45v-2q8 48 8 85q0 23 -3 42zM80 1341q124 -13 214 -13 q67 0 116 7q-27 -159 -27 -340.5t13.5 -403t13.5 -339.5q0 -162 -13 -246q32 -5 50.5 -3.5t50.5 5.5t51 4q18 103 20 305.5t9 274.5q4 73 19.5 264.5t18.5 294.5q0 123 -16 184q124 -8 220 -8q44 0 81 2q8 38 8 66q0 29 -4 53q-3 20 -21 35t-28 22.5t-44 12.5t-49 6.5 t-62 3.5q-23 1 -35 2q-18 1 -37 1q-29 0 -61 -2q-54 -3 -87.5 -7t-101.5 -13t-92 -12q-43 -6 -82 -6q-69 0 -125 18q10 -12 10 -18l-4 6q3 -16 4 -31.5t0 -34.5t-2 -28.5t-4 -33t-4 -28.5z" />
<glyph unicode="U" horiz-adv-x="1026" d="M49 549q0 43 4 137q4 54 4 82q2 90 23 270q0 4 2 16.5t2 16.5q18 158 18 266q0 84 -22 219q132 -24 170 -24l45 45l-4 -23l98 -96q-24 -184 -24 -325q0 -52 1.5 -105t6.5 -116t8 -103t11.5 -115t11.5 -101t13.5 -112t12.5 -100q10 -88 62 -180q15 -6 30 -6q39 0 92 79v-2 q62 118 62 308q0 68 -8 190q-9 119 -9 164q0 207 -6 311q0 86 2 109t2 76q0 54 -18 120q84 -10 197 -10l18 -16v-11l96 -94q17 -139 17 -317q0 -66 -4 -180q-2 -23 -2 -68q0 -5 6 -164l6 -98q1 -15 1 -31q0 -137 -40 -289q-44 -170 -123 -278q-81 -105 -225 -105 q-78 0 -157.5 33.5t-135.5 89.5l-55 56q-63 46 -93 92q-96 146 -96 389zM72 504q0 -53 5.5 -89.5t15.5 -81.5t28 -84.5t43 -76.5q38 -60 107 -103t145 -59q31 -6 63 -6q45 0 91 14q77 22 126 86q78 106 122 275q39 152 39 285q0 15 -1 30q-1 33 -5.5 109t-5.5 110v28 q0 33 1 85q4 94 4 180q0 178 -16 314q-115 0 -166 6q10 -33 10 -83.5t-3 -108.5q-2 -35 -2 -60q0 -17 1 -29q6 -104 6 -311q0 -50 7 -160t9 -184v-19q0 -67 -12 -149q-14 -94 -51 -158q-50 -91 -110 -91q-31 0 -65 25q-68 52 -117 177q-23 59 -28 106q-23 187 -32 266 t-23 241q-11 136 -11 247q1 21 1 41q2 126 18 244l-6 -7q-7 -1 -18 -1q-42 0 -136 18q16 -71 16 -172v-18q-2 -113 -10.5 -191t-20 -191t-13.5 -190q-1 -27 -3.5 -87t-2.5 -92v-37.5v-47.5z" />
<glyph unicode="V" horiz-adv-x="1075" d="M27 1511q62 7 139 7h90q0 -11 2 -15l94 -94q28 -205 115 -547q36 -126 61 -190l17 -49q24 214 37.5 322.5t44.5 282t69 310.5l27 12q40 -14 106 -18q65 -4 119 -21v-10l96 -96v-16q0 -65 -14 -145q-16 -90 -32.5 -149.5t-47.5 -160.5q-45 -149 -55 -189 q-30 -115 -66 -278q-69 -290 -75 -315l-15 -52q-3 -10 -10.5 -36t-11.5 -39.5t-9 -35.5t-8 -42.5t-4 -42.5q-4 -1 -25 -4.5t-35.5 -5.5t-37.5 -4.5t-39 -3.5t-31.5 0t-23.5 5q-4 1 -27 19l-78 78q-46 22 -61 85q-2 8 -8 42q0 1 -1 5t-1 5t-1 2.5t-1 3.5q-46 198 -115 453 q-116 447 -156 651q-6 20 -6 82q0 6 -1 18.5t-1 18.5v16q-4 86 -20 141zM53 1493q11 -38 14 -130.5t9 -123.5q40 -202 139.5 -585.5t130.5 -516.5q6 -32 8 -43t9 -33t18 -34.5t27 -20.5q10 -4 32 -4q45 0 140 16q2 28 9 63t12 54t19 66.5t17 56.5q27 103 72.5 302.5 t68.5 291.5q14 58 58 195.5t70 248.5q23 99 22 182v19q-32 11 -103.5 14.5t-107.5 18.5q-54 -193 -87.5 -406t-64 -497t-49.5 -416q-5 40 -8 123t-8 123q-13 100 -75.5 279.5t-74.5 224.5q-88 344 -112 536q-16 0 -46.5 0.5t-49.5 0.5t-44 -1t-45 -4z" />
<glyph unicode="W" horiz-adv-x="1587" d="M37 1532q164 -31 219 -31v-12l96 -96q0 -106 17.5 -237.5t35 -217.5t50.5 -231q0 -3 6 -27q17 139 53 348q12 68 16 98l7 56q22 197 63 278q34 60 94 78q46 14 112 13q18 0 38 -1v-14l96 -94q12 -128 34.5 -270t41 -231.5t53.5 -248.5h2l19 -84q9 67 23.5 196.5 t16.5 147.5l9 62q43 368 69 504l25 16q79 -27 147 -27q24 0 74 9q0 -2 -1 -7.5t-1 -7.5l98 -96q-9 -101 -55 -250q-37 -135 -47 -197q-29 -225 -62 -362q-28 -132 -43 -231q-40 -250 -71 -363q-20 -67 -63 -91t-115 -24q-33 0 -78 4l-94 95q-2 0 -7.5 1t-7.5 1q2 20 2 65 q0 122 -53 326l-12 53q-2 10 -9.5 37t-9.5 41l-30 129l-11 45q-7 20 -10 43q-1 -2 -6 -18t-6 -23q-16 -51 -27 -92q-61 -210 -90 -449q-10 -74 -10 -233q-11 0 -36 -1t-32 -1q-26 -1 -45 -0.5t-34.5 6t-28.5 18.5l-80 78q-47 21 -74 113l-26 94q-47 156 -70 293 q-24 181 -93.5 590t-78.5 430zM70 1505q7 -17 71.5 -415.5t87.5 -575.5q8 -47 20.5 -100.5t23 -91t27.5 -98.5t26 -93q7 -28 14.5 -47t18.5 -30.5t19.5 -17.5t25.5 -8t29.5 -1t39 1.5t45.5 0.5q0 147 10 221q29 243 90 450q8 27 32 108.5t36 126t26.5 112t19.5 122.5 q-1 -36 0 -66q0 -60 5 -97q14 -100 58 -280.5t51 -211.5t38 -151q30 -119 42 -201q7 -51 7 -99q0 -29 -3 -57q29 -1 54.5 -1t47.5 1q44 2 75.5 26.5t47.5 76.5q29 110 66 321.5t49 269.5q33 147 61 363q10 63 51 207.5t50 220.5q-27 -4 -55 -4q-72 0 -148 26 q-34 -182 -81.5 -596t-92.5 -628q-23 142 -116.5 572.5t-115.5 668.5q-18 1 -34 1q-51 0 -91 -12q-52 -16 -80 -67q-16 -29 -28.5 -77.5t-17 -80t-12.5 -97t-9 -73.5q-3 -16 -20.5 -127t-22.5 -143t-17.5 -125.5t-17 -145t-8.5 -126t-4 -138.5q-2 31 -28 90.5t-30 88.5 q-18 101 -65.5 305.5t-74.5 368t-27 309.5q-37 0 -166 24z" />
<glyph unicode="X" horiz-adv-x="1116" d="M111 1544l100 -28q31 -5 72 -5q20 0 90 13q0 -2 -1 -7.5t-1 -7.5l98 -96q-2 -24 -2 -48q0 -58 14 -111q20 -74 62 -158q75 302 176 460q55 -18 123 -22q51 0 96 -12q0 -2 -1 -5.5t-1 -5.5l98 -96q-8 -63 -34.5 -138.5t-45.5 -117t-63 -131.5q-80 -160 -107 -242 q-22 -62 -22 -98q0 -27 10.5 -53t38.5 -76q88 -182 158 -344q10 -23 57 -149q34 -104 70 -177q-131 45 -262 45l-97 97h-10q-91 249 -127 356q-10 -33 -76 -211q-27 -70 -51 -141l-2 -2q-10 -10 -11.5 -16t0.5 -11.5t1 -11.5q-9 -28 -15.5 -43.5t-22 -33t-38.5 -26.5l2 -2 q-9 -3 -19.5 -4t-24.5 0.5t-23 3.5t-25.5 6t-22.5 5l-45 8l-94 94l-14 2q21 124 77.5 290t118.5 312l58 137q16 39 16 88q0 41 -18.5 91t-36 82t-53.5 90h2l-17 22q-70 108 -88 172l-10 49l-18 74l-5 10q-2 2 -2 6zM127 1512q2 -1 16 -3l-2 4zM141 23l31.5 -7t37.5 -8 t37.5 -4.5t31.5 2.5q19 8 32 23.5t18 28.5t13 40.5t14 42.5q19 53 60.5 164.5t71.5 197.5t55 165q80 -293 198 -617q122 0 226 -35q-23 48 -57 147.5t-56 147.5q-70 162 -158 344q-32 58 -42 85t-8 61.5t22 91.5q26 77 84.5 193.5t104 223t58.5 197.5q-20 4 -85 7t-101 16 q-38 -60 -67.5 -127.5t-55.5 -158.5t-37.5 -138t-36.5 -158q-14 59 -49 135.5t-65.5 135t-51.5 134.5q-17 61 -17 118q0 13 1 26q-31 -7 -68 -7q-51 0 -112 13q-4 1 -27 6l4 -18q-5 12 1 -9q2 -6 22 -65q5 -17 10 -36.5t10.5 -44t8.5 -38.5q13 -43 40 -93.5t54 -90.5 t55 -90.5t43 -92t19 -95.5v-15q0 -46 -19 -86q-16 -39 -69.5 -164.5t-79 -191.5t-57.5 -169.5t-44 -186.5z" />
<glyph unicode="Y" horiz-adv-x="1046" d="M29 1491l10 41l12 -23q8 8 19 11q10 10 26 10l39 -6q102 -13 111 -13q0 -10 2 -14l94 -94q9 -66 31.5 -138t42.5 -120t55 -123l25 -59q22 98 96 350q13 43 16 57l15 51q9 23 12 43q15 59 37 74q19 12 73 12h23h14q2 0 8 1t9 1q31 1 49 0t38.5 -11.5t28.5 -31.5l84 -84 q16 -16 19 -47v-2q2 -38 -47 -139l-25 -55h2q-14 -65 -53 -162q-42 -101 -80 -217q-35 -116 -88 -205q-1 -5 -5 -9.5t-7.5 -7.5t-9.5 -7t-9 -7q-22 -22 -26 -30q-4 -7 -5.5 -18t0 -25t3 -25.5t4.5 -29t4 -25.5q2 -4 2 -19q12 -150 12 -307q0 -110 -6 -205q-82 0 -117 2 q-70 4 -112 4l-97 97h-12q-10 54 -10 127q0 72 12 194q0 5 2 18t2 17q10 92 10 160q0 117 -32 180q-28 64 -99 147q-8 8 -8 11q-76 96 -94 141q-38 81 -61 238l-5 20l-6 35q-4 35 -12 72l-4 22q-14 70 -14 103q0 13 2 20zM49 1485q-5 -7 0.5 -46t16 -91.5t12.5 -69.5 q1 -7 7.5 -47.5t8.5 -52t8.5 -45.5t12 -52t14 -44t18.5 -48q22 -54 100 -148.5t101 -150.5q29 -60 34 -154q1 -26 1 -52q0 -65 -9 -128q-11 -86 -16 -184q-1 -28 -1 -54q0 -63 8 -112q31 0 101 -3t101 -3q6 91 6 191q0 143 -12 305q0 1 -4 25.5t-5.5 35t-3 30.5t0 34t6.5 24 q6 15 29 33.5t28 30.5q41 63 86 200q34 102 82 219q32 79 51 160q5 15 25.5 58t34 79t10.5 54q-2 20 -10 32t-24 16t-28 5t-36.5 -0.5t-34.5 -1.5q-18 1 -30 1.5t-23 -1t-17 -2t-13 -7t-9.5 -9t-7 -14t-6 -18t-7 -24.5t-8.5 -29q-10 -35 -45.5 -154.5t-50 -173.5t-36.5 -148 t-34 -175q-16 82 -54.5 181t-77 176.5t-74.5 176t-48 181.5q-18 0 -135 17l-37 5zM154 1399q0 -2 2 -2z" />
<glyph unicode="Z" horiz-adv-x="1044" d="M92 72q0 69 84 198v-2l12 19l29 45q58 102 145 358l15 43q35 116 104 266l41 105q20 54 43 108q-9 0 -28 -1t-29 -1q-86 -4 -125 -4q-79 0 -150 13l-94 92l-14 4q0 51 4 55v4q8 54 7.5 84t-7.5 35q-5 8 -5 15q0 19 40 29q55 13 117 13l51 -4q76 -6 151 -6q13 -1 28 0 q55 0 134 8l39 4q58 7 107 7q57 0 104 -13l6 -16l92 -92l8 -21q-65 -134 -145 -338l-61 -151q-67 -160 -119 -271q-4 -9 -21.5 -47t-23 -49.5t-21.5 -46t-22 -49t-20 -46.5t-21 -50t-18.5 -47t-19.5 -50.5t-17 -48t-17 -51.5q70 3 129 12q98 13 156 13q28 0 78 -4v-15 l96 -94q1 -15 2.5 -32.5t2.5 -29t1 -14.5q0 -56 -20 -87t-74 -38q-23 -2 -48 -2q-51 0 -112 8q-1 0 -4 1t-4 1q-21 2 -50 2q-57 0 -145 -8q-93 -6 -127 -6q-75 0 -104 10q-15 5 -29 19l-80 80q-51 19 -51 84zM114 50q8 -30 42 -44q30 -10 98 -10q52 0 127 6q89 8 147 8 q29 0 50 -2q81 -10 129 -10q20 0 34 2q41 6 61 30q19 24 20 60q0 27 -3 84q-19 2 -43 2q-52 0 -123 -8q-104 -10 -170 -16q-15 -1 -32 -2q-55 0 -125 14q35 135 93 279t141 324t120 269q22 51 62.5 154t75 184.5t69.5 151.5q-62 12 -108 12h-19q-52 -4 -140 -12 q-71 -7 -117 -6h-20q-32 0 -202 10q-110 0 -133 -15q-6 -4 -3 -8q12 -7 11.5 -42.5t-6 -80.5t-5.5 -51q54 -9 145 -9q49 0 108 2q69 3 125 4q82 0 134 -7q-33 -40 -59.5 -96t-54.5 -129.5t-43 -106.5q-70 -161 -103 -264l-22 -66t-24.5 -74t-23 -64.5t-28.5 -73t-28.5 -61.5 t-34.5 -66q-7 -13 -33 -53t-45 -74.5t-35 -74.5q-11 -27 -11 -49q0 -11 2 -21z" />
<glyph unicode="[" horiz-adv-x="591" d="M57 1661q49 -22 87 -32.5t61 -10.5h49h59q5 0 18 1t19 1q25 2 88 2v-12l97 -97q0 -89 -5 -133l-14 -12q-100 0 -143 4q-13 -277 -13 -649v-238q0 -47 1 -142t1 -142q0 -23 -1 -68t-1 -67q-2 -16 -2 -46q51 -7 99 -2v-14l96 -94q7 -98 -14 -180q-81 24 -234 24 q-82 0 -115 2l-96 97h-12q-23 167 -23 378q0 170 25 545q25 371 25 529q0 11 4 77q4 62 4 101q0 82 -60 178zM79 232q0 -197 21 -359q32 -2 102.5 -2t124 -4t99.5 -17q19 70 12 146q-23 -1 -51 1.5t-47.5 6.5t-51.5 11t-46 10q0 48 2 140.5t2 137.5q0 97 -1.5 291 t-1.5 311.5t3.5 282.5t11.5 303q49 -6 156 -6q4 35 4 117q-17 0 -64.5 -2.5t-62.5 -2.5q-9 0 -43.5 -1t-49.5 0t-40.5 5t-44.5 13q20 -33 24 -86t-2 -129t-6 -94q0 -146 -13 -353t-25 -365t-12 -355z" />
<glyph unicode="\" horiz-adv-x="727" d="M10 1550h29q26 2 108 -14q30 -6 52 -6l4 -17l94 -92q73 -202 170 -583l14 -54l54 -215q81 -325 94 -385q12 -56 55 -192q22 -68 33 -111q-15 1 -49 3.5t-45 2.5q-5 0 -18 -1t-33 -2.5t-35 -2.5l-97 96h-12q-25 101 -104 463l-9 37q-117 531 -200 787q-9 29 -45 108 q-54 114 -60 178zM33 1532q3 -38 48 -136.5t54 -125.5q79 -240 180 -697t131 -573q74 9 148 0q-7 26 -26 87t-32.5 107.5t-23.5 90.5q-25 115 -81.5 338.5t-65.5 259.5q-112 437 -181 626q-5 0 -41 7q-91 17 -90 10q0 -2 6 -6z" />
<glyph unicode="]" horiz-adv-x="577" d="M39 18q58 -6 147 15l23 4l24 6q0 82 -2 125q0 12 -1 34t-1 34v208q0 24 1 72t1 72v237q0 361 -8 543h-39l-14 12l-84 84h-6l-19 17q-4 35 -4 141q65 0 88 -2q5 0 18.5 -1t18.5 -1h60h48.5t60.5 10.5t87 32.5l-12 -21l96 -96q-47 -76 -47 -164q0 -34 4 -100q4 -54 4 -78 q0 -157 25 -528q24 -360 24 -545q0 -213 -22 -373q-33 -2 -115 -2q-152 0 -233 -24l-99 98l-8 -4q-23 88 -16 194zM57 -4q-6 -73 13 -146q46 13 99.5 17t123.5 4t102 2q21 162 21 359t-12 355t-24.5 365t-12.5 353q0 18 -6 94t-2 129t24 86q-19 -9 -44.5 -13t-40.5 -5 t-49.5 0t-43.5 1q-15 0 -62.5 2.5t-64.5 2.5q0 -82 4 -117q107 0 156 6q8 -138 11.5 -303t3.5 -282.5t-1.5 -311.5t-1.5 -291q0 -45 2 -137.5t2 -140.5q-13 -3 -45.5 -10t-52 -11t-48 -6.5t-51.5 -1.5z" />
<glyph unicode="^" horiz-adv-x="1155" d="M36.5 714.5q0.5 4.5 1.5 9t3.5 10.5t4.5 10.5t5 11.5l6 18l9 21l6 14l18 53q57 123 90 187q55 119 182 317l21 29h-2q59 97 96 116q31 17 139 17l7 -19l92 -90q43 -109 100 -227.5t100 -197t113 -203.5l107 -191l-72 -10q-35 -9 -73 -5t-64 31l-76 76q-23 10 -37 29 q-33 39 -59 108l-17 50q-40 71 -94 208l-10 29q-19 38 -27 62q-41 -97 -131.5 -299.5t-132.5 -300.5q-31 10 -96 14q-69 4 -80 12q-13 -3 -16 2l-95 92q-5 0 -9 1t-6 3t-3 5t-0.5 7.5zM68 724q2 0 6 1v-8q3 -3 35 -6t70.5 -6t53.5 -7l281 639h61q3 -34 15.5 -69.5t33 -79 t29.5 -66.5q60 -160 103 -235q8 -16 19.5 -49t23.5 -59t28 -44q17 -20 40 -27.5t40 -6.5t50.5 7t52.5 7q-33 60 -105.5 189.5t-113.5 204.5t-95.5 187t-93.5 211q-90 0 -115 -14q-18 -8 -35.5 -29.5t-43.5 -64.5t-27 -45q-123 -181 -182 -314q-41 -78 -86 -176 q-5 -16 -27 -76q-2 -6 -9 -22q-20 -42 -9 -42z" />
<glyph unicode="_" horiz-adv-x="1386" d="M37 0q0 6 10.5 7.5t31 -0.5t40.5 -5t49 -8h-2l29 -4q23 -2 77 2q24 4 43 4q20 -2 62 -2q57 0 86 2q6 0 18.5 1t18.5 1q7 0 20.5 1t20.5 1q84 4 127 2q105 -6 209 -6q141 0 323 10l19 -12q0 -2 4 -14l92 -93q27 -96 10 -188q-91 -10 -211 14q-117 0 -416.5 2t-414.5 2 q-51 8 -70 27l-86 86q-28 16 -33 43t4 61v9l-35 34q-26 14 -26 23zM114 -98q-1 -10 0 -24t8 -20t21.5 -13t38.5 -11l832 -4q121 -24 196 -16q15 80 -12 172q-321 -18 -530 -4q-56 2 -174 -4t-179 -3q-12 0 -54 -4.5t-68 -1.5q-3 0 -28 5q-48 9 -49 6q-1 -1 9 -5 q-2 -17 -6 -40t-5 -33z" />
<glyph unicode="`" horiz-adv-x="407" d="M33 1358q47 86 47 274q0 111 -8 187q78 -29 204 -29v-14l97 -95q6 -103 -30 -222.5t-101 -188.5l24 -23q-55 -12 -112 -12l-97 96h-10zM51 1352q52 0 70 4l-12 8q71 63 112 184t35 221q-114 0 -162 17q25 -307 -43 -434z" />
<glyph unicode="a" horiz-adv-x="888" d="M47 803q12 106 12 248h43q191 100 322 100q6 0 12 1q68 0 131 -32q69 -34 109 -98l61 -59q42 -42 62 -95q26 -77 26 -174q0 -10 -1 -30.5t-1 -30.5t-1 -30t-1 -30q2 -74 10 -227q13 -225 13 -315q0 -68 -8 -174q-115 14 -146 45l-24 24q-33 -61 -136 -61h-16 q-150 6 -248 104l-53 51q-75 50 -116.5 130.5t-41.5 177.5q0 55 11 100q15 55 37 97.5t52.5 72.5t60.5 50.5t75 35.5t80 24t90 19q12 4 20 4q3 0 39 6q6 27 6 51q0 25 -6 46q-38 10 -69 10q-69 0 -148.5 -34.5t-144.5 -94.5l-99 98zM74 854q41 38 97.5 65t112.5 36 q33 5 65 5q23 0 46 -2q54 -6 91 -35t54 -78q8 -24 8 -54q0 -32 -9 -70q-25 -5 -63.5 -12.5t-61.5 -11.5t-56.5 -12t-54 -15.5t-48 -19.5t-45.5 -26t-39 -34t-35 -44t-27.5 -55t-22.5 -69q-11 -49 -11 -96q1 -60 19 -116q32 -98 116.5 -160t201.5 -68h16q41 0 68 9 q32 11 48 40.5t21 59.5t8 85q0 -104 8 -130q13 -41 64 -57q29 -8 76 -14q6 131 6 205q-1 16 -1 29q-2 75 -10.5 232.5t-10.5 234.5q0 16 1 70q1 36 1 60q-1 12 -1 20q0 26 -6 67.5t-18 73.5q-30 83 -101 125q-64 38 -139 39q-9 0 -18 -1q-124 0 -315 -100h-29 q0 -123 -6 -176zM256 266q-2 9 -1 20q0 25 10 53q14 39 28 64.5t39 65.5q43 61 89 93q31 21 67 21q18 0 38 -5l6 6q8 -56 11 -132q1 -15 1 -30q0 -62 -10 -134q-12 -88 -47 -118q-28 -23 -67 -23q-16 1 -35 5q-62 14 -98 53q-25 27 -31 61zM371 176q21 -8 49 -8q37 0 53 16 q49 41 49 232v22q-38 -24 -76 -80q-73 -117 -73 -174q0 -2 -1 -4.5t-1 -3.5z" />
<glyph unicode="b" horiz-adv-x="905" d="M53 1536l41 -10q25 8 54.5 14t66.5 10t51 -6q11 -8 21 -28l84 -84q30 -30 30 -193q0 -10 1 -30.5t1 -30.5q0 -60 -6 -115q53 16 103 16q83 0 155 -57l4 -2q31 -27 50 -59l57 -56q119 -119 119 -401q0 -131 -27 -311q-6 -48 -12 -81t-21 -78.5t-35.5 -76t-56 -56 t-82.5 -34.5q-28 -7 -60 -7q-49 0 -107 17q-96 28 -154 86l-21 21q1 -11 1 -22q0 -41 -9 -87q-47 8 -133 8l-96 97h-13q-4 74 -4 241q0 101 4 305q4 200 4 303q0 110 -4 336q0 17 -1 53.5t-1 55.5q-4 160 -4 262zM74 1509q0 -115 5 -342t5 -338q0 -99 -4 -277 q-3 -176 -4 -276v-36q0 -94 4 -240q73 0 108 -6q5 24 6 47.5t0 61.5t-1 47q17 -59 80.5 -104t139.5 -61q39 -8 74 -8q32 0 60 7q32 6 59 20.5t45 31.5t33 44.5t23 49.5t15.5 56t11 55t7.5 56q26 173 26 308q0 292 -122 401q-63 52 -141 52q-1 0 -2 1q-78 -1 -144 -41 t-106 -105q34 214 34 374q0 28 -1 54q0 169 -27 185q-10 5 -30 5q-22 0 -54 -6q-62 -12 -78 -22zM226 461q-3 35 -3 70q0 58 9 114q15 90 67 162t133 94v-22q156 0 156 -279q0 -170 -58 -313q-2 -5 -8.5 -21.5t-9.5 -23t-10 -22t-11.5 -22t-12 -18.5t-14 -17.5t-16 -12.5 t-18 -9t-20 -2t-23.5 4q-38 12 -71 60t-48 94q-33 70 -42 164zM338 428q0 -127 45 -229q2 -8 14 -37h8q29 0 50 25q24 29 41 75l16 33q55 140 55 305q0 96 -22 158q-16 4 -25 4l-12 12q-60 -23 -99.5 -79t-55 -122.5t-15.5 -144.5z" />
<glyph unicode="c" horiz-adv-x="823" d="M31 537q0 409 231 593q59 41 139 41q81 0 228 -45l59 -14l-2 -12l98 -96l-10 -168l-20 -13q-70 37 -131 37q-85 0 -154 -64.5t-104 -161.5t-35 -202q0 -113 41 -194h2h-2v-2q81 -46 194 -46q41 0 111 17l-2 -14l98 -97l-12 -112q-2 -13 -5.5 -42.5t-4.5 -39.5 q-64 -27 -119 -27q-113 0 -254 80q-42 25 -74 57l-49 49q-89 61 -151 176t-70 220q-2 23 -2 80zM53 459q6 -112 68 -224t160 -165q143 -78 251 -78q55 0 101 20q2 24 10 82.5t10 85.5q-40 -10 -87 -10q-30 0 -63 4q-84 11 -141 45q-118 70 -144 237q-6 41 -6 83 q0 111 45 219q59 144 165 195q48 24 99 24q65 0 136 -39l11 156q-11 3 -53 15.5t-68 19.5t-70 14.5t-75.5 7.5t-67 -8.5t-60.5 -28.5q-73 -56 -121 -133.5t-69.5 -168t-27.5 -173.5q-4 -51 -5 -108q0 -35 2 -72z" />
<glyph unicode="d" horiz-adv-x="987" d="M39 477q0 163 59 281q27 51 49.5 90t57.5 89t74.5 84t80.5 48q30 10 64 10q89 0 143 -57q0 21 -4 53q0 7 -1 20.5t-1 20.5q-5 62 -5 112q0 22 1 42q0 4 -1 10.5t-1 9.5v19q0 6 -1 19t-1 18v26q0 82 28.5 103.5t135.5 21.5h92v-14l96 -94q1 -20 1 -45t-0.5 -55t-0.5 -44 v-74q0 -50 2 -75l13 -170q16 -222 16 -340q0 -43 -4 -133l-17 -181q-12 -116 -16 -176v-82q1 -17 1 -32q0 -93 -21 -146q-24 -4 -55 -4q-58 0 -144 14l-62 62q-72 -29 -139 -29q-98 0 -157 41l-27 25l-64 61l-16 12q-83 63 -129.5 191.5t-46.5 267.5zM60 517q-1 -21 -2 -41 q0 -123 38 -242q44 -139 131 -199q51 -37 135 -41h15q76 0 143 32q74 34 90 97q-3 -28 -8 -81t-8 -81q74 -14 125 -14q27 0 47 4q16 47 16 125v125q5 58 16.5 176.5t16.5 177.5q4 39 4 98q0 31 -1 65q-3 104 -6 158.5t-10.5 159t-10.5 162.5q-2 38 -2 97v41v55q0 51 -1 86 h-38q-128 -1 -150 -19q-23 -19 -24 -117q0 -15 1 -31q1 -26 1 -40q-1 -14 -1 -32q-1 -46 5 -122q5 -69 5 -114q0 -23 -1 -39q-34 57 -96 83q-33 14 -66 14q-29 0 -57 -11q-32 -11 -64 -36t-53.5 -49t-49.5 -68t-39.5 -64.5t-36.5 -68.5q-5 -9 -7 -13q-49 -89 -57 -233z M250 636q24 198 108 248q24 15 52 15q54 0 122 -55l-12 2q41 -14 71 -82.5t41 -135.5t11 -118q0 -287 -121 -365q-35 -22 -68 -22q-12 -1 -24 3q-43 12 -79 55.5t-60 93.5t-35 98q-14 64 -14 141q0 57 8 122zM360 416q0 -82 13 -142q9 -56 45 -120q22 -11 39 -11q25 0 53 19 v2q113 75 113 346q0 52 -15 129t-43 129q-31 14 -53 14q-40 0 -71 -33.5t-48 -88.5t-25 -117t-8 -127z" />
<glyph unicode="e" horiz-adv-x="1003" d="M37 604q0 68 8 117q9 70 31 138t58 129.5t82.5 108t108 74t130.5 27.5q49 0 98 -12q113 -28 203 -150l49 -49q78 -78 120 -194q37 -102 37 -198q0 -14 -1 -28v-2q-4 -62 -32.5 -104.5t-79 -63.5t-104 -29t-122.5 -8q-27 0 -140 5q-70 4 -80 4q-1 -10 -1 -20q0 -47 12 -91 q46 -20 129 -20q62 0 137 10l29 4q47 9 137 12v-12l96 -96q0 -38 2 -52q4 -36 4 -61q0 -56 -20 -82q-26 -37 -111 -37q-29 0 -43 -2l-24 -4q-93 -14 -168 -14q-132 0 -203 61l-33 31l-49 47q-20 15 -25 20q-117 100 -176 240.5t-59 300.5zM66 719q-8 -57 -8 -113 q0 -124 38 -242q56 -170 191 -286q33 -28 74 -42q41 -16 91 -16h13q43 0 78 4q40 4 99 11q19 3 28 4q15 2 42 2.5t42.5 1.5t32.5 8t26 21q14 15 17 45q1 13 1 28q0 21 -2 47q-4 45 -4 52q-28 -1 -76 -6.5t-89 -11.5t-91 -8h-27q-34 0 -63 3q-40 4 -79 20.5t-64 45.5t-39 79 q-11 39 -11 90q0 14 1 29q27 0 77 -2.5t88 -4.5q26 -1 57 -1h33q51 1 90 6t79.5 18t67.5 34t45 55.5t20 79.5q1 17 1 34q1 83 -27 169q-34 104 -106.5 186.5t-164.5 105.5q-47 12 -92 12q-51 0 -99 -16q-88 -29 -147 -97t-96 -157t-47 -188zM256 604h10q-4 21 -4 45 q0 46 14 104q21 88 56 146q57 103 135 103q13 0 27 -3q72 -15 126 -101q51 -79 51 -163q0 -16 -2 -33q-2 -13 -5 -26q-9 -33 -34.5 -53t-57.5 -27q-32 -8 -76 -8q-6 0 -10 -1q-38 -1 -70 3q-36 4 -81 8.5t-69 5.5v-6zM387 612q52 -6 98 -6q58 0 101.5 19t56.5 57q2 16 2 32 q0 32 -8 68q-12 54 -37 99q-20 4 -29 4q-71 0 -125 -97q-44 -73 -59 -176z" />
<glyph unicode="f" horiz-adv-x="878" d="M39 1020q18 59 76 59q25 0 43 -6q3 0 10 -2t10 -2q4 -2 8 -2q1 0 4.5 -1t4.5 -1q-1 12 -1 25q0 108 37 296v3q21 80 82 121.5t140 41.5q71 0 140 -36.5t114 -102.5l59 -59q93 -93 93 -234q0 -26 -3 -53h-149l-97 96h-14q20 56 20 84q0 19 -8 47q-16 4 -24 4 q-39 0 -60 -24q-45 -61 -45 -156v-51q92 -15 105 -63l80 -80q18 -18 18 -43q0 -17 -8 -37q-21 -49 -80 -49q-48 0 -109 22q10 -129 17 -321l4 -86q0 -166 -6 -250q0 -13 4 -49q4 -66 4 -111q0 -66 -27 -100q-13 -13 -65 -13q-46 0 -70 15q-21 12 -29 20l-73 74l-4 2 q-30 20 -37 36t-4 50q4 20 4 35q6 70 6 139q0 114 -25 383l-4 47q-1 9 -6 59t-6 76l-8 8l-82 80q-46 18 -46 67q0 19 7 42zM51 976q-1 -16 5.5 -25.5t14 -15.5t23.5 -8.5t27.5 -3.5t31.5 -1.5t31 -1.5q4 -82 14.5 -201.5t18 -200.5t11.5 -200q1 -37 1 -70q0 -75 -6 -131 q-1 -16 -3.5 -33.5t-3 -23.5t2 -15t10 -14.5t23.5 -14.5q22 -12 58 -12h9q43 2 60 19q12 15 13 63v16q0 42 -4 93q-5 61 -5 69q6 84 6 248q-14 336 -22 430q89 -31 126 -31h2q49 1 64 41q14 35 -1 58.5t-45.5 30.5t-66 9.5t-63.5 -3.5q-21 97 -21 171q0 15 1 28q5 84 49 138 q23 27 58 31q7 1 14 1q28 0 55 -14q33 -18 61 -49.5t35 -75.5q2 -13 2 -26q0 -32 -12 -67h116q3 24 3 47q0 137 -94 223q-90 81 -192 81q-23 0 -46 -3q-128 -22 -160 -150q-38 -187 -38 -283q0 -36 5 -59q-16 2 -43.5 8.5t-41.5 8.5t-31.5 0.5t-27.5 -12t-16 -31.5 q-7 -22 -8 -38z" />
<glyph unicode="g" horiz-adv-x="915" d="M39 516q0 165 47 290t170 206q71 47 156 47q86 0 147 -64q0 35 6 72q47 -5 58 -8q4 0 13 -2t13 -2q76 -13 107 -13l18 -20q0 -1 -1 -3t-1 -3l84 -82l14 -16q-20 -181 -20 -431q0 -92 4 -284q4 -110 4 -187v-24q0 -55 -7 -116q-9 -74 -34 -154.5t-62 -146t-97 -113.5 t-134 -60q-19 -3 -38 -3q-72 0 -158 37q-110 47 -178 115l-54 54q-27 19 -55 47q0 1 1 5t1 5q40 96 53 135q56 -32 126 -52.5t130 -20.5q58 0 105 18q67 41 88 168q-57 -31 -105 -31q-79 0 -155 53q-24 18 -45 39l-54 54l-8 6q-44 32 -70.5 65t-39.5 75t-16.5 73t-6.5 90 q0 29 -2 45q-4 90 -4 137zM60 556q-2 -33 -2 -64q0 -57 5 -111q1 -16 3 -51.5t3 -49.5t5 -43t9 -43t14 -37.5t21 -39t30.5 -34.5t41.5 -36q75 -51 147 -51q117 0 226 135q8 -50 9 -105v-15q0 -49 -6 -103q-6 -62 -32 -112t-69 -72q-54 -20 -118 -20q-31 0 -65 5 q-102 14 -173 55q-13 -38 -46 -106q63 -63 169 -106q84 -35 154 -35q17 0 34 2q72 11 130 58t93.5 111t59 142.5t31.5 151.5q7 58 7 112v25q-1 51 -4 219t-3 244q-1 8 -1 16q0 74 5 190q4 128 16 234q-32 0 -95.5 10.5t-76.5 11.5q-2 -16 -2 -34q0 -40 12 -88v-13 q-30 70 -84 103q-45 28 -96 28q-10 0 -20 -1q-62 -6 -124 -46q-78 -50 -125.5 -121.5t-63 -149t-19.5 -166.5zM219 582q11 97 57.5 179.5t120.5 108.5h6q22 26 43 26q38 0 73 -88q34 -85 43 -171q1 -3 1 -6q2 -31 2 -61q0 -143 -35 -277q-17 -68 -58 -106q-32 -31 -73 -31 q-10 0 -20 2q-53 9 -98 73q-41 58 -57 155q-9 58 -9 116q0 40 4 80zM332 393q0 -131 39 -213q16 -4 26 -4q37 0 67.5 33.5t45.5 89.5q35 137 35 270q0 40 -2 60q-6 55 -29 133l-6 -6q-87 -29 -131.5 -132t-44.5 -231z" />
<glyph unicode="h" horiz-adv-x="854" d="M53 -12q0 35 4 59q9 97 9 150q0 31 -3 61l-10 1229q3 20 39.5 38.5t75.5 22.5q11 1 21 1q25 0 44 -7q11 -11 13 -20l92 -90q15 -16 15 -74q0 -25 -3 -58q0 -5 -1 -17.5t-1 -16.5q2 -51 10 -140q4 -36 4 -57q46 18 95 18t92 -16q71 -33 113 -94l69 -70q87 -87 94 -272 q4 -102 4 -170q0 -58 -4 -172v-2q-1 -5 -1 -18q0 -25 3 -78q4 -86 4 -140q0 -141 -36 -161l2 -3q-6 -4 -20 -4q-20 -1 -57 7q-64 14 -79 26l-12 10l-82 80q-6 2 -12 8q-27 22 -33 44q-4 16 -5 44q0 10 1 21v31q2 53 10 145q12 140 12 221v33q0 174 -18 242q-28 -1 -54 -21.5 t-44 -51.5t-30 -62t-20 -62q-18 -76 -18 -180q0 -1 6 -166q1 -19 2.5 -53.5t2.5 -62.5t1 -52q0 -102 -20 -194q-12 2 -28 2q-23 0 -52 -5q-28 -4 -49 -4t-37 4l-94 95q-2 0 -7.5 1t-7.5 1zM74 6q10 -2 23 -2q19 0 47 4q29 5 50 6q12 0 21 -2q17 78 17 187q0 22 -1 44 q-4 137 -11 235q-2 22 -2 45q0 83 20 186q6 25 14.5 49t21.5 52.5t29 48.5t37 38t45.5 19.5t54.5 -5.5q21 -6 38 -23t27.5 -37.5t18 -52.5t11 -57t5.5 -63t2 -58t-0.5 -54.5t-0.5 -41.5q0 -72 -10.5 -198.5t-12.5 -167.5q0 -11 -1 -30t-0.5 -28t2.5 -22.5t9 -23t19 -19.5 q14 -9 71 -23q36 -8 53 -9q10 0 15 3q24 13 28 90q2 36 2 79q0 47 -3 100q-4 85 -4 112v8q4 87 4.5 172.5t-4.5 169.5q-2 57 -8.5 99.5t-23.5 86.5t-51 76.5t-85 53.5q-44 14 -89 14q-12 0 -22 -1q-56 -4 -108 -36.5t-74 -83.5q3 64 3 105q0 21 -1 36q-2 45 -9.5 138 t-9.5 143q0 10 2 40t2.5 50.5t-4.5 42t-16 29.5q-12 6 -31 6q-22 0 -51 -8q-55 -16 -59 -43l10 -1225q1 -16 1 -40q0 -72 -11 -214z" />
<glyph unicode="i" horiz-adv-x="565" d="M37 1311q-1 13 -1 25q0 67 28 123q33 66 106 91q25 3 45 4q25 0 41 -6q78 -5 131 -90l64 -63q65 -65 77 -183q1 -14 1 -27q-1 -82 -43 -128q-50 -53 -126 -53q-84 0 -149 65l-64 61q-45 28 -74.5 74.5t-35.5 106.5zM57 1313q11 -115 103 -168q49 -28 96 -28q40 -1 80 21 q76 42 77 151q0 12 -1 24q-7 80 -48.5 146t-111.5 69q-10 6 -31 6q-17 0 -41 -4q-69 -24 -100 -84q-25 -48 -25 -104q0 -14 2 -29zM121 997l33 2q34 15 65 15q33 0 96 -13l17 -16v-10l96 -94q6 -78 6 -238t-6 -319q-6 -282 -6 -297q0 -94 2 -133q-3 0 -16 -1.5t-15 -1.5 q-73 -10 -82 -10q-31 0 -71 13l-95 94q-6 0 -14 4q6 111 6 252q0 120 -8 374q-8 234 -8 379zM141 977q0 -111 7.5 -322.5t9.5 -335.5v-52q0 -110 -6 -261q10 -3 21 -5t18.5 -3t20 -0.5t17.5 0.5t19.5 2t17.5 2.5t20.5 4t20.5 3.5q-1 31 -1 74q0 138 8 408q4 156 4 269 q0 144 -7 220q-37 7 -55.5 10t-48.5 1.5t-49 -13.5z" />
<glyph unicode="j" horiz-adv-x="665" d="M35 -418q0 29 2 39v-2q4 32 4 43q0 5 -1 14.5t-1 14.5v28q-2 20 -2 88q23 -10 45 -10q37 0 72 28q55 44 65 103q43 151 43 338q0 47 -2 72v70q0 110 2 167q4 114 4 173q0 110 -12 239q25 2 29 4q2 0 10 4q58 19 95 19q32 0 48 -15h-2q4 -4 8 -16l90 -88v-2q15 -18 15 -76 q0 -12 -1 -34.5t-1 -32.5q0 -8 -1 -19.5t-1 -13.5l4 -127q14 -492 14 -635q0 -455 -418 -469l-98 98q-2 0 -5 -1t-5 -1zM57 -223q0 -18 2 -53.5t2 -65.5t-4 -55q387 14 387 454q0 191 -18 762q0 3 2 49q2 28 2 51v27q-2 32 -10 41q-9 11 -34.5 8.5t-45.5 -8t-41.5 -13 t-22.5 -7.5q9 -88 9 -196t-3 -232q-1 -89 -1 -152v-47q2 -39 2 -77q0 -191 -43 -343q-10 -66 -66 -118q-37 -34 -77 -34q-20 0 -40 9zM135 1313q-1 14 -1 28q0 66 28 119q33 65 110 88q24 5 44 5t36 -5q75 -5 125 -86l70 -67q65 -68 76 -181q1 -14 1 -27q0 -81 -42 -127 q-49 -52 -125 -52q-85 0 -150 65l-65 64q-44 28 -73.5 73.5t-33.5 102.5zM156 1315q10 -113 101 -165q49 -28 95 -28q41 0 80 21q75 42 75 148q0 12 -1 24q-7 79 -48 144.5t-110 68.5q-12 6 -29 6t-40 -6q-70 -22 -101 -80q-24 -47 -24 -103q0 -15 2 -30zM276 967v4v-4z" />
<glyph unicode="k" horiz-adv-x="876" d="M51 911q0 303 19 547h-2q0 13 -2 17q-5 15 -5 36q48 0 109 21q52 18 111 18q0 -3 1 -8t1 -8l94 -92q18 -103 18 -234q0 -66 -14 -295q-2 -6 -2 -16l22 29l-2 -2l9 10l32 45l29 37l-2 -2l10 14q20 27 30.5 40t29.5 28.5t36 19.5q9 2 21 2q43 0 125 -28l51 -17l-8 -8 l100 -98q-71 -81 -157 -217h-3l-18 -31q-7 -9 -88 -117l-64 -82q-24 -34 -24 -57q0 -5 1 -10.5t3.5 -11t4 -9.5t6.5 -10.5t7.5 -10t9 -11t9 -10.5t11 -11.5l11.5 -11.5l33 -35q220 -267 240 -432q-23 0 -68 -9q-36 -6 -61 -6t-39 6q-6 3 -14 11l-84 84q-1 0 -3.5 1t-3.5 1 q-6 2 -11.5 6.5t-12.5 12.5t-12 15t-12.5 19.5t-12 19.5t-13 22t-12.5 21l-8 15q-12 30 -37 59q-36 46 -71 107l-9 -383l-49 -8q-40 -8 -60.5 -8t-33.5 12l-86 86q-22 6 -33 28t-14 72q-33 515 -33 827zM82 1491q0 -1 3 -8.5t3 -14.5l6 23q-22 -262 -22 -575q0 -378 32 -832 q1 -23 3.5 -38t10 -24.5t12 -14t20.5 -4.5t23 1t33 5.5t38 6.5q3 83 6 249.5t6 248.5q25 -38 91 -151t110 -173q10 -13 35.5 -58.5t49 -82t38.5 -43.5q23 -7 43.5 -4.5t54 8.5t47.5 6q-18 154 -223 398q-14 16 -42.5 44.5t-39.5 42.5t-22 36t-5.5 44.5t25.5 49.5 q19 25 73 95t82 108q103 157 162 227q-7 2 -27.5 9t-34 11.5t-35.5 10t-32.5 5.5t-25.5 -1q-20 -3 -41.5 -24t-48 -58.5t-33.5 -46.5q-7 -8 -30.5 -37.5t-32.5 -41t-29 -37t-31.5 -41t-27.5 -38t-29.5 -43t-26.5 -41.5v40q0 74 5 168q7 122 15 216q8 90 8 198v14 q0 116 -16 206q-30 0 -87.5 -19.5t-92.5 -19.5z" />
<glyph unicode="l" horiz-adv-x="641" d="M47 1085q0 60 2 89q4 70 4 124v50q0 123 15 202h223q0 -3 1 -7.5t1 -6.5l94 -94q4 -45 4 -84q0 -74 -7 -141l-5 -97q-3 -115 -12 -225q-13 -212 -13 -293q0 -78 6 -160l9 -61q15 -125 24 -154q17 -2 35.5 -2t38.5 2h59l-2 -12l99 -96l-5 -53q-4 -30 -7.5 -48.5 t-12.5 -40.5t-26 -37.5t-42 -25.5q-64 -31 -153 -31q-43 0 -70 6q-45 8 -76 39l-73 74q-80 42 -80 176q0 50 2 70q3 39 3 64q0 13 -1 22q-4 129 -16 371q0 3 -1.5 9.5t-1.5 10.5v23q-16 218 -16 337zM70 1174q-1 -26 -1 -60q0 -141 17 -409q12 -246 16 -369q0 -7 1 -15 q0 -25 -3 -63q-3 -43 -3 -74q1 -4 1 -10q0 -34 7.5 -73t33.5 -63t70 -32q24 -6 60 -6q22 0 48 2q69 6 105 27q19 8 32.5 20t21 23t13 30t7.5 31t5 37t5 37q-13 0 -40 -1t-41.5 -1t-36.5 2.5t-35.5 8t-27.5 17.5t-22 29q-18 31 -28.5 78t-20 121.5t-10.5 81.5q-8 59 -8 143 v28q2 102 6.5 170.5t11 170t8.5 168.5q1 32 6.5 104t6.5 104v14q0 31 -3 85h-186q-9 -59 -12 -198t-4 -158z" />
<glyph unicode="m" horiz-adv-x="1466" d="M61 823q0 159 23 324q45 8 115 8h67v-12l51 -53q86 47 195 47q82 0 149 -31t99 -92l6 -6q54 86 131 138q67 46 146 45q12 0 24 -1q107 -14 168 -111l61 -59q111 -111 111 -416q0 -61 -4 -135q0 -18 -1 -73.5t-1 -73.5q0 -20 -1 -60t-1 -61q0 -56 4 -174l4 -37 q7 -43 -2.5 -61t-61.5 -35l-2 2q-22 -8 -49 -8t-59 8q-5 0 -16 2t-13 2l-94 94q-2 0 -7.5 1t-6.5 1q8 80 8 203v147q0 13 -0.5 36t-0.5 42t1 35q0 41 2 59q4 74 4 137q0 154 -35 242q-41 0 -81.5 -47t-63.5 -102t-29 -95q-16 -84 -16 -192q0 -38 10 -228t10 -229 q0 -42 -4 -108q-30 -9 -76 -9q-43 0 -98 9l-96 96q-2 0 -7.5 1t-7.5 1q21 108 21 213q0 47 -4 137q-2 45 -2 133q0 57 2 88t2 107q0 136 -33 211h-16q-70 0 -135 -62.5t-76 -132.5q-10 -66 -10 -174q0 -125 14 -307q14 -171 14 -303q-31 -10 -74 -10q-49 0 -98 8l-94 94 q-6 2 -14 2q-7 124 -23 326q-29 340 -29 499zM82 846v-32q0 -132 8 -234q8 -114 23 -287t20 -277q49 -6 85 -6t58 6v7q0 72 -7.5 187.5t-14 202t-7.5 199.5v17q0 101 11 164q7 46 40 94t79 78q45 29 97 35q6 1 13 1q44 0 82 -34q34 -32 54 -77.5t26 -104t7 -102.5v-23 q0 -38 -2 -89q-3 -68 -3 -94q0 -41 4 -146q2 -65 2 -118q-1 -33 -1 -61q-2 -74 -15 -142q48 -6 83.5 -6t59.5 6q3 44 3 99q-1 67 -5 151q-8 152 -13 252q-1 20 -1 42q0 87 16 204q5 36 25.5 86t53.5 97t73 66q17 8 36 8q24 0 50 -14q34 -20 57 -62t33.5 -86.5t14.5 -108.5 q4 -57 4 -98q-1 -6 -1 -10q0 -42 -3 -102t-3 -75v-76.5v-143.5v-42q0 -141 -6 -181q5 -1 19 -5t18.5 -5t15.5 -3t17 -1.5t15 0.5t17 2t17 6q23 7 35.5 13.5t17 18t4.5 19t-3.5 30.5t-4.5 38q-3 67 -3 140.5t1.5 163t1.5 138.5q2 68 2 125q0 113 -9 180q-36 271 -214 293 q-11 1 -21 1q-82 0 -152 -57q-78 -64 -132 -159q-13 64 -64 106q-50 40 -118 50q-33 5 -67 5q-35 0 -71 -5q-70 -10 -127.5 -48t-81.5 -93q15 57 15 166q-110 0 -144 -7q-19 -130 -20 -282z" />
<glyph unicode="n" horiz-adv-x="954" d="M53 1139l29 18q17 12 84 12q47 0 78 -8q0 -8 4 -16l63 -66q121 90 197 90h7q118 0 183 -102l66 -63q27 -27 47 -64t33 -85t19 -80t14 -85l4 -28q12 -96 12 -256v-158q0 -33 8 -115q10 -113 10 -137q0 -49 -16 -111q-35 6 -76 6q-26 0 -39 1t-31 6.5t-30 17.5l-86 84 q-25 15 -39 39q-10 18 -10 65q0 30 4 76q4 24 4 41q-10 114 -33 416q0 6 -1 18.5t-1 18.5l-6 112q-6 53 -19 101q-67 -10 -114 -119q-62 -140 -62 -334q0 -24 1 -51.5t2.5 -61t2.5 -51.5q5 -117 5 -151q0 -140 -29 -240l-78 8q-10 0 -74 9l-94 94q-4 2 -14 2q-10 86 -10 233 v90q0 136 -2 199q-13 436 -13 625zM74 1126q0 -210 12 -612q2 -40 2 -179v-75q0 -11 -1 -21q0 -185 9 -229q22 -3 65 -6t64 -6q21 76 24 168q1 33 1 64q0 58 -4 113q-6 85 -8 173v26q0 76 12 156q14 94 53 179q28 63 64 95q34 31 66 31h3q34 -2 63.5 -26t48.5 -75t23 -116 q26 -409 41 -563q0 -10 -4 -51t-4 -75t8 -50q14 -25 38 -33q22 -7 61 -7q3 1 5 1h9q36 0 57 -4q11 35 12 83v17q0 38 -4 72q-4 40 -9 91t-5 83v100v66v46q0 36 -3 94.5t-9 105.5q-24 146 -39 195q-53 178 -187 191q-14 1 -30 1q-60 0 -139 -52t-131 -112q-6 27 -6.5 80.5 t-6.5 77.5q-26 6 -60 6h-17q-44 -2 -56 -10z" />
<glyph unicode="o" horiz-adv-x="1009" d="M57 588q0 142 47 239q53 106 141.5 209.5t176.5 155.5q22 6 46 6q56 0 116 -38q85 -54 157 -148l33 -31q61 -61 108.5 -136.5t61.5 -129.5q31 -141 31 -281q0 -285 -141 -426q-61 -64 -142.5 -102.5t-161.5 -38.5q-112 0 -190 78l-59 59q-62 38 -105 113v-2 q-53 89 -86 218t-33 255zM78 592q0 -130 32 -252q32 -124 85 -213q45 -79 114 -115q58 -30 118 -30q12 0 24 1q73 7 144 43t126 95q60 59 94 146t40 183q3 43 3 85q0 52 -4 101q-8 89 -27 177q-13 50 -53.5 116.5t-93.5 128.5q-54 60 -122 96q-47 24 -88 25q-19 0 -36 -5 q-87 -52 -173 -152.5t-138 -202.5q-45 -92 -45 -227zM294 638q4 112 45 208.5t114 130.5l20 6q29 2 52.5 -4.5t39 -17t27.5 -31t18.5 -38t11.5 -45.5t7 -46t4.5 -48.5t3.5 -43.5q12 -96 12 -178q0 -143 -37 -244q-21 -65 -52.5 -106.5t-67.5 -53.5q-10 -4 -21 -4 q-27 0 -53 21q-38 29 -70 100q-30 66 -44 174q-11 82 -11 166q0 27 1 54zM410 471q0 -91 15 -180t38 -144v-2h8q35 0 68 40t53 108q39 102 39 231q0 69 -15 183l-4 43q-8 72 -22 116h-10l-21 -6h-2q-77 -37 -112 -143t-35 -246z" />
<glyph unicode="p" horiz-adv-x="989" d="M43 1094q39 0 47 2q1 0 4 1t4 1l23 4q40 8 76 8q48 0 71 -20q14 -14 19 -27l45 -45q41 47 95 75.5t108 28.5q80 0 145 -57q48 -41 80 -88l41 -41q86 -85 127 -207.5t41 -261.5q0 -122 -35 -266q-27 -115 -73 -191.5t-138 -122.5q-59 -26 -125 -26q-104 0 -172 65l-4 4 q-6 3 -10 11q10 -82 10 -205q0 -153 -23 -277q-41 0 -57 -2q-26 -1 -47 -1q-43 0 -70 5l-94 95q-2 0 -7 1t-7 1q0 104 -2 147q-4 90 -4 137q0 297 -11 766q0 41 -4 127q-2 29 -2 123zM70 1073l45 -211q0 -42 3 -127t3 -127q10 -427 10 -766q0 -45 3 -134.5t3 -131.5 q23 -5 48.5 -5t55 2.5t44.5 2.5q22 119 22 263t-22 263q49 -91 143 -116q36 -9 71 -9q58 0 115 25q89 42 133.5 117t69.5 188q25 96 31 195q3 33 3 65q0 68 -9 136q-14 101 -58.5 193t-117.5 155q-64 51 -129 51l-21 -1q-75 -10 -135 -64t-90 -130q-4 17 -4.5 56t-6.5 68 t-24 42q-14 11 -41.5 14t-50.5 0t-55 -8t-39 -6zM279 291q-4 13 -4 36q0 61 25 192q47 246 114 352q34 54 66 54q16 0 32 -14q47 -7 79.5 -39.5t48.5 -81t22 -96.5q4 -36 4 -73v-25q-12 -271 -109 -397q-52 -70 -109 -77h-14q-49 0 -88 41q-44 47 -67 128zM395 193 q1 -12 17 -48q16 -4 24 -4q52 0 105 70q92 120 104 385v24q0 105 -31 173l-6 2q-15 13 -30 13q-48 0 -97 -136q-56 -154 -81 -358q-7 -59 -7 -92q0 -18 2 -29zM778 958q12 -12 15 -14z" />
<glyph unicode="q" horiz-adv-x="1024" d="M37 514q0 211 61 356q40 93 118.5 163t176.5 108q44 18 84 18q8 0 15.5 -0.5t15 -3t12.5 -3.5t13 -5.5t11.5 -6t12 -7t10.5 -7t12 -8.5t11 -8l8 -6q43 -31 61 -37v20q0 54 27 99q48 -21 84 -25q43 -7 57 -19q12 -11 21 -32l80 -78q17 -17 28 -55q9 -35 9 -76 q0 -12 -1 -34t-1 -33q-3 -37 -3 -61q0 -12 1 -21q12 -108 12 -217q0 -1 -6 -199q-1 -23 -2.5 -65.5t-2.5 -77.5t-1 -66q0 -20 1 -63.5t1 -65.5q0 -20 1 -62t1 -63q0 -203 -27 -356q-14 -75 -43 -99q-21 -18 -72 -18q-18 0 -41 2q-47 11 -69 33l-78 78q-34 17 -44.5 46 t-12.5 83q-3 27 -3 67q0 73 15 187q-66 -17 -96 -17q-87 0 -162 45q-21 13 -45 37l-58 55l-4 4q-94 61 -141 196.5t-47 297.5zM60 423q8 -121 53.5 -228t124.5 -156q67 -41 148 -43h8q77 0 146 40q71 43 103 122q-3 -47 -28 -229q-19 -138 -19 -230q0 -30 2 -55 q3 -68 16 -90t72 -35q18 -2 33 -2q45 0 64 16q25 21 38 88q13 68 19 154t6 144q1 15 1 32q0 53 -1 133q-2 107 -2 145q0 70 5.5 198t5.5 231.5t-11 193.5v16q0 23 2 55q2 45 2 84t-8 68q-9 31 -22 45t-27 16t-41.5 7t-53.5 16q-16 -26 -16 -72q0 -28 6 -63l-18 16 q-29 11 -57 30t-46 33.5t-41 25.5t-53 10t-70 -17q-208 -71 -284 -260q-35 -82 -50 -200q-10 -77 -10 -155q0 -42 3 -84zM281 369q2 40 2 73q7 140 45 291q61 238 155 238h5q40 -3 85 -49l-18 28q68 -88 89 -186q12 -59 12 -131q0 -46 -5 -96q-4 -37 -10 -70.5t-17 -82 t-28 -88t-39.5 -75.5t-55 -57.5t-71.5 -22.5h-8q-40 0 -68 18q-32 20 -45.5 54t-21.5 75q-6 33 -6 65v16zM397 274q0 -64 11 -112h22q41 2 74.5 32t54 70.5t36.5 96.5t23.5 95.5t12.5 82.5q6 53 6 98q0 119 -49 217h-2q-46 0 -83.5 -64.5t-58.5 -159t-31.5 -168 t-13.5 -124.5q-2 -20 -2 -64z" />
<glyph unicode="r" horiz-adv-x="690" d="M51 1106q101 39 150 40q19 0 30 -7q26 -16 35 -41l39 -39q59 55 133 81q44 15 85 14q29 0 57 -7q-2 -6 -2 -10l98 -97q-6 -63 -8 -90q-4 -102 -33 -172q-56 53 -94 53t-71.5 -35t-54.5 -87t-34 -101t-16 -86q-7 -48 -7 -123q0 -74 7 -174q1 -18 2.5 -50t2.5 -58t1 -49 q0 -83 -15 -185q-5 0 -20.5 1t-20.5 1q-32 1 -48.5 3t-38 9t-35.5 21l-78 78q-43 16 -54 65zM72 1092l10 -1024q3 -14 9.5 -24.5t17 -17.5t19.5 -11.5t25.5 -7t26.5 -3.5t31 -2t31 -2q11 58 11 159q0 67 -5 153q-6 108 -6 187t6 128q3 31 12.5 71.5t25.5 87t40 82.5 q25 36 54 60q24 20 56 20h12q39 -4 80 -43q13 30 17.5 69t6.5 86.5t5 72.5q-24 6 -49 6q-69 0 -141 -49q-98 -67 -119 -162q0 8 6 62q3 28 4 50q0 20 -3 36q-6 32 -32 44q-8 5 -22 5q-40 0 -129 -33z" />
<glyph unicode="s" horiz-adv-x="837" d="M41 811v10q1 85 61 187q64 108 140 145q53 27 116 27q39 0 84.5 -12t73.5 -24t78 -36l16 -8q4 -1 15.5 -6.5t13.5 -6.5q-2 -4 -2 -10l96 -96q-14 -74 -14 -242l-39 37q-39 34 -86 55t-88 21q-90 0 -119 -68q-7 -16 -7 -34q0 -34 26 -76q46 -39 106 -84l55 -45l2 -2 q81 -85 95 -105l18 -16q66 -66 95.5 -111t28.5 -104q0 -51 -24 -111h2q-82 -215 -327 -215h-13q-180 0 -219 27l-8 6l-86 86q-6 0 -12 6q-25 17 -34 50.5t-13 84.5q-2 25 -17 90q148 -63 232 -63q38 0 94 27l-2 -2q63 48 63 126q0 62 -36 123l-54 33q-109 62 -143 96l-57 56 q-111 78 -111 184zM61 811q1 -55 33.5 -100t70.5 -68t97 -55.5t86 -52.5q56 -39 88 -103q26 -52 26 -109q0 -15 -2 -29q-8 -72 -69 -118q-41 -28 -103 -28q-83 0 -204 51q3 -15 7.5 -59t13 -74t26.5 -43q37 -25 211 -25h14q112 0 188 46q82 49 124 161q12 33 17 61.5 t5.5 50.5t-9.5 47t-17.5 40t-30 41t-35 39t-43.5 44q-11 10 -30.5 25.5t-38.5 30t-42 33.5t-43.5 37t-42 39t-38 40.5t-30 41t-20.5 41t-7 39.5t9 38q25 59 92 71q22 4 44 5q44 1 90 -17q68 -26 104 -71q0 131 12 194l-12 6q-42 21 -66.5 32.5t-66.5 26.5q-41 14 -73 18 q-14 2 -30 1q-20 -1 -42 -3q-40 -4 -74 -21q-72 -37 -132 -139q-57 -96 -57 -175v-10z" />
<glyph unicode="t" horiz-adv-x="798" d="M28 1168q-1 6 1 19.5t2.5 17t4.5 19.5l3 17q0 2 2 7t2 7q0 15 2 21q0 4 1 12t1 10q53 0 103 -4q3 0 13 -1t13 -1q16 -2 43 -2q23 135 23 260q70 0 135 -10q5 0 19 -2t18 -2q0 -6 4 -14l94 -95q16 -66 16 -127h16q46 0 76 -10q34 -12 48 -45l80 -80q24 -24 24 -73 q0 -32 -12 -82l-17 -11q-93 16 -211 25q-8 -133 -8 -305q0 -23 1 -72t1 -72v-169q-1 -25 -1 -48q0 -87 12 -143h4q39 0 123 37l-2 -16l98 -97l-4 -76q-1 -29 -3 -46.5t-9 -42t-17.5 -39t-31 -27.5t-48.5 -19h-2q-19 -4 -38 -4q-94 0 -189 95l-58 57q-59 44 -106 108 q-76 121 -76 453q0 78 4 180q1 38 21 228q-36 0 -47 14l-90 88q-13 3 -19 12q-6 6 -10.5 13.5t-6 18t-2.5 16.5zM50 1165q2 -21 11 -30q12 -12 61 -13q10 0 21 1q29 1 50 1q28 0 43 -2q-31 -300 -33 -344q-3 -78 -4 -121v-34q0 -39 1 -97q2 -88 10 -147t26 -126t45 -110 q53 -70 121 -112q48 -30 98 -30q20 0 41 5q32 6 52 20.5t28.5 39.5t12 45t5.5 56t4 54q-43 -19 -78 -24t-58.5 3t-41.5 24.5t-27.5 41.5t-16.5 54.5t-8.5 61.5l-3 64t0.5 62v31q0 46 -0.5 146.5t-0.5 158.5t2 142t7 155q144 -11 225 -25q10 39 11 67.5t-4 46.5t-19 29 t-30 15.5t-41.5 5.5t-48 0t-55.5 -2t-59 0q15 52 15 119t-15 121q-90 12 -135 12q0 -97 -26 -260q-6 -1 -15 -1q-23 0 -68 4q-62 5 -85 5q-1 -5 -7 -31.5t-9.5 -43.5t-1.5 -38z" />
<glyph unicode="u" horiz-adv-x="989" d="M43 586q0 67 8 207q10 120 10 215q0 70 -8 143l74 12l-8 -10q3 2 12 5t12 5q33 13 57 13q10 0 19 -2q50 -18 60 -50l83 -84q12 -12 13.5 -31t-2.5 -44l-6 -45v-2q-7 -124 -11 -316l-6 -192v-33q-1 -27 -1 -51q0 -83 11 -127q12 -4 31 -4q47 0 87.5 43.5t66.5 101.5 q45 126 45 322q0 96 -2 143q-2 37 -2 127q0 86 4 121q0 2 1 6t1 6v8q6 54 15.5 68.5t54.5 32.5q10 2 24 2q22 0 54 -4q52 -8 63 -25h-2q9 -9 16 -23l82 -82q2 -2 2 -4q35 -37 35 -186v-160q0 -20 1 -60t1 -59q0 -139 -12 -421q-9 -202 -11 -304q-70 -20 -133 -20 q-35 0 -67 6l-94 94h-5q-70 -77 -156 -77q-14 0 -28 2q-93 11 -151 69l-103 103q-65 65 -92 182q-21 81 -33 203l-6 67q-4 70 -4 109zM68 479q2 -21 5 -60.5t5 -65t6.5 -64.5t10.5 -65.5t16 -60.5t22.5 -57.5t32 -49t42.5 -42t54.5 -28.5t69.5 -17q16 -2 31 -2q26 1 48 7 q34 10 57.5 32t43.5 46t47 53t57 47q0 -13 -0.5 -50t-0.5 -55.5t2.5 -47t7.5 -50.5q24 -5 51 -5q54 0 123 19q1 33 13 351q9 236 8 386q0 53 -1 95q-3 24 -3 55q0 24 2 53q2 24 2 50q0 42 -4 86q-6 72 -30 94q-10 13 -54 19q-23 3 -40 3q-15 0 -24 -2q-38 -13 -46 -26 t-11 -57v-6.5t-0.5 -6t-0.5 -6.5q-3 -61 -3 -136v-39q1 -98 5 -185q1 -21 0 -43q0 -68 -8 -142q-11 -98 -39 -172q-35 -85 -97 -134q-35 -28 -75 -28q-30 0 -61 16q-21 9 -37 25t-26.5 31t-17.5 41t-11 42.5t-5.5 48.5t-2 45.5t0 48t0.5 42.5q1 31 6 221.5t11 288.5 q1 18 5 41t5 32.5t-2 22t-13.5 20t-31.5 15.5q-20 6 -42.5 4t-40 -7.5t-17.5 -8.5l-37 -8q5 -51 5 -124q1 -89 -7 -209q-9 -135 -9 -226q0 -56 3 -95z" />
<glyph unicode="v" horiz-adv-x="980" d="M29 1174l84 -5q82 -4 133 -16l4 -16l92 -93l18 -73q60 -251 86 -396q8 -43 35 -122q117 392 125 704l27 14q26 -15 69.5 -22.5t71.5 -8.5t86 -1l-6 -13l98 -96q-35 -81 -60.5 -172.5t-37 -155t-27.5 -167.5q-34 -228 -59 -316q-12 -47 -88 -156q-34 -47 -57 -86 q-15 -27 -32 -43.5t-43 -25.5t-43 -12.5t-56 -8.5l-41 -4l-99 99l-10 -2zM55 1153l262 -1153q8 1 31.5 4t30.5 4t25.5 5t26 7t21.5 9.5t22 14t17 18t17 24.5q9 18 71 107.5t72 132.5q27 102 50 256t51 288.5t77 247.5q-47 0 -72.5 1t-63.5 9.5t-66 24.5q-7 -357 -191 -920 q6 33 6 63v22q-4 39 -20 90.5t-33 92t-34.5 90.5t-24.5 85q-22 123 -103 459q-24 5 -53.5 8t-64.5 5.5t-54 4.5z" />
<glyph unicode="w" horiz-adv-x="1456" d="M33 1135l180 49q40 -15 59 -54l76 -75q26 -26 47 -113q7 -30 19 -61q22 -69 61 -256l17 -107q93 348 120 471q4 40 11 62t27.5 38t40.5 22.5t70 20.5q7 2 11 3q0 -9 4 -17l94 -94q23 -101 29 -150q1 -7 3 -24t5 -35t8 -39q10 -33 30 -100.5t30 -100.5q62 308 162 580 l14 14q31 5 55 5q83 0 103 -56l80 -78q26 -26 27 -82q0 -53 -23 -139q-2 -13 -8.5 -39t-8.5 -39q-98 -543 -254 -858q-52 14 -82 17q-61 10 -79 28l-82 80q-25 11 -41 36t-29 77q-14 52 -59 246q-20 -76 -93 -297l-59 -183q-33 -5 -60 -5q-64 0 -94 30l-77 78 q-54 25 -66 100q-43 221 -188 754q-5 16 -80 291zM59 1120q22 -83 86.5 -311.5t107 -396.5t69.5 -318q12 -66 48 -85q22 -12 59 -11q24 0 54 4q16 52 66.5 200t74.5 229t47 203q21 113 21 206v16q0 -101 54.5 -367.5t82.5 -361.5q10 -39 19.5 -60t26 -32t29.5 -13.5t47 -7.5 t63 -12q149 300 246 844q4 24 17 78q7 28 10 41.5t8 40.5t4.5 38.5t-0.5 34.5t-7.5 29.5t-16 23t-26.5 15.5t-39 6.5t-53 -4.5q-152 -423 -209 -858q-38 224 -149 583q-9 41 -17.5 105t-23.5 129l-12 -3q-66 -17 -83 -32q-22 -21 -30 -90q-19 -84 -87.5 -340.5 t-103.5 -372.5q-33 79 -56 255.5t-28 199.5q-33 164 -65 264q-5 13 -16 60t-25 75.5t-39 36.5z" />
<glyph unicode="x" horiz-adv-x="987" d="M35 -2q30 96 115 248q143 251 143 370q0 32 -8 56q-19 58 -76 170l-12 24q-85 158 -107 242l4 39q53 0 115 5q31 2 102 1l8 -18l91 -91l47 -106l37 -90q40 96 49 123l24 61l68 170l67 -28q68 -33 160 -41l-10 -11l100 -98q-81 -86 -139 -229l-27 -60q-26 -49 -53 -86 q-70 -100 -76 -131q-1 -6 -1 -13q0 -30 14 -75q18 -56 32 -86.5t48 -101.5l41 -88l20 -45q44 -108 100 -191q-52 0 -118 -8l-70 -10l-98 98l-9 -2q-32 93 -90 207q-7 -21 -17 -43t-24.5 -51t-19.5 -41l-27 -58h2l-16 -39q-14 -37 -32.5 -56.5t-57.5 -27.5q-12 -1 -26 -1 q-34 0 -79 8q-40 8 -84 8l-96 96h-14zM63 18q18 0 77 -10q37 -6 62 -6q15 0 27 2q20 4 33 10t22 17.5t13 20.5t12 29.5t15 35.5q8 17 30 64t33.5 74.5t26 68t18.5 76.5q3 22 3 43q0 14 -1 28q22 -86 98 -234.5t99 -218.5q15 1 69.5 9t81.5 8q-21 33 -38 65.5t-42 89.5 t-30 68q-5 13 -48.5 104t-65.5 156q-18 55 -18 93q0 7 1 14q7 31 64.5 116.5t66.5 102.5q9 19 29.5 66.5t33.5 75t36 64.5t48 64q-29 3 -58.5 13t-63.5 26.5t-50 22.5q-20 -48 -57 -146t-69.5 -174t-67.5 -137q-11 56 -30 114.5t-35.5 97t-45.5 103t-43 99.5q-29 0 -91 -3.5 t-93 -3.5l-4 -12q19 -71 95 -223t99 -213q9 -27 9 -59q0 -44 -16 -98q-27 -94 -72 -175t-96 -177.5t-67 -150.5z" />
<glyph unicode="y" horiz-adv-x="980" d="M41 1145l252 -6l4 -17l94 -92q22 -69 80 -334l35 -170q46 254 98 619l25 16q45 -12 123 -24q50 -6 125 -21l-7 -10l97 -96q-34 -57 -60 -118t-48.5 -146t-31 -121t-30.5 -140q-24 -125 -56 -245q-110 -403 -327 -639l-25 -25q-41 -43 -79 -64q-21 -12 -42 -12 q-18 0 -37 8v-2q-18 7 -36 25l-76 76q-66 32 -66 119q0 36 17 92q19 -4 38 -4q37 0 70 16q50 22 82 66.5t53.5 101.5t28.5 114q3 30 3 57q0 25 -3 48v-2q-21 121 -127 375l-14 35q-65 147 -80 196q-70 172 -80 324zM61 1124q7 -106 80 -295q23 -73 75 -190t92.5 -223.5 t53.5 -196.5q5 -23 5 -50q0 -20 -3 -41q-6 -50 -17 -101t-36 -97t-56 -80t-75 -50q-29 -10 -60 -10q-18 0 -36 3q-11 -40 -11 -72q0 -73 62 -98q14 -6 28 -6.5t27 4t24 11t23.5 18t21.5 20.5t21.5 22.5t20.5 20.5q214 233 324 633q22 77 53.5 241.5t68.5 291t95 223.5 q-26 6 -100.5 16t-116.5 23q-65 -466 -142 -846q-32 64 -109.5 417.5t-94.5 405.5z" />
<glyph unicode="z" horiz-adv-x="993" d="M41 2q49 119 192.5 414.5t239.5 464.5q-40 -4 -59 -4q-72 -5 -97 -5q-41 0 -96 9l-94 94q-10 0 -14 2l-11 117q-32 31 10.5 45t112.5 18q2 0 6.5 1t6.5 1h8q32 4 71 4q26 0 56 -2q3 0 14 -1t16 -1h33q48 0 101 6l43 4q22 0 34 2q92 9 123 9q57 0 107 -9l8 -20l90 -88 l10 -21q-9 -19 -121 -215q-251 -425 -346 -645h56q167 0 239 -2q0 -2 -1 -5.5t-1 -4.5l99 -98q-9 -71 -9 -172q-112 -9 -315 -9q-33 0 -107 -4q-82 -4 -127 -4q-97 0 -167 21l-95 94zM68 16q48 -14 114 -16q19 -1 40 -1q50 0 112 4q86 5 117 5q201 0 301 8q0 97 6 144 q-71 3 -215.5 3t-216.5 3q22 92 134 305.5t236.5 429t141.5 250.5q-63 8 -108 8q-14 0 -26 -1q-52 -3 -137.5 -11t-130.5 -8q-20 0 -59 1.5t-71 1.5t-58 -3q-93 -10 -105 -13q-38 -9 -20 -22l10 -109q39 -6 85 -6q10 1 20 1q58 2 108 6q29 3 61 4q23 0 48 -2q59 -4 106 -23 q-79 -104 -245.5 -439t-247.5 -520z" />
<glyph unicode="{" horiz-adv-x="724" d="M14 772v156q57 8 113 -10q10 -5 12 -5q20 -10 31 -5.5t14 32.5q6 33 6 102q0 70 -6 140v28q0 6 -1 19t-1 20v41q0 59 6 105t22 94.5t49.5 85t84.5 59.5h-2q25 15 72 26t90 11q78 0 104 -41v-8l84 -86q0 1 -1 2t-1 2l6 -6q-1 0 -2 1t-2 1l13 -10v-187l-97 97v-17l-35 51 h-4q-40 0 -74.5 -51.5t-54.5 -125t-31.5 -137t-13.5 -103.5q0 -37 35 -117q35 -91 38 -128q1 -21 -3 -40q-12 -45 -31 -63.5t-57 -34.5q-4 -2 -8 -2l47 -45q82 -82 82 -256q0 -31 -11 -166l-8 -68q-12 -86 -12 -121v-10h25q32 0 67 6l-2 -12l98 -98q-1 -4 -8 -97l-8 -92 l-76 21q-78 23 -126.5 44.5t-84.5 57.5l-57 57q-96 57 -127 187q-12 54 -12 141q0 71 16 207q16 117 18 182q3 40 -16 86q-24 0 -51 -12l-98 96zM35 807q46 26 89.5 -3t66.5 -86t20 -112q-2 -56 -11.5 -132t-17 -131.5t-7.5 -127t13 -135.5q7 -35 20 -63.5t26 -49t36.5 -38 t40.5 -28t48.5 -22t50.5 -17t57 -16t57 -16.5q3 26 6.5 77.5t6.5 76.5q-32 -3 -58 -5t-45.5 5t-34 13.5t-23.5 21t-15 27t-8.5 32t-2.5 36.5t2 39.5t4.5 41t5.5 42.5q7 46 9 68q5 49 7 76.5t3 77.5t-3 81.5t-14.5 72.5t-28.5 67t-48 48.5t-70 31.5q19 11 44.5 22.5t38 18 t26 24.5t22.5 49q10 37 -7 88t-39.5 105t-22.5 88q5 100 43 228q61 207 147 205q56 -1 119 -97q0 10 1 41t1 54t-2 30v6q-16 24 -64 28t-95.5 -7t-74.5 -27q-60 -26 -95.5 -76.5t-44.5 -108t-11.5 -123.5t2.5 -124q12 -164 0 -246q-4 -39 -18 -49.5t-32 -2.5t-53 17.5 t-67 5.5v-102zM696 1534l4 -3q4 -3 5 -5z" />
<glyph unicode="|" horiz-adv-x="407" d="M45 -25v117q0 268 18 651q21 353 21 521q0 195 -23 383v6q60 24 117 24q36 0 74 -14v-12l96 -95q2 -43 2 -137q0 -86 -2 -125q-2 -42 -2.5 -47t2 -48.5t2.5 -45.5q4 -58 4 -96q0 -43 -6 -86q-8 -55 -8 -119q0 -66 6 -133l6 -101q6 -94 6 -192q0 -180 -24 -528l-10 -162 q-51 0 -70 0.5t-42 5.5t-34 16l-84 84q-29 10 -39 39t-10 94zM66 -25q0 -24 1 -40.5t5.5 -30t7 -22t13.5 -14.5t17.5 -9t25.5 -4.5t30.5 -1.5h40.5q3 52 11.5 168.5t12 184t8 165t3.5 183.5t-6 167q-1 33 -5 87t-6 91t-1 86t7 90q11 45 4 161.5t-4 162.5q6 122 0 250 q-58 21 -155 -13q8 0 20 -6l-12 -4q17 -133 19 -310t-2.5 -263.5t-16.5 -309.5q-23 -474 -18 -768z" />
<glyph unicode="}" horiz-adv-x="727" d="M23 1419v111q0 32 6 59v27h-6l2 16q29 39 102 39q44 0 89 -10t69 -27q65 -33 104 -88l64 -65l-7 6l13 -10q51 -49 68.5 -120.5t17.5 -168.5q0 -14 -1 -40t-1 -40v-29q-6 -71 -6 -139v-14q32 7 79 2v-13l97 -96v-139q-50 24 -90.5 1t-64.5 -74.5t-21 -102.5q2 -65 18 -182 q16 -136 16 -207q0 -86 -12 -140q-11 -49 -33 -87t-45 -61t-62.5 -43t-67.5 -29.5t-79 -24.5l-75 -21l-99 98l-8 -4q-10 63 -10 82v19l-8 104q33 -6 67 -6q68 0 94.5 30t26.5 83q0 28 -12 118q0 10 -6 58q0 2 -1 6t-1 6q0 4 -1 13.5t-1 13.5q-9 92 -9 139q0 215 119 289 l-18 18q-53 27 -68 92q-13 60 35 172l6 15q29 77 29 100q-4 58 -23 152t-49 163q-54 -10 -129 -131l-98 97zM41 1586q0 -23 1 -54t1 -41q120 183 213 24q61 -105 89 -298q6 -38 7 -62q0 -34 -22.5 -88t-39.5 -105t-7 -88q9 -31 22.5 -49t26 -24.5t38 -18t44.5 -22.5 q-40 -9 -70 -31.5t-48 -48.5t-28.5 -67t-14.5 -72.5t-3 -81.5t3 -77.5t7 -76.5q2 -22 9 -68q7 -73 11.5 -136t-40.5 -98t-146 -19q3 -25 6 -76.5t6 -77.5q19 6 57 16.5t57 16t50.5 17t48.5 22t40.5 28t36.5 38t26 49t20 63.5q13 64 13.5 135.5t-7 127t-17 132t-11.5 131.5 q-3 55 20 112t66.5 86t89.5 3v102q-32 4 -67 -5.5t-53 -17.5t-32 2.5t-18 49.5q-12 82 0 246q4 154 -4 211q-21 167 -146 221q-27 16 -74.5 27t-95 7t-63.5 -28v-6q-2 -7 -2 -30z" />
<glyph unicode="&#xa1;" horiz-adv-x="315" d="M51 1280q6 59 35 105.5t72 72.5l65 64q63 63 148 63q76 0 125 -53t41 -154q-11 -112 -76 -180l-70 -68q-50 -81 -125 -86q-28 -8 -84 0q-73 23 -105.5 89t-25.5 147zM55 -76l4 39h13l2 4l14 31q29 75 37 123q10 79 10 190q0 90 -2 135q-4 98 -4 146v31q0 5 -1 15.5 t-1 16.5t-1 18.5t-1 18.5v37q0 80 14 121q16 46 47 63l88 86q25 25 93 15q3 0 17.5 -1t18.5 -1q-18 -70 -14 -162v-39q0 -14 -1 -44t-1 -46q0 -385 105 -670l-99 -98q0 -2 4 -10q-65 0 -149 -13q-136 -22 -193 -6zM70 -57q49 -11 158 4.5t141 15.5q-108 293 -97 746 q0 8 -0.5 43.5t0 51t3 43t8.5 48.5q-56 9 -82.5 2t-40.5 -53q-11 -34 -13.5 -75.5t0.5 -101t3 -75.5q0 -46 3 -148.5t2 -179t-10 -145.5q-5 -30 -13 -57.5t-22.5 -65.5t-19.5 -53h-20zM72 1278q-8 -74 22.5 -133t98.5 -80q52 -8 69 0q69 3 110 68.5t48 144.5q9 126 -74 172 t-173.5 -6.5t-100.5 -165.5z" />
<glyph unicode="&#xa2;" horiz-adv-x="966" d="M47 795q0 109 41 196q25 51 57 101.5t75.5 106.5t96.5 92t103 40q0 57 2 80q0 3 1 12t1 11q3 32 -2 65q-8 3 -19 14l9 -2v33h24q1 0 4.5 1t5.5 1q17 0 41 6q54 9 76 0q27 -15 38.5 -26t14.5 -25l78 -78v2l6 -6q15 -15 15 -43q0 -4 -1 -12t-1 -12q80 -8 133 -70l-4 -6 l98 -96q-20 -34 -43 -101q-19 -47 -43 -100h-2q-67 45 -70 47q-27 20 -44 30.5t-41.5 20.5t-45.5 10q-31 0 -76 -28q-65 -54 -107 -183.5t-42 -246.5q0 -59 12 -103q5 -29 23 -65q56 -35 125 -35q85 0 184 80v-19l96 -96q0 -13 1 -50t1 -48q0 -107 -37.5 -158t-144.5 -45 q4 -12 4 -20q23 -126 23 -187h-29q-39 0 -60.5 1t-50 10t-45.5 26l-90 88q-34 24 -47 62q-19 46 -2 118q-14 10 -39 35l-65 64q-43 35 -78 75q-73 90 -116.5 205t-43.5 228zM67.5 777q5.5 -110 46 -214.5t107.5 -187.5q113 -141 223 -113q-26 -21 -36 -85t4 -99 q8 -28 23.5 -45t43.5 -24t46.5 -8t55.5 -1h5.5h4.5h5q0 23 -3.5 52.5t-7 50.5t-10.5 56.5t-10 49.5q69 -7 110 9.5t56 51t19.5 84.5t-0.5 111q-60 -47 -130 -56.5t-129 15.5t-105.5 78t-63.5 123q-33 110 10.5 295t132.5 254q32 24 62.5 30.5t60 -4.5t51.5 -25t54.5 -38 t51.5 -35q13 27 37 88.5t39 89.5q-24 26 -53.5 37.5t-53.5 13.5t-47 8t-40 28t-25 65q-6 32 -4 48.5t-5.5 27.5t-37.5 26q-18 5 -31.5 3t-38.5 -6.5t-39 -4.5v4v-4q-5 0 -14.5 -1t-13.5 -1q3 -1 8.5 -4t10 -5t9.5 -2q0 -34 -3 -101.5t-3 -100.5q-52 4 -105 -29t-97.5 -90 t-75.5 -107t-56 -102q-44 -96 -38.5 -206z" />
<glyph unicode="&#xa3;" horiz-adv-x="1067" d="M25 41q289 300 342 577l-29 -6q-105 -20 -145 -22l-99 96h-12q16 50 16 119q0 47 -10 76q60 8 121 0q79 -12 86 20q8 34 -12 125q-18 82 -13 141q12 79 39 146t70.5 121t108 85t143.5 31q172 0 248 -57v-8l96 -96v-213q-86 69 -162 69q-86 0 -154 -64t-77 -161 q-7 -53 0 -158h8q43 0 63 2t80 2q0 -3 1 -7.5t1 -6.5l94 -94q4 -37 0 -135q-4 -58 -4 -99l-49 25q-97 47 -117 55q23 -54 23 -102q0 -49 -23.5 -110t-45 -97t-64.5 -102l-6 -9q88 -14 196 -14t158 18l25 -16v-10l96 -94q4 -41 -12 -113l-15 -72q-335 0 -510 19q-38 4 -110 8 q-147 8 -232 33l-92 90zM63 53q43 -13 95 -18.5t119 -9t104 -7.5q166 -18 496 -18q1 11 14.5 74t9.5 94q-93 -30 -266 -15t-260 56q16 29 48 77.5t56 85t48 87t33 92.5t1.5 91t-37.5 93q51 -16 185 -86q0 15 4.5 92.5t1.5 104.5q-17 0 -62 -3t-71.5 -3t-55 9t-39.5 30 q-16 25 -21.5 113.5t-0.5 131.5q6 72 46 129.5t95.5 85.5t124 22t127.5 -52v174q-61 47 -227 47q-78 0 -140 -28.5t-102 -80t-64 -115.5t-34 -141q-6 -41 13 -134.5t11 -133.5q-3 -22 -17 -32t-34 -9.5t-44.5 3t-50.5 6t-52 -0.5q8 -29 6 -77.5t-12 -77.5q38 2 136 22 t150 17q15 -334 -334 -695z" />
<glyph unicode="&#xa4;" horiz-adv-x="1177" d="M53 1015q8 -1 27 -18l2 4l37 41l12 13l14 16q3 4 15.5 19t23.5 26t27 23q63 -46 104 -107l43 -41l2 -4q95 64 181 64q119 0 219 -115q46 82 123 192l71 -47l17 -12q17 -13 59 -39q-2 -4 -2 -8l96 -96q-15 -46 -53.5 -95.5t-81.5 -78.5q49 -79 49 -195q0 -157 -86 -295 l27 -24q109 -109 156 -236l-43 -29q-32 -25 -74 -41l-98 97q-1 0 -3.5 -1t-3.5 -1q-30 54 -32 57q-48 -44 -111 -70t-125 -26q-103 0 -172 69l-29 27q-26 -109 -69 -129q-36 -12 -150 49q-6 2 -21.5 11t-17.5 10l-90 88l-2 2l-18 10q16 37 69 98l7 8q43 48 49 70 q12 26 -11 92l-10 43q-12 52 -12 117q0 168 65 256l-6 6l-41 31h-6l-82 80l-18 14h-6q-4 4 -4 8l-2 2v2q-30 64 -15 63zM86 964q0 -3 4 -10l2 7q-6 6 -6 3zM92 961q21 -12 55 -46q10 -8 37.5 -30.5t44.5 -38t33 -33.5q-35 -44 -54 -112t-19 -132t10 -123q3 -15 11 -40 t11.5 -38t5.5 -36.5t-6 -36.5q-9 -31 -57.5 -83.5t-61.5 -78.5q7 -3 35 -17.5t48.5 -24t45 -16.5t35.5 -3q28 11 49 69.5t21 96.5q32 -72 93.5 -105.5t128.5 -28t132 37.5t107 83q65 -57 125 -172q20 7 51.5 30t40.5 28q-27 73 -71.5 131t-111.5 120q46 69 70.5 157t17 181 t-54.5 158q43 27 85 75t55 89q-21 12 -59 40.5t-56 39.5q-56 -80 -125 -205q-90 120 -198.5 132.5t-223.5 -81.5q-77 126 -131 166q-24 -20 -60 -64t-49 -57zM423 704.5q17 119.5 73 169.5h-7q64 31 118 -6t87 -112q29 -71 33 -194q5 -178 -65 -229q-45 -33 -115 -5 q-74 30 -107.5 143.5t-16.5 233zM535 524q0 -109 28 -180q21 -8 43 -8q54 0 77.5 59t23.5 148q0 119 -31 205l-10 16q-30 9 -60 -4q-34 -33 -52.5 -97t-18.5 -139zM797 205l8 -8z" />
<glyph unicode="&#xa5;" horiz-adv-x="1081" d="M29 1544h53q11 0 65 6q3 0 8 1t7 1q20 4 51 4q39 0 82 -18q0 -2 1 -7t1 -7l94 -92q27 -106 96 -273q37 -93 41 -104q28 93 43 164q40 158 66 220q24 57 57 105q36 -14 80 -14q36 0 88 6q46 4 103 4l-9 -10l99 -98q-46 -65 -84.5 -138.5t-56 -116t-50.5 -126.5h2 q-42 -105 -71 -168l-21 -35h8h17q62 0 116 -4l-6 -13l99 -96q-24 -43 -37 -73q-22 -47 -42.5 -61t-86.5 -17q-143 0 -221 12q-73 12 -185 12h-69q-16 0 -50 -0.5t-63 -0.5t-53 1l-97 94q-2 0 -6 1.5t-6 1.5q-15 91 -4 165q95 -14 211 -14h20h15q-106 146 -170 328 q-28 70 -49 137l-11 31q-40 126 -75 192zM63 1524q18 -31 63 -167.5t56 -164.5q71 -203 191 -354q-123 -9 -269 10q-6 -38 7 -123q79 -3 139 -0.5t135 0.5t135 -12q84 -13 219 -13q34 2 53 5.5t32 14.5t18 20t17 36.5t24 48.5q-16 1 -99 1.5t-120 11.5q-28 7 -41.5 15 t-16 16t5 20.5t18 25t25.5 34t25 42.5q25 54 68.5 167t84.5 201.5t91 160.5q-18 0 -66 -5.5t-87.5 -5.5t-65.5 11q-38 -58 -66.5 -142t-44.5 -158.5t-46 -167t-69 -161.5q-5 97 -45 206t-90 225t-68 202q-24 11 -56 11t-74 -5.5t-64 -5.5h-19zM94 467.5v44.5v29q0 7 1 20 t1 17h88q109 0 164 2h82q14 0 43 1t43 1q199 0 354 -23q0 -3 1 -8t1 -8l95 -92q12 -70 0 -127q-10 0 -38 1t-38 1q-152 8 -215 8q16 -106 16 -207q0 -104 -16 -238q-47 -4 -150 -4h-49l-96 97h-12l4 59q0 4 1 12.5t1 12.5q15 178 16 221h-69q-51 0 -78 14q-14 7 -21 14 l-80 80q-4 0 -4 2q-23 13 -34 31.5t-11 39zM114 472.5q0 -14.5 8 -30.5t25 -26q40 -15 79.5 -13t97.5 7t84 0q3 -30 3.5 -67.5t0 -64t-4 -75t-5 -65.5t-7 -73t-6.5 -63q133 0 172 4q32 265 -6 445q38 0 297 -11q9 44 0 101q-107 16 -229 18.5t-276 -0.5t-230 -2 q1 -16 -1 -43t-2 -41.5z" />
<glyph unicode="&#xa6;" horiz-adv-x="415" d="M47 47q0 23 4 55q0 4 1 16.5t1 16.5l6 68v112q0 10 -1 33t-1 35q0 256 52 279q24 10 69 6l23 -6l-2 2l28 10l15 -23l86 -86l24 -39l-12 2q27 -27 27 -362v-129q-2 -27 -2 -78q0 -116 -23 -184q-49 10 -143 10l-97 96h-10q-45 76 -45 166zM47 1010q0 23 4 55q0 4 1 16.5 t1 16.5l6 67v113q0 10 -1 33t-1 35q0 255 52 278q24 10 69 6l23 -6l-2 2l28 10l15 -22l86 -86l24 -39l-12 2q27 -27 27 -363v-129q-2 -27 -2 -77q0 -117 -23 -185q-54 11 -143 11l-97 96h-10q-45 76 -45 166zM70 19q1 -32 9.5 -60.5t24.5 -56.5q86 0 125 -8q11 33 15 74 t4 94.5t2 78.5v41v76v92.5t-0.5 99t-2 86t-4 63.5t-5.5 22l-23 34q1 -6 -6 -7.5t-19 -1t-25 1.5t-26 0t-20 -5q-16 -8 -25.5 -49.5t-12.5 -101.5t-3 -115.5t1 -110t1 -65.5q-1 -23 -5 -63t-5 -63.5t0 -55.5zM70 981q1 -32 9.5 -60.5t24.5 -56.5q86 0 125 -8q11 33 15 74.5 t4 95t2 78.5v41v76v92t-0.5 98.5t-2 86t-4 63.5t-5.5 22l-23 35q1 -6 -6 -7.5t-19 -1t-25 1.5t-26 0t-20 -5q-16 -8 -25.5 -49.5t-12.5 -101.5t-3 -116t1 -110.5t1 -65.5q-1 -23 -5 -63t-5 -63.5t0 -55.5z" />
<glyph unicode="&#xa7;" horiz-adv-x="956" d="M43 784q-2 36 4.5 85.5t21.5 102t46 94.5t71 54q-53 80 -53 172q0 67 39.5 130t110.5 102q54 28 155 28q78 0 153 -17.5t109 -47.5q5 -10 5 -14l92 -91q15 -28 10 -98v-67l-10 10q-58 55 -131 55q-93 0 -176.5 -46.5t-83.5 -107.5v-8q42 -18 92 -30l20 -7q91 -30 144 -69 q36 -29 65 -72l61 -59q85 -85 113 -230q16 -82 -12 -144.5t-94 -119.5q43 -84 43 -172q0 -68 -26.5 -133t-76.5 -113q-90 -86 -223 -86q-65 0 -166 19q-91 15 -121 18l-94 94l-14 2q-10 44 -13 107q-1 17 -12 94q0 3 -1 13t-1 12q151 -58 229 -58q46 0 105 19q42 20 70 53.5 t28 71.5q0 17 -6 35q-3 1 -110 38l-48 15q-92 29 -139 76l-69 67q-53 35 -79.5 88t-27.5 135zM63 784q3 -104 50.5 -160.5t146.5 -88.5q11 -4 63 -18.5t78.5 -24t61.5 -30.5t51 -46q46 -72 19 -136t-101 -94q-53 -19 -109 -19.5t-100.5 11t-107.5 35.5q5 -29 10 -88t10 -88 q36 -3 98.5 -14.5t105 -16.5t95.5 -4t100.5 21.5t88.5 60.5q84 79 96.5 197.5t-43.5 212.5q66 55 94 116.5t14 143.5q-13 73 -47.5 137.5t-87.5 105.5q-37 30 -96 51t-117 41t-92 48q-92 73 -36 151q43 63 148 95q116 35 194 1q24 -11 40 -28q0 7 1 39t0 51.5t-5 28.5l4 4 q-60 41 -197.5 50.5t-201.5 -24.5q-80 -40 -113.5 -111t-20 -147t65.5 -141q-47 1 -82 -35t-51 -90.5t-23 -106t-4 -90.5zM222 882.5q-1 7.5 0 13.5t2.5 13t4.5 15l62 84q74 -18 203 -125q84 -68 112 -105q44 -60 33 -112q-10 -34 -32.5 -52.5t-50.5 -21t-56.5 4.5t-53.5 21 q-92 45 -186 181q-1 2 -7.5 12t-8 12.5t-6.5 11.5t-6.5 12t-4.5 11t-3.5 12.5t-1.5 12zM339 788q-1 -12 3.5 -24t8.5 -19.5t14 -21.5l8 -16l2 -2l8 -17q43 -37 92 -61q26 -15 66 -15q60 0 77 60q9 48 -34 100q-41 34 -60.5 49t-56.5 37.5t-68 30.5l-53 -74q-6 -15 -7 -27z " />
<glyph unicode="&#xa8;" horiz-adv-x="1112" d="M49 1544q3 44 36.5 78.5t76 52t86.5 21.5q119 6 166 -76l75 -76q39 -39 39 -100q0 -66 -47.5 -119.5t-126.5 -62.5q-101 -7 -159 51l-70 69q-57 29 -74 88q-11 47 -2 74zM70 1481q18 -58 67.5 -83.5t112.5 -19.5q97 9 141 86t5 148t-146 63q-42 -4 -80.5 -18.5 t-68.5 -45.5t-31 -71q-9 -15 0 -59zM586 1546q0 68 47.5 112t136.5 38q52 -5 104.5 -31.5t77.5 -69.5l76 -73q34 -34 37 -80q7 -19 -2 -72q-19 -59 -74 -85t-121 -23q-72 9 -118 55l-70 67q-45 27 -69.5 71t-24.5 91zM622 1612q-39 -71 5 -148t141 -86q63 -6 112.5 19.5 t67.5 83.5q9 44 0 59q-1 40 -31 71t-68.5 45.5t-80.5 18.5q-107 8 -146 -63z" />
<glyph unicode="&#xa9;" horiz-adv-x="1746" d="M43 682q-2 144 19.5 263.5t73.5 228.5t143 199t221 159q180 24 313 24q55 0 90 -6h-2q175 -17 302 -71t218 -176l43 -43q35 -35 56 -64q145 -195 145 -428q0 -240 -154 -449q-45 -61 -87 -105t-70.5 -68t-98.5 -78q-6 -4 -36 -29q-153 -121 -338 -121q-100 0 -189 41 q-129 55 -222.5 108.5t-162.5 122.5l-63 62q-198 170 -201 430zM63 682q1 -77 16.5 -142.5t38.5 -115t64 -95t79.5 -77t100 -66t110 -57t124.5 -55.5q136 -55 268 -31t244 111q11 9 46 35.5t43 33t34 27.5t35 30t29.5 28.5t33.5 35t31 38t37 48.5q153 214 152.5 441 t-144.5 419q-90 122 -211 173.5t-295 66.5q-63 8 -151 4t-166 -14l-78 -9q-126 -67 -214 -154.5t-137.5 -193.5t-70.5 -223t-19 -258zM162 817q10 90 35.5 171t58.5 138.5t70.5 105.5t73.5 78.5t65 51.5t47 30l18 9q-14 12 23 24q72 22 201 24q43 1 61 -3q4 -1 46.5 -8 t51 -8.5t47.5 -9.5t51.5 -12t46.5 -13t49.5 -16.5t43.5 -19.5t45 -24.5t37.5 -28.5t36.5 -34q65 -69 103 -150.5t47.5 -162.5t-3.5 -164.5t-46.5 -161t-84.5 -148.5t-114.5 -129t-140 -101t-157.5 -66t-169.5 -22.5t-174.5 28.5q-109 35 -200 142.5t-135.5 239t-32.5 240.5z M279 713q-12 -96 25 -212.5t108 -215.5q58 -49 125 -70q86 -29 174 -29q134 0 260 60q-269 7 -396 139l-59 57q-140 102 -168 301q-8 70 -8 105q0 68 12 129q-59 -121 -73 -264zM362.5 883.5q-5.5 -68.5 6.5 -138.5q12 -80 42.5 -143t73 -104.5t99.5 -70t116.5 -42.5 t130.5 -18.5t135 -1.5t136 12q0 111 -8 162q-37 -17 -68.5 -25t-67 -5t-54.5 6t-68.5 17t-71.5 19q-17 4 -59.5 14.5t-60.5 16t-51 19t-50.5 29t-37.5 42t-32 61.5q-35 84 -23 190t62 179q36 53 110 75.5t162.5 16.5t165 -21.5t144.5 -37.5q-4 13 -11 43q7 0 19 -4l-21 6 q-11 49 -14 71q-208 52 -309 52q-76 0 -139.5 -22t-108 -60.5t-78 -91.5t-49 -115t-21 -130.5zM563 770q0 -74 31 -147v-2q44 -19 125 -37l51 -13l68 -18q91 -25 129 -25q54 0 143 41q0 -3 1 -9t1 -9l96 -94l4 -33q90 99 141.5 220.5t51.5 244.5q0 184 -115 328 q-107 65 -344 108q-4 0 -15.5 2t-15.5 2q-23 5 -85 2t-111 -10q6 0 19 1t20 1q104 0 327 -53l2 -17l95 -92l12 -61l14 -15l-6 -22l12 -51q-206 65 -356 65q-168 0 -231 -86q-64 -102 -64 -221z" />
<glyph unicode="&#xab;" horiz-adv-x="1169" d="M31 551q96 150 192 342l25 49q2 5 8 15.5t8 15.5q1 3 6 11t6 11l363 17q-15 -10 -16 -11l26 -28l6 10l15 12q1 0 3 1t3 1q93 19 141 19q37 0 80 -15l59 9l9 -21l90 -88l10 -22q-54 -36 -97.5 -86t-65 -86t-56.5 -101q-7 -12 -28.5 -52t-36.5 -65.5t-31 -46.5 q21 -28 65 -80q125 -129 229 -223h-10l96 -94q-104 7 -249 -18l-82 -15l-99 97h-8q-128 270 -270 432l-55 -99q39 -49 77 -92q128 -128 218 -209h-13l99 -96q-104 6 -246 -18l-86 -15l-99 97h-8q-128 277 -278 442zM57 553q141 -156 265 -422q23 3 86 14.5t110.5 16.5 t87.5 2q-175 161 -360 383q37 49 76 118.5t65 120t73.5 107t106.5 96.5l-278 -14q-157 -304 -232 -422zM440 553q136 -153 265 -422q21 3 85.5 14.5t111 16.5t85.5 2q-166 153 -358 383q36 48 75 118t65.5 120.5t73 107t105.5 96.5l-55 -8q-56 31 -219 -6 q-165 -311 -234 -422z" />
<glyph unicode="&#xad;" horiz-adv-x="698" d="M39 602l45 29l6 -4q31 18 152 18h47q27 -2 78 -2q120 0 192 -25q-2 -4 -2 -10l96 -96q-10 -49 -10 -143q-74 -43 -160 -43q-13 0 -28 1t-33 2.5t-29 2.5l-65 6h-41q-30 -4 -60.5 -1t-48.5 21l-90 91q-23 10 -35 34q-11 16 -6 70q0 12 4 20q-1 5 -6 16t-6 13zM59 590 q6 1 7.5 -6t1 -19t-1.5 -25t0.5 -26t5.5 -20q8 -16 20 -25.5t29.5 -12.5t32 -3t37.5 1t36 1q23 -1 63 -5t63.5 -5t55.5 0t60.5 9.5t56.5 24.5q0 81 9 125q-33 11 -74.5 15t-95 4t-78.5 2h-18.5h-25h-28h-30t-28 -1t-25.5 -2t-20.5 -2t-14 -3t-3.5 -5z" />
<glyph unicode="&#xae;" horiz-adv-x="989" d="M43 1137q0 44 2 67q5 49 28.5 106t60 108t89.5 86t109 38q60 10 125 10q248 0 340 -141q0 -1 1 -3t1 -3l61 -59q13 -13 33 -41q61 -94 61 -207q0 -147 -104 -289q-113 -145 -281 -145q-83 0 -202 34q-78 23 -129 74l-60 59q-135 82 -135 306zM66 1202q-5 -72 1 -128.5 t26.5 -110t64 -91t110.5 -57.5q75 -22 134.5 -30t120.5 -0.5t114 41.5t98 94q86 114 100 237t-57 242q-34 52 -92.5 83.5t-117 39.5t-112 9t-86.5 -4l-34 -5q-55 2 -105 -29t-83.5 -80.5t-55 -105t-26.5 -105.5zM148 1221q11 64 51.5 121t105.5 88q7 3 18.5 7.5t46 13.5 t68.5 11.5t79 -4.5t83 -28q59 -34 90.5 -92t33.5 -122t-19 -130.5t-60 -119.5t-96 -86.5t-121 -33.5q-74 0 -134 34.5t-95 88t-48.5 121t-2.5 131.5zM260 1024v25v-25zM268 977q8 -36 29 -76q56 -35 131 -35q84 0 154 60l-31 30q-33 13 -64 74h-2q4 -36 4 -63 q0 -60 -25.5 -86t-92.5 2l-92 90q-3 0 -11 4zM272.5 1208.5q0.5 -48.5 5.5 -121.5t5 -94q21 -9 37.5 -10t26 7t16 18t8.5 27.5t2.5 32t-2 35.5t-4.5 32.5t-5 29.5l13 -18q25 6 46.5 -3.5t36 -28.5t29.5 -43t26.5 -46t27 -37t30.5 -17t37 15q-4 24 -15.5 50.5t-20 42 t-29.5 48.5t-27 43q69 52 50 125.5t-88.5 99.5t-145.5 -10q-32 -21 -46 -75t-13.5 -102.5zM362 1227l13 80q0 -2 18.5 -2t40 1.5t40 -9t18.5 -33.5q0 -34 -28 -46t-57.5 -7t-44.5 16zM471 760l98 -96l-96 96h-2zM567 1346q0 -3 4 -7l58 -59l2 -2l8 -6q47 -47 47 -107 q0 -57 -49 -100l12 -23l4 -2l6 -12q43 84 43 172q0 70 -30 125q-56 21 -105 21zM629 1280q2 0 2 -2z" />
<glyph unicode="&#xb1;" horiz-adv-x="1200" d="M31 965v30q-1 37 2 57t15.5 39.5t40.5 26.5t75 6l86 -6q110 -8 166 -8q44 0 67 2q0 48 4 150q5 137 5 184q0 40 -3 80v26q8 9 84 18t117 9v-12l96 -97l-8 -393h41q35 0 105 4q83 4 127 2l18 -18v-10l96 -94q5 -88 -16 -114t-107 -30q-20 0 -34 -2q-111 -6 -123 -6 q-74 0 -123 16q12 -47 12 -116q0 -33 -4 -95q-4 -36 -4 -53q-2 -16 -2 -49q0 -29 -1.5 -48t-7.5 -41.5t-16.5 -35.5t-31 -20.5t-48.5 -4.5q-36 6 -59 29l-78 78q-73 35 -73 176q0 58 12 148q0 3 1 11t1 11v10h-76q-41 -2 -135 -2q-78 0 -111 2l-96 95q-2 0 -6 1t-6 1 q0 5 -1 21t-1 22zM35 152l53 32l-4 -14l6 -4q1 0 5.5 1t6.5 1q119 27 523 27h172q27 -2 77 -2q121 0 193 -25q-2 -4 -2 -10l96 -97q-10 -49 -10 -143q-74 -43 -160 -43q-13 0 -28 1t-33 2.5t-29 2.5l-65 6h-76q-22 0 -83 -1t-97 -1q-375 0 -418 43l-86 86q-20 6 -27 19 q-11 16 -6 69q0 13 4 21q-1 5 -6 16t-6 13zM51 1028.5q0 -11.5 1 -39.5t1 -47q69 -4 220.5 -0.5t220.5 0.5q2 -25 -5 -85t-13.5 -118.5t-6 -117.5t22.5 -98t67 -44q32 -5 51.5 5t26.5 29.5t10 45t1 53.5t1 54q1 13 4.5 68t3.5 80t-5 66.5t-17 73.5q24 -13 52.5 -20t67.5 -8 t59 -0.5t70 4.5t56 4q77 3 95.5 26t13.5 103q-41 1 -123 -3.5t-146.5 -1.5t-120.5 21l11 480q-34 0 -95 -5t-65 -10v-16q3 -83 -1.5 -236.5t-4.5 -197.5q-93 -3 -113.5 -3.5t-113 6t-113.5 7.5q-30 1 -50 -0.5t-32.5 -9t-19.5 -14t-9 -23.5t-2 -28.5zM55 139q6 1 7.5 -6 t1 -19t-1.5 -25t0.5 -26t5.5 -20q8 -16 72.5 -25.5t158 -12.5t181.5 -3t166 1t89 1q18 -1 76 -6t82 -5t65 8.5t76 27.5q0 86 8 125q-33 11 -74.5 14.5t-94 3.5t-78.5 2h-53h-109h-135.5t-147 -0.5t-129.5 -2t-96.5 -4t-34.5 -5.5z" />
<glyph unicode="&#xb4;" horiz-adv-x="378" d="M27 1712q0 55 8 94l9 -1q10 -1 13 -1h17q50 -4 78 -4q36 0 92 12l-4 -14l98 -96q-35 -179 -35 -287q0 -97 35 -182h-31q-49 5 -92 24l-92 93q-10 2 -25 10l29 14q-48 67 -74 159t-26 179zM53 1786q-16 -99 13 -224t92 -194l-13 -8q14 -5 68 -10q-55 133 4 436 q-40 -10 -164 0z" />
<glyph unicode="&#xb5;" horiz-adv-x="892" d="M49 1112q0 5 38.5 20.5t80 21.5t68.5 -17l8 -17l90 -88q-1 0 -2 1t-2 1l4 -2v-2q14 -16 14 -72t-6 -102q-4 -28 -4 -47q4 -55 4 -186q1 -97 3 -150.5t10.5 -134t23.5 -139.5q33 6 72.5 38.5t72.5 77.5h-2q60 101 60 224q0 48 -7 127l-8 114v21q0 5 -1 17t-1 18 q-2 25 -2 92q0 130 25 174v-2q22 40 54 50t89 5l17 -18v-7l83 -83l13 -15q0 -47 12 -149q12 -106 12 -164q0 -69 -2 -131.5t-11 -151.5t-23 -162.5t-41 -150.5t-63 -129.5t-91 -86.5t-123 -34q-87 0 -182 49q51 -169 59 -452q-64 -6 -84 -11q-31 -7 -54.5 -6t-37.5 15 l-82 81q-22 5 -35 26.5t-20 68.5zM70 1112l28 -1466q5 -28 13 -44.5t17 -23.5t25 -7.5t31 2.5t41 7.5t49 5.5q-8 295 -71 469q83 -47 154 -59.5t122.5 3t94 58t70 96t48.5 126.5t32 140t17.5 147t8.5 136.5t2 118.5q0 56 -12.5 160.5t-12.5 153.5q-51 5 -77.5 -2t-43.5 -41 q-12 -22 -17.5 -67t-5 -84t2.5 -93t2 -68q1 -38 6.5 -100.5t7 -102t-1 -90t-17.5 -95.5t-42 -89q-29 -41 -64.5 -71.5t-73.5 -46.5t-73 2.5t-56 74.5q-30 83 -39.5 192.5t-10 255.5t-3.5 201q0 9 5 62t5 96t-10 55q-22 19 -55.5 16.5t-64.5 -13.5t-31 -15z" />
<glyph unicode="&#xb6;" horiz-adv-x="970" d="M20 1061q0 105 25 176q39 91 126.5 163t196 110t216.5 38q118 0 213 -39q11 -11 16 -26l84 -82q25 -22 25 -84q0 -46 -11 -115q-18 -179 -18 -420q0 -199 10 -444q10 -380 10 -453q0 -21 -1 -72t-1 -73q-81 -3 -127 43l-75 76q-29 17 -52 47q-4 -29 -13.5 -82t-10.5 -62 q-4 0 -25 3.5t-30 3.5q-63 5 -93 10l-94 94q-2 0 -7 1t-7 1q-6 43 -6 105q0 59 2 88t2 86q0 36 6 79q0 1 1 4.5t1 4.5q0 4 1 13.5t1 14.5q8 78 8 111v16q-53 25 -61 37l-13 12l-14 13l-61 59l-17 14q-49 40 -89 103.5t-64 128.5q-54 143 -54 297zM43.5 1000 q9.5 -119 50.5 -228q55 -151 146 -225q16 -16 84 -44.5t77 -47.5q11 -16 12 -58.5t-3.5 -85.5t-9.5 -91t-5 -66q0 -29 -2 -82t-2 -96.5t4 -81.5q24 -5 71.5 -9t51.5 -4q27 118 36 255.5t3 258t-12.5 259.5t-9.5 259t12 258q2 43 11 119.5t11 106.5q44 -15 95 -15 q0 -614 -7 -800q0 -67 -8.5 -189.5t-11.5 -195.5t8 -195q23 -150 150 -145q4 154 -1.5 361t-12 367t-4.5 358.5t18 363.5q5 27 8 64t1 74.5t-13 45.5q-91 36 -203 36.5t-215.5 -31.5t-188 -101.5t-118.5 -163.5q-32 -112 -22.5 -231zM383 455l6 -6z" />
<glyph unicode="&#xb7;" horiz-adv-x="567" d="M39 637q-7 80 25.5 146t105.5 89q56 8 84 0q75 -5 125 -86l70 -67q64 -67 75 -180q8 -101 -41 -154t-125 -53q-84 0 -147 63l-66 64q-43 26 -71.5 72t-34.5 106zM59 639q10 -113 101 -165.5t174 -6.5t74 172q-7 79 -48 144.5t-110 68.5q-17 8 -70 0q-68 -21 -98.5 -80 t-22.5 -133z" />
<glyph unicode="&#xb8;" horiz-adv-x="526" d="M23 -455q10 54 51 134.5t86 136.5v-23l82 -82q10 5 20 25l-92 92l-6 -4l-21 26q-5 -7 1 5q3 5 13 24q18 32 23 43q21 58 53 90l3 6q2 0 9.5 -1t10.5 -1h8q36 -5 70 -18l-4 -8l98 -99l-33 -69l54 -53q47 -47 47 -119q0 -74 -52 -129q-97 -94 -202 -94q-41 0 -109 20 l-94 94zM47 -440q88 -26 154 -8t131 81q39 40 46.5 96.5t-22 105.5t-90.5 65q22 39 41 86q-12 3 -28.5 6t-28 4t-12.5 2l6 -4q-18 -16 -42 -72.5t-36 -73.5q31 17 65 -0.5t50 -52.5t2 -65q-17 -38 -53.5 -47.5t-65.5 12.5t-27 63q-27 -33 -54 -92.5t-36 -105.5zM238 -2z" />
<glyph unicode="&#xbb;" horiz-adv-x="1173" d="M37 139q198 181 387 406q-42 59 -74 125l-20 37q-70 121 -109 167l-71 74l-41 31l14 31l59 -9q43 15 80 15q34 0 127 -19q4 0 14.5 -2t14.5 -2l10 -22l88 -86l31 -58q122 -238 196 -356q37 40 64 74q-24 35 -64 108l-32 56q-67 119 -111 168q-29 19 -37 26l-76 76l-47 33 l353 -17l14 -10l10 -14v2q1 -4 4.5 -9t3.5 -6l80 -79q23 -40 23 -41q125 -248 215 -389q-146 -160 -275 -437l-86 15q-141 24 -245 18l-25 23l-27 -56l-82 15q-144 25 -247 18l-97 96q-3 0 -10.5 -1t-11.5 -1zM92 164q39 3 85.5 -2t112 -16.5t85.5 -14.5q130 271 264 422 q-62 100 -233 422q-164 38 -220 6l-55 8q59 -40 106 -96.5t73.5 -107t65.5 -120.5t75 -118q-189 -226 -359 -383zM473 164q40 3 87.5 -2t111 -16.5t86.5 -14.5q125 269 264 422q-25 40 -48.5 80t-51.5 91.5t-41 76.5t-47.5 92t-42.5 82l-279 14q59 -40 106.5 -96.5t74 -107 t65.5 -120t76 -118.5q-182 -218 -361 -383z" />
<glyph unicode="&#xbf;" horiz-adv-x="524" d="M-270 262q0 75 22 168q16 72 86 211q30 53 64 147q22 67 22 162q0 12 -1 33t-1 33v74q46 0 64 2q9 0 30 1t31 1q51 0 90 -15l92 -92l17 -6q-8 -63 -8 -164q0 -17 -5 -115q-7 -97 -36.5 -158t-96.5 -134q-82 -92 -67 -205q42 -6 47 -6q80 0 160 55l98 -98l8 6 q15 -39 19 -84q2 -6 2 -23l6 -37h14l-12 -8l8 -26q-118 -78 -236 -78q-41 0 -90 6q-146 25 -200 115l-68 67q-59 59 -59 168zM-166 1403q0 69 46.5 119.5t115.5 50.5q60 0 113 -37l20 -16l76 -74l10 -8q36 -24 58 -75t22 -103q0 -103 -74 -142q-27 -24 -69 -24 q-43 0 -90.5 21.5t-73.5 47.5q-9 9 -29 39l-70 68q-55 58 -55 133zM-151.5 210.5q-5.5 -49.5 1 -98.5t29 -83.5t67.5 -60t113 -36.5q88 -14 155.5 -0.5t143.5 62.5l2 -4q0 4 -2 4l2 2q-2 2 -2 4q-8 22 -14 67t-10 60q-51 -35 -119.5 -43.5t-127.5 20t-75 93.5 q-26 117 74 227q64 70 92 128.5t35 149.5q2 36 3 127t7 138q-26 9 -56.5 10.5t-71.5 -1.5t-56 -3q0 -16 1 -71.5t0.5 -79.5t-6 -65.5t-16.5 -74.5q-17 -47 -74 -167t-75 -191q-15 -64 -20.5 -113.5zM-47 1331.5q-8 -36.5 4 -78t45 -75.5q21 -21 59.5 -39.5t80 -23t67.5 19.5 q47 20 61 78.5t-5.5 118.5t-61.5 89q-43 29 -86.5 33.5t-76.5 -11t-56 -45.5t-31 -66.5zM-35 240q0 -2 2 -2zM350 16l6 -14q-6 6 -6 14z" />
<glyph unicode="&#xc0;" d="M43 0q65 120 96 346q12 114 25 164q52 234 104 416l6 20q64 239 76 291q11 34 27 104l10 50q4 18 45 174q66 -47 213 -47l19 -19v-8l96 -96q-5 -143 29 -303t98 -367q60 -203 71 -250q47 -185 123 -579q-55 14 -88 14q-19 0 -59 -4t-76 -4l-96 96h-12q-9 51 -41 188 q-29 112 -39 164q-11 0 -34 -1t-36 -1q-18 -2 -65 -2h-50q-12 -47 -26 -125q-32 -168 -58 -254q-1 -6 -5 -18.5t-5 -18.5q-6 -28 -12.5 -32.5t-40.5 -6.5q-2 0 -10 -1t-13 -1q-31 -3 -65 7q-16 3 -19 -2l-75 10l-95 94zM76 18l45 -6q7 4 17.5 1.5t33.5 -6.5t39 -1q9 1 23 2 t17 1t10 2t6.5 3.5t3 7t4 11t3.5 17.5t7 24q24 74 52 220t34 171q34 -2 155.5 1.5t155.5 -7.5q0 -81 39.5 -240t46.5 -201q20 0 59.5 3.5t72.5 3.5t61 -7q-67 354 -119 555q-18 72 -81.5 279.5t-93 357t-24.5 287.5q-154 0 -199 33q-14 -48 -36.5 -149.5t-36.5 -149.5 q-23 -100 -91.5 -345t-95.5 -380q-11 -53 -23.5 -157.5t-30.5 -186t-54 -144.5zM342 1636q47 86 47 275q0 110 -8 186q78 -29 205 -29v-14l96 -94q6 -103 -30 -223t-101 -189l24 -22q-60 -13 -112 -13l-96 97h-11zM360 1630q52 0 70 4l-12 8q71 63 112 184.5t35 221.5 q-117 0 -162 16q25 -307 -43 -434zM377 606q13 107 71 320.5t70 326.5q24 0 53 -139.5t55.5 -310t39.5 -207.5q-13 0 -45 4t-65.5 8t-66 6.5t-53 -0.5t-20.5 -12zM514 633l76 -8q5 0 15.5 -2t15.5 -2q4 -1 7.5 -3t8.5 -2q-13 61 -21 117l-16 105l-10 63q0 1 -1 3.5t-1 4.5 q-3 -14 -12.5 -46t-12.5 -48q-5 -19 -23 -83.5t-26 -98.5z" />
<glyph unicode="&#xc1;" d="M43 0q65 120 96 346q12 114 25 164q52 234 104 416l6 20q64 239 76 291q11 34 27 104l10 50q4 18 45 174q66 -47 213 -47l19 -19v-8l96 -96q-5 -143 29 -303t98 -367q60 -203 71 -250q47 -185 123 -579q-55 14 -88 14q-19 0 -59 -4t-76 -4l-96 96h-12q-9 51 -41 188 q-29 112 -39 164q-11 0 -34 -1t-36 -1q-18 -2 -65 -2h-50q-12 -47 -26 -125q-32 -168 -58 -254q-1 -6 -5 -18.5t-5 -18.5q-6 -28 -12.5 -32.5t-40.5 -6.5q-2 0 -10 -1t-13 -1q-31 -3 -65 7q-16 3 -19 -2l-75 10l-95 94zM76 18l45 -6q7 4 17.5 1.5t33.5 -6.5t39 -1q9 1 23 2 t17 1t10 2t6.5 3.5t3 7t4 11t3.5 17.5t7 24q24 74 52 220t34 171q34 -2 155.5 1.5t155.5 -7.5q0 -81 39.5 -240t46.5 -201q20 0 59.5 3.5t72.5 3.5t61 -7q-67 354 -119 555q-18 72 -81.5 279.5t-93 357t-24.5 287.5q-154 0 -199 33q-14 -48 -36.5 -149.5t-36.5 -149.5 q-23 -100 -91.5 -345t-95.5 -380q-11 -53 -23.5 -157.5t-30.5 -186t-54 -144.5zM360 1991q0 51 9 94l9 -1q10 -1 13 -1h17q50 -4 77 -4q37 0 93 12l-5 -14l99 -97q-35 -179 -35 -286q0 -98 35 -183h-31q-46 5 -92 25l-92 92q-10 2 -25 10l29 15q-48 67 -74.5 159t-26.5 179z M377 606q13 107 71 320.5t70 326.5q24 0 53 -139.5t55.5 -310t39.5 -207.5q-13 0 -45 4t-65.5 8t-66 6.5t-53 -0.5t-20.5 -12zM387 2064q-16 -99 13 -223.5t92 -193.5l-13 -9q14 -5 68 -10q-55 133 4 436q-40 -10 -164 0zM514 633l76 -8q5 0 15.5 -2t15.5 -2q4 -1 7.5 -3 t8.5 -2q-13 61 -21 117l-16 105l-10 63q0 1 -1 3.5t-1 4.5q-3 -14 -12.5 -46t-12.5 -48q-5 -19 -23 -83.5t-26 -98.5z" />
<glyph unicode="&#xc2;" d="M43 0q65 120 96 346q12 114 25 164q52 234 104 416l6 20q64 239 76 291q11 34 27 104l10 50q4 18 45 174q66 -47 213 -47l19 -19v-8l96 -96q-5 -143 29 -303t98 -367q60 -203 71 -250q47 -185 123 -579q-55 14 -88 14q-19 0 -59 -4t-76 -4l-96 96h-12q-9 51 -41 188 q-29 112 -39 164q-11 0 -34 -1t-36 -1q-18 -2 -65 -2h-50q-12 -47 -26 -125q-32 -168 -58 -254q-1 -6 -5 -18.5t-5 -18.5q-6 -28 -12.5 -32.5t-40.5 -6.5q-2 0 -10 -1t-13 -1q-31 -3 -65 7q-16 3 -19 -2l-75 10l-95 94zM76 18l45 -6q7 4 17.5 1.5t33.5 -6.5t39 -1q9 1 23 2 t17 1t10 2t6.5 3.5t3 7t4 11t3.5 17.5t7 24q24 74 52 220t34 171q34 -2 155.5 1.5t155.5 -7.5q0 -81 39.5 -240t46.5 -201q20 0 59.5 3.5t72.5 3.5t61 -7q-67 354 -119 555q-18 72 -81.5 279.5t-93 357t-24.5 287.5q-154 0 -199 33q-14 -48 -36.5 -149.5t-36.5 -149.5 q-23 -100 -91.5 -345t-95.5 -380q-11 -53 -23.5 -157.5t-30.5 -186t-54 -144.5zM211 1647q72 39 113 83.5t69 98.5q23 38 35.5 57.5t33 41.5t42 28t47.5 0q51 -12 82 -66l69 -69l-4 2l7 -4q25 -25 51 -90q12 -29 14 -33l18 -37l7 -14q35 -25 51 -33h-19l97 -96q-67 0 -88 -3 q-34 -6 -80 -2.5t-68 25.5l-86 82l-4 2v-14l-10 -88q-42 24 -103 24q-10 0 -31 -1t-30 -1l-90 8l-94 94zM272 1657q9 -1 52 1.5t85 0.5t64 -14q4 26 6.5 60t5.5 50.5t15.5 44t38.5 60.5q32 -173 53 -205q12 -16 37 -22.5t46.5 -6t52 3t40.5 2.5q-20 12 -38 33.5t-27.5 37.5 t-25.5 47t-22 42q-5 12 -16 38t-17.5 37.5t-17.5 28t-25.5 25.5t-33.5 14q-30 8 -56 -10.5t-48 -54t-44 -75t-55 -79t-70 -59.5zM377 606q13 107 71 320.5t70 326.5q24 0 53 -139.5t55.5 -310t39.5 -207.5q-13 0 -45 4t-65.5 8t-66 6.5t-53 -0.5t-20.5 -12zM514 633l76 -8 q5 0 15.5 -2t15.5 -2q4 -1 7.5 -3t8.5 -2q-13 61 -21 117l-16 105l-10 63q0 1 -1 3.5t-1 4.5q-3 -14 -12.5 -46t-12.5 -48q-5 -19 -23 -83.5t-26 -98.5z" />
<glyph unicode="&#xc3;" d="M43 0q65 120 96 346q12 114 25 164q52 234 104 416l6 20q64 239 76 291q11 34 27 104l10 50q4 18 45 174q66 -47 213 -47l19 -19v-8l96 -96q-5 -143 29 -303t98 -367q60 -203 71 -250q47 -185 123 -579q-55 14 -88 14q-19 0 -59 -4t-76 -4l-96 96h-12q-9 51 -41 188 q-29 112 -39 164q-11 0 -34 -1t-36 -1q-18 -2 -65 -2h-50q-12 -47 -26 -125q-32 -168 -58 -254q-1 -6 -5 -18.5t-5 -18.5q-6 -28 -12.5 -32.5t-40.5 -6.5q-2 0 -10 -1t-13 -1q-31 -3 -65 7q-16 3 -19 -2l-75 10l-95 94zM76 18l45 -6q7 4 17.5 1.5t33.5 -6.5t39 -1q9 1 23 2 t17 1t10 2t6.5 3.5t3 7t4 11t3.5 17.5t7 24q24 74 52 220t34 171q34 -2 155.5 1.5t155.5 -7.5q0 -81 39.5 -240t46.5 -201q20 0 59.5 3.5t72.5 3.5t61 -7q-67 354 -119 555q-18 72 -81.5 279.5t-93 357t-24.5 287.5q-154 0 -199 33q-14 -48 -36.5 -149.5t-36.5 -149.5 q-23 -100 -91.5 -345t-95.5 -380q-11 -53 -23.5 -157.5t-30.5 -186t-54 -144.5zM176 1755q0 55 22.5 97t65.5 55q56 12 144 -60q21 -18 55 -35q61 -28 135 -18q0 27 -2 47q-4 50 -4 107q36 -15 69.5 -15.5t51.5 6.5l37 7l20 -13q0 -2 1 -7t1 -7l94 -92q11 -42 11 -80 q0 -47 -12.5 -92t-37.5 -81.5t-63.5 -50t-89.5 2.5q-23 9 -84 51q-80 51 -105 51q-18 0 -18 -39q0 -18 12 -82q-28 0 -44 0.5t-20 1.5t-8.5 2t-11.5 2q-40 7 -80 7l-96 96h-10q-33 61 -33 139zM196 1776.5q-2 -38.5 4.5 -76t20.5 -64.5h4q23 0 68 -6t65 -6q-6 33 -8.5 57 t4 36t9 22t20 6t22 -3t29.5 -13.5t29 -17t33 -21.5q21 -13 32 -20.5t27.5 -16.5t28.5 -13q45 -14 78 -0.5t55 47.5t33 76t11 85.5t-11 76.5q-10 -1 -33 -5.5t-36.5 -6t-33 -1t-35.5 6.5q0 -26 3 -72.5t3 -68.5q-86 -20 -163 16q-18 8 -54.5 36.5t-69.5 45.5t-61 10 q-34 -9 -53 -40t-21 -69.5zM377 606q13 107 71 320.5t70 326.5q24 0 53 -139.5t55.5 -310t39.5 -207.5q-13 0 -45 4t-65.5 8t-66 6.5t-53 -0.5t-20.5 -12zM514 633l76 -8q5 0 15.5 -2t15.5 -2q4 -1 7.5 -3t8.5 -2q-13 61 -21 117l-16 105l-10 63q0 1 -1 3.5t-1 4.5 q-3 -14 -12.5 -46t-12.5 -48q-5 -19 -23 -83.5t-26 -98.5z" />
<glyph unicode="&#xc4;" d="M-86 1823q3 44 36.5 78.5t76 51.5t86.5 21q119 6 166 -76l75 -75q39 -39 39 -101q0 -66 -47.5 -119.5t-126.5 -62.5q-102 -7 -160 51l-69 70q-57 29 -74 88q-11 47 -2 74zM-66 1759q18 -58 68 -83t113 -19q97 9 141 86t5 148t-146 63q-42 -4 -80.5 -18.5t-69 -45.5 t-31.5 -71q-9 -16 0 -60zM41 0q65 120 96 346q12 114 25 164q52 234 104 416l6 20q64 239 76 291q11 34 27 104l10 50q4 18 45 174q66 -47 213 -47l19 -19v-8l96 -96q-5 -143 29 -303t98 -367q60 -203 71 -250q47 -185 123 -579q-55 14 -88 14q-19 0 -59 -4t-76 -4l-96 96 h-12q-9 51 -41 188q-29 112 -39 164q-11 0 -34 -1t-36 -1q-18 -2 -66 -2h-49q-12 -47 -26 -125q-32 -168 -58 -254q-1 -6 -5 -18.5t-5 -18.5q-6 -28 -12.5 -32.5t-40.5 -6.5q-2 0 -10 -1t-13 -1q-31 -3 -65 7q-16 3 -19 -2l-75 10l-95 94zM74 18l45 -6q7 4 17.5 1.5 t33.5 -6.5t39 -1q9 1 23 2t17 1t10 2t6.5 3.5t3 7t4 11t3.5 17.5t7 24q24 74 52 220t34 171q34 -2 155.5 1.5t155.5 -7.5q0 -81 39.5 -240t46.5 -201q20 0 59.5 3.5t72 3.5t60.5 -7q-69 368 -118 555q-18 72 -81.5 279.5t-93 357t-24.5 287.5q-154 0 -199 33 q-15 -48 -36.5 -149.5t-36.5 -149.5q-23 -100 -91.5 -345t-95.5 -380q-11 -53 -23.5 -157.5t-30.5 -186t-54 -144.5zM375 606q13 107 71 320.5t70 326.5q24 0 53 -139.5t55.5 -310t39.5 -207.5q-13 0 -45 4t-65.5 8t-66 6.5t-53 -0.5t-20.5 -12zM451 1825q0 68 47.5 111.5 t136.5 37.5q53 -5 105.5 -31t76.5 -69l76 -74q34 -34 37 -80q7 -19 -2 -71q-19 -59 -74.5 -85.5t-120.5 -23.5q-73 9 -119 55l-69 68q-45 27 -69.5 71t-24.5 91zM487 1891q-39 -71 5 -148t141 -86q63 -6 112.5 19t67.5 83q9 44 0 60q-1 40 -31 71t-68.5 45.5t-80.5 18.5 q-107 8 -146 -63zM512 633l76 -8q5 0 15 -2t15 -2q4 -1 8 -3t9 -2q-13 61 -21 117l-16 105l-10 63q0 1 -1 3.5t-1 4.5q-3 -14 -12.5 -46t-12.5 -48q-5 -19 -23 -83.5t-26 -98.5z" />
<glyph unicode="&#xc5;" d="M43 0q65 120 96 346q12 114 25 164q52 234 104 416l6 20q64 239 76 291q11 34 27 104l10 50q4 18 45 174q66 -47 213 -47l19 -19v-8l96 -96q-5 -143 29 -303t98 -367q60 -203 71 -250q47 -185 123 -579q-55 14 -88 14q-19 0 -59 -4t-76 -4l-96 96h-12q-9 51 -41 188 q-29 112 -39 164q-11 0 -34 -1t-36 -1q-18 -2 -65 -2h-50q-12 -47 -26 -125q-32 -168 -58 -254q-1 -6 -5 -18.5t-5 -18.5q-6 -28 -12.5 -32.5t-40.5 -6.5q-2 0 -10 -1t-13 -1q-31 -3 -65 7q-16 3 -19 -2l-75 10l-95 94zM76 18l45 -6q7 4 17.5 1.5t33.5 -6.5t39 -1q9 1 23 2 t17 1t10 2t6.5 3.5t3 7t4 11t3.5 17.5t7 24q24 74 52 220t34 171q34 -2 155.5 1.5t155.5 -7.5q0 -81 39.5 -240t46.5 -201q20 0 59.5 3.5t72.5 3.5t61 -7q-67 354 -119 555q-18 72 -81.5 279.5t-93 357t-24.5 287.5q-154 0 -199 33q-14 -48 -36.5 -149.5t-36.5 -149.5 q-23 -100 -91.5 -345t-95.5 -380q-11 -53 -23.5 -157.5t-30.5 -186t-54 -144.5zM313 1815q-6 82 26 147t105 88q52 8 84 0q73 -5 123 -80l72 -72q64 -64 76 -182q7 -98 -42 -151.5t-124 -53.5q-84 0 -148 64l-63 63q-45 26 -75 72t-34 105zM334 1817q10 -113 100.5 -165 t173.5 -6t74 171q-7 80 -48 145t-110 68q-18 8 -69 0q-69 -22 -99 -80.5t-22 -132.5zM377 606q13 107 71 320.5t70 326.5q24 0 53 -139.5t55.5 -310t39.5 -207.5q-13 0 -45 4t-65.5 8t-66 6.5t-53 -0.5t-20.5 -12zM418 1825q-5 37 11.5 66.5t51.5 41.5q26 4 35 0 q35 -1 57 -35t25 -73q5 -65 -38 -89t-90 3t-52 86zM438 1819q2 0 2 -2l72 -70zM514 633l76 -8q5 0 15.5 -2t15.5 -2q4 -1 7.5 -3t8.5 -2q-13 61 -21 117l-16 105l-10 63q0 1 -1 3.5t-1 4.5q-3 -14 -12.5 -46t-12.5 -48q-5 -19 -23 -83.5t-26 -98.5zM532 1747q43 11 46 65 q-43 -18 -46 -65z" />
<glyph unicode="&#xc6;" horiz-adv-x="1357" d="M25 27q115 246 231 686q70 256 102 356q26 79 37 145q37 183 78 256q30 46 146.5 66t269.5 20q27 0 192 -6q12 0 31.5 -1t26.5 -1q3 0 14 -1t18 -1h29v-12l96 -96q0 -42 -8 -92q-8 -54 -8 -95q-109 0 -156 2q-94 4 -155 4h-56q0 -55 9 -213l8 -149q28 -4 47 -4 q40 -4 57 -4q40 0 101 20q-2 -6 -2 -14l96 -96q-8 -58 -33 -113h2q-23 -61 -24 -88q-165 0 -230 -10q-4 -37 -4 -174q0 -142 2 -195h47h31q5 0 15.5 1t15.5 1q97 4 161 -8v-12l97 -97q-2 -35 -4.5 -53t-7 -31.5t-5.5 -17.5q-13 -48 -16 -104q-67 2 -184 -7l-117 -6 q-91 0 -191 25l-92 92q-4 0 -16 4q-40 200 -43 395q-38 -9 -39 -10q-44 -21 -65.5 -43.5t-47.5 -75.5q-44 -92 -80 -284l-20 -105q-185 15 -205 15l-41 30l-72 72zM51 35l29 -23q60 0 186 -12q7 31 19 95.5t20 99t24.5 87t37.5 97.5q33 63 51 83.5t67 41.5q32 12 86 16.5 t84 -4.5q-9 -247 39 -493q78 -20 149.5 -22t162 5t153.5 6q2 31 16.5 92t16.5 89q-39 6 -94 6.5t-106 -2t-94 8t-56 38.5q-16 31 -19 213.5t6 242.5q87 13 228 13q3 27 25.5 81t25.5 83q-44 -13 -149.5 -5t-145.5 -14q3 96 -6.5 268.5t-9.5 245.5q37 4 183 0t183 -4 q0 28 8.5 80.5t8.5 77.5q-1 0 -68.5 3t-109.5 4t-120.5 1.5t-132.5 -3.5t-113.5 -11t-95.5 -22t-48 -36q-35 -66 -69 -216.5t-44 -182.5q-38 -115 -94 -325.5t-111.5 -385t-122.5 -317.5zM418 655q-3 7 6 34.5t22 63t17 50.5q9 32 51 168.5t75.5 254.5t37.5 158 q-4 -127 -6 -260.5t6 -292t28 -192.5q-68 23 -237 23v-7zM573 678l50 -6q-9 47 -15 129l-28 -105z" />
<glyph unicode="&#xc7;" horiz-adv-x="749" d="M35 621q0 114 14.5 226t45 224.5t87.5 207t133 151.5q72 45 164 83.5t172 38.5q102 0 148 -69v-4l78 -78q3 -3 10 -13t8 -12v-22q10 -43 6 -117v-57q-85 26 -139 26q-129 0 -218 -88.5t-128 -234.5q-64 -247 -64 -377q0 -128 47 -217q69 -38 283 -43q57 0 98 -4 q-2 -4 -2 -13l96 -96q-20 -111 -20 -250h-57q-64 0 -91 0.5t-80 5t-86 13.5t-76.5 27.5t-82.5 45.5q-46 34 -74 62l-53 53q-191 149 -215 399q-4 39 -4 132zM54 647q-3 -85 5 -155q12 -133 66 -227.5t162 -174.5q24 -16 47 -29t50 -22.5t46 -16.5t51 -11t47 -6.5t52 -3.5 t48.5 -1h55h53.5q0 109 19 223q-19 1 -86 2.5t-109.5 4.5t-95.5 14t-82 30q-53 38 -87 90.5t-46 114.5t-14 122.5t9 131.5t22 122.5t27 114.5q3 13 5 19q32 119 96 200.5t163 117.5t226 -4q0 12 0.5 36t1 39t-1.5 36t-6 38v23q-33 47 -95 56t-132 -14t-124.5 -49t-98.5 -55 q-58 -43 -105.5 -110.5t-77 -144.5t-51.5 -165.5t-29.5 -174.5t-10.5 -171zM178 -455q10 54 51 134.5t86 136.5v-23l82 -82q11 6 21 25l-92 92l-7 -4l-20 26q-5 -7 1 5q3 5 13 24q18 32 23 43q21 58 53 90l2 6q2 0 10 -1t11 -1h8q34 -5 69 -18l-4 -8l99 -99l-33 -69l53 -53 q47 -47 47 -119q0 -75 -51 -129q-97 -94 -203 -94q-40 0 -108 20l-94 94zM203 -440q88 -26 153.5 -8t130.5 81q39 40 46.5 96.5t-21.5 105.5t-90 65q22 39 41 86q-12 3 -28.5 6t-28.5 4t-13 2l6 -4q-18 -16 -41.5 -72.5t-35.5 -73.5q31 17 65 -0.5t49.5 -52.5t1.5 -65 q-17 -38 -53 -47.5t-65 12.5t-27 63q-27 -33 -54 -92.5t-36 -105.5zM393 -2z" />
<glyph unicode="&#xc8;" horiz-adv-x="608" d="M72 965q0 300 28 526v27h17q70 7 112 14q3 0 10.5 1t10.5 1q134 20 211 16q23 0 39 2q46 4 75 4q67 0 89 -22q15 -15 24 -33l76 -74h-2l6 -6q31 -36 31 -84q0 -39 -19 -98q-63 0 -92 -2q-188 -8 -266 -8q2 -56 -6 -174q-6 -65 -6 -125v-45q33 -5 82 -2h77v-13l97 -96 q0 -119 -13 -176q-3 0 -15 1t-15 1q-134 14 -193 37q-14 -303 -20 -373q73 -2 168 -24q67 -19 96 -36t39 -44l82 -80q-1 0 -2 1t-2 1l4 -2q11 -11 17.5 -28t8.5 -30t6 -45l11 -77q-63 -2 -158 10q-116 16 -172 8l-51 -10q-99 -21 -138 -21q-46 0 -110 25l-90 90q-18 6 -21 8 q17 61 17 107q0 17 -4 53q0 5 -1 16.5t-1 16.5l-7 71q-30 429 -30 691zM94.5 1078.5q-4.5 -221.5 3.5 -389.5t25 -413q1 -22 6.5 -80.5t4.5 -96.5t-11 -76q33 -14 74 -16.5t61.5 0t77.5 14.5t67 14q58 9 165 -6t151 -13q-4 23 -7.5 52.5t-5 42t-7 30t-13 24.5t-23 18 t-37 18.5t-55.5 17.5q-170 41 -290 12q22 239 32 529q10 -5 21 -10t25 -8.5t24 -6.5t27.5 -5.5t25.5 -4t28.5 -3.5t25 -2.5t26.5 -2.5t23 -2q10 45 10 147q-31 2 -63 0t-64 1t-58 10t-44 27t-23 52q-8 65 1.5 199.5t4.5 194.5q67 0 365 10q38 121 -17 164q-16 13 -50.5 15.5 t-83.5 -1.5t-56 -4q-74 4 -202.5 -13.5t-147.5 -19.5h12v-6q-24 -191 -28.5 -412.5zM201 1636q47 86 47 275q0 110 -8 186q78 -29 204 -29v-14l97 -94q6 -103 -30 -223t-101 -189l24 -22q-60 -13 -112 -13l-97 97h-10zM219 1630q52 0 70 4l-13 8q71 63 112.5 184.5 t35.5 221.5q-117 0 -162 16q25 -307 -43 -434z" />
<glyph unicode="&#xc9;" horiz-adv-x="608" d="M72 965q0 300 28 526v27h17q70 7 112 14q3 0 10.5 1t10.5 1q134 20 211 16q23 0 39 2q46 4 75 4q67 0 89 -22q15 -15 24 -33l76 -74h-2l6 -6q31 -36 31 -84q0 -39 -19 -98q-63 0 -92 -2q-188 -8 -266 -8q2 -56 -6 -174q-6 -65 -6 -125v-45q33 -5 82 -2h77v-13l97 -96 q0 -119 -13 -176q-3 0 -15 1t-15 1q-134 14 -193 37q-14 -303 -20 -373q73 -2 168 -24q67 -19 96 -36t39 -44l82 -80q-1 0 -2 1t-2 1l4 -2q11 -11 17.5 -28t8.5 -30t6 -45l11 -77q-63 -2 -158 10q-116 16 -172 8l-51 -10q-99 -21 -138 -21q-46 0 -110 25l-90 90q-18 6 -21 8 q17 61 17 107q0 17 -4 53q0 5 -1 16.5t-1 16.5l-7 71q-30 429 -30 691zM94.5 1078.5q-4.5 -221.5 3.5 -389.5t25 -413q1 -22 6.5 -80.5t4.5 -96.5t-11 -76q33 -14 74 -16.5t61.5 0t77.5 14.5t67 14q58 9 165 -6t151 -13q-4 23 -7.5 52.5t-5 42t-7 30t-13 24.5t-23 18 t-37 18.5t-55.5 17.5q-170 41 -290 12q22 239 32 529q10 -5 21 -10t25 -8.5t24 -6.5t27.5 -5.5t25.5 -4t28.5 -3.5t25 -2.5t26.5 -2.5t23 -2q10 45 10 147q-31 2 -63 0t-64 1t-58 10t-44 27t-23 52q-8 65 1.5 199.5t4.5 194.5q67 0 365 10q38 121 -17 164q-16 13 -50.5 15.5 t-83.5 -1.5t-56 -4q-74 4 -202.5 -13.5t-147.5 -19.5h12v-6q-24 -191 -28.5 -412.5zM219 1991q0 55 8 94q1 0 10 -1t13 -1h16q50 -4 78 -4q36 0 92 12l-4 -14l98 -97q-34 -174 -34 -286q0 -100 34 -183h-30q-46 5 -92 25l-93 92q-8 2 -24 10l28 15q-48 67 -74 159t-26 179z M246 2064q-16 -99 12.5 -223.5t91.5 -193.5l-12 -9q14 -5 68 -10q-55 133 4 436q-40 -10 -164 0z" />
<glyph unicode="&#xca;" horiz-adv-x="608" d="M70 1647q72 39 113 83.5t69 98.5q23 38 35.5 57.5t33 41.5t42 28t47.5 0q51 -12 82 -66l69 -69l-4 2l6 -4q25 -25 51 -90q10 -24 15 -33l18 -37l6 -14q33 -23 52 -33h-19l96 -96q-67 0 -88 -3q-34 -6 -79.5 -2.5t-67.5 25.5l-86 82l-4 2v-14l-11 -88q-42 24 -102 24 q-10 0 -31 -1t-30 -1l-90 8l-95 94zM72 965q0 300 28 526v27h17q70 7 112 14q3 0 10.5 1t10.5 1q134 20 211 16q23 0 39 2q46 4 75 4q67 0 89 -22q15 -15 24 -33l76 -74h-2l6 -6q31 -36 31 -84q0 -39 -19 -98q-63 0 -92 -2q-188 -8 -266 -8q2 -56 -6 -174q-6 -65 -6 -125 v-45q33 -5 82 -2h77v-13l97 -96q0 -119 -13 -176q-3 0 -15 1t-15 1q-134 14 -193 37q-14 -303 -20 -373q73 -2 168 -24q67 -19 96 -36t39 -44l82 -80q-1 0 -2 1t-2 1l4 -2q11 -11 17.5 -28t8.5 -30t6 -45l11 -77q-63 -2 -158 10q-116 16 -172 8l-51 -10q-99 -21 -138 -21 q-46 0 -110 25l-90 90q-18 6 -21 8q17 61 17 107q0 17 -4 53q0 5 -1 16.5t-1 16.5l-7 71q-30 429 -30 691zM94.5 1078.5q-4.5 -221.5 3.5 -389.5t25 -413q1 -22 6.5 -80.5t4.5 -96.5t-11 -76q33 -14 74 -16.5t61.5 0t77.5 14.5t67 14q58 9 165 -6t151 -13q-4 23 -7.5 52.5 t-5 42t-7 30t-13 24.5t-23 18t-37 18.5t-55.5 17.5q-170 41 -290 12q22 239 32 529q10 -5 21 -10t25 -8.5t24 -6.5t27.5 -5.5t25.5 -4t28.5 -3.5t25 -2.5t26.5 -2.5t23 -2q10 45 10 147q-31 2 -63 0t-64 1t-58 10t-44 27t-23 52q-8 65 1.5 199.5t4.5 194.5q67 0 365 10 q38 121 -17 164q-16 13 -50.5 15.5t-83.5 -1.5t-56 -4q-74 4 -202.5 -13.5t-147.5 -19.5h12v-6q-24 -191 -28.5 -412.5zM131 1657q9 -1 52 1.5t85 0.5t64 -14q4 26 6.5 60t5 50.5t15 44t38.5 60.5q32 -170 54 -205q12 -16 37 -22.5t46.5 -6t52 3t40.5 2.5q-20 12 -38 33.5 t-27.5 37.5t-25.5 47t-22 42q-5 11 -16.5 37.5t-17.5 38t-17.5 28.5t-26 25.5t-33.5 13.5q-37 10 -69.5 -21.5t-55.5 -78t-62.5 -100.5t-84.5 -78z" />
<glyph unicode="&#xcb;" horiz-adv-x="608" d="M-231 1823q3 44 36 78.5t75.5 51.5t86.5 21q119 6 166 -76l76 -75q39 -39 39 -101q0 -66 -47.5 -119.5t-126.5 -62.5q-102 -7 -160 51l-70 70q-56 29 -73 88q-11 47 -2 74zM-211 1759q18 -58 67.5 -83t112.5 -19q97 9 141 86t5 148t-146 63q-42 -4 -80.5 -18.5 t-68.5 -45.5t-31 -71q-9 -16 0 -60zM66 965q0 300 28 526v27h17q70 7 112 14q3 0 10.5 1t10.5 1q134 20 211 16q23 0 39 2q46 4 75 4q66 0 88 -22q17 -17 25 -33l76 -74h-2l6 -6q31 -36 31 -84q0 -39 -19 -98q-63 0 -92 -2q-188 -8 -266 -8q2 -56 -6 -174q-7 -75 -7 -125 v-45q33 -5 82 -2h78v-13l96 -96q0 -123 -12 -176q-3 0 -15.5 1t-15.5 1q-133 14 -192 37q-13 -274 -21 -373q73 -2 168 -24q67 -19 96.5 -36t39.5 -44l81 -80q-1 0 -2 1t-2 1l4 -2q16 -16 22 -37.5t11 -65.5l10 -77q-63 -2 -157 10q-116 16 -172 8l-51 -10q-99 -21 -138 -21 q-46 0 -110 25l-90 90q-18 6 -21 8q17 61 17 107q0 8 -5 53q0 5 -1 16.5t-1 16.5l-6 71q-30 429 -30 691zM88.5 1078.5q-4.5 -221.5 3.5 -389.5t25 -413q1 -22 6.5 -80.5t4.5 -96.5t-11 -76q33 -14 74 -16.5t61.5 0t77.5 14.5t67 14q58 9 165 -6t151 -13q-4 23 -7.5 52.5 t-5 42t-7 30t-13 24.5t-23 18t-37 18.5t-55.5 17.5q-170 42 -291 12q24 257 33 529q10 -5 21 -10t25 -8.5t23.5 -6.5t27.5 -5.5t25.5 -4t28.5 -3.5t24.5 -2.5t26.5 -2.5l23 -2q11 50 11 147q-31 2 -63 0t-64 1t-58 10t-44 27t-23 52q-8 65 1.5 199.5t4.5 194.5q67 0 365 10 q38 121 -17 164q-16 13 -50.5 15.5t-83.5 -1.5t-56 -4q-74 4 -203 -13.5t-148 -19.5h13v-6q-24 -191 -28.5 -412.5zM305 1825q0 68 47.5 111.5t136.5 37.5q53 -5 106 -31t77 -69l76 -74q33 -33 36 -80q7 -19 -2 -71q-19 -59 -74 -85.5t-120 -23.5q-73 9 -119 55l-70 68 q-45 27 -69.5 71t-24.5 91zM341 1891q-39 -71 5 -148t141 -86q63 -6 113 19t68 83q9 44 0 60q-1 40 -31.5 71t-69 45.5t-80.5 18.5q-107 8 -146 -63z" />
<glyph unicode="&#xcc;" horiz-adv-x="231" d="M2 1636q47 86 47 275q0 110 -8 186q78 -29 205 -29v-14l96 -94q6 -103 -30 -223t-101 -189l25 -22q-60 -13 -113 -13l-96 97h-11zM20 1630q52 0 70 4l-12 8q71 63 112 184.5t35 221.5q-117 0 -162 16q25 -307 -43 -434zM55 1415q0 68 4 101v34h93q5 0 16.5 1t17.5 1 q56 0 103 -8v-12l96 -96q0 -20 1 -65t1 -64q0 -15 1 -47t1 -48q0 -41 -4 -131q-27 -488 -27 -862q0 -230 4 -336q-120 0 -159 39l-80 80q-41 20 -53 64.5t-9 130.5q0 59 2 84q0 11 1.5 42t1.5 42q0 12 1 36t1 37q9 329 18 434q2 23 2 68q0 76 -16 236q-17 170 -17 239z M66 1530l16 -4q-15 -114 8 -334.5t16 -321.5q-6 -77 -10.5 -170t-6 -160t-4 -177t-3.5 -166q-1 -49 0.5 -76.5t10 -54t26.5 -39t49 -20t78 -7.5q-16 530 22 1184q4 1 2 170.5t-2 171.5q-28 4 -61 5t-80 0t-61 -1z" />
<glyph unicode="&#xcd;" horiz-adv-x="231" d="M20 1991q0 51 9 94q1 0 10 -1t12 -1h17q50 -4 77 -4q37 0 93 12l-5 -14l99 -97q-35 -179 -35 -286q0 -98 35 -183h-31q-46 5 -92 25l-92 92q-10 2 -25 10l29 15q-48 67 -74.5 159t-26.5 179zM47 2064q-16 -99 13 -223.5t92 -193.5l-13 -9q14 -5 68 -10q-55 133 4 436 q-40 -10 -164 0zM55 1415q0 68 4 101v34h93q5 0 16.5 1t17.5 1q56 0 103 -8v-12l96 -96q0 -20 1 -65t1 -64q0 -15 1 -47t1 -48q0 -41 -4 -131q-27 -488 -27 -862q0 -230 4 -336q-120 0 -159 39l-80 80q-41 20 -53 64.5t-9 130.5q0 59 2 84q0 11 1.5 42t1.5 42q0 12 1 36 t1 37q9 329 18 434q2 23 2 68q0 76 -16 236q-17 170 -17 239zM66 1530l16 -4q-15 -114 8 -334.5t16 -321.5q-6 -77 -10.5 -170t-6 -160t-4 -177t-3.5 -166q-1 -49 0.5 -76.5t10 -54t26.5 -39t49 -20t78 -7.5q-16 530 22 1184q4 1 2 170.5t-2 171.5q-28 4 -61 5t-80 0t-61 -1 z" />
<glyph unicode="&#xce;" horiz-adv-x="231" d="M-133 1647q72 39 113 83.5t69 98.5q23 38 35.5 57.5t33 41.5t42 28t47.5 0q51 -12 82 -66l69 -69l-4 2l6 -4q27 -27 52 -90q12 -29 14 -33l18 -37l7 -14q35 -25 51 -33h-19l97 -96q-67 0 -88 -3q-34 -6 -80 -2.5t-68 25.5l-86 82l-4 2v-14l-10 -88q-42 24 -103 24 q-10 0 -31 -1t-30 -1l-90 8l-94 94zM-72 1657q9 -1 52 1.5t85 0.5t64 -14q4 26 6.5 60t5.5 50.5t15.5 44t38.5 60.5q32 -173 53 -205q12 -16 37 -22.5t46.5 -6t52 3t40.5 2.5q-20 12 -38 33.5t-27.5 37.5t-25.5 47t-22 42q-5 12 -16 38t-17.5 37.5t-17.5 28t-25.5 25.5 t-33.5 14q-30 8 -56 -10.5t-48 -54t-44 -75t-55 -79t-70 -59.5zM51 1415q0 68 4 101v34h92q5 0 17 1t18 1q56 0 103 -8v-12l96 -96q0 -20 1 -65t1 -64q0 -15 1 -47t1 -48q0 -41 -4 -131q-27 -488 -27 -862q0 -230 4 -336q-120 0 -159 39l-80 80q-41 20 -53 64.5t-9 130.5 q0 59 2 84q0 11 1 42t1 42q0 12 1 36t1 37q9 312 19 434q2 23 2 68q0 76 -16 236q-17 170 -17 239zM61 1530l17 -4q-15 -114 8 -334.5t16 -321.5q-6 -77 -10.5 -170t-6 -160t-4 -177t-3.5 -166q-1 -49 0.5 -76.5t10 -54t26.5 -39t49 -20t78 -7.5q-16 530 22 1184 q4 1 2 170.5t-2 171.5q-28 4 -61 5t-80.5 0t-61.5 -1z" />
<glyph unicode="&#xcf;" horiz-adv-x="231" d="M-420 1823q3 44 36.5 78.5t76 51.5t86.5 21q119 6 166 -76l75 -75q39 -39 39 -101q0 -66 -47.5 -119.5t-126.5 -62.5q-101 -7 -159 51l-70 70q-57 29 -74 88q-11 47 -2 74zM-399 1759q18 -58 67.5 -83t112.5 -19q97 9 141 86t5 148t-146 63q-42 -4 -80.5 -18.5 t-68.5 -45.5t-31 -71q-9 -16 0 -60zM61 1415q0 60 5 101v34h92q5 0 17 1t18 1q55 0 102 -8v-12l96 -96q0 -20 1 -65t1 -64q0 -15 1 -47t1 -48q0 -41 -4 -131q-26 -470 -26 -862q0 -230 4 -336q-121 0 -160 39l-80 80q-41 20 -52.5 64.5t-8.5 130.5q0 59 2 84q0 11 1 42t1 42 q0 12 1 36t1 37q9 329 18 434q2 23 2 68q0 76 -16 236q-17 170 -17 239zM72 1530l16 -4q-15 -114 8.5 -334.5t16.5 -321.5q-6 -78 -10.5 -171.5t-6.5 -157.5t-4.5 -179t-3.5 -165q-1 -49 0.5 -76.5t10 -54t26.5 -39t49 -20t78 -7.5q-16 530 22 1184q4 1 2 170.5t-2 171.5 q-28 4 -61 5t-80 0t-61 -1zM117 1825q0 68 47.5 111.5t136.5 37.5q53 -5 105.5 -31t76.5 -69l76 -74q34 -34 37 -80q7 -19 -2 -71q-19 -59 -74.5 -85.5t-120.5 -23.5q-72 9 -118 55l-70 68q-45 27 -69.5 71t-24.5 91zM153 1891q-39 -71 5 -148t141 -86q63 -6 112.5 19 t67.5 83q9 44 0 60q-1 40 -31 71t-68.5 45.5t-80.5 18.5q-107 8 -146 -63z" />
<glyph unicode="&#xd0;" horiz-adv-x="1169" d="M31 758l45 28l6 -4q30 19 129 19v51q-4 114 -4 192q0 184 14 457q3 53 135 53q86 0 197 -15.5t143 -27.5q138 -54 213 -165l47 -46q177 -177 177 -604q0 -44 -3.5 -123t-3.5 -88q0 -10 -1 -30t-1 -29q-4 -75 -43 -158t-94 -143l-26 -29q-63 -69 -130 -106 q-88 -44 -194 -74.5t-195 -30.5q-62 0 -110 13l-92 92q-12 4 -17 4q-26 144 -26 319q0 63 4 181q-20 7 -31 20l-90 90q-22 10 -35 35q-11 16 -6 70q0 12 4 20q-1 5 -6 16t-6 13zM51 745q6 1 7.5 -6t1 -19t-1.5 -25t0 -26t5 -20q8 -16 20 -25.5t29.5 -12.5t32.5 -3t38 1t36 1 h8q-9 -132 -8.5 -300.5t23.5 -297.5q106 -24 238 5t243 87q25 12 47.5 29.5t32.5 27t36.5 39.5t34.5 38q54 59 92 138.5t42 151.5q9 251 7 327q-9 351 -150 513q-71 82 -177 123q-33 13 -139 29t-206.5 14.5t-100.5 -33.5q-18 -395 -14 -571q1 -40 3 -78v-72h-32.5t-32 -0.5 t-32.5 -1t-24.5 -2t-18 -3.5t-5.5 -5zM387 1391h6q113 0 189.5 -24.5t130.5 -102.5q55 -77 88 -190t39.5 -234.5t-17.5 -244.5t-74 -221t-139 -163t-204 -72q-13 92 -11 150t8.5 155.5t4.5 155.5q187 -4 254 35q0 86 8 125q-10 3 -24.5 5.5t-34.5 4.5t-37 3t-44.5 2 t-43.5 1.5t-46.5 1t-42.5 0.5q-4 88 -5 190.5t-0.5 226t-0.5 189.5q-14 5 -4 7zM508 1081q0 -190 2 -284q124 -3 184 -23q-2 -4 -2 -10l96 -96q-10 -49 -10 -144q-74 -45 -254 -41q0 -91 -6 -174q-6 -64 -6 -125q77 31 137.5 93t97.5 143.5t55.5 174t18.5 191.5 q0 129 -30.5 250t-85.5 205q-64 29 -197 33v-193z" />
<glyph unicode="&#xd1;" horiz-adv-x="833" d="M72 328q-2 103 14 295q16 172 16 256q0 44 -2 67l-6 76l-4 47q-10 127 -10 240q0 121 14 213l4 4q-5 28 72 24h39q41 0 61 -8t41 -39l6 -10l74 -74q15 -15 19 -22q27 -37 43 -146q12 -87 26 -116l19 -41q100 -227 133 -312h-2l18 -47q47 -131 92 -235l-12 311 q-14 413 -14 711l16 18q35 6 72 6q54 0 106 -8q0 -8 4 -16l93 -92q18 -76 18 -173q0 -32 -4 -94q-21 -340 -21 -702q0 -299 15 -578q-72 0 -183 15l-94 94q-6 2 -14 2q-18 79 -59 194l-7 15q-60 180 -170 401q0 5 -4 21v2l-14 26l-6 -2q-32 57 -70 148l-4 -295 q-4 -402 -4 -615q-37 0 -102.5 9t-96.5 18l-94 94q-8 0 -16 4q10 53 10 111q0 65 -6 133zM92 330q1 -22 5.5 -72.5t6 -80t1 -72t-6.5 -76.5q27 -8 82.5 -15.5t85.5 -7.5q0 200 5 601.5t5 600.5q32 -135 87.5 -287.5t115.5 -261.5q4 -9 25 -51.5t26 -52t22.5 -45.5 t23.5 -49.5t20.5 -45t21.5 -50.5t18.5 -47.5t21 -54.5t18.5 -54q42 -114 63 -197q102 -12 156 -12q-34 607 6 1266q11 151 -12 254q-98 11 -156 0q0 -227 13.5 -644.5t15.5 -574.5q-20 38 -39.5 77t-40.5 87t-34.5 78t-37 89.5t-31 78.5t-34.5 88.5t-31 79.5 q-36 93 -149 352q-15 32 -30.5 130t-39.5 130q-6 10 -11.5 16.5t-13 11t-10.5 7t-14.5 3.5t-14.5 1h-19.5h-21.5q-6 0 -19.5 0.5t-21 0.5t-18 -0.5t-11 -3t0.5 -7.5l-6 -7q-8 -51 -12 -105t-2 -124t4 -106.5t8.5 -124.5t7.5 -105q6 -110 -13 -315.5t-16 -302.5zM145 1755 q0 55 22.5 97t65.5 55q56 12 144 -60q21 -18 55 -35q61 -28 135 -18q0 27 -2 47q-4 50 -4 107q36 -15 69.5 -15.5t51.5 6.5l37 7l20 -13q0 -2 1 -7t1 -7l95 -92q10 -38 10 -80q0 -47 -12.5 -92t-37.5 -81.5t-63.5 -50t-89.5 2.5q-23 9 -84 51q-80 51 -104 51q-19 0 -19 -39 q0 -12 13 -82q-28 0 -44 0.5t-20 1.5t-8.5 2t-11.5 2q-40 7 -80 7l-97 96h-10q-33 61 -33 139zM165 1725q6 -52 25 -89h5q23 0 68 -6t65 -6q-24 122 26 122q28 -1 109 -54q64 -43 90 -52q45 -14 78 -0.5t55 47.5t33 76t11 85.5t-11 76.5q-11 -1 -33 -5.5t-35.5 -6t-33 -1 t-35.5 6.5q0 -26 3 -72.5t3 -68.5q-87 -20 -164 16q-18 8 -54 36.5t-69 45.5t-61 10q-45 -12 -63 -60.5t-12 -100.5zM475 621v2v-2zM483 606v2v-2z" />
<glyph unicode="&#xd2;" horiz-adv-x="946" d="M47 807q0 105 12 207q13 91 56.5 185t109 172.5t156.5 128.5t188 50q175 0 303 -172l50 -47q99 -99 155 -257.5t56 -299.5q0 -88 -14.5 -186t-42.5 -197.5t-73 -189.5t-101 -160.5t-131.5 -112t-160.5 -41.5q-136 0 -237 101l-58 55q-72 51 -126 141.5t-84 198t-44 214 t-14 210.5zM68 807q0 -103 13 -207.5t45.5 -213.5t81 -192.5t126.5 -136.5t174 -53q98 0 183.5 58t143.5 151t100 209.5t61.5 233t19.5 221.5q0 64 -13 136t-37.5 145t-63.5 140t-86.5 118.5t-111.5 82.5t-135 31q-94 0 -182.5 -48t-151 -124t-104 -167t-51.5 -179 q-12 -105 -12 -205zM227 711q0 285 100 467t238 182q49 0 94.5 -31.5t83 -93t60 -166t22.5 -238.5q0 -215 -61 -407q-38 -105 -111.5 -192t-144.5 -87q-77 0 -137 123q-11 22 -49.5 94.5t-51.5 104t-28 100t-15 144.5zM344 608q0 -79 15.5 -147t31.5 -104.5t49 -100.5l4 -2 q10 -18 41 -82v-4q8 -2 23 -2q65 0 132 82t103 182q62 195 62 401q0 261 -84 402q-23 10 -53 10q-132 0 -228 -178t-96 -457zM358 1636q48 88 48 275q0 101 -9 186q78 -29 205 -29v-14l96 -94q6 -103 -30 -223t-101 -189l25 -22q-60 -13 -113 -13l-96 97h-10zM377 1630 q51 0 69 4l-12 8q71 63 112.5 184.5t35.5 221.5q-117 0 -162 16q25 -307 -43 -434z" />
<glyph unicode="&#xd3;" horiz-adv-x="946" d="M47 807q0 105 12 207q13 91 56.5 185t109 172.5t156.5 128.5t188 50q175 0 303 -172l50 -47q99 -99 155 -257.5t56 -299.5q0 -88 -14.5 -186t-42.5 -197.5t-73 -189.5t-101 -160.5t-131.5 -112t-160.5 -41.5q-136 0 -237 101l-58 55q-72 51 -126 141.5t-84 198t-44 214 t-14 210.5zM68 807q0 -103 13 -207.5t45.5 -213.5t81 -192.5t126.5 -136.5t174 -53q98 0 183.5 58t143.5 151t100 209.5t61.5 233t19.5 221.5q0 64 -13 136t-37.5 145t-63.5 140t-86.5 118.5t-111.5 82.5t-135 31q-94 0 -182.5 -48t-151 -124t-104 -167t-51.5 -179 q-12 -105 -12 -205zM227 711q0 285 100 467t238 182q49 0 94.5 -31.5t83 -93t60 -166t22.5 -238.5q0 -215 -61 -407q-38 -105 -111.5 -192t-144.5 -87q-77 0 -137 123q-11 22 -49.5 94.5t-51.5 104t-28 100t-15 144.5zM344 608q0 -79 15.5 -147t31.5 -104.5t49 -100.5l4 -2 q10 -18 41 -82v-4q8 -2 23 -2q65 0 132 82t103 182q62 195 62 401q0 261 -84 402q-23 10 -53 10q-132 0 -228 -178t-96 -457zM377 1991q0 55 8 94q1 0 10 -1t13 -1h16q50 -4 78 -4q36 0 92 12l-4 -14l98 -97q-35 -179 -35 -286q0 -98 35 -183h-31q-46 5 -92 25l-92 92 q-8 2 -24 10l28 15q-48 67 -74 159t-26 179zM403 2064q-16 -99 13 -223.5t92 -193.5l-12 -9q14 -5 67 -10q-55 133 4 436q-40 -10 -164 0z" />
<glyph unicode="&#xd4;" horiz-adv-x="946" d="M47 807q0 105 12 207q13 91 56.5 185t109 172.5t156.5 128.5t188 50q175 0 303 -172l50 -47q99 -99 155 -257.5t56 -299.5q0 -88 -14.5 -186t-42.5 -197.5t-73 -189.5t-101 -160.5t-131.5 -112t-160.5 -41.5q-136 0 -237 101l-58 55q-72 51 -126 141.5t-84 198t-44 214 t-14 210.5zM68 807q0 -103 13 -207.5t45.5 -213.5t81 -192.5t126.5 -136.5t174 -53q98 0 183.5 58t143.5 151t100 209.5t61.5 233t19.5 221.5q0 64 -13 136t-37.5 145t-63.5 140t-86.5 118.5t-111.5 82.5t-135 31q-94 0 -182.5 -48t-151 -124t-104 -167t-51.5 -179 q-12 -105 -12 -205zM227 711q0 285 100 467t238 182q49 0 94.5 -31.5t83 -93t60 -166t22.5 -238.5q0 -215 -61 -407q-38 -105 -111.5 -192t-144.5 -87q-77 0 -137 123q-11 22 -49.5 94.5t-51.5 104t-28 100t-15 144.5zM227 1647q122 65 183 182q10 18 15.5 26.5t15 23.5 t15.5 22.5t15 19t16.5 16.5t17.5 11.5t19 8.5t20 2t23 -3q51 -12 82 -66l70 -69l-4 2l6 -4q25 -25 51 -90q12 -29 14 -33l19 -37l6 -14q35 -25 51 -33h-18l96 -96q-67 0 -88 -3q-34 -6 -79.5 -2.5t-67.5 25.5l-87 82l-4 2v-14l-10 -88q-42 24 -102 24q-10 0 -31.5 -1 t-30.5 -1l-90 8l-94 94zM289 1657q9 -1 51.5 1.5t84.5 0.5t64 -14q4 26 6.5 60t5.5 50.5t15.5 44t38.5 60.5q32 -173 53 -205q12 -16 37 -22.5t46.5 -6t52 3t40.5 2.5q-20 12 -38 33t-27.5 38t-24.5 47t-22 42q-5 11 -16.5 37.5t-17.5 38t-17.5 28.5t-26 25.5t-33.5 13.5 q-37 10 -69.5 -21.5t-55.5 -78t-62.5 -100.5t-84.5 -78zM344 608q0 -79 15.5 -147t31.5 -104.5t49 -100.5l4 -2q10 -18 41 -82v-4q8 -2 23 -2q65 0 132 82t103 182q62 195 62 401q0 261 -84 402q-23 10 -53 10q-132 0 -228 -178t-96 -457z" />
<glyph unicode="&#xd5;" horiz-adv-x="946" d="M47 807q0 105 12 207q13 91 56.5 185t109 172.5t156.5 128.5t188 50q175 0 303 -172l50 -47q99 -99 155 -257.5t56 -299.5q0 -88 -14.5 -186t-42.5 -197.5t-73 -189.5t-101 -160.5t-131.5 -112t-160.5 -41.5q-136 0 -237 101l-58 55q-72 51 -126 141.5t-84 198t-44 214 t-14 210.5zM68 807q0 -103 13 -207.5t45.5 -213.5t81 -192.5t126.5 -136.5t174 -53q98 0 183.5 58t143.5 151t100 209.5t61.5 233t19.5 221.5q0 64 -13 136t-37.5 145t-63.5 140t-86.5 118.5t-111.5 82.5t-135 31q-94 0 -182.5 -48t-151 -124t-104 -167t-51.5 -179 q-12 -105 -12 -205zM193 1755q0 55 22.5 97t65.5 55q55 12 143 -60q21 -18 55 -35q61 -28 135 -18q0 27 -2 47q-4 50 -4 107q36 -15 69.5 -15.5t51.5 6.5l37 7l20 -13q0 -2 1 -7t1 -7l95 -92q10 -38 10 -80q0 -47 -12.5 -92t-37.5 -81.5t-63.5 -50t-89.5 2.5q-23 9 -84 51 q-80 51 -104 51q-19 0 -19 -39q0 -12 13 -82q-28 0 -44 0.5t-20 1.5t-8.5 2t-11.5 2q-40 7 -80 7l-96 96h-11q-32 59 -32 139zM213 1776.5q-2 -38.5 4.5 -76t20.5 -64.5h4q23 0 68 -6t65 -6q-24 122 26 122q28 -1 109 -54q64 -43 90 -52q45 -14 78 -0.5t55 47.5t33 76 t11 85.5t-11 76.5q-11 -1 -33 -5.5t-35.5 -6t-33 -1t-35.5 6.5q0 -26 3 -72.5t3 -68.5q-87 -20 -164 16q-18 8 -54 36.5t-69 45.5t-61 10q-34 -9 -53 -40t-21 -69.5zM227 711q0 285 100 467t238 182q49 0 94.5 -31.5t83 -93t60 -166t22.5 -238.5q0 -215 -61 -407 q-38 -105 -111.5 -192t-144.5 -87q-77 0 -137 123q-11 22 -49.5 94.5t-51.5 104t-28 100t-15 144.5zM344 608q0 -79 15.5 -147t31.5 -104.5t49 -100.5l4 -2q10 -18 41 -82v-4q8 -2 23 -2q65 0 132 82t103 182q62 195 62 401q0 261 -84 402q-23 10 -53 10q-132 0 -228 -178 t-96 -457z" />
<glyph unicode="&#xd6;" horiz-adv-x="946" d="M-61 1823q3 44 36 78.5t75.5 51.5t86.5 21q119 6 166 -76l76 -75q39 -39 39 -101q0 -66 -47.5 -119.5t-126.5 -62.5q-102 -7 -160 51l-70 70q-56 29 -73 88q-11 47 -2 74zM-41 1759q18 -58 67.5 -83t112.5 -19q97 9 141 86t5 148t-146 63q-42 -4 -80.5 -18.5t-68.5 -45.5 t-31 -71q-9 -16 0 -60zM53 807q0 97 13 207q13 91 56.5 185t108.5 172.5t156 128.5t188 50q176 0 304 -172l49 -47q99 -99 155 -257.5t56 -299.5q0 -88 -14.5 -186t-42.5 -197.5t-73 -189.5t-101 -160.5t-131.5 -112t-160.5 -41.5q-136 0 -237 101l-57 55 q-72 51 -126.5 141.5t-84 198t-44 214t-14.5 210.5zM74 807q0 -103 13 -207.5t45.5 -213.5t81 -192.5t126.5 -136.5t174 -53q98 0 183.5 58t143.5 151t100 209.5t61.5 233t19.5 221.5q0 64 -13 136t-37.5 145t-63.5 140t-86.5 118.5t-111.5 82.5t-135 31q-94 0 -182.5 -48 t-151 -124t-104 -167t-51.5 -179q-12 -105 -12 -205zM233 711q0 285 100 467t238 182q49 0 94.5 -31.5t83 -93t60 -166t22.5 -238.5q0 -215 -61 -407q-38 -105 -111.5 -192t-144.5 -87q-77 0 -137 123q-11 22 -49.5 94.5t-51.5 104t-28 100t-15 144.5zM350 608 q0 -79 15.5 -147t31.5 -104.5t49 -100.5l5 -2q10 -18 41 -82v-4q8 -2 22 -2q66 0 133 82t103 182q61 192 61 401q0 261 -84 402q-23 10 -53 10q-132 0 -228 -178t-96 -457zM475 1825q0 68 47.5 111.5t136.5 37.5q53 -5 106 -31t77 -69l76 -74q33 -33 36 -80q7 -19 -2 -71 q-19 -59 -74 -85.5t-120 -23.5q-73 9 -119 55l-70 68q-45 27 -69.5 71t-24.5 91zM511 1891q-39 -71 5 -148t141 -86q63 -6 113 19t68 83q9 44 0 60q-1 40 -31.5 71t-69 45.5t-80.5 18.5q-107 8 -146 -63z" />
<glyph unicode="&#xd8;" horiz-adv-x="1107" d="M45 899q0 133 25 258q66 250 260 375q76 47 168 47q122 0 213 -88l26 47q11 24 18 37t20.5 30t27 23t34.5 5.5t46 -11.5q39 -20 53 -51l80 -80q22 -22 22 -53q0 -34 -37 -95q-21 -28 -28 -49q-12 -30 -12 -57q0 -24 20 -76l23 -51q42 -122 57 -219q8 -65 8 -156 q0 -186 -43 -319q-18 -50 -33 -105q-19 -63 -33 -103.5t-37.5 -95.5t-53.5 -95.5t-66 -67.5q-95 -68 -187 -68q-114 0 -241 96l-8 -32q-7 -32 -14 -52.5t-18.5 -45t-28 -36.5t-38.5 -12q-40 0 -92 49l-67 68q-13 8 -43 35q52 105 79 260q9 37 9 59q0 23 -15 74 q-40 126 -67 278.5t-27 276.5zM74 -49l8 -8zM74 747q20 -212 86 -397q13 -42 14 -73t-8 -70q-28 -159 -76 -252q28 -25 50 -34.5t37.5 -3.5t27 17.5t20 35t14.5 43.5t13 48t12 43q74 -57 137 -84t139.5 -19.5t151.5 62.5q36 26 65.5 67.5t51.5 94.5t37.5 98.5t33.5 106.5 t29 92q63 200 35 469q-14 91 -57 217q-7 19 -19 46.5t-16.5 39.5t-8 31t0.5 37t14 41q7 15 19.5 37t21.5 37.5t16 34.5t6 33.5t-12 30t-35 28.5q-20 9 -36 10.5t-28 -5t-21 -16.5t-17 -26t-14.5 -30.5t-15.5 -32.5t-17 -31l-4 -19q-71 86 -180 102t-199 -43 q-102 -62 -161 -149t-91 -211q-36 -194 -16 -406zM252 756q-5 135 14.5 276t69.5 234q29 60 91.5 90t126.5 14t93 -78v2l2 -4q1 -4 4 -14t4 -14l-8 28l-2 2q-19 -44 -86.5 -156.5t-91.5 -162.5l-195 -531q-10 41 -14.5 90t-5.5 128.5t-2 95.5zM336 270l14 -10q46 72 85 166 t67 184.5t57 181.5t70 182t92 161q4 -23 12.5 -71.5t13.5 -77t9 -69.5t4 -75q0 -385 -103 -549q-36 -60 -94.5 -85.5t-120 -9.5t-106.5 72zM367 760q47 136 77 211q49 99 97 174v-2l10 16l55 98q-48 -3 -91 -30t-64 -70q-77 -148 -84 -397zM500 213q84 6 139 92 q100 158 100 537v8q-42 -90 -98 -277q-84 -253 -141 -360z" />
<glyph unicode="&#xd9;" horiz-adv-x="792" d="M63 549q0 19 5 137q4 54 4 82q2 101 22 270q0 4 2 16.5t2 16.5q19 167 19 266q0 78 -23 219q132 -24 170 -24l45 45l-4 -23l98 -96q-24 -184 -24 -325q0 -52 1.5 -105t6.5 -116t8 -103t11.5 -115t11.5 -101t13.5 -112t12.5 -100q10 -88 62 -180q15 -6 31 -6q39 0 92 79 v-2q61 117 61 308q0 68 -8 190q-8 106 -8 164q0 207 -6 311q0 86 2 109t2 76q0 51 -19 120q84 -10 197 -10l18 -16v-11l97 -94q16 -131 16 -317q0 -66 -4 -180q-2 -23 -2 -68q0 -5 6 -164l6 -98q5 -149 -38.5 -319.5t-123.5 -278.5q-81 -105 -225 -105q-78 0 -157.5 33.5 t-135.5 89.5l-55 56q-61 44 -92 92q-97 148 -97 389zM85.5 504q0.5 -53 6 -89.5t15.5 -81.5t28 -84.5t43 -76.5q38 -60 107.5 -103t145.5 -58.5t153.5 7t126.5 86.5q78 105 121 274.5t38 315.5q-1 33 -5.5 109t-5.5 110t1 113q11 292 -12 494q-115 0 -166 6q10 -33 10 -83.5 t-3 -108.5t-1 -89q6 -104 6 -311q0 -50 7 -160t9 -184.5t-12.5 -168t-50.5 -157.5q-78 -139 -175 -65q-68 52 -116 177q-23 59 -28 105q-23 187 -32 266t-22.5 240.5t-11 288t18.5 244.5l-7 -7q-34 -6 -153 17q17 -77 15 -190t-10.5 -191t-20 -191t-13.5 -190 q-1 -27 -3.5 -87t-3 -92t0 -85zM287 1636q47 86 47 275q0 110 -8 186q78 -29 204 -29v-14l97 -94q6 -103 -30 -223t-101 -189l24 -22q-60 -13 -112 -13l-97 97h-10zM305 1630q52 0 70 4l-13 8q71 63 112.5 184.5t35.5 221.5q-117 0 -162 16q25 -307 -43 -434z" />
<glyph unicode="&#xda;" horiz-adv-x="792" d="M63 549q0 19 5 137q4 54 4 82q2 101 22 270q0 4 2 16.5t2 16.5q19 167 19 266q0 78 -23 219q132 -24 170 -24l45 45l-4 -23l98 -96q-24 -184 -24 -325q0 -52 1.5 -105t6.5 -116t8 -103t11.5 -115t11.5 -101t13.5 -112t12.5 -100q10 -88 62 -180q15 -6 31 -6q39 0 92 79 v-2q61 117 61 308q0 68 -8 190q-8 106 -8 164q0 207 -6 311q0 86 2 109t2 76q0 51 -19 120q84 -10 197 -10l18 -16v-11l97 -94q16 -131 16 -317q0 -66 -4 -180q-2 -23 -2 -68q0 -5 6 -164l6 -98q5 -149 -38.5 -319.5t-123.5 -278.5q-81 -105 -225 -105q-78 0 -157.5 33.5 t-135.5 89.5l-55 56q-61 44 -92 92q-97 148 -97 389zM85.5 504q0.5 -53 6 -89.5t15.5 -81.5t28 -84.5t43 -76.5q38 -60 107.5 -103t145.5 -58.5t153.5 7t126.5 86.5q78 105 121 274.5t38 315.5q-1 33 -5.5 109t-5.5 110t1 113q11 292 -12 494q-115 0 -166 6q10 -33 10 -83.5 t-3 -108.5t-1 -89q6 -104 6 -311q0 -50 7 -160t9 -184.5t-12.5 -168t-50.5 -157.5q-78 -139 -175 -65q-68 52 -116 177q-23 59 -28 105q-23 187 -32 266t-22.5 240.5t-11 288t18.5 244.5l-7 -7q-34 -6 -153 17q17 -77 15 -190t-10.5 -191t-20 -191t-13.5 -190 q-1 -27 -3.5 -87t-3 -92t0 -85zM305 1991q0 55 8 94q1 0 10 -1t13 -1h16q50 -4 78 -4q36 0 92 12l-4 -14l98 -97q-34 -174 -34 -286q0 -100 34 -183h-30q-46 5 -92 25l-93 92q-8 2 -24 10l29 15q-48 67 -74.5 159t-26.5 179zM332 2064q-16 -99 12.5 -223.5t91.5 -193.5 l-12 -9q14 -5 68 -10q-55 133 4 436q-40 -10 -164 0z" />
<glyph unicode="&#xdb;" horiz-adv-x="792" d="M63 549q0 19 5 137q4 54 4 82q2 101 22 270q0 4 2 16.5t2 16.5q19 167 19 266q0 78 -23 219q132 -24 170 -24l45 45l-4 -23l98 -96q-24 -184 -24 -325q0 -52 1.5 -105t6.5 -116t8 -103t11.5 -115t11.5 -101t13.5 -112t12.5 -100q10 -88 62 -180q15 -6 31 -6q39 0 92 79 v-2q61 117 61 308q0 68 -8 190q-8 106 -8 164q0 207 -6 311q0 86 2 109t2 76q0 51 -19 120q84 -10 197 -10l18 -16v-11l97 -94q16 -131 16 -317q0 -66 -4 -180q-2 -23 -2 -68q0 -5 6 -164l6 -98q5 -149 -38.5 -319.5t-123.5 -278.5q-81 -105 -225 -105q-78 0 -157.5 33.5 t-135.5 89.5l-55 56q-61 44 -92 92q-97 148 -97 389zM85.5 504q0.5 -53 6 -89.5t15.5 -81.5t28 -84.5t43 -76.5q38 -60 107.5 -103t145.5 -58.5t153.5 7t126.5 86.5q78 105 121 274.5t38 315.5q-1 33 -5.5 109t-5.5 110t1 113q11 292 -12 494q-115 0 -166 6q10 -33 10 -83.5 t-3 -108.5t-1 -89q6 -104 6 -311q0 -50 7 -160t9 -184.5t-12.5 -168t-50.5 -157.5q-78 -139 -175 -65q-68 52 -116 177q-23 59 -28 105q-23 187 -32 266t-22.5 240.5t-11 288t18.5 244.5l-7 -7q-34 -6 -153 17q17 -77 15 -190t-10.5 -191t-20 -191t-13.5 -190 q-1 -27 -3.5 -87t-3 -92t0 -85zM156 1647q72 39 113 83.5t69 98.5q23 38 35.5 57.5t33 41.5t42 28t47.5 0q51 -12 82 -66l69 -69l-4 2l6 -4q25 -25 51 -90q10 -24 15 -33l18 -37l6 -14q33 -23 52 -33h-19l96 -96q-67 0 -88 -3q-34 -6 -79.5 -2.5t-67.5 25.5l-86 82l-4 2v-14 l-11 -88q-42 24 -102 24q-10 0 -31 -1t-30 -1l-90 8l-95 94zM217 1657q9 -1 52 1.5t85 0.5t64 -14q4 26 6.5 60t5 50.5t15 44t38.5 60.5q32 -170 54 -205q12 -16 37 -22.5t46.5 -6t52 3t40.5 2.5q-20 12 -38 33.5t-27.5 37.5t-25.5 47t-22 42q-5 11 -16.5 37.5t-17.5 38 t-17.5 28.5t-26 25.5t-33.5 13.5q-37 10 -69.5 -21.5t-55.5 -78t-62.5 -100.5t-84.5 -78z" />
<glyph unicode="&#xdc;" horiz-adv-x="792" d="M-139 1823q3 44 36 78.5t75.5 51.5t86.5 21q119 6 166 -76l76 -75q39 -39 39 -101q0 -66 -47.5 -119.5t-126.5 -62.5q-102 -7 -160 51l-69 70q-57 29 -74 88q-11 47 -2 74zM-119 1759q18 -58 67.5 -83t112.5 -19q97 9 141 86t5 148t-146 63q-42 -4 -80.5 -18.5 t-68.5 -45.5t-31 -71q-9 -16 0 -60zM63 549q0 19 5 137q4 54 4 82q2 101 22 270q0 4 2 16.5t2 16.5q19 167 19 266q0 78 -23 219q132 -24 170 -24l45 45l-4 -23l98 -96q-24 -184 -24 -325q0 -52 1.5 -105t6.5 -116t8 -103t11.5 -115t11.5 -101t13.5 -112t12.5 -100 q10 -88 62 -180q15 -6 31 -6q39 0 92 79v-2q61 117 61 308q0 68 -8 190q-8 106 -8 164q0 207 -6 311q0 86 2 109t2 76q0 51 -19 120q84 -10 197 -10l18 -16v-11l97 -94q16 -131 16 -317q0 -66 -4 -180q-2 -23 -2 -68q0 -5 6 -164l6 -98q5 -149 -38.5 -319.5t-123.5 -278.5 q-81 -105 -225 -105q-78 0 -157.5 33.5t-135.5 89.5l-55 56q-61 44 -92 92q-97 148 -97 389zM85.5 504q0.5 -53 6 -89.5t15.5 -81.5t28 -84.5t43 -76.5q38 -60 107.5 -103t145.5 -58.5t153.5 7t126.5 86.5q78 105 121 274.5t38 315.5q-1 33 -5.5 109t-5.5 110t1 113 q11 292 -12 494q-115 0 -166 6q10 -33 10 -83.5t-3 -108.5t-1 -89q6 -104 6 -311q0 -50 7 -160t9 -184.5t-12.5 -168t-50.5 -157.5q-78 -139 -175 -65q-68 52 -116 177q-23 59 -28 105q-23 187 -32 266t-22.5 240.5t-11 288t18.5 244.5l-7 -7q-34 -6 -153 17q17 -77 15 -190 t-10.5 -191t-20 -191t-13.5 -190q-1 -27 -3.5 -87t-3 -92t0 -85zM397 1825q0 68 48 111.5t137 37.5q53 -5 105.5 -31t76.5 -69l76 -74q34 -34 37 -80q6 -17 -3 -71q-19 -59 -74 -85.5t-120 -23.5q-73 9 -119 55l-69 68q-45 27 -70 71t-25 91zM434 1891q-39 -71 5 -148 t141 -86q63 -6 112.5 19t67.5 83q9 44 0 60q-1 40 -31 71t-68.5 45.5t-80.5 18.5q-107 8 -146 -63z" />
<glyph unicode="&#xdd;" horiz-adv-x="858" d="M35 1491l10 41l12 -23q8 8 19 11q10 10 26 10l39 -6q102 -13 111 -13q0 -10 2 -14l94 -94q9 -66 31.5 -138t42.5 -120t55 -123l25 -59q22 98 96 350q13 43 16 57l15 51q9 23 12 43q15 59 37.5 74t95.5 12h14q2 0 8 1t9 1q31 1 49.5 0t39 -11.5t28.5 -31.5l84 -84 q15 -15 18 -47v-2q2 -38 -47 -139l-25 -55h2q-14 -65 -53 -162q-42 -101 -80 -217q-35 -116 -88 -205q-1 -5 -5 -9.5t-7.5 -7.5t-9.5 -7t-9 -7q-22 -22 -26 -30q-4 -7 -5.5 -18t0 -25t3 -25.5t4.5 -29t4 -25.5q2 -4 2 -19q12 -150 12 -307q0 -110 -6 -205q-82 0 -117 2 q-70 4 -112 4l-96 97h-13q-10 54 -10 127q0 72 12 194q0 5 2 18t2 17q11 101 11 160q0 115 -33 180q-29 67 -98 147q-9 9 -9 11q-76 96 -94 141q-38 81 -61 238l-4 20l-7 35q-4 35 -12 72l-4 22q-19 96 -12 123zM55 1485q-5 -7 0.5 -46t16 -91.5t12.5 -69.5q1 -8 5.5 -36.5 t6.5 -38t6.5 -35t7.5 -38t8 -34.5t10 -37.5t12 -34t14 -35.5q22 -54 99.5 -148.5t100.5 -150.5q29 -60 33.5 -153.5t-7 -180t-16.5 -184t7 -166.5q31 0 101 -3t101 -3q14 221 -6 496q0 1 -4 25.5t-5.5 35t-3 30.5t0 34t6.5 24q6 15 29 33.5t28 30.5q43 66 87 200 q37 114 81 219q34 85 52 160q5 15 25 58t33.5 79t10.5 54q-2 20 -10 32t-24 16t-28 5t-36.5 -0.5t-34.5 -1.5q-18 1 -30 1.5t-23 -1t-17 -2t-13 -7t-9.5 -9t-7 -14t-6 -18t-7 -24.5t-8.5 -29q-10 -35 -45.5 -154.5t-50 -173.5t-36.5 -148t-34 -175q-16 82 -54.5 181 t-77 176.5t-74.5 176t-48 181.5q-18 0 -135 17l-37 5zM160 1399q0 -2 2 -2zM330 1991q0 55 8 94l9 -1q9 -1 13 -1h17q50 -4 78 -4q37 0 92 12l-4 -14l98 -97q-35 -179 -35 -286q0 -98 35 -183h-31q-46 5 -92 25l-92 92q-10 2 -25 10l29 15q-48 67 -74 159t-26 179zM356 2064 q-16 -99 13 -223.5t92 -193.5l-12 -9q14 -5 67 -10q-55 133 4 436q-40 -10 -164 0z" />
<glyph unicode="&#xdf;" horiz-adv-x="1243" d="M55 -18q6 108 6 249v281q0 227 18 404t71 335q29 88 105 156.5t171.5 103.5t194.5 35q88 0 166 -34t131 -99l75 -76q63 -63 84 -163l4 -3q9 -41 9 -81q0 -108 -54.5 -202.5t-152.5 -199.5q47 -38 78 -80l59 -59q108 -108 108 -262q0 -103 -50 -204t-137.5 -174 t-190.5 -97q-83 -17 -132 -17q-54 0 -108 10l-96 97q-2 0 -7.5 1t-7.5 1q21 125 29 202l78 5q37 -15 67 -15q68 0 127.5 54.5t85.5 132.5q13 63 13 104q0 47 -19 102l-53 11q-85 13 -123 28l-92 93l-16 6q-29 93 -29 137q0 51 33 84l78 67q53 45 73 63t58 56t53.5 67.5 t15.5 57.5q0 9 -4 25q-39 20 -84 20q-63 0 -139 -45q-122 -82 -129 -354q-10 -487 -29 -926q-15 0 -55 4q-136 16 -174 4l-98 99q-1 -1 -5 -2t-6 -2zM78 10q25 4 62.5 1t84.5 -9t51 -6q19 453 29 911q4 136 32 228t103 139q179 112 326 -41q25 -26 31 -55.5t-7 -59.5 t-33 -58.5t-54.5 -60.5t-63.5 -57t-66.5 -56.5t-58.5 -51.5q-21 -19 -24.5 -53.5t3.5 -64t21 -73.5q38 -15 99.5 -24t103 -25t65.5 -57q32 -63 37 -124.5t-12 -133.5q-30 -109 -119.5 -167.5t-185.5 -21.5l-56 -4q-14 -123 -22 -166q65 -10 110.5 -8t110.5 16 q86 20 161.5 76.5t126 132t69 165t1 173t-88 159t-189.5 120.5q32 33 53.5 56t50 56t47 60t39 60.5t31.5 65.5t19.5 67.5t8 73.5t-8.5 77q-20 94 -80.5 155.5t-138.5 83.5t-168.5 14.5t-171 -42.5t-145 -97t-91.5 -139q-45 -134 -66 -300t-20.5 -313.5t0 -315.5t-5.5 -306z M1079 1171l2 -2z" />
<glyph unicode="&#xe0;" horiz-adv-x="655" d="M57 803q13 115 13 248h43q191 100 321 100q74 3 143 -31t109 -98l62 -59q40 -40 61 -95q27 -79 27 -174q0 -10 -1 -30.5t-1 -30.5t-1.5 -30t-1.5 -30q1 -36 11 -227q12 -208 12 -315q0 -68 -8 -174q-115 14 -146 45l-24 24q-36 -66 -152 -61q-150 6 -248 104l-53 51 q-75 49 -116 130t-41 178q0 59 10 100q15 55 37 97.5t52.5 72.5t60.5 50.5t75 35.5t80 24t90 19q12 4 21 4q2 0 38 6q7 31 7 51q0 22 -7 46q-38 10 -69 10q-69 0 -148.5 -34.5t-144.5 -94.5l-98 98zM84 854q41 38 97.5 65t113 36t110.5 2.5t91 -35t54 -77.5t-1 -124 q-25 -5 -63.5 -12.5t-61.5 -11.5t-56.5 -12t-54 -15.5t-48 -19.5t-45.5 -26t-39 -34t-35 -44t-27.5 -55t-22.5 -69q-25 -113 7.5 -211.5t117 -160.5t201.5 -68q42 -2 71 6.5t46 22.5t26.5 42t13 53.5t5.5 69.5v-18q0 -42 0.5 -59.5t5 -42t12.5 -34t25 -21t41.5 -17 t62.5 -9.5q7 159 5.5 234t-10.5 232.5t-11 234.5q0 17 1 70.5t0.5 79.5t-6.5 67.5t-18 73.5q-30 83 -101 125.5t-157 37.5q-124 0 -315 -100h-29q0 -123 -6 -176zM215 1358q47 86 47 274q0 111 -8 187q78 -29 205 -29v-14l96 -95q6 -103 -30 -222.5t-101 -188.5l25 -23 q-55 -12 -113 -12l-96 96h-11zM233 1352q52 0 70 4l-12 8q71 63 112 184t35 221q-114 0 -162 17q25 -307 -43 -434zM266.5 266.5q-5.5 33.5 8.5 72.5t28 64.5t39 65.5q94 136 195 109l6 6q8 -57 11 -132.5t-9.5 -164t-46.5 -117.5q-40 -32 -102.5 -18.5t-98.5 53.5 q-25 28 -30.5 61.5zM381 176q21 -8 49 -8q37 0 53 16q49 41 49 232v22q-36 -23 -75 -80q-24 -39 -35.5 -58.5t-25 -54.5t-13.5 -61q0 -2 -1 -4.5t-1 -3.5z" />
<glyph unicode="&#xe1;" horiz-adv-x="655" d="M57 803q13 115 13 248h43q191 100 321 100q74 3 143 -31t109 -98l62 -59q40 -40 61 -95q27 -79 27 -174q0 -10 -1 -30.5t-1 -30.5t-1.5 -30t-1.5 -30q1 -36 11 -227q12 -208 12 -315q0 -68 -8 -174q-115 14 -146 45l-24 24q-36 -66 -152 -61q-150 6 -248 104l-53 51 q-75 49 -116 130t-41 178q0 59 10 100q15 55 37 97.5t52.5 72.5t60.5 50.5t75 35.5t80 24t90 19q12 4 21 4q2 0 38 6q7 31 7 51q0 22 -7 46q-38 10 -69 10q-69 0 -148.5 -34.5t-144.5 -94.5l-98 98zM84 854q41 38 97.5 65t113 36t110.5 2.5t91 -35t54 -77.5t-1 -124 q-25 -5 -63.5 -12.5t-61.5 -11.5t-56.5 -12t-54 -15.5t-48 -19.5t-45.5 -26t-39 -34t-35 -44t-27.5 -55t-22.5 -69q-25 -113 7.5 -211.5t117 -160.5t201.5 -68q42 -2 71 6.5t46 22.5t26.5 42t13 53.5t5.5 69.5v-18q0 -42 0.5 -59.5t5 -42t12.5 -34t25 -21t41.5 -17 t62.5 -9.5q7 159 5.5 234t-10.5 232.5t-11 234.5q0 17 1 70.5t0.5 79.5t-6.5 67.5t-18 73.5q-30 83 -101 125.5t-157 37.5q-124 0 -315 -100h-29q0 -123 -6 -176zM233 1712q0 50 9 94l9 -1q9 -1 13 -1h17q50 -4 77 -4q38 0 93 12l-5 -14l99 -96q-35 -179 -35 -287 q0 -97 35 -182h-31q-49 5 -92 24l-92 93q-10 2 -25 10l29 14q-48 67 -74.5 159t-26.5 179zM260 1786q-16 -99 13 -224t92 -194l-13 -8q14 -5 68 -10q-55 133 4 436q-40 -10 -164 0zM266.5 266.5q-5.5 33.5 8.5 72.5t28 64.5t39 65.5q94 136 195 109l6 6q8 -57 11 -132.5 t-9.5 -164t-46.5 -117.5q-40 -32 -102.5 -18.5t-98.5 53.5q-25 28 -30.5 61.5zM381 176q21 -8 49 -8q37 0 53 16q49 41 49 232v22q-36 -23 -75 -80q-24 -39 -35.5 -58.5t-25 -54.5t-13.5 -61q0 -2 -1 -4.5t-1 -3.5z" />
<glyph unicode="&#xe2;" horiz-adv-x="655" d="M57 803q13 115 13 248h43q191 100 321 100q74 3 143 -31t109 -98l62 -59q40 -40 61 -95q27 -79 27 -174q0 -10 -1 -30.5t-1 -30.5t-1.5 -30t-1.5 -30q1 -36 11 -227q12 -208 12 -315q0 -68 -8 -174q-115 14 -146 45l-24 24q-36 -66 -152 -61q-150 6 -248 104l-53 51 q-75 49 -116 130t-41 178q0 59 10 100q15 55 37 97.5t52.5 72.5t60.5 50.5t75 35.5t80 24t90 19q12 4 21 4q2 0 38 6q7 31 7 51q0 22 -7 46q-38 10 -69 10q-69 0 -148.5 -34.5t-144.5 -94.5l-98 98zM84 854q41 38 97.5 65t113 36t110.5 2.5t91 -35t54 -77.5t-1 -124 q-25 -5 -63.5 -12.5t-61.5 -11.5t-56.5 -12t-54 -15.5t-48 -19.5t-45.5 -26t-39 -34t-35 -44t-27.5 -55t-22.5 -69q-25 -113 7.5 -211.5t117 -160.5t201.5 -68q42 -2 71 6.5t46 22.5t26.5 42t13 53.5t5.5 69.5v-18q0 -42 0.5 -59.5t5 -42t12.5 -34t25 -21t41.5 -17 t62.5 -9.5q7 159 5.5 234t-10.5 232.5t-11 234.5q0 17 1 70.5t0.5 79.5t-6.5 67.5t-18 73.5q-30 83 -101 125.5t-157 37.5q-124 0 -315 -100h-29q0 -123 -6 -176zM84 1368q72 39 113 83.5t69 98.5q23 38 35.5 57.5t33 41.5t42 28t47.5 0q52 -13 82 -65l69 -70l-4 2l7 -4 q25 -25 51 -90q12 -29 14 -33l19 -37l6 -14q35 -25 51 -33h-19l97 -96q-74 0 -88 -2q-34 -6 -80 -3t-68 25l-86 82l-4 2v-14l-10 -88q-44 25 -103 25q-10 0 -31 -1t-30 -1l-90 8l-94 94zM145 1378q9 -1 52 1.5t85 0.5t64 -14q4 26 6.5 60t5.5 50.5t15.5 44t38.5 60.5 q32 -173 53 -205q16 -20 45.5 -25.5t78.5 -1t52 4.5q-20 12 -38 33.5t-27.5 37t-25.5 46.5t-22 42q-6 12 -16.5 38t-17 38t-17.5 28.5t-25.5 25.5t-33.5 14q-30 8 -56 -10.5t-48 -54.5t-44 -75t-55 -79t-70 -60zM266.5 266.5q-5.5 33.5 8.5 72.5t28 64.5t39 65.5 q94 136 195 109l6 6q8 -57 11 -132.5t-9.5 -164t-46.5 -117.5q-40 -32 -102.5 -18.5t-98.5 53.5q-25 28 -30.5 61.5zM381 176q21 -8 49 -8q37 0 53 16q49 41 49 232v22q-36 -23 -75 -80q-24 -39 -35.5 -58.5t-25 -54.5t-13.5 -61q0 -2 -1 -4.5t-1 -3.5z" />
<glyph unicode="&#xe3;" horiz-adv-x="655" d="M51 1477q0 55 22.5 96.5t65.5 54.5q57 12 144 -59q21 -18 55 -35q61 -28 135 -18q0 27 -2 47q-4 50 -4 106q25 -11 50.5 -13.5t36 -1t34.5 6.5l37 6l20 -12q0 -2 1 -7.5t1 -7.5l94 -92q11 -42 11 -80q0 -47 -12.5 -92t-37.5 -81.5t-63.5 -50t-89.5 2.5q-23 9 -84 51 q-81 52 -105 52q-18 0 -18 -39q0 -17 12 -82q-28 0 -44 0.5t-20 1.5t-8.5 2t-11.5 2q-34 6 -80 6l-96 96h-10q-33 61 -33 140zM59 803q13 115 13 248h43q191 100 321 100q74 3 143 -31t109 -98l62 -59q40 -40 61 -95q27 -79 27 -174q0 -10 -1 -30.5t-1 -30.5t-1 -30t-1 -30 q2 -74 10 -227q12 -208 12 -315q0 -68 -8 -174q-115 14 -146 45l-24 24q-36 -66 -152 -61q-149 6 -247 104l-54 51q-75 49 -116 130t-41 178q0 59 10 100q15 55 37 97.5t52.5 72.5t60.5 50.5t75 35.5t80 24t90 19q12 4 21 4q2 0 38 6q7 31 7 51q0 22 -7 46q-38 10 -69 10 q-69 0 -148.5 -34.5t-144.5 -94.5l-98 98zM71 1498.5q-2 -38.5 4.5 -76t20.5 -64.5h4q23 0 68 -6t65 -6q-6 33 -8.5 57t4 36t9 22t20 6t22 -3t29.5 -13.5t29 -17t33 -21.5q21 -13 32 -20.5t27.5 -16.5t28.5 -13q45 -14 78 -0.5t55 47.5t33 76t11 85.5t-11 76.5 q-11 -1 -33 -5.5t-36 -6.5t-33.5 -1.5t-35.5 6.5q0 -26 3.5 -72.5t3.5 -68.5q-85 -20 -164 17q-18 8 -54.5 36.5t-69.5 45.5t-61 10q-34 -9 -53 -40t-21 -69.5zM86 854q41 38 97.5 65t113 36t110.5 2.5t91 -35t54 -77.5t-1 -124q-25 -5 -63.5 -12.5t-61.5 -11.5t-56.5 -12 t-54 -15.5t-48 -19.5t-45.5 -26t-39 -34t-35 -44t-27.5 -55t-22.5 -69q-25 -113 7.5 -211.5t117 -160.5t201.5 -68q42 -2 71 6.5t46 22.5t26.5 42t13 53.5t5.5 69.5v-18q0 -42 0.5 -59.5t5 -42t12.5 -34t25 -21t41.5 -17t62.5 -9.5q7 159 5.5 234t-10.5 232.5t-11 234.5 q0 17 1 70.5t0.5 79.5t-6.5 67.5t-18 73.5q-30 83 -101 125.5t-157 37.5q-124 0 -315 -100h-29q0 -123 -6 -176zM268.5 266.5q-5.5 33.5 8.5 72.5t28 64.5t39 65.5q94 136 195 109l6 6q8 -57 11 -132.5t-9.5 -164t-46.5 -117.5q-40 -32 -102.5 -18.5t-98.5 53.5 q-25 28 -30.5 61.5zM383 176q21 -8 49 -8q37 0 53 16q50 42 50 232v22q-38 -24 -76 -80q-24 -39 -35.5 -58.5t-25 -54.5t-13.5 -61q0 -2 -1 -4.5t-1 -3.5z" />
<glyph unicode="&#xe4;" horiz-adv-x="655" d="M-207 1544q3 44 36.5 78.5t76 52t86.5 21.5q119 6 166 -76l75 -76q39 -39 39 -100q0 -66 -47.5 -119.5t-126.5 -62.5q-101 -7 -159 51l-70 69q-57 29 -74 88q-11 47 -2 74zM-186 1481q18 -58 67.5 -83.5t112.5 -19.5q97 9 141 86t5 148t-146 63q-42 -4 -80.5 -18.5 t-68.5 -45.5t-31 -71q-9 -15 0 -59zM61 803q13 115 13 248h43q191 100 321 100q74 3 143 -31t109 -98l62 -59q40 -40 61 -95q27 -79 27 -174q0 -10 -1 -30.5t-1 -30.5t-1 -30t-1 -30q2 -74 10 -227q12 -208 12 -315q0 -68 -8 -174q-114 14 -145 45l-25 24q-36 -66 -152 -61 q-149 6 -247 104l-54 51q-75 49 -116 130t-41 178q0 59 10 100q15 55 37 97.5t52.5 72.5t60.5 50.5t75 35.5t80 24t90 19q12 4 21 4q3 0 39 6q6 27 6 51q0 25 -6 46q-38 10 -70 10q-69 0 -148.5 -34.5t-144.5 -94.5l-98 98zM88 854q41 38 97.5 65t113 36t110.5 2.5t91 -35 t54 -77.5t-1 -124q-25 -5 -63.5 -12.5t-61.5 -11.5t-56.5 -12t-54 -15.5t-48 -19.5t-45.5 -26t-39 -34t-35 -44t-27.5 -55t-22.5 -69q-25 -113 7.5 -211.5t117 -160.5t201.5 -68q42 -2 71 6.5t46 22.5t26.5 42t13 53.5t5.5 69.5v-18q0 -42 0.5 -59.5t5 -42t12.5 -34t25 -21 t41.5 -17t62.5 -9.5q7 159 5.5 234t-10.5 232.5t-11 234.5q0 17 1 70.5t0.5 79.5t-6.5 67.5t-18 73.5q-30 83 -101 125.5t-157 37.5q-124 0 -315 -100h-29q0 -123 -6 -176zM270.5 266.5q-5.5 33.5 8.5 72.5t28 64.5t39 65.5q94 136 195 109l6 6q8 -57 11 -132.5t-9.5 -164 t-46.5 -117.5q-40 -32 -102.5 -18.5t-98.5 53.5q-25 28 -30.5 61.5zM330 1546q0 68 47.5 112t136.5 38q52 -5 104.5 -31.5t77.5 -69.5l76 -73q34 -34 37 -80q7 -19 -2 -72q-19 -59 -74 -85t-121 -23q-72 9 -118 55l-70 67q-45 27 -69.5 71t-24.5 91zM366 1612 q-39 -71 5 -148t141 -86q63 -6 112.5 19.5t67.5 83.5q9 44 0 59q-1 40 -31 71t-68.5 45.5t-80.5 18.5q-107 8 -146 -63zM385 176q21 -8 49 -8q37 0 53 16q50 42 50 232v22q-38 -24 -76 -80q-24 -39 -35.5 -58.5t-25 -54.5t-13.5 -61q0 -2 -1 -4.5t-1 -3.5z" />
<glyph unicode="&#xe5;" horiz-adv-x="655" d="M57 803q13 115 13 248h43q191 100 321 100q74 3 143 -31t109 -98l62 -59q40 -40 61 -95q27 -79 27 -174q0 -10 -1 -30.5t-1 -30.5t-1.5 -30t-1.5 -30q1 -36 11 -227q12 -208 12 -315q0 -68 -8 -174q-115 14 -146 45l-24 24q-36 -66 -152 -61q-150 6 -248 104l-53 51 q-75 49 -116 130t-41 178q0 59 10 100q15 55 37 97.5t52.5 72.5t60.5 50.5t75 35.5t80 24t90 19q12 4 21 4q2 0 38 6q7 31 7 51q0 22 -7 46q-38 10 -69 10q-69 0 -148.5 -34.5t-144.5 -94.5l-98 98zM84 854q41 38 97.5 65t113 36t110.5 2.5t91 -35t54 -77.5t-1 -124 q-25 -5 -63.5 -12.5t-61.5 -11.5t-56.5 -12t-54 -15.5t-48 -19.5t-45.5 -26t-39 -34t-35 -44t-27.5 -55t-22.5 -69q-25 -113 7.5 -211.5t117 -160.5t201.5 -68q42 -2 71 6.5t46 22.5t26.5 42t13 53.5t5.5 69.5v-18q0 -42 0.5 -59.5t5 -42t12.5 -34t25 -21t41.5 -17 t62.5 -9.5q7 159 5.5 234t-10.5 232.5t-11 234.5q0 17 1 70.5t0.5 79.5t-6.5 67.5t-18 73.5q-30 83 -101 125.5t-157 37.5q-124 0 -315 -100h-29q0 -123 -6 -176zM184 1536q-6 82 26 147.5t105 88.5q52 8 84 0q73 -5 123 -80l72 -72q64 -64 76 -182q7 -98 -42 -151.5 t-124 -53.5q-85 0 -148 63l-63 64q-45 26 -75 71.5t-34 104.5zM205 1538q10 -113 100.5 -165t173.5 -6t74 171q-7 80 -48 145t-110 68q-18 8 -69 0q-69 -22 -99 -80.5t-22 -132.5zM266.5 266.5q-5.5 33.5 8.5 72.5t28 64.5t39 65.5q94 136 195 109l6 6q8 -57 11 -132.5 t-9.5 -164t-46.5 -117.5q-40 -32 -102.5 -18.5t-98.5 53.5q-25 28 -30.5 61.5zM289 1546q-5 37 11.5 67t51.5 42q26 4 35 0q35 -1 56.5 -35.5t25.5 -73.5q5 -65 -38 -89t-90 3t-52 86zM309 1540q2 0 2 -2l72 -70zM381 176q21 -8 49 -8q37 0 53 16q49 41 49 232v22 q-36 -23 -75 -80q-24 -39 -35.5 -58.5t-25 -54.5t-13.5 -61q0 -2 -1 -4.5t-1 -3.5zM403 1468q43 11 46 66q-43 -18 -46 -66z" />
<glyph unicode="&#xe6;" horiz-adv-x="1509" d="M55 377q0 47 8 74q29 80 108 147t175 103t186 36h48l-11 60q-10 68 -30 108q-43 19 -78 19q-54 0 -160 -54q-80 -39 -117 -53l-96 96l-12 -4q0 65 -4 131q0 3 -1 11t-1 12v39h6q26 38 135 69t166 31q100 6 187.5 -37.5t146.5 -122.5q25 86 120.5 145.5t190.5 59.5 q142 -3 223 -125l62 -59q139 -139 155 -541q0 -111 -11 -145q-18 -56 -89 -69q-28 -5 -66 -5q-77 0 -274 35q-97 19 -141 24q-9 -63 30 -135l19 -12q52 -20 106 -20q52 0 138 16q43 9 124 12q5 -15 5 -16l94 -92q20 -73 20 -156q-28 -2 -153 -33q-156 -40 -236 -32 q-113 11 -178 79l-70 68q-23 18 -49 47q-37 -54 -65 -89.5t-74.5 -71t-91.5 -40.5q-116 -9 -209 84l-58 56q-81 54 -129.5 153t-48.5 197zM84 444q-16 -65 1.5 -144.5t58 -147.5t108.5 -111t143 -37q27 3 54.5 17.5t47.5 31.5t45.5 47.5t39 49t37 53t30.5 43.5q9 -14 27 -43 t26.5 -42t25.5 -36.5t29 -35t31.5 -27.5t38.5 -24.5t45 -16.5t56 -11q71 -7 202.5 26.5t169.5 37.5q0 62 -18 129q-32 -2 -87 -10t-94.5 -13.5t-89.5 -2.5t-89 20q-71 38 -119.5 122.5t-36.5 161.5q32 -4 188 -32.5t240 -28.5q25 0 45 3t35.5 6.5t26.5 12.5t19 16t13 22.5 t7.5 25.5t4 32.5t1.5 35.5v41v3.5v3v3.5q-23 596 -324 602q-66 0 -136 -33t-117.5 -92t-43.5 -123q-53 103 -142.5 156t-205.5 47q-62 0 -171 -30.5t-116 -68.5q6 -135 6 -143q34 13 89.5 42t89 43.5t84.5 15t104 -26.5q32 -16 55 -37.5t35 -43t20 -50t11.5 -53t9 -59 t12.5 -60.5q-91 19 -201.5 -9t-202.5 -97.5t-118 -160.5zM90 1077v4v-4zM90 1081v2v13v-15zM259 352.5q3 52.5 25.5 103.5t59 91t70.5 51q55 35 115.5 -10t82.5 -111q20 -68 -6 -134.5t-76 -104t-117.5 -35t-123.5 60.5q-33 36 -30 88.5zM375 231q21 -8 47 -8 q69 0 123.5 59.5t54.5 135.5q0 29 -8 53l-10 21q-31 6 -60 -11q-51 -15 -99 -89.5t-48 -143.5v-17zM780 711q9 35 13 51.5t14 50t17.5 50.5t21 43.5t26 39t31.5 27t39.5 18t47.5 1.5t57 -13q39 -15 68 -34t47 -38t28 -46t14 -50t2 -57.5t-6 -61t-12 -67.5q-61 -6 -129 -6 t-150 3t-125 3q-4 58 -4 86v32v-32zM905 641h10q82 -4 125 -4q99 0 129 4q17 96 17 131q0 40 -15 78q-26 10 -28 12q-41 15 -66 15q-36 0 -64.5 -19.5t-48.5 -56.5t-33 -73.5t-26 -86.5z" />
<glyph unicode="&#xe7;" horiz-adv-x="612" d="M37 537q0 409 231 593q59 41 140 41q80 0 227 -45l59 -14l-2 -12l99 -96l-11 -168l-20 -13q-70 37 -131 37q-85 0 -154 -64.5t-104 -161.5t-35 -202q0 -113 41 -194h2h-2v-2q81 -46 194 -46q41 0 111 17l-2 -14l98 -97l-12 -112q-2 -13 -5.5 -42.5t-4.5 -39.5 q-64 -27 -119 -27q-113 0 -254 80q-42 25 -74 57l-49 49q-89 61 -151 176t-70 220q-2 23 -2 80zM59 459q6 -112 68 -224t160 -165q215 -118 352 -58q2 24 10 82.5t10 85.5q-66 -17 -149.5 -6t-140.5 45q-118 70 -144 237q-23 153 39 302q59 144 165 195q110 54 235 -15 l10 156q-11 3 -52.5 15.5t-67.5 19.5t-70 14.5t-75.5 7.5t-67 -8.5t-60.5 -28.5q-242 -186 -222 -655zM111 -455q10 54 51 134.5t86 136.5v-23l82 -82q10 5 20 25l-92 92l-6 -4l-21 26q-5 -7 1 5q3 5 13 24q18 32 23 43q21 57 54 90l2 6q2 0 9.5 -1t10.5 -1h8q36 -5 70 -18 l-4 -8l98 -99l-33 -69l54 -53q47 -47 47 -119q0 -74 -52 -129q-97 -94 -202 -94q-41 0 -109 20l-94 94zM135 -440q88 -26 154 -8t131 81q39 40 46.5 96.5t-22 105.5t-90.5 65q22 39 41 86q-12 3 -28.5 6t-28 4t-12.5 2l6 -4q-18 -16 -42 -72.5t-36 -73.5q31 17 65 -0.5 t50 -52.5t2 -65q-17 -38 -53.5 -47.5t-65.5 12.5t-27 63q-27 -33 -54 -92.5t-36 -105.5zM326 -2z" />
<glyph unicode="&#xe8;" horiz-adv-x="798" d="M47 604q0 68 8 117q9 70 31 138t58 129.5t82.5 108t108 74t130.5 27.5q49 0 98 -12q113 -28 203 -150l49 -49q78 -78 120 -194t36 -226v-2q-4 -62 -32.5 -104.5t-79 -63.5t-104 -29t-122.5 -8q-27 0 -139 5q-70 4 -80 4q-3 -61 10 -111q46 -20 129 -20q62 0 137 10l29 4 q47 9 137 12v-12l96 -96q0 -38 2 -52q4 -36 4 -61q0 -56 -20 -82q-26 -37 -111 -37q-29 0 -43 -2l-24 -4q-93 -14 -168 -14q-132 0 -203 61l-33 31l-49 47q-16 12 -24 20q-117 100 -176.5 240.5t-59.5 300.5zM76 719q-25 -185 30.5 -355t190.5 -286q33 -28 74 -42.5 t91.5 -15t90.5 3t99 11.5q19 3 28 4q15 2 42 2.5t42.5 1.5t32.5 8t26 21q14 15 17 45t-0.5 75.5t-3.5 51.5q-28 -1 -76 -6.5t-89 -11.5t-91.5 -7.5t-90 2.5t-78.5 20.5t-64.5 45.5t-39.5 79.5t-10 118.5q27 0 77 -2.5t88.5 -4.5t89.5 -1t90 6t79.5 18t67.5 34t45 55.5 t20 79.5q7 99 -26.5 203t-106 186.5t-164.5 105.5q-102 25 -190.5 -4t-147.5 -97t-96 -157t-47 -188zM266 604h10q-11 61 10 149t56 146q66 120 162 100q72 -15 126 -101q61 -95 49 -196q-2 -13 -5 -26q-9 -33 -34.5 -53t-57 -27.5t-76 -8t-80.5 3t-81 8t-69 5.5v-6z M287 1358q47 86 47 274q0 111 -8 187q78 -29 204 -29v-14l97 -95q6 -103 -30 -222.5t-101 -188.5l24 -23q-55 -12 -112 -12l-97 96h-10zM305 1352q52 0 70 4l-13 8q71 63 112.5 184t35.5 221q-114 0 -162 17q25 -307 -43 -434zM397 612q53 -6 99 -6q58 0 101 19t56 57 q6 47 -6 100.5t-37 98.5q-20 4 -28 4q-71 0 -125 -97q-45 -75 -60 -176z" />
<glyph unicode="&#xe9;" horiz-adv-x="798" d="M47 604q0 68 8 117q9 70 31 138t58 129.5t82.5 108t108 74t130.5 27.5q49 0 98 -12q113 -28 203 -150l49 -49q78 -78 120 -194t36 -226v-2q-4 -62 -32.5 -104.5t-79 -63.5t-104 -29t-122.5 -8q-27 0 -139 5q-70 4 -80 4q-3 -61 10 -111q46 -20 129 -20q62 0 137 10l29 4 q47 9 137 12v-12l96 -96q0 -38 2 -52q4 -36 4 -61q0 -56 -20 -82q-26 -37 -111 -37q-29 0 -43 -2l-24 -4q-93 -14 -168 -14q-132 0 -203 61l-33 31l-49 47q-16 12 -24 20q-117 100 -176.5 240.5t-59.5 300.5zM76 719q-25 -185 30.5 -355t190.5 -286q33 -28 74 -42.5 t91.5 -15t90.5 3t99 11.5q19 3 28 4q15 2 42 2.5t42.5 1.5t32.5 8t26 21q14 15 17 45t-0.5 75.5t-3.5 51.5q-28 -1 -76 -6.5t-89 -11.5t-91.5 -7.5t-90 2.5t-78.5 20.5t-64.5 45.5t-39.5 79.5t-10 118.5q27 0 77 -2.5t88.5 -4.5t89.5 -1t90 6t79.5 18t67.5 34t45 55.5 t20 79.5q7 99 -26.5 203t-106 186.5t-164.5 105.5q-102 25 -190.5 -4t-147.5 -97t-96 -157t-47 -188zM266 604h10q-11 61 10 149t56 146q66 120 162 100q72 -15 126 -101q61 -95 49 -196q-2 -13 -5 -26q-9 -33 -34.5 -53t-57 -27.5t-76 -8t-80.5 3t-81 8t-69 5.5v-6z M305 1712q0 55 8 94q1 0 10 -1t13 -1h16q50 -4 78 -4q36 0 92 12l-4 -14l98 -96q-34 -174 -34 -287q0 -99 34 -182h-30q-49 5 -92 24l-93 93q-8 2 -24 10l29 14q-48 67 -74.5 159t-26.5 179zM332 1786q-16 -99 12.5 -224t91.5 -194l-12 -8q14 -5 68 -10q-55 133 4 436 q-40 -10 -164 0zM397 612q53 -6 99 -6q58 0 101 19t56 57q6 47 -6 100.5t-37 98.5q-20 4 -28 4q-71 0 -125 -97q-45 -75 -60 -176z" />
<glyph unicode="&#xea;" horiz-adv-x="798" d="M47 604q0 68 8 117q9 70 31 138t58 129.5t82.5 108t108 74t130.5 27.5q49 0 98 -12q113 -28 203 -150l49 -49q78 -78 120 -194t36 -226v-2q-4 -62 -32.5 -104.5t-79 -63.5t-104 -29t-122.5 -8q-27 0 -139 5q-70 4 -80 4q-3 -61 10 -111q46 -20 129 -20q62 0 137 10l29 4 q47 9 137 12v-12l96 -96q0 -38 2 -52q4 -36 4 -61q0 -56 -20 -82q-26 -37 -111 -37q-29 0 -43 -2l-24 -4q-93 -14 -168 -14q-132 0 -203 61l-33 31l-49 47q-16 12 -24 20q-117 100 -176.5 240.5t-59.5 300.5zM76 719q-25 -185 30.5 -355t190.5 -286q33 -28 74 -42.5 t91.5 -15t90.5 3t99 11.5q19 3 28 4q15 2 42 2.5t42.5 1.5t32.5 8t26 21q14 15 17 45t-0.5 75.5t-3.5 51.5q-28 -1 -76 -6.5t-89 -11.5t-91.5 -7.5t-90 2.5t-78.5 20.5t-64.5 45.5t-39.5 79.5t-10 118.5q27 0 77 -2.5t88.5 -4.5t89.5 -1t90 6t79.5 18t67.5 34t45 55.5 t20 79.5q7 99 -26.5 203t-106 186.5t-164.5 105.5q-102 25 -190.5 -4t-147.5 -97t-96 -157t-47 -188zM156 1368q72 39 113 83.5t69 98.5q23 38 35.5 57.5t33 41.5t42 28t47.5 0q52 -13 82 -65l69 -70l-4 2l6 -4q25 -25 51 -90q10 -24 15 -33l18 -37l6 -14q33 -23 52 -33h-19 l96 -96q-74 0 -88 -2q-34 -6 -79.5 -3t-67.5 25l-86 82l-4 2v-14l-11 -88q-44 25 -102 25q-10 0 -31 -1t-30 -1l-90 8l-95 94zM217 1378q9 -1 52 1.5t85 0.5t64 -14q4 26 6.5 60t5 50.5t15 44t38.5 60.5q32 -170 54 -205q16 -20 45.5 -25.5t78.5 -1t52 4.5q-20 12 -38 33.5 t-27.5 37t-25.5 46.5t-22 42q-5 11 -16.5 37.5t-17.5 38t-17.5 28.5t-26 26t-33.5 14q-37 10 -69.5 -21.5t-55.5 -78.5t-62.5 -101t-84.5 -78zM266 604h10q-11 61 10 149t56 146q66 120 162 100q72 -15 126 -101q61 -95 49 -196q-2 -13 -5 -26q-9 -33 -34.5 -53t-57 -27.5 t-76 -8t-80.5 3t-81 8t-69 5.5v-6zM397 612q53 -6 99 -6q58 0 101 19t56 57q6 47 -6 100.5t-37 98.5q-20 4 -28 4q-71 0 -125 -97q-45 -75 -60 -176z" />
<glyph unicode="&#xeb;" horiz-adv-x="798" d="M-135 1544q4 65 65.5 105t132.5 47q119 6 166 -76l76 -76q39 -39 39 -100q0 -66 -47.5 -119.5t-126.5 -62.5q-102 -7 -160 51l-69 69q-57 29 -74 88q-11 47 -2 74zM-115 1481q18 -58 68 -83.5t113 -19.5q97 9 141 86t5 148t-146 63q-42 -4 -80.5 -18.5t-69 -45.5 t-31.5 -71q-9 -15 0 -59zM51 604q0 68 8 117q9 70 31 138t58 129.5t82.5 108t108 74t130.5 27.5q49 0 98 -12q113 -28 203 -150l49 -49q78 -78 120 -194t36 -226v-2q-4 -62 -32.5 -104.5t-79 -63.5t-104 -29t-122.5 -8q-27 0 -139 5q-70 4 -80 4q-3 -61 10 -111 q46 -20 129 -20q62 0 137 10l29 4q47 9 137 12v-12l96 -96q0 -38 2 -52q5 -45 5 -61q0 -55 -21 -82q-26 -37 -111 -37q-29 0 -43 -2l-24 -4q-93 -14 -168 -14q-132 0 -203 61l-33 31l-49 47q-16 12 -24 20q-117 100 -176.5 240.5t-59.5 300.5zM80 719q-25 -185 30.5 -355 t190.5 -286q33 -28 74 -42.5t91.5 -15t90.5 3t99 11.5q19 3 28 4q15 2 42 2.5t42.5 1.5t32.5 8t26 21q14 15 17 45t-0.5 75.5t-3.5 51.5q-28 -1 -76 -6.5t-89 -11.5t-91.5 -7.5t-90 2.5t-78.5 20.5t-64.5 45.5t-39.5 79.5t-10 118.5q27 0 77 -2.5t88.5 -4.5t89.5 -1t90 6 t79.5 18t67.5 34t45 55.5t20 79.5q7 99 -26.5 203t-106 186.5t-164.5 105.5q-102 25 -190.5 -4t-147.5 -97t-96 -157t-47 -188zM270 604h11q-11 61 10 149t55 146q66 120 162 100q72 -15 126 -101q61 -95 49 -196q-2 -13 -5 -26q-9 -33 -34.5 -53t-57 -27.5t-75.5 -8t-80 3 t-81 8t-69 5.5v-6zM401 612q52 -6 99 -6q58 0 101 19t56 57q6 47 -6 100.5t-37 98.5q-20 4 -28 4q-71 0 -125 -97q-45 -75 -60 -176zM401 1546q0 68 48 112t137 38q52 -5 104.5 -31.5t77.5 -69.5l76 -73q34 -34 37 -80q7 -19 -2 -72q-19 -59 -74 -85t-121 -23q-73 9 -119 55 l-69 67q-45 27 -70 71t-25 91zM438 1612q-39 -71 5 -148t141 -86q63 -6 112.5 19.5t67.5 83.5q9 44 0 59q-1 40 -31 71t-68.5 45.5t-80.5 18.5q-107 8 -146 -63z" />
<glyph unicode="&#xec;" horiz-adv-x="419" d="M37 1118q47 86 47 275q0 110 -8 186q78 -29 205 -29v-14l96 -94q6 -103 -30 -223t-101 -189l24 -22q-60 -13 -112 -13l-97 97h-10zM45 997l33 2q34 15 65 15q34 0 97 -13l16 -18v-6l84 -84l12 -14q-4 -168 -8 -250q-8 -188 -8 -291q0 -225 33 -408l-13 -16q-9 -1 -26 -6 t-23 -6q-84 -27 -145 -8l-92 92l-19 6q35 154 35 346q0 134 -25 424q0 4 -1 13t-1 13q-7 65 -10 140zM55 1112q52 0 70 4l-12 8q71 63 112 184.5t35 221.5q-117 0 -162 16q25 -307 -43 -434zM66 977q3 -50 18 -228.5t19.5 -269t-0.5 -230t-27 -243.5q16 -7 43.5 -4.5t44.5 7 t44.5 12t43.5 10.5q-26 146 -30.5 291t4.5 367.5t10 291.5q-37 7 -56 10t-49 1.5t-49 -13.5z" />
<glyph unicode="&#xed;" horiz-adv-x="405" d="M41 997l33 2q34 15 65 15q34 0 97 -13l16 -18v-6l84 -84l12 -14q-4 -168 -8 -250q-8 -188 -8 -291q0 -225 33 -408l-13 -16q-9 -1 -26 -6t-23 -6q-84 -27 -145 -8l-92 92l-19 6q35 154 35 346q0 134 -25 424q0 4 -1 13t-1 13q-7 65 -10 140zM51 1481q0 55 8 94 q1 0 10.5 -1t12.5 -1h16q50 -4 78 -4q36 0 92 12l-4 -14l98 -97q-34 -174 -34 -286q0 -100 34 -183h-30q-46 5 -92 25l-93 92q-8 2 -24 10l29 15q-48 67 -74.5 159t-26.5 179zM61 977q4 -62 14.5 -185t16 -206.5t9 -192t-3.5 -205.5t-25 -182q16 -7 43.5 -4.5t44.5 7 t44.5 12t43.5 10.5q-26 146 -31 290t4 369.5t10 290.5q-37 7 -55.5 10t-48.5 1.5t-49 -13.5zM78 1554q-16 -99 12.5 -223.5t91.5 -193.5l-12 -9q14 -5 68 -10q-55 133 4 436q-40 -10 -164 0z" />
<glyph unicode="&#xee;" horiz-adv-x="739" d="M18 1143q122 65 183 182q10 18 15.5 26.5t15 23.5t15.5 22.5t15 19t16.5 16.5t17.5 11.5t19 8.5t20 2t23 -3q51 -12 82 -66l70 -69l-4 2l6 -4q25 -25 51 -90q10 -24 15 -33l18 -37l6 -14q35 -25 51 -33h-18l96 -96q-74 0 -88 -2q-34 -6 -79.5 -3t-67.5 25l-86 82l-4 2 v-14l-11 -88q-42 24 -102 24q-10 0 -31.5 -1t-30.5 -1l-90 8l-94 95zM80 1153q9 -1 52 1.5t85 0.5t64 -14q4 26 6.5 60t5 50.5t15 44t38.5 60.5q32 -173 53 -205q12 -16 37 -22.5t46.5 -6t52 3t40.5 2.5q-20 12 -38 33t-27.5 38t-24.5 47t-22 42q-5 11 -16.5 37.5t-17.5 38 t-17.5 28.5t-26 26t-33.5 14q-37 10 -69.5 -21.5t-55.5 -78.5t-62.5 -101t-84.5 -78zM158 997l32 2q34 15 66 15q33 0 96 -13l17 -18v-6l84 -84l12 -14q-4 -168 -8 -250q-8 -188 -8 -291q0 -230 32 -408l-12 -16q-9 -1 -26 -6t-23 -6q-84 -27 -146 -8l-92 92l-18 6 q35 154 35 346q0 134 -25 424q0 4 -1 13t-1 13q-7 65 -10 140zM178 977q3 -50 18 -228.5t19.5 -269t-0.5 -230t-27 -243.5q16 -7 43.5 -4.5t45 7t45 12t43.5 10.5q-26 146 -31 290t4 369.5t10 290.5q-37 7 -55.5 10t-48.5 1.5t-49 -13.5z" />
<glyph unicode="&#xef;" horiz-adv-x="1112" d="M27 1237q-8 56 0 84q6 75 77.5 121t153.5 53q70 6 119 -18t72 -68l71 -70q22 -27 27 -36v20q0 78 55 129t158 43q62 -5 123 -35.5t90 -79.5l69 -69q-1 0 -2 1t-2 1l4 -2q42 -42 45 -94q8 -30 0 -78q-22 -71 -86 -103t-143 -26q-83 9 -139 65l-62 62q-62 35 -90 96v-12 q0 -76 -55.5 -139t-146.5 -72q-120 -10 -187 57l-67 66q-65 39 -84 104zM47 1247q21 -68 80 -98.5t133 -22.5q113 10 165.5 101t6.5 174t-172 74q-79 -7 -144.5 -48t-68.5 -110q-8 -17 0 -70zM403 997l33 2q34 15 66 15q33 0 96 -13l16 -18v-6l84 -84l13 -14 q-3 -128 -9 -250q-8 -188 -8 -291q0 -225 33 -408l-12 -16q-9 -1 -26 -6t-23 -6q-84 -27 -146 -8l-92 92l-18 6q34 150 34 346q0 146 -24 424q0 4 -1 13t-1 13q-7 65 -10 140zM424 977q3 -50 18 -228.5t19.5 -269t-0.5 -230t-27 -243.5q16 -7 43.5 -4.5t44.5 7t44.5 12 t43.5 10.5q-26 146 -30.5 291t4.5 367.5t10 291.5q-37 7 -56 10t-49 1.5t-49 -13.5zM586 1401q-46 -83 6.5 -174t165.5 -101q74 -8 133 22.5t80 98.5q8 53 0 70q-3 69 -68.5 110t-144.5 48q-126 9 -172 -74z" />
<glyph unicode="&#xf1;" horiz-adv-x="733" d="M72 1139l28 18q17 12 84 12q47 0 78 -8q0 -8 4 -16l64 -66q121 90 196 90q124 3 191 -102l65 -63q27 -27 47 -64t33 -85t19 -80t14 -85l4 -28q12 -96 12 -256v-158q0 -23 9 -115q10 -113 10 -137q0 -45 -17 -111q-35 6 -75 6q-26 0 -39.5 1t-31.5 6.5t-30 17.5l-86 84 q-25 15 -39 39q-10 18 -10 65q0 30 4 76q4 24 4 41q-4 48 -32 416q0 6 -1.5 18.5t-1.5 18.5l-6 112q-6 59 -18 101q-31 -5 -61 -34.5t-54 -84.5q-61 -138 -61 -334q0 -24 1 -51.5t2.5 -61t2.5 -51.5q4 -94 4 -151q0 -140 -29 -240l-77 8q-10 0 -74 9l-94 94q-4 2 -15 2 q-10 86 -10 233v90q0 136 -2 199q-12 402 -12 625zM92 1126q0 -210 12 -612q2 -48 2 -230.5t9 -273.5q21 -3 64 -6t65 -6q21 75 24 167.5t-2.5 177.5t-8 173t12 182.5t52.5 178.5q28 63 64 95.5t69.5 30.5t63 -26t48.5 -75t23 -116q26 -409 41 -563q0 -10 -4 -51t-4 -75 t8 -50q14 -25 37.5 -32.5t66.5 -7t66 -3.5q11 35 12 83t-3.5 88.5t-9.5 91.5t-5 83q0 24 0.5 81t0 88t-1.5 78t-4 87t-8 78q-24 146 -39 195q-53 178 -187 191q-14 1 -30 1q-60 0 -139 -52t-131 -112q-6 27 -6 81t-6 77q-33 8 -76.5 6t-56.5 -10zM96 1477q0 55 22.5 96.5 t65.5 54.5q57 12 144 -59q21 -18 55 -35q61 -28 135 -18q0 27 -2 47q-4 50 -4 106q25 -11 50.5 -13.5t36 -1t34.5 6.5l37 6l20 -12q0 -2 1 -7.5t1 -7.5l94 -92q11 -42 11 -80q0 -47 -12.5 -92t-37.5 -81.5t-63.5 -50t-89.5 2.5q-23 9 -84 51q-81 52 -104 52q-19 0 -19 -39 q0 -17 12 -82q-28 0 -44 0.5t-20 1.5t-8.5 2t-11.5 2q-34 6 -79 6l-97 96h-10q-33 61 -33 140zM116 1498.5q-2 -38.5 4.5 -76t20.5 -64.5h4q23 0 68.5 -6t65.5 -6q-24 122 26 122q28 -1 109 -54q64 -43 90 -52q45 -14 78 -0.5t55 47.5t33 76t11 85.5t-11 76.5 q-11 -1 -33 -5.5t-36 -6.5t-33.5 -1.5t-35.5 6.5q0 -26 3.5 -72.5t3.5 -68.5q-85 -20 -164 17q-18 8 -54.5 36.5t-69.5 45.5t-61 10q-34 -9 -53 -40t-21 -69.5z" />
<glyph unicode="&#xf2;" horiz-adv-x="780" d="M66 588q0 142 47 239q53 106 141.5 209.5t175.5 155.5q78 22 163 -31.5t157 -148.5l32 -31q61 -61 108.5 -136.5t61.5 -129.5q31 -141 31 -281q0 -285 -141 -426q-61 -64 -142 -102.5t-161 -38.5q-113 0 -191 78l-59 59q-62 38 -105 113v-2q-53 89 -85.5 218t-32.5 255z M86.5 596.5q-0.5 -132.5 32 -256t84.5 -213.5q45 -79 114 -115t142 -29t144 43t126 95q60 59 94 146t40.5 183.5t-1 185.5t-26.5 177q-13 50 -53.5 116.5t-94.5 128t-121.5 97t-124.5 19.5q-87 -52 -173 -152.5t-138 -202.5q-44 -90 -44.5 -222.5zM274 1358q48 88 48 274 q0 102 -9 187q78 -29 205 -29v-14l96 -95q6 -103 -30 -222.5t-101 -188.5l25 -23q-55 -12 -113 -12l-96 96h-10zM293 1352q51 0 69 4l-12 8q71 63 112.5 184t35.5 221q-114 0 -162 17q25 -307 -43 -434zM302.5 637.5q4.5 112.5 45 209t113.5 130.5l20 6q29 2 52.5 -4.5 t39 -17t27.5 -31t18.5 -38t11.5 -45.5t7 -46t4.5 -48.5t3.5 -43.5q34 -265 -24 -422q-21 -65 -52.5 -106.5t-67.5 -53.5t-74.5 17t-70.5 100q-29 66 -43.5 173.5t-10 220zM418 471q0 -91 15 -180t38 -144v-2h8q35 0 68 40t53 108q39 102 39 231q0 76 -14 183l-4 43 q-7 68 -23 116h-10l-21 -6h-2q-77 -37 -112 -143t-35 -246z" />
<glyph unicode="&#xf3;" horiz-adv-x="780" d="M66 588q0 142 47 239q53 106 141.5 209.5t175.5 155.5q78 22 163 -31.5t157 -148.5l32 -31q61 -61 108.5 -136.5t61.5 -129.5q31 -141 31 -281q0 -285 -141 -426q-61 -64 -142 -102.5t-161 -38.5q-113 0 -191 78l-59 59q-62 38 -105 113v-2q-53 89 -85.5 218t-32.5 255z M86.5 596.5q-0.5 -132.5 32 -256t84.5 -213.5q45 -79 114 -115t142 -29t144 43t126 95q60 59 94 146t40.5 183.5t-1 185.5t-26.5 177q-13 50 -53.5 116.5t-94.5 128t-121.5 97t-124.5 19.5q-87 -52 -173 -152.5t-138 -202.5q-44 -90 -44.5 -222.5zM293 1712q0 55 8 94 q1 0 10 -1t13 -1h16q50 -4 78 -4q36 0 92 12l-4 -14l98 -96q-35 -179 -35 -287q0 -97 35 -182h-31q-49 5 -92 24l-92 93q-8 2 -24 10l28 14q-48 67 -74 159t-26 179zM302.5 637.5q4.5 112.5 45 209t113.5 130.5l20 6q29 2 52.5 -4.5t39 -17t27.5 -31t18.5 -38t11.5 -45.5 t7 -46t4.5 -48.5t3.5 -43.5q34 -265 -24 -422q-21 -65 -52.5 -106.5t-67.5 -53.5t-74.5 17t-70.5 100q-29 66 -43.5 173.5t-10 220zM319 1786q-16 -99 13 -224t92 -194l-12 -8q14 -5 67 -10q-55 133 4 436q-40 -10 -164 0zM418 471q0 -91 15 -180t38 -144v-2h8q35 0 68 40 t53 108q39 102 39 231q0 76 -14 183l-4 43q-7 68 -23 116h-10l-21 -6h-2q-77 -37 -112 -143t-35 -246z" />
<glyph unicode="&#xf4;" horiz-adv-x="780" d="M66 588q0 142 47 239q53 106 141.5 209.5t175.5 155.5q78 22 163 -31.5t157 -148.5l32 -31q61 -61 108.5 -136.5t61.5 -129.5q31 -141 31 -281q0 -285 -141 -426q-61 -64 -142 -102.5t-161 -38.5q-113 0 -191 78l-59 59q-62 38 -105 113v-2q-53 89 -85.5 218t-32.5 255z M86.5 596.5q-0.5 -132.5 32 -256t84.5 -213.5q45 -79 114 -115t142 -29t144 43t126 95q60 59 94 146t40.5 183.5t-1 185.5t-26.5 177q-13 50 -53.5 116.5t-94.5 128t-121.5 97t-124.5 19.5q-87 -52 -173 -152.5t-138 -202.5q-44 -90 -44.5 -222.5zM143 1368q122 65 183 182 q10 18 15.5 26.5t15 23.5t15.5 22.5t15 19t16.5 16.5t17.5 11.5t19 8.5t20 2t23 -3q52 -13 82 -65l70 -70l-4 2l6 -4q25 -25 51 -90q12 -29 14 -33l19 -37l6 -14q35 -25 51 -33h-18l96 -96q-74 0 -88 -2q-34 -6 -79.5 -3t-67.5 25l-86 82l-5 2v-14l-10 -88q-44 25 -102 25 q-10 0 -31.5 -1t-30.5 -1l-90 8l-94 94zM205 1378q9 -1 52 1.5t85 0.5t64 -14q4 26 6.5 60t5 50.5t15 44t38.5 60.5q32 -173 53 -205q16 -20 45.5 -25.5t78.5 -1t52 4.5q-20 12 -38 33t-27.5 37.5t-25 46.5t-21.5 42q-5 11 -16.5 37.5t-17.5 38t-17.5 28.5t-26 26t-33.5 14 q-37 10 -69.5 -21.5t-55.5 -78.5t-62.5 -101t-84.5 -78zM302.5 637.5q4.5 112.5 45 209t113.5 130.5l20 6q29 2 52.5 -4.5t39 -17t27.5 -31t18.5 -38t11.5 -45.5t7 -46t4.5 -48.5t3.5 -43.5q34 -265 -24 -422q-21 -65 -52.5 -106.5t-67.5 -53.5t-74.5 17t-70.5 100 q-29 66 -43.5 173.5t-10 220zM418 471q0 -91 15 -180t38 -144v-2h8q35 0 68 40t53 108q39 102 39 231q0 76 -14 183l-4 43q-7 68 -23 116h-10l-21 -6h-2q-77 -37 -112 -143t-35 -246z" />
<glyph unicode="&#xf5;" horiz-adv-x="780" d="M66 588q0 142 47 239q53 106 141.5 209.5t175.5 155.5q78 22 163 -31.5t157 -148.5l32 -31q61 -61 108.5 -136.5t61.5 -129.5q31 -141 31 -281q0 -285 -141 -426q-61 -64 -142 -102.5t-161 -38.5q-113 0 -191 78l-59 59q-62 38 -105 113v-2q-53 89 -85.5 218t-32.5 255z M86.5 596.5q-0.5 -132.5 32 -256t84.5 -213.5q45 -79 114 -115t142 -29t144 43t126 95q60 59 94 146t40.5 183.5t-1 185.5t-26.5 177q-13 50 -53.5 116.5t-94.5 128t-121.5 97t-124.5 19.5q-87 -52 -173 -152.5t-138 -202.5q-44 -90 -44.5 -222.5zM109 1477q0 55 22.5 96.5 t65.5 54.5q56 12 143 -59q21 -18 55 -35q61 -28 135 -18q0 27 -2 47q-4 50 -4 106q25 -11 50.5 -13.5t36 -1t34.5 6.5l37 6l20 -12q0 -2 1.5 -7.5t1.5 -7.5l94 -92q10 -38 10 -80q0 -47 -12.5 -92t-37.5 -81.5t-63.5 -50t-89.5 2.5q-23 9 -84 51q-81 52 -104 52 q-19 0 -19 -39q0 -12 13 -82q-28 0 -44 0.5t-20 1.5t-8.5 2t-11.5 2q-35 6 -80 6l-96 96h-11q-32 59 -32 140zM129 1498.5q-2 -38.5 4.5 -76t20.5 -64.5h4q23 0 68 -6t65 -6q-24 122 26 122q28 -1 109 -54q64 -43 90 -52q45 -14 78 -0.5t55 47.5t33 76t11 85.5t-11 76.5 q-11 -1 -33 -5.5t-35.5 -6.5t-33 -1.5t-35.5 6.5q0 -26 3 -72.5t3 -68.5q-85 -20 -164 17q-18 8 -54 36.5t-69 45.5t-61 10q-34 -9 -53 -40t-21 -69.5zM302.5 637.5q4.5 112.5 45 209t113.5 130.5l20 6q29 2 52.5 -4.5t39 -17t27.5 -31t18.5 -38t11.5 -45.5t7 -46t4.5 -48.5 t3.5 -43.5q34 -265 -24 -422q-21 -65 -52.5 -106.5t-67.5 -53.5t-74.5 17t-70.5 100q-29 66 -43.5 173.5t-10 220zM418 471q0 -91 15 -180t38 -144v-2h8q35 0 68 40t53 108q39 102 39 231q0 76 -14 183l-4 43q-7 68 -23 116h-10l-21 -6h-2q-77 -37 -112 -143t-35 -246z" />
<glyph unicode="&#xf6;" horiz-adv-x="780" d="M-145 1544q4 65 65.5 105t132.5 47q119 6 166 -76l76 -76q39 -39 39 -100q0 -66 -47.5 -119.5t-126.5 -62.5q-102 -7 -160 51l-70 69q-56 29 -73 88q-11 47 -2 74zM-125 1481q18 -58 67.5 -83.5t112.5 -19.5q97 9 141 86t5 148t-146 63q-42 -4 -80.5 -18.5t-68.5 -45.5 t-31 -71q-9 -15 0 -59zM72 588q0 142 47 239q53 106 141.5 209.5t175.5 155.5q78 22 163 -31.5t157 -148.5l32 -31q61 -61 108.5 -136.5t61.5 -129.5q31 -141 31 -281q0 -285 -141 -426q-61 -64 -142 -102.5t-161 -38.5q-113 0 -191 78l-59 59q-62 38 -105 113v-2 q-53 89 -85.5 218t-32.5 255zM92.5 596.5q-0.5 -132.5 32 -256t84.5 -213.5q45 -79 114 -115t142 -29t144 43t126 95q60 59 94 146t40.5 183.5t-1 185.5t-26.5 177q-13 50 -53.5 116.5t-94 128t-121 97t-124.5 19.5q-87 -52 -173.5 -152.5t-138.5 -202.5 q-44 -90 -44.5 -222.5zM308.5 637.5q4.5 112.5 45 209t113.5 130.5l20 6q29 2 52.5 -4.5t39 -17t27.5 -31t18.5 -38t11.5 -45.5t7 -46t4.5 -48.5t3.5 -43.5q34 -265 -24 -422q-21 -65 -52.5 -106.5t-67.5 -53.5t-74.5 17t-70.5 100q-29 66 -43.5 173.5t-10 220zM391 1546 q0 68 47.5 112t136.5 38q53 -5 106 -31.5t77 -69.5l76 -73q33 -33 36 -80q7 -19 -2 -72q-19 -59 -74 -85t-120 -23q-73 9 -119 55l-70 67q-45 27 -69.5 71t-24.5 91zM424 471q0 -91 15 -180t38 -144v-2h8q35 0 68 40t53 108q39 102 39 231q0 76 -14 183l-4 43q-7 68 -23 116 h-10l-21 -6h-2q-77 -37 -112 -143t-35 -246zM427 1612q-39 -71 5 -148t141 -86q63 -6 113 19.5t68 83.5q9 44 0 59q-1 40 -31.5 71t-69 45.5t-80.5 18.5q-107 8 -146 -63z" />
<glyph unicode="&#xf7;" horiz-adv-x="940" d="M23 690l53 33l-2 -16q66 26 356 26h129q27 -2 78 -2q123 0 192 -24q-2 -4 -2 -11l97 -96q-11 -54 -11 -143q-74 -43 -159 -43q-13 0 -28 1t-33 2.5t-29 2.5l-66 6h-61q-15 0 -55.5 -1t-63.5 -1q-229 0 -266 39l-86 84q-23 10 -29 24q-11 16 -6 70q0 13 4 21q-1 5 -6 15.5 t-6 12.5zM43 678q6 1 7.5 -6t1 -19t-1.5 -25t0 -26t5 -20q8 -16 49.5 -25.5t101.5 -12.5t116 -3t110.5 1t65.5 1q23 -1 63 -5t63.5 -5t55.5 0t60.5 9.5t56.5 24.5q0 86 8 125q-33 11 -74.5 15t-95 4t-78.5 2h-41h-76h-91.5t-99.5 -1t-85 -2.5t-64 -4t-22 -5.5zM205 186 q9 94 73.5 151.5t143.5 57.5q100 0 149 -84l72 -71q55 -55 47 -160q-4 -51 -23 -99t-58 -85.5t-89 -40.5q-30 -8 -78 0q-39 11 -71 43l-66 65q-57 28 -81.5 88.5t-18.5 134.5zM205 1049q-7 80 25.5 146t105.5 89q56 8 84 0q75 -5 125 -86l69 -68q65 -68 76 -180 q8 -101 -41 -154t-125 -53q-83 0 -147 64l-66 63q-43 26 -71.5 72.5t-34.5 106.5zM225 184q-8 -74 22.5 -133t98.5 -80q53 -8 70 0q69 3 109.5 68.5t47.5 144.5q9 126 -74 172t-173.5 -6.5t-100.5 -165.5zM225 1051q10 -113 100.5 -165.5t173.5 -6.5t74 172 q-7 79 -47.5 144.5t-109.5 68.5q-17 8 -70 0q-68 -21 -98.5 -80t-22.5 -133z" />
<glyph unicode="&#xf8;" horiz-adv-x="1003" d="M55 588q0 142 47 239q53 106 141.5 209.5t176.5 155.5q67 19 135 -14q27 80 53 106q21 19 72.5 32t99.5 9l-4 -12l98 -96l-12 -58q-36 -132 -53 -174l-12 -29q51 -59 92 -127t53 -114q31 -141 31 -281q0 -284 -142 -426q-63 -64 -144 -102.5t-161 -38.5q-21 0 -49 4 l-8.5 -25.5t-9.5 -33.5q-17 -49 -29.5 -74t-35 -41t-41 -21t-66.5 -14l-43 -4l-99 98l-12 -2q13 73 57 176q0 6 7 13q20 45 30 88l4 10q-31 28 -57 76v-2q-53 89 -86 218t-33 255zM76.5 596.5q-0.5 -132.5 32 -256t84.5 -213.5q29 -53 63 -80l-8 -22q-9 -30 -45 -115.5 t-45 -134.5q88 17 106 25q33 15 57 66q9 19 21 52l23 72q88 -20 184.5 17.5t169.5 113.5q60 59 94 146t40 183.5t-1.5 185.5t-26.5 177q-13 48 -53.5 116t-93.5 126l14 39q25 65 64 213q-34 3 -74.5 -9t-58.5 -28q-25 -29 -56 -123q-74 44 -135 27q-87 -52 -173 -152.5 t-138 -202.5q-44 -90 -44.5 -222.5zM294.5 489.5q-6.5 98.5 3 197.5t49 179t104.5 111l20 6q27 0 37 -2q-60 -162 -113 -348q-11 -37 -22 -82t-17.5 -75.5t-17.5 -85.5t-16 -79q-21 80 -27.5 178.5zM412 147q3 10 28 101.5t41 140.5q10 35 58 207.5t77 265.5q6 -30 12 -87.5 t7 -65.5q34 -263 -25 -422q-33 -103 -87.5 -143.5t-110.5 3.5z" />
<glyph unicode="&#xf9;" horiz-adv-x="761" d="M59 586q0 49 9 207q10 120 10 215q0 70 -8 143l73 12l-8 -10q3 2 12 5t13 5q47 19 76 11q49 -18 59 -50l84 -84q12 -12 13 -31t-3 -44l-6 -45v-2q-6 -99 -10 -316l-6 -192v-33q-4 -122 10 -178q12 -4 31 -4q47 0 87 43.5t66 101.5q45 126 45 322q0 96 -2 143 q-2 37 -2 127q0 86 4 121q0 2 1 6t1 6v8q6 54 15.5 68.5t54.5 32.5q25 5 77.5 -2.5t63.5 -24.5h-2q11 -11 17 -23l81 -82q3 -3 3 -4q34 -36 34 -186v-160q0 -20 1 -60t1 -59q0 -139 -12 -421q-7 -156 -10 -304q-110 -32 -201 -14l-94 94h-4q-81 -89 -184 -75q-94 11 -152 69 l-102 103q-67 67 -93 182q-20 75 -32 203l-7 67q-4 70 -4 109zM84 479q2 -21 5 -60.5t5 -65t6.5 -64.5t10.5 -65.5t16 -60.5t22.5 -57.5t32 -49t42.5 -42t54.5 -28.5t69.5 -17q45 -6 79 4.5t58 32.5t43.5 46t47 53t57.5 47q0 -15 -0.5 -50t-0.5 -55t2 -48t7 -50 q69 -15 174 14q1 44 13 356.5t8 475.5q-5 44 -1 108t-2.5 136t-29.5 94q-10 14 -54.5 19.5t-64.5 0.5q-10 -4 -16.5 -6t-13 -6.5t-9.5 -6t-6 -7.5t-4.5 -8.5t-3 -12t-1.5 -14t-1 -19t-2 -22.5q-4 -76 -3 -174.5t4.5 -185.5t-7.5 -185t-39 -172q-35 -85 -97.5 -134 t-136.5 -12q-21 9 -37 24.5t-26 31.5t-17.5 41t-11 42.5t-5 48.5t-2 46t0 47.5t0.5 42.5q2 43 6 228t10 282q1 18 5 41t5 32.5t-2 22t-13.5 20t-31.5 15.5q-20 6 -42.5 4t-40 -7.5t-17.5 -8.5l-37 -8q12 -113 -2.5 -332.5t-5.5 -321.5zM274 1358q48 88 48 274q0 102 -9 187 q78 -29 205 -29v-14l96 -95q6 -103 -30 -222.5t-101 -188.5l25 -23q-55 -12 -113 -12l-96 96h-10zM293 1352q51 0 69 4l-12 8q71 63 112.5 184t35.5 221q-114 0 -162 17q25 -307 -43 -434z" />
</font>
</defs>
</svg>
