<?xml version="1.0" standalone="no"?>
<!DOCTYPE svg PUBLIC "-//W3C//DTD SVG 1.1//EN" "http://www.w3.org/Graphics/SVG/1.1/DTD/svg11.dtd" >
<svg xmlns="http://www.w3.org/2000/svg" xmlns:xlink="http://www.w3.org/1999/xlink" version="1.1">
<metadata></metadata>
<defs>
<font id="shaky_hand_some_comicregular" horiz-adv-x="899" >
<font-face units-per-em="2048" ascent="1536" descent="-512" />
<missing-glyph horiz-adv-x="405" />
<glyph horiz-adv-x="0" />
<glyph horiz-adv-x="682" />
<glyph unicode=" "  horiz-adv-x="405" />
<glyph unicode="&#x09;" horiz-adv-x="405" />
<glyph unicode="&#xa0;" horiz-adv-x="405" />
<glyph unicode="!" horiz-adv-x="413" d="M27 1526q49 11 158 -5t141 -16q-108 -293 -97 -745q0 -8 -0.5 -43.5t0 -51.5t3 -43.5t8.5 -48.5q-56 -9 -82.5 -1.5t-40.5 53.5q-11 34 -14 75t0 102t3 75q0 48 3.5 149t2.5 178t-10 146q-5 30 -13 57.5t-22.5 65.5t-19.5 53h-20zM29 190q-8 74 22.5 133t98.5 80 q52 8 69 0q69 -3 110 -68.5t48 -144.5q9 -126 -74 -172t-173.5 6.5t-100.5 165.5z" />
<glyph unicode="&#x22;" horiz-adv-x="561" d="M27 1503l28 15q22 8 75 8t87 -8q-52 -203 -45 -447q-70 4 -91.5 27t-29.5 94q-7 51 -12 155.5t-12 155.5zM332 1435.5q1 44.5 10 71.5l18 29q128 0 175 -33q-6 -51 -39 -210.5t-33 -245.5q-29 6 -45.5 10t-29.5 11t-18 11.5t-8.5 18t-3.5 24t-2 35t-4 45.5q-1 10 -8.5 72 t-10 89.5t-1.5 72z" />
<glyph unicode="#" horiz-adv-x="878" d="M20 494v149q25 0 77.5 6t78.5 6q-10 29 -6.5 163t2.5 163q-89 -5 -113.5 17t-21.5 104q129 0 192 -6q-3 60 9.5 129t34.5 155.5t30 126.5q83 -3 146 -34q-15 -53 -19.5 -179t-32.5 -192q41 -16 146 -29q3 22 8 88.5t12 122t19 116t34.5 95.5t53.5 35q53 3 72 -33.5 t6.5 -97.5t-32 -119.5t-43 -117t-26.5 -72.5q48 -17 150 -17q0 -79 -11 -117q-81 0 -129 7q0 -53 -8 -102.5t-26 -124t-23 -97.5q6 -1 22 -2t24 -2t23.5 -3t23.5 -4.5t20 -7t18.5 -10t12.5 -13t8 -18t0 -22.5q-14 -88 -164 -57q3 -73 -8 -155.5t-33 -190t-29 -154.5 q-52 18 -108 18q-14 81 3.5 232t12.5 215q-111 0 -162 4q-8 -61 -19.5 -130.5t-27 -159.5t-22.5 -132q-25 -1 -42 1t-26.5 10t-14.5 14.5t-5 23t1 25.5t5 31.5t6 33.5q1 3 6 28t6 31.5t5.5 30.5t5.5 33.5t4.5 31.5t4 33.5t1.5 31t0.5 32.5t-1.5 28t-4 28q-85 -12 -127 0z M287 614q11 -2 33 -6.5t29.5 -6t24.5 -4t23 -1.5t18 2t17 6t13.5 12t13 17.5t10 24.5t10.5 32q14 46 20.5 100.5t7.5 90.5t1 104q-123 0 -164 -16v-13q0 -105 -57 -342zM290 1512l5 -5h-2zM295 1507h6l-2 -6q0 2 -4 6zM301 1507l4 13q-2 -4 -2 -13h-2z" />
<glyph unicode="$" horiz-adv-x="636" d="M39 1082.5q-1 21.5 4 43.5q7 39 23 76t40 69t59.5 46t74.5 2q0 141 14 213q74 0 88 -6h18q3 -7 1 -29t-1.5 -56t7.5 -48q14 -27 44 -37t67 -14t57 -17v-24.5v-27.5t-1 -25t-2.5 -28t-4.5 -24t-7 -25q-34 19 -68.5 33.5t-76 23.5t-76 6t-65 -24.5t-46.5 -62.5 q-14 -36 -15 -67.5t8.5 -54.5t30 -44t44.5 -36t57 -30q76 -40 126 -92t85 -129q26 -53 37.5 -114.5t4.5 -123t-31 -113t-74 -85t-119 -37.5q0 -15 0.5 -53t0.5 -59t-1.5 -52.5t-5.5 -56.5q-72 0 -105 6q0 14 0.5 50t0.5 56.5t-1.5 50.5t-5.5 54q-149 26 -178 33q0 30 -2 90 t-2 88q16 -10 46.5 -31t48 -32.5t45.5 -25.5t50.5 -19.5t52.5 -5t60 9.5q44 14 69 37t28.5 53.5t-2.5 63t-28.5 71t-44.5 71.5t-55 72t-56 64t-51.5 55.5t-37.5 40.5q-3 3 -26.5 29.5t-28 32t-22.5 29t-22.5 33.5t-15 32t-12 37.5t-2.5 37z" />
<glyph unicode="%" horiz-adv-x="1384" d="M51 951.5q2 58.5 9.5 105t23.5 110.5q11 42 29 90t44.5 102t63.5 97t76 60l-4 -3q54 30 106 8t95 -74.5t71.5 -112.5t34.5 -105q23 -124 -28 -298q-53 -182 -146 -270q-118 -110 -240 -2q-37 33 -73 86q-33 45 -48.5 96.5t-13.5 110zM202 1053q1 -58 4.5 -102.5 t8.5 -67.5q9 -38 24.5 -67t37.5 -46.5t53 -13t65 34.5q43 34 60.5 99.5t14 125t-16.5 123.5q-5 40 -9.5 63.5t-14.5 57t-28.5 56t-44.5 34.5l-16 4q-39 11 -68 -12.5t-42.5 -70t-21 -103.5t-6.5 -115zM276 23q33 51 72 156.5t66 150.5q103 198 182 325q236 394 340 586 q18 32 56 121t63 121q37 -18 82 -27v-4q-37 -41 -87 -136t-63 -116q-14 -22 -53 -77.5t-65 -97.5t-46 -85q-28 -62 -81 -191.5t-98.5 -227.5t-98.5 -185q-28 -46 -53.5 -99t-55 -122t-45.5 -103q-18 3 -37 4.5t-41.5 3.5t-36.5 3zM856 533.5q0 34.5 9.5 95t31.5 100.5 q22 37 78.5 85t97.5 63q45 17 101 -25.5t81 -77.5q36 -51 47 -68t30 -54t23.5 -69.5t2.5 -76.5q-5 -133 -47.5 -256t-128.5 -193q-57 -47 -107.5 -52t-85.5 24t-62 78.5t-41 104t-18 107.5q0 10 -6 95t-6 119.5zM960.5 508.5q0.5 -27.5 5 -77t5.5 -66.5q1 -20 3 -37.5 t6 -44.5t9.5 -47.5t14 -43t20.5 -36.5t27 -22.5t35 -5t44 18.5q26 17 43 49t23 79t7 75t1 77v6v5v6q2 59 4.5 115t-15.5 113.5t-60 91.5l-17 10q-38 36 -98 -52q-2 -3 -3 -4t-2.5 -3t-2.5 -4q-21 -27 -33 -60t-14.5 -74t-2 -68.5zM1038 1491l19 -6l-2 -2q-3 1 -8.5 4t-8.5 4 z" />
<glyph unicode="&#x26;" horiz-adv-x="987" d="M42 469q2 57 18.5 121t39 119.5t60.5 96.5t82 52q-10 19 -32 55.5t-37.5 65.5t-25.5 59q-19 57 -20.5 108.5t15 97.5t45 87t71.5 84q85 85 135 94q48 38 100 16.5t96.5 -73.5t73.5 -114.5t31 -106.5q4 -130 -85.5 -244t-215.5 -162q3 -49 25 -92t57 -77.5t71 -63 t79 -63.5t69 -64q37 61 64 193t47 180q43 -7 115 -7q7 -258 -82 -425q-5 -13 -43.5 -58.5t-38.5 -56.5q0 -10 10.5 -25.5t20 -25.5t26.5 -26t18 -17q3 -3 24.5 -22t27.5 -24.5t23 -22.5t23 -27.5t16.5 -27t16 -33t7.5 -34.5q-29 -8 -100.5 2t-96.5 25q-22 13 -40 45 t-35.5 74.5t-28.5 60.5q-23 -11 -123.5 -72.5t-151.5 -74.5q-62 -12 -123.5 12.5t-106.5 71t-76.5 104t-41.5 113.5q-5 45 -3 102zM193 498q-4 -67 27.5 -137.5t84.5 -115.5t120 -53t132 50q26 22 29.5 56.5t-13.5 75t-42.5 83t-61 87t-66.5 81.5t-60.5 72t-41.5 53l-16 6 q-26 10 -56.5 -95.5t-35.5 -162.5zM285.5 1136.5q-2.5 -51.5 15.5 -85.5q32 -65 85 -68t89 55q23 31 31 70.5t5 71.5t-13 77q-4 22 -7 34t-11.5 33.5t-17.5 32.5t-25.5 18.5t-37.5 2.5l11 4q-37 -13 -66.5 -54.5t-42.5 -90.5t-15.5 -100.5z" />
<glyph unicode="'" horiz-adv-x="237" d="M25 1503l28 15q22 8 75 8t87 -8q-52 -203 -45 -447q-70 4 -91.5 27t-29.5 94q-7 51 -12 155.5t-12 155.5z" />
<glyph unicode="(" horiz-adv-x="456" d="M39 557q-31 458 149 838q52 107 74 164q2 6 14 73q112 -34 130 -45q-100 -275 -152 -631q-23 -185 -2 -335.5t84 -362.5q15 -49 46 -164.5t52 -175.5q-13 -2 -43 -8t-53 -8.5t-43 0.5q-21 3 -34 7t-23.5 16.5t-14 18t-14.5 31t-16 35.5q-132 270 -154 547z" />
<glyph unicode=")" horiz-adv-x="456" d="M23 -82q21 60 52 175.5t46 164.5q63 212 84 362.5t-2 335.5q-52 356 -152 631q19 11 129 45q11 -62 15 -73q25 -66 73 -164q181 -381 150 -838q-22 -277 -154 -547q-6 -12 -14 -31t-11.5 -26.5t-11 -18.5t-15.5 -15.5t-20.5 -9.5t-29.5 -7q-20 -3 -43 -0.5t-53 8.5t-43 8 z" />
<glyph unicode="*" horiz-adv-x="600" d="M20 1323q166 -22 185 -23q-14 34 -64 89.5t-63 89.5q44 51 59 61q40 27 90 -18q21 -23 52.5 -72.5t39.5 -60.5q49 87 70 172q51 -9 125 -58q-88 -71 -170 -176q8 -1 39 -6t41 -6t36 -4t41 -3t37 0.5t42 2.5q-5 -17 -18 -51.5t-17 -53.5q-32 16 -94.5 39t-90.5 37 q19 -28 63 -107t73 -116q-79 -33 -115 -74q-8 93 -88 229q-18 -44 -65.5 -116t-59.5 -94q-24 7 -72 40q14 36 48 76.5t67.5 80t46.5 73.5q-45 4 -120 -13.5t-103 -19.5q-2 8 -6 37t-9 45z" />
<glyph unicode="+" horiz-adv-x="1056" d="M39 618.5q0 11.5 2 28.5t9 23.5t19.5 14t32.5 9t50 0.5q21 -1 113.5 -7.5t113 -6t113.5 3.5q0 44 4.5 197.5t1.5 236.5v17q4 5 64 9.5t95 4.5l-10 -479q56 -18 120 -21.5t146 1t123 3.5q5 -80 -13.5 -103t-94.5 -26q-10 -1 -47.5 -3.5t-55 -3.5t-51.5 -1.5t-56 2.5 t-48.5 9.5t-46.5 17.5q12 -32 17 -73.5t5 -67t-3.5 -80.5t-4.5 -68q-3 -26 -1 -54t-1 -53.5t-10 -45t-26.5 -29t-51.5 -4.5q-45 5 -67 44t-22.5 97.5t5.5 117t13 118.5t5 85q-69 3 -220 -0.5t-220 0.5q0 19 -1 47t-1 39.5z" />
<glyph unicode="," horiz-adv-x="432" d="M33 -305q-7 41 34.5 129t45.5 102q57 184 34 297l13 23q29 12 65.5 17t61 5.5t70 -1t63.5 -1.5q-125 -103 -162 -241q-12 -53 -49 -164.5t-49 -165.5q-18 3 -39 3t-47.5 -1.5t-40.5 -1.5z" />
<glyph unicode="-" horiz-adv-x="526" d="M27 590l34 22q-1 3 3.5 5t14 3t20.5 2t25.5 2t28 1h30h28h25h18.5q25 -2 78.5 -2t95 -4t74.5 -15q-8 -39 -8 -125q-28 -16 -56.5 -24.5t-60.5 -9.5t-55.5 0t-63.5 5t-63 5q-13 0 -36 -1t-38 -1t-32.5 3t-29.5 12.5t-20 25.5q-4 7 -5 20t0 26t1.5 25t-1 19t-7.5 6z" />
<glyph unicode="." horiz-adv-x="413" d="M29 190q-8 74 22.5 133t98.5 80q52 8 69 0q69 -3 110 -68.5t48 -144.5q9 -126 -74 -172t-173.5 6.5t-100.5 165.5z" />
<glyph unicode="/" horiz-adv-x="622" d="M12 0q9 49 45 134.5t45 115.5q38 108 81.5 318t66.5 290q74 258 149 440q3 8 20 63t30.5 87t27.5 47q18 16 58.5 28t74.5 9q-41 -156 -63 -213q-38 -105 -72 -218t-77.5 -269t-61.5 -218q-18 -58 -63.5 -221t-75.5 -250q-17 -45 -28.5 -68.5t-31.5 -38t-37.5 -19 t-60.5 -12.5q-17 -3 -27 -5z" />
<glyph unicode="0" horiz-adv-x="870" d="M45.5 807q6.5 117 26.5 229q38 190 68 268q68 174 210 214q50 13 109 12q72 -11 131 -60q43 -35 63.5 -64t40.5 -75q88 -176 113 -330q17 -112 19.5 -209t-10.5 -199.5t-54 -196.5t-109 -173q-10 -12 -27.5 -36t-31 -42t-33 -41t-36.5 -39.5t-39.5 -32t-43 -22.5 t-45 -7.5t-49.5 9.5q-128 47 -242 324q-39 95 -53 224.5t-7.5 246.5zM221.5 785.5q1.5 -84.5 5.5 -140t9 -98.5q8 -84 62 -191q65 -129 133 -142q54 -11 99 56q37 59 61 135t34 163.5t13 154t3 154.5q0 74 -18 170.5t-58.5 194t-93.5 136.5l-35 6q-55 3 -95.5 -33.5 t-63.5 -96.5t-36.5 -142.5t-17 -162t-2 -164z" />
<glyph unicode="1" horiz-adv-x="555" d="M23 1305q-1 29 4 26l6 12q82 65 219.5 122.5t243.5 64.5q2 -42 9.5 -143.5t10 -152.5t1.5 -133.5t-9 -156.5q-2 -15 -12.5 -121.5t-13 -135t-10.5 -116.5t-11 -135.5t-7 -117t-5 -130.5q-1 -37 0 -65.5t-1 -49t-16.5 -36t-46.5 -25.5q-61 -18 -98 -3t-56 67 q-15 37 -11.5 102.5t14 119t21.5 119.5t11 105q3 136 15.5 401t15.5 396q-34 -40 -134 -87.5t-124 -64.5q-13 61 -16 138z" />
<glyph unicode="2" horiz-adv-x="860" d="M31 18q-2 34 26 78.5t64 80.5t77 81t58 74q71 142 114 233t93 223.5t78 249.5q59 262 -154 310q-49 10 -96.5 0t-93 -40.5t-76 -57.5t-72.5 -70q0 143 6 215q46 48 177 91.5t214 43.5q87 2 152 -34t101 -95t53 -135t13.5 -154t-22.5 -151q-70 -262 -171.5 -451 t-280.5 -338q170 -9 350 0q54 2 88 -4.5t52.5 -25.5t15 -54t-30.5 -88q-28 1 -84.5 5t-85 5.5t-86.5 3t-88 -1.5q-55 -3 -187.5 4.5t-203.5 1.5z" />
<glyph unicode="3" horiz-adv-x="858" d="M119 1278q0 121 6 180l-6 -12q-6 15 16 28t64.5 22t68 13.5t56.5 8.5q64 10 117.5 13t112 -6t101 -32.5t76 -70.5t45.5 -115q8 -41 10 -76.5t-3.5 -66t-12.5 -54t-24.5 -48.5t-31 -41.5t-41 -40t-46 -38.5t-54 -42t-57.5 -44q88 -30 140.5 -97.5t88.5 -172.5 q18 -65 28.5 -117t12.5 -116.5t-12 -113.5t-51 -95.5t-98 -75.5q-87 -42 -227 -59q-193 -24 -254 42q-45 49 -1 142q138 -60 199 -54q47 3 86 31.5t62 70.5t38 93t13 100t-13 90q-18 62 -62 118.5t-99 92.5q-8 5 -24.5 15t-21.5 13t-17 11t-14.5 11.5t-10 11.5t-8.5 14 t-4.5 16t-3 21t0 24.5t0.5 30.5q63 -13 127.5 18.5t108.5 86.5t64 126t1 132q-16 52 -58.5 82t-96.5 35t-110.5 -5t-105 -37t-75.5 -63z" />
<glyph unicode="4" horiz-adv-x="972" d="M10 432q35 60 106.5 175.5t123.5 205.5t98 182q15 31 57.5 130t69.5 151q20 40 71 118t74 124h148q-2 -46 -21.5 -212.5t-9.5 -261.5q6 -82 15.5 -245.5t15.5 -245.5q34 0 99 -9t95 -9q-4 -22 -19.5 -62t-17.5 -47q-102 25 -151 25q-11 -53 -4.5 -223.5t4.5 -221.5 q-105 0 -158 -6q-1 32 -5.5 99.5t-6.5 109t-1 98.5t7 101q-41 22 -92 26.5t-125 -2t-100 -6.5q-22 0 -66 -0.5t-71.5 -1t-65.5 1.5t-70 6zM283 590q44 5 160.5 -5t156.5 5v6q0 57 -5 206.5t-2.5 257.5t19.5 204h-6q-24 -53 -135 -285q-26 -55 -90 -183t-98 -206z" />
<glyph unicode="5" horiz-adv-x="743" d="M40 116q3 30 10 77t7 61q57 -35 134 -66.5t124 -27.5q69 8 127 86.5t82 175t8 162.5q-59 229 -446 252q-8 50 -10 109.5t-1 97.5t5.5 111t5.5 99l-6 254q-12 16 150 22q24 1 38 1q38 0 115 -3t115 -3q19 0 45.5 2.5t42.5 4t35.5 -1t30 -11t19 -27.5t9.5 -49 q0 -25 -7.5 -42t-18 -25.5t-31.5 -13t-37 -5t-46 -1t-48 -1.5q-38 0 -113 -3t-111 -3q23 -91 13 -199q-1 -17 -5 -48.5t-4 -46t3 -34.5t14.5 -33.5t32.5 -25.5q40 -26 93 -43t93.5 -27t80.5 -29t68 -60t41 -108q31 -172 -47 -405q-39 -125 -151 -204.5t-244 -84.5 q-182 0 -211 59q-8 27 -5 57zM74 1489q2 6 2.5 9.5t0.5 4t0.5 1.5t2.5 3z" />
<glyph unicode="6" horiz-adv-x="786" d="M38.5 566q-7.5 109 5 223t46.5 194q42 100 104.5 191.5t141.5 167t177.5 125.5t201.5 63l-10 -160q-73 6 -160.5 -45.5t-157 -129.5t-116 -171.5t-44.5 -165.5q30 26 45 38.5t41.5 31.5t46 27t45.5 15.5t53 5.5t56 -11q90 -25 153.5 -111.5t77.5 -185.5q8 -70 8 -149.5 t-8.5 -171t-39 -169.5t-78.5 -119q-122 -85 -238.5 -50t-204.5 136.5t-116 219.5q-22 92 -29.5 201zM305 233q20 -57 50 -94t64.5 -48.5t73.5 13t74 86.5q68 141 17 365q-9 65 -32.5 140.5t-55.5 115.5l-119 23q-248 -68 -72 -601z" />
<glyph unicode="7" horiz-adv-x="897" d="M29 1354q0 60 12 130q4 20 6 15l-6 19q-6 11 12 12q13 1 106 -15q24 -4 34 -4q58 -1 73 -1t71 6.5t69 7.5q164 12 479 0q-20 -33 -58.5 -92.5t-67 -107.5t-50.5 -97q-139 -332 -238 -748q-2 -7 -10.5 -39t-10.5 -40.5t-10 -38t-11.5 -40.5t-11 -37t-12.5 -40t-13 -37 t-15 -39.5t-15.5 -36.5t-17.5 -39q-5 -10 -12 -26q-13 -32 -24 -38q-8 -5 -40 -14q-5 -1 -8 -2q-19 -5 -41.5 -6.5t-59.5 -0.5t-44 1q-8 76 12.5 169t61.5 213.5t53 164.5q27 104 72.5 216.5t83.5 189t103 201.5t99 194q-62 0 -180.5 -2.5t-214 -2.5t-176.5 5z" />
<glyph unicode="8" horiz-adv-x="847" d="M57 461q5 96 59.5 216t129.5 144q-41 41 -76.5 90t-65.5 112t-35.5 122.5t13.5 120.5q32 85 131 176.5t188 87.5q23 17 107.5 -23t164.5 -98.5t93 -89.5q23 -53 11.5 -124.5t-41.5 -138.5t-78.5 -122t-98.5 -76q65 -32 121 -112t85 -172t26 -166q-3 -86 -28.5 -160.5 t-81 -136t-134.5 -86.5q-102 -35 -204.5 -7.5t-178.5 107.5q-58 65 -87 157.5t-20 178.5zM247 379q4 -80 29 -119q28 -51 78.5 -70.5t105 -9t105.5 44.5q117 82 60 267q-17 43 -48 94t-78.5 95.5t-86.5 39.5q-56 6 -97 -50t-56.5 -134t-11.5 -158zM266 1148q-3 -52 4 -85 q23 -114 108 -137q74 -19 150 35q79 56 95 147q5 30 2 61q-9 75 -63.5 136.5t-115.5 54.5l31 6q-94 83 -157 -18q-47 -76 -54 -200z" />
<glyph unicode="9" horiz-adv-x="942" d="M151.5 1041q7.5 100 40 192t89 170t125.5 117l34 14q71 -9 158 -39q39 -15 53.5 -20.5t42.5 -20t41.5 -27t30.5 -33.5t29 -48q87 -185 95.5 -433t-61.5 -438q-10 -25 -23.5 -49.5t-32.5 -48t-34 -42t-42 -42t-41.5 -36.5t-46.5 -37l-44 -33t-47 -33.5t-43 -30.5 q-4 -3 -36 -30t-56 -45t-55 -33t-49 -9q-42 17 -41 179v12q19 8 80 29.5t93.5 35t77.5 40.5t74 58q39 41 65 103t52 154.5t35 119.5q-133 -125 -332 -98q-88 14 -144.5 74t-75.5 144t-11.5 184zM342 997q2 -36 9 -72t22 -74.5t37.5 -62.5t55 -36.5t75.5 2.5q54 19 94 82 t57 131.5t17 128.5q0 35 -8 85t-24.5 107.5t-49.5 93t-76 27.5l18 -6q-55 12 -98 -14.5t-67 -73.5t-39 -109t-19.5 -114t-3.5 -95z" />
<glyph unicode=":" horiz-adv-x="428" d="M37 225q10 113 100.5 165.5t173.5 6.5t74 -172q-7 -79 -48 -144.5t-110 -68.5q-17 -8 -69 0q-68 21 -98.5 80t-22.5 133zM37 907q-8 74 22.5 133t98.5 80q52 8 69 0q69 -3 110 -68.5t48 -144.5q9 -126 -74 -172t-173.5 6.5t-100.5 165.5z" />
<glyph unicode=";" horiz-adv-x="444" d="M37 907q-8 74 22.5 133t98.5 80q52 8 69 0q69 -3 110 -68.5t48 -144.5q9 -126 -74 -172t-173.5 6.5t-100.5 165.5zM43 -305q-7 41 34.5 129t45.5 102q57 186 35 297l12 23q29 12 65.5 17t61 5.5t70 -1t63.5 -1.5q-125 -103 -162 -241q-12 -53 -49 -164.5t-49 -165.5 q-18 3 -39 3t-47.5 -1.5t-40.5 -1.5z" />
<glyph unicode="&#x3c;" horiz-adv-x="1030" d="M12 487q0 107 17 138q8 16 30.5 36t42.5 33t51.5 32.5t41.5 25.5q221 150 374 219q182 88 211 102q27 6 90 31q6 2 24 10q56 26 56 12q-1 -2 -2 -6h8q4 -4 7.5 -42.5t7 -85t8.5 -64.5l-764 -336v-74q40 -3 82 -17t96.5 -40t77.5 -35q198 -75 283 -123q19 -9 59 -22.5 t70.5 -28t52.5 -33.5q24 -21 33 -48t7.5 -48t-8 -61t-7.5 -62q-52 29 -223.5 124.5t-252 139t-218 110t-255.5 113.5z" />
<glyph unicode="=" horiz-adv-x="1011" d="M41 496l913 -37q8 -5 14.5 -35t11.5 -66.5t7 -42.5q-22 0 -74 6.5t-79 4.5q-53 -5 -225.5 -10t-360.5 -0.5t-205 26.5q-17 32 -2 154zM43 748q-7 16 19 143l1 6l902 -37q6 -44 6.5 -79.5t-20 -60.5t-64.5 -32q-103 -19 -299 5.5t-258 23.5q-9 0 -47.5 -1.5t-71 -1.5 t-70.5 2t-64 10t-34 22z" />
<glyph unicode="&#x3e;" horiz-adv-x="1030" d="M51 928q5 18 8.5 64.5t7 85t7.5 42.5h8q-5 14 8 12q11 -2 46 -18q18 -8 24 -10q63 -25 90 -31q29 -13 211 -102q156 -70 375 -219q9 -6 41 -25.5t52 -32.5t42 -33t30 -36q17 -31 17 -138q-118 -47 -255 -113.5t-219 -110.5t-250.5 -138.5t-223.5 -124.5q-2 23 -8 62.5 t-8 60.5t7 48t33 48q22 19 52.5 33.5t70.5 28t59 22.5q85 48 283 123q23 9 77.5 35t96.5 40t82 17v74z" />
<glyph unicode="?" horiz-adv-x="571" d="M16 1462l2 2q-2 0 -2 4l2 -4q76 49 143.5 62.5t155.5 -0.5q68 -11 113 -36.5t68 -60t29.5 -83t1 -98t-20.5 -113.5q-18 -71 -75.5 -191.5t-74.5 -167.5q-11 -33 -16 -74t-5.5 -66.5t0.5 -78.5t1 -72q-14 0 -56 -2.5t-72 -1t-56 10.5q6 47 7 137.5t3 126.5q7 91 35 149.5 t92 128.5q100 111 74 228q-16 65 -75 93t-127.5 19.5t-119.5 -43.5q-4 15 -10.5 60t-14.5 67zM20 1456l7 -14q0 7 -7 14zM107 245.5q14 58.5 61 78.5q26 24 67.5 19.5t80 -23t59.5 -39.5q33 -34 45 -75.5t4 -78.5t-31 -67t-56 -45.5t-76.5 -11t-86.5 33.5q-42 29 -61.5 89.5 t-5.5 119z" />
<glyph unicode="@" horiz-adv-x="1269" d="M39 537q-11 124 23.5 241.5t103.5 251.5q60 119 135.5 193t208.5 157q40 26 80 39.5t70 17t75.5 -4.5t71 -15.5t82.5 -25.5q120 -37 183.5 -89t98.5 -161q95 -271 48 -584q-19 -115 -133 -191q-99 -65 -202 -63q-99 2 -128 71q-23 54 10 140q-24 12 -41 12 q-15 -55 -59.5 -109t-96 -86t-105 -28.5t-83.5 53.5q-94 164 -83.5 294t94.5 227t180.5 161t175.5 96l79 31q13 4 57.5 -6t55.5 -29q25 -35 20.5 -97.5t-30 -132.5t-53.5 -148t-50.5 -144t-21 -120t34.5 -76q115 -77 185 147q51 163 62 392q3 59 0 83q-10 85 -79 153.5 t-160 101.5t-192.5 33.5t-174.5 -38.5q-98 -57 -185.5 -196.5t-132 -297t-28.5 -270.5q18 -85 80.5 -164.5t142.5 -136.5q76 -63 209 -90q45 -6 122 6.5t110 9.5q52 -3 64 -35.5t-29 -64.5q-16 -14 -45.5 -18.5t-66.5 -4.5t-48 -2q-19 -2 -71 -9t-75 -9t-67 -2t-71 6.5 t-61 21.5t-63 40q-93 71 -152.5 202.5t-74.5 266.5zM403.5 566.5q0.5 -37.5 16.5 -70.5q96 -204 339 255q4 8 12 23q11 22 15 29q24 40 28 75.5t-7 58t-25 39t-26 23.5l-13 7q-27 -18 -55.5 -40.5t-62.5 -51.5t-64.5 -61t-60 -67.5t-50.5 -72.5t-34 -73t-12.5 -73.5z" />
<glyph unicode="A" horiz-adv-x="989" d="M8 18q36 63 54 144.5t31 186.5t24 157q27 135 95 380.5t91 344.5q15 48 37.5 149.5t36.5 149.5q45 -33 198 -33q-1 -20 -1 -40q0 -119 26 -247q30 -150 93 -357.5t81 -279.5q52 -201 119 -555q-28 7 -61 7t-72.5 -3.5t-59.5 -3.5q-7 42 -46.5 201t-39.5 240q-26 8 -102 8 q-24 -1 -54 -1q-77 -2 -119 -2q-24 0 -36 1q-6 -25 -34 -171t-52 -220q-4 -12 -7 -24t-3.5 -17.5t-4 -11t-3 -7t-6.5 -3.5t-10 -2t-17 -1t-23 -2q-16 -3 -39 1t-33.5 6.5t-17.5 -1.5zM309 606l39 -4q0 9 20.5 12t53 0.5t66 -6.5t65.5 -8t45 -4q-13 37 -39.5 207.5t-55 310 t-52.5 139.5q-12 -113 -70.5 -326.5t-71.5 -320.5z" />
<glyph unicode="B" horiz-adv-x="823" d="M41 887q6 72 6 183q-1 24 -1 50q-1 62 0 113q0 69 1 119q0 11 -3 43q-2 30 -2 49q0 36 8 37l7 -2l-10 12q1 20 45 26q41 6 96 6q6 -1 10 -1h13q50 0 65 4q58 6 117 8h18q51 0 99 -12q58 -14 105 -37.5t82.5 -71t50.5 -113.5q12 -58 14 -118v-9q0 -55 -18 -109 q-19 -58 -49.5 -103.5t-82 -76.5t-116.5 -38q68 -13 121.5 -51t84.5 -91q30 -53 46 -117q14 -57 15 -115q0 -8 -1 -15q-2 -66 -19 -129q-21 -75 -61 -129.5t-98.5 -89t-118 -55t-141.5 -36.5q-26 -7 -78 -12q-30 -3 -62 -3q-22 -1 -44 1q-54 4 -70 19q-18 15 -20 59v20 q0 37 6 85q8 61 7 77q-1 34 -15 268q-9 156 -9 261q0 53 2 94zM219 887q28 -11 59 -11q32 0 67 12q68 24 119 74q52 50 82 116q22 49 22 93q0 16 -3 31q-7 41 -33.5 70t-65 45t-76.5 26t-79.5 21t-62.5 22l-17 -6q1 -23 -9 -212q-5 -109 -6 -185q0 -57 3 -96zM231 760 q5 5 11 8q-6 -44 -6 -109q0 -85 10 -205q9 -112 9 -194q0 -72 -7 -121q30 -7 59 -7q65 0 125 34q88 50 134 142q33 66 33 132q0 25 -5 49q-9 45 -45.5 104.5t-87.5 109.5q-51 51 -109 73q-25 10 -49 9q-32 0 -61 -17v4z" />
<glyph unicode="C" horiz-adv-x="788" d="M38 647q3 85 10.5 171t29 174.5t51 165.5t77 144.5t105.5 110.5q44 29 98.5 55t124.5 49q51 17 97 16q18 0 36 -2q62 -9 95 -56v-23q5 -22 6.5 -44.5t0.5 -59.5t-1 -45q-67 21 -126 21q-53 0 -100 -17q-99 -36 -163 -117.5t-96 -200.5q-50 -204 -59 -305q-4 -40 -4 -76 q0 -230 147 -334q29 -19 82 -30t95.5 -14t109 -4.5t85.5 -2.5q-18 -108 -18 -223h-53.5h-55t-49 1t-52.5 3.5t-47 6.5t-51 11t-46 16.5t-50 22.5t-47 29q-108 80 -161.5 174.5t-65.5 227.5q-6 51 -6 110q0 22 1 45z" />
<glyph unicode="D" horiz-adv-x="921" d="M55 276v32q0 129 7 278q6 134 6 224v42q-3 72 -3 169q0 192 13 480q0 31 100 33q9 0 18 1q92 0 189 -15q106 -16 139 -29q125 -48 201.5 -153t97.5 -228.5t29 -263.5q3 -51 2 -99q0 -84 -8 -159q-1 -41 -2 -60q-4 -72 -41.5 -152t-91.5 -138q-9 -10 -28.5 -31.5t-29 -31 t-25.5 -24.5t-32.5 -26t-36.5 -21q-111 -58 -243 -87q-72 -16 -137 -16q-53 0 -101 11q-22 122 -23 264zM223 1391q-10 -2 4 -7q1 -72 1.5 -229t3 -278.5t10.5 -227.5q3 -26 3 -67q-1 -72 -9 -190q-5 -76 -5 -132q0 -81 11 -121q115 7 204 72t139 163t74 221q19 97 19 193 q0 26 -2 52q-6 122 -39 234.5t-88 189.5q-54 78 -130.5 102.5t-189.5 24.5h-6z" />
<glyph unicode="E" horiz-adv-x="700" d="M50 1078q4 222 28 413v6h-12q20 1 148 19q105 14 173 15q16 0 29 -1q7 0 56 4q30 2 55 2h29q34 -2 50 -16q33 -25 33 -78q0 -36 -16 -86q-297 -10 -365 -10q2 -21 2 -50q0 -56 -6 -144q-5 -73 -6 -126q0 -44 4 -74q5 -32 23 -52t44 -27t58 -10q19 -2 38 -2l26 1 q32 2 63 0q0 -102 -10 -147q-1 0 -23 2t-26.5 2.5t-25 2.5t-28.5 3.5t-25.5 4t-27.5 5.5t-24 6.5t-25 8.5t-21 10q-10 -290 -32 -529q50 12 108 12q82 0 182 -24q34 -10 55.5 -17.5t37 -18.5t23 -18t13 -24.5t7 -30t5 -42t7.5 -52.5h-11q-45 0 -140 13q-67 9 -115 9 q-29 0 -50 -3q-10 -2 -67 -14t-77.5 -14.5t-61.5 0t-74 16.5q10 38 11 76v12q-1 35 -5 85q-6 58 -6 80q-17 245 -25 413q-5 108 -5 237q0 72 2 152z" />
<glyph unicode="F" horiz-adv-x="671" d="M29 625q0 527 34 848l-2 38q105 21 233 21q41 0 85 -2q10 0 53 2t75 2q3 0 6 1q29 0 62 -5q36 -5 50 -17q15 -13 19 -41q2 -14 2 -33t-2 -43q-4 -48 -3 -55q-58 -3 -109 -3q-178 0 -268 38q13 -60 13 -138q-1 -20 -1 -42q-4 -104 -14 -182q-4 -35 -4 -75q0 -47 6 -101 q25 -2 78 -7.5t97.5 -8.5t82.5 -3q5 -24 11 -80t12 -86q-28 0 -78 -5.5t-80 -7.5h-7q-28 0 -64 12q-40 12 -74 42q-6 -75 -6 -237v-110q0 -34 1 -64q0 -197 -14 -283q-18 4 -76 15t-90 20q-2 73 -15 275t-13 315z" />
<glyph unicode="G" horiz-adv-x="880" d="M92 810q10 174 76.5 340t183.5 277q24 22 97 49t153 44q63 14 117 14h27q66 -5 73 -41l17 -6q0 -82 6 -119q-50 8 -97 8q-57 0 -110 -12q-97 -20 -175.5 -82t-123.5 -160q-39 -84 -52 -198q-7 -61 -7 -121q0 -53 5 -105q12 -110 42 -202q39 -122 125 -196q77 -65 180 -65 q13 0 26 1q18 65 22 140q2 35 2 78q0 49 -3 110q-4 113 -4 145q-58 -11 -168 -11q-1 10 -1 31q0 15 1 37v17q0 37 -6 51q57 -8 170 -11.5t168 -11.5q5 -25 5 -86q0 -38 -2 -91q-4 -97 -4 -148q0 -20 1 -33q0 -23 2 -70q4 -57 4 -82q0 -29 -6 -66q-6 -40 -21 -71 q-40 -80 -120 -122q-76 -39 -157 -39h-8q-85 2 -165.5 42t-122.5 109q-83 133 -122 308q-30 138 -30 276q0 36 2 72z" />
<glyph unicode="H" horiz-adv-x="843" d="M31 1520q15 4 47 8q26 3 56 3h16q40 -1 55 -11q13 -9 20.5 -24t10.5 -37t3.5 -37.5t-0.5 -44t-1 -38.5q0 -83 -13.5 -235t-15.5 -213q34 -5 178.5 -7.5t208.5 -25.5q19 117 23 339.5t16 322.5q10 0 40.5 2t51.5 2t44.5 -5t33.5 -16q4 -15 1.5 -39.5t-8 -61t-5.5 -44.5 q-11 -164 -11 -531v-148v-85q0 -415 -22 -594q-72 0 -92.5 11.5t-36.5 68.5q-9 30 -13 70q-3 31 -3 58v16v23q0 24 -1 50q-6 141 -6 416q-26 2 -121.5 4t-166.5 11t-111 34q-17 -74 -23 -176q-4 -74 -4 -134q0 -22 1 -42q2 -75 8.5 -195t7.5 -170q-102 12 -162 12 q-2 28 -2 74q-1 37 1 89q1 62 2 105q0 34 -1 56q-4 142 -4.5 285.5t4.5 287.5q1 46 13 168q11 113 10 202v15q-1 94 -23 170z" />
<glyph unicode="I" horiz-adv-x="272" d="M37 1530q13 0 61 1q24 0 44 0.5t37 -0.5q33 -1 61 -5q0 -2 2 -172q1 -56 1 -94q0 -76 -3 -76q-28 -472 -27 -870q0 -163 4 -314q-47 0 -78 7.5t-49 20t-26 38.5t-10 54q-1 16 -1 41v36q1 50 3.5 165t4.5 179t6.5 157.5t10.5 171.5q2 23 2 53q0 99 -18 269 q-14 135 -15 229q0 61 6 105z" />
<glyph unicode="J" horiz-adv-x="538" d="M43.5 85.5q1.5 29.5 13.5 70.5q45 -13 75.5 -18t61 -3t51.5 15.5t39.5 40.5t32.5 69q35 108 52 242t20 248q1 28 1 58q0 94 -8 213q-9 156 -19.5 251.5t-28.5 247.5l16 -13q30 12 146 23q8 -32 8 -126q0 -28 -1 -62q-2 -87 -2 -137q0 -33 1 -50q2 -52 2 -106 q0 -80 -4 -164q-6 -140 -20 -326.5t-19 -269.5q-1 -19 -1 -36t1 -32q3 -30 -3 -62t-26 -55q-48 -60 -196 -86q-38 -9 -66.5 -13.5t-54 -3.5t-40.5 10.5t-24 27t-7.5 47z" />
<glyph unicode="K" horiz-adv-x="839" d="M29 1468l32 17q37 19 170 45q2 -84 2 -161q0 -294 -36 -480q21 21 43.5 46t40.5 45.5t44.5 53.5t40.5 50.5t43 55.5t38.5 51t40.5 54.5t36 48.5q8 14 29.5 64t43.5 89.5t44 49.5q5 2 13 2q40 0 163 -35q-47 -80 -177.5 -248t-182.5 -266q-17 -18 -60 -58.5t-73.5 -73.5 t-53.5 -68q240 -388 512 -734q-15 0 -64 -7.5t-89 -7.5t-60 15q-18 10 -41 50t-46 90t-33 65q-27 43 -83 124.5t-97.5 149.5t-71.5 136q-11 -45 -17 -101q-5 -54 -7 -94q-1 -14 -1 -34q0 -33 2 -80q4 -74 5.5 -98.5t9 -111.5t8.5 -96q-16 0 -63 5q-29 3 -51 3q-13 0 -22 -1 q1 7 1 15q0 38 -12 96q-14 71 -15 104q9 237 9 502q0 341 -15 728z" />
<glyph unicode="L" horiz-adv-x="645" d="M40 986q0 97 0.5 282.5t0.5 257.5h10q0 4 64 4h19q47 0 56 -5t15 -37q3 -18 6 -30q17 -74 23 -169q4 -65 4 -123v-50q-1 -36 -2 -75q0 -46 2 -97q4 -94 4 -190t-4 -195q-1 -35 -7.5 -86.5t-10.5 -88.5q-4 -36 -6 -86q0 -7 -1 -15q0 -41 8 -68q102 14 208.5 14t203.5 -20 q-1 -8 -2 -58.5t-6 -92.5t-15 -52q-21 -7 -52 -4.5t-79 8.5t-59 6q-18 0 -61 -2t-75 -2q-4 0 -9 -1q-27 0 -63 3q-42 3 -70.5 11t-52.5 26t-32 45q-13 40 -13 108t4 148q3 55 4 90q0 15 -1 27q-6 123 -8.5 271.5t-2.5 245.5z" />
<glyph unicode="M" horiz-adv-x="1206" d="M31 -14q3 69 3 157t-1.5 193t-1.5 153q0 130 15 343.5t22 343.5q2 43 2 96q0 105 -9 248q33 -26 71 -31q14 -2 29 -2q27 -1 61 5q53 8 75 9q22 -133 87.5 -373.5t86.5 -343.5q24 -108 54 -191.5t85 -209.5q14 107 39 206.5t61 217.5t56 203q7 24 29 95.5t33.5 111.5 t27 101t23.5 113.5t10 100.5q46 -8 144.5 -20.5t144.5 -20.5q-54 -617 -72 -1208q-1 -27 1.5 -55t10 -62t12 -52t16.5 -61t15 -53q-29 0 -88 2t-88 2q-15 74 -19 168q-1 37 -1 72q-1 56 3 106q6 82 8 178q1 37 1 70q0 54 -2 100q-10 420 -10 510q-18 -157 -56 -305t-78 -258 t-110 -285q-17 -40 -25 -61q-7 -13 -22.5 -66t-35.5 -78t-56 -18q-29 7 -46.5 41.5t-30.5 87.5t-22 72q-103 181 -172 420.5t-69 443.5q0 -122 -15.5 -365t-15.5 -366q0 -61 8 -159.5t8 -178t-16 -156.5q-17 13 -61 5q-22 -4 -38.5 -4t-27.5 4z" />
<glyph unicode="N" horiz-adv-x="878" d="M35 330v29q-1 95 15 273q14 155 14 256q0 33 -1 60q-1 17 -7.5 105t-8.5 124.5t-4 106.5q-1 23 -1 45q0 43 3 79q4 54 12 105l6 7q-1 5 -0.5 7.5t11.5 3t18.5 0.5t21 -0.5t19.5 -0.5h21.5h19.5t14.5 -1t14.5 -3.5t10.5 -7t13 -11t11.5 -16.5q24 -32 39 -130t30 -130 q122 -280 150 -352q4 -10 31 -79.5t34.5 -88.5t31 -78.5t37 -89.5t34.5 -78t40.5 -87t39.5 -77q-2 157 -15.5 574.5t-13.5 644.5q29 6 67.5 6t87.5 -6q16 -74 16 -168q0 -41 -3 -86q-22 -356 -22 -697q0 -290 16 -569q-54 0 -156 12q-19 73 -64 197q-27 81 -62.5 165 t-56 127t-77.5 158q-60 109 -115.5 261.5t-87.5 287.5q0 -199 -5 -600.5t-5 -601.5q-30 0 -85.5 7.5t-82.5 15.5q7 35 7 77v20q0 30 -2 52q-2 30 -6 80t-5 72z" />
<glyph unicode="O" horiz-adv-x="999" d="M27 807q0 100 12 205q10 88 51.5 179t104 167t151 124t182.5 48q71 0 135 -31t111.5 -82.5t86.5 -118.5t63.5 -140t37.5 -145t13 -136q0 -105 -19.5 -221.5t-61.5 -233t-100 -209.5t-143.5 -151t-183.5 -58q-96 0 -174 53t-126.5 136.5t-81 192.5t-45.5 213.5t-13 207.5z M186 711q0 -76 15 -144.5t28 -100t51.5 -104t49.5 -94.5q60 -123 137 -123q71 0 144.5 87t111.5 192q61 192 61 407q0 134 -22.5 238.5t-60 166t-83 93t-94.5 31.5q-138 0 -238 -182t-100 -467z" />
<glyph unicode="P" horiz-adv-x="778" d="M42 1344q0 34 6 81.5t20 81.5l6 23q12 2 48 2t98 -2q122 -4 147 -4q82 -2 149.5 -32.5t112 -81.5t74 -118.5t41.5 -141.5q9 -55 9 -112q0 -19 -1 -39q-1 -22 -4.5 -42.5t-6.5 -36t-13.5 -33t-14.5 -27t-21.5 -27t-22 -23t-28 -23.5t-28 -21.5t-34 -24t-34.5 -24.5 q-89 -59 -125 -74q-41 -17 -77 -17q-59 0 -103 46q1 -24 1 -53q1 -65 -3 -155q-4 -130 -4.5 -245t12.5 -209q-40 -10 -70 -10q-37 0 -61 15q-43 27 -47 116q-2 79 -3.5 289t-7.5 326q-12 278 -12 419q0 24 -1.5 83.5t-1.5 93.5zM228 1184q1 -64 6 -200t6 -202q17 -2 33 -2 q53 0 101 20q64 26 106 74t72 110t34 130q1 17 2 33q0 49 -10 95q-14 60 -58 109t-112 70q-28 10 -68 10q-12 0 -26 -1q-56 -4 -85 -25v-25q-1 -89 -1 -146v-50z" />
<glyph unicode="Q" horiz-adv-x="948" d="M38 784q1 77 7 144q9 101 25.5 175t59 155t110.5 137q35 27 111 75t91 48l-14 4q38 9 74 9q58 0 109 -25q82 -39 134 -134q105 -167 143 -352q35 -164 35 -359q0 -25 -1 -51q-2 -98 -31 -200t-82 -193t-138 -152t-186 -67q24 -153 24 -276q0 -26 -1 -50q-15 -1 -28 -1 q-60 0 -81 27q-25 33 -28 118q-1 23 -2 54.5t-1.5 45.5t-4.5 33.5t-13 30.5t-25 25t-42 28q-59 31 -104 94t-71.5 142.5t-43.5 167.5t-22 179q-4 77 -4 143v25zM233 889q-20 -76 -20 -162q0 -181 88 -403q5 -12 14.5 -37.5t16 -40.5t17 -36t22 -31.5t27 -19.5t35.5 -7.5 t44 12.5q45 15 88 62.5t70 97t43 96.5q46 148 46 368q0 69 -5 146q-2 20 -5.5 44.5t-9 56t-13 62t-18 65t-23 63.5t-27.5 57.5t-33 47.5t-39 32.5t-45 14t-51 -8.5q-26 -8 -48.5 -23.5t-40.5 -39.5t-32.5 -48t-27 -59.5t-21 -62t-17.5 -67t-13.5 -63.5t-11.5 -62.5 t-10 -53.5z" />
<glyph unicode="R" horiz-adv-x="849" d="M45 700q4 144 13.5 386t9.5 389l6 16q28 42 114 42q80 0 211 -36q158 -39 209 -61q100 -44 142 -134q26 -58 38 -143q4 -32 3 -63q1 -48 -7 -96q-14 -80 -48.5 -150t-100.5 -110q-57 -35 -130 -36q-11 0 -22 1q103 -118 187 -310q16 -37 59 -114.5t69 -142t28 -122.5 q-34 -14 -98 -14h-9q-72 1 -94 27q-13 13 -24.5 52.5t-22 87t-15.5 62.5q-17 38 -88 189t-104 233q-71 11 -123 11v-90q2 -60 2 -97v-15q0 -32 -2 -74q-2 -52 -6 -95q-2 -16 -1 -37t1 -45t0.5 -48.5t-2.5 -48t-7.5 -44t-14.5 -36t-23.5 -24t-34 -7.5t-47.5 13 q-28 14 -43 50.5t-16.5 78t-2.5 86.5q0 22 -0.5 41.5t0.5 36.5q-7 176 -7 300q0 50 1 91zM236 1374l6 -12q0 -235 6 -354q1 -16 0 -39t-2.5 -41.5t-1.5 -40.5t2 -36.5t8 -30t18 -21t30.5 -9.5t45.5 5q77 18 140 83q63 64 92 144q18 51 18 104q0 30 -6 62q-16 86 -86 141 q-66 45 -250 45h-8h-12z" />
<glyph unicode="S" horiz-adv-x="729" d="M25 215q49 -8 131 -8q90 0 177.5 37.5t142 98.5t54.5 124q0 54 -28 102t-72.5 86t-98 75t-107.5 76.5t-98.5 82t-72.5 100t-28 123.5q0 103 58.5 201t152 158.5t190.5 60.5q93 0 172.5 -23.5t103.5 -70.5q-6 -18 -6 -172h-6q-90 90 -201 90q-77 0 -147 -61.5t-70 -157.5 q0 -42 18 -82.5t52 -77.5t64.5 -63.5t74.5 -59.5q101 -76 160 -192.5t59 -237.5q0 -76 -31.5 -151t-88 -135.5t-144 -98t-190.5 -37.5q-114 0 -217 39q8 50 8 78q0 53 -12 96z" />
<glyph unicode="T" horiz-adv-x="894" d="M18 1341q1 8 4 28.5t4 32.5t2.5 29.5t0.5 33.5t-4 32l4 -6q0 3 -2.5 7.5t-5.5 7.5l-3 3q56 -18 125 -18q39 0 82 6q24 3 92 12t101.5 13t87.5 7q32 2 61 1h37q12 -1 35 -2q33 -2 48.5 -3t42 -3.5t38 -6.5t29.5 -11.5t25 -17t15.5 -24t9.5 -33.5t0 -44t-7 -56 q-38 -2 -81 -2q-96 0 -220 8q16 -61 16 -184q-3 -102 -19 -293.5t-20 -265.5q-7 -72 -9 -274.5t-20 -305.5q-19 0 -50.5 -4t-50 -5.5t-50.5 3.5q12 78 12 246q0 118 -13.5 339.5t-13.5 403t27 340.5q-49 -7 -116 -7q-90 0 -214 13z" />
<glyph unicode="U" horiz-adv-x="870" d="M52 504v47.5v37.5q0 32 3 92t4 87q2 77 13.5 190t20 191t10.5 191v23q0 98 -15 167q94 -18 136 -18q11 0 18 1l6 7q-16 -118 -18 -244q0 -20 -1 -41q-1 -111 11 -247q14 -162 23 -241t32 -266q10 -89 66 -187q68 -117 139 -120h3q61 0 111 90q36 64 51 158q13 80 13 146 v22q-2 74 -9 184t-7 160q0 190 -7 311q-1 12 -1 29q0 25 2 60q3 58 3 108.5t-10 83.5q51 -6 166 -6q16 -137 16 -314q0 -85 -4 -180q-1 -51 -1 -84v-29q1 -36 6 -110.5t6 -108.5q1 -15 1 -30q1 -133 -39 -285q-44 -169 -122 -275q-48 -64 -126 -86q-46 -13 -92 -14 q-31 0 -62 6q-76 16 -145.5 59t-107.5 103q-25 37 -43 76.5t-28 84.5t-16 81.5t-6 89.5z" />
<glyph unicode="V" horiz-adv-x="923" d="M23 1493q20 3 45 4t43.5 1t49 -0.5t46.5 -0.5q24 -192 112 -536q12 -45 74.5 -224.5t75.5 -279.5q5 -40 8 -123t8 -123q19 132 49.5 416t64 497t87.5 406q36 -15 107.5 -18.5t103.5 -14.5v-20q0 -82 -22 -181q-25 -111 -69 -249t-58 -195q-23 -91 -69 -291t-73 -303 q-3 -9 -17 -56.5t-19 -66.5t-12 -54t-9 -63q-95 -16 -140 -16q-22 0 -32 4q-16 8 -27 20.5t-18 34.5t-9 33t-8 43q-31 133 -130.5 516.5t-139.5 585.5q-6 31 -8.5 123.5t-13.5 130.5z" />
<glyph unicode="W" horiz-adv-x="1411" d="M25 1505q129 -24 165 -24q0 -146 27.5 -310t75 -367.5t65.5 -305.5q4 -29 30 -88.5t28 -90.5q0 64 4 138.5t8.5 126t17 145t17.5 125.5t22.5 143t20.5 127q1 8 9 73.5t12.5 97t17 80t28.5 77.5q27 51 79 67q39 12 92 12q16 0 34 -1q22 -238 115.5 -668.5t116.5 -572.5 q45 214 92.5 628t81.5 596q77 -26 149 -26q27 0 53 4q-9 -76 -49.5 -220.5t-50.5 -207.5q-28 -216 -61 -363q-12 -58 -49 -269.5t-66 -321.5q-16 -52 -48 -76.5t-76 -26.5q-22 -1 -47 -1t-54 1q3 28 3 57q0 49 -8 99q-12 82 -42 201.5t-37 150.5t-51 211.5t-58 280.5 q-5 37 -5 97q0 30 1 66q-6 -55 -20.5 -122.5t-26.5 -112t-36 -126t-32 -108.5q-61 -207 -90 -450q-10 -74 -10 -221q-19 0 -45.5 -1t-39 -1.5t-29.5 1.5t-25.5 8t-19.5 17.5t-18.5 30.5t-14.5 47q-9 32 -26 93t-27.5 98.5t-23 91t-20.5 100.5q-23 177 -87.5 575.5 t-71.5 415.5z" />
<glyph unicode="X" horiz-adv-x="901" d="M37 1512l14 1l2 -4q-14 2 -16 3zM51 23q12 83 44 186.5t57.5 169.5t79 191.5t69.5 164.5q19 41 19 86v15q-4 54 -19 95.5t-43 92t-55 90.5t-54 90.5t-40 93.5q-3 14 -8.5 38.5t-10.5 44t-10 36.5q-1 3 -4 11l-20 66q0 -1 1 -3l-4 18q23 -5 27 -6q61 -13 112 -13 q37 0 68 7q-1 -13 -1 -26q0 -56 17 -118q21 -76 51.5 -134.5t65.5 -135t49 -135.5q25 111 36.5 158t37.5 138t55.5 158.5t67.5 127.5q36 -13 101 -16t85 -7q-13 -91 -58.5 -197.5t-104 -223t-84.5 -193.5q-20 -57 -22 -91.5t8 -61.5t42 -85q88 -182 158 -344 q22 -48 56 -147.5t57 -147.5q-104 35 -226 35q-118 324 -198 617q-25 -79 -55 -165t-71.5 -197.5t-60.5 -164.5q-6 -15 -14 -42.5t-13 -40.5t-18.5 -28.5t-32.5 -23.5q-9 -5 -31.5 -3t-37 5t-37 8z" />
<glyph unicode="Y" horiz-adv-x="917" d="M41 1485l6 28l37 -5q117 -17 135 -17q12 -83 48 -181.5t74.5 -176t77 -176.5t54.5 -181q12 81 34 175t36.5 148t50 173.5t45.5 154.5q3 11 8.5 29t7 24.5t6 18t7 14t9.5 9t13 7t17 2t23 1t30 -1.5q10 0 34.5 1.5t36.5 0.5t28 -5t24 -16t10 -32q3 -18 -10.5 -54t-34 -79 t-25.5 -58q-19 -81 -51 -160q-48 -117 -82 -219q-45 -137 -86 -200q-5 -12 -28 -30.5t-29 -33.5q-5 -10 -6.5 -24t0 -34t3 -30.5t5.5 -35t4 -25.5q12 -162 12 -305q0 -100 -6 -191q-31 0 -101 3t-102 3q-8 49 -8 112q0 26 1 54q5 98 17 184q8 65 8 133q0 23 -1 47 q-4 94 -33 154q-23 56 -101 150.5t-100 148.5q-10 22 -18.5 48t-14 44t-12 52t-8.5 45.5t-8.5 52t-7.5 47.5q-2 17 -12.5 69.5t-16 91.5t-0.5 46z" />
<glyph unicode="Z" horiz-adv-x="892" d="M98 50q-2 10 -3 21q0 23 11 49q16 40 35 74.5t45 74.5t33 53q15 26 28.5 52.5t28 60t23 54t23.5 63t19.5 55.5t21 63.5t18.5 56.5q36 112 102 264q15 33 43 106.5t55 129.5t60 96q-49 7 -131 7q-56 0 -128 -4q-62 -3 -111 -2q-92 0 -142 9q0 6 6 51t6 80.5t-12 42.5 q-7 10 32 16q42 7 103 7q170 -10 203 -10h20q46 0 117 6q88 8 140 12h18q46 0 108 -12q-35 -70 -69.5 -152t-74.5 -183.5t-62 -154.5q-37 -90 -120.5 -269t-141.5 -323.5t-93 -279.5q70 -14 125 -14q16 0 32 2q66 6 171 16q72 8 123 7q23 0 43 -1q3 -58 3 -84q0 -36 -20 -60 t-61 -30q-14 -2 -35 -2q-48 0 -129 10q-21 2 -50 2q-58 0 -146 -8q-75 -6 -127 -6q-69 0 -99 10q-33 14 -41 44z" />
<glyph unicode="[" horiz-adv-x="444" d="M63 232q0 197 12 355t25 365t13 353q0 17 5.5 93.5t1.5 129.5t-24 86q19 -9 44.5 -13t40.5 -5t49.5 0t43.5 1q15 0 62.5 2.5t64.5 2.5q0 -82 -4 -117q-106 0 -155 6q-8 -138 -11.5 -303.5t-3.5 -281t1 -314t1 -289.5q0 -45 -2 -137.5t-2 -140.5q13 -3 45.5 -10t52 -11 t48 -6.5t51.5 -1.5q7 -76 -12 -146q-46 13 -99.5 17t-124 4t-102.5 2q-21 162 -21 359z" />
<glyph unicode="\" horiz-adv-x="595" d="M23 1532l26 -12q-17 10 14 7q18 -2 70 -11l41 -7q66 -180 180 -626q12 -51 67.5 -267.5t80.5 -330.5q10 -44 23.5 -90.5t32.5 -107.5t26 -87q-74 9 -148 0q-30 116 -131 573t-180 697q-9 27 -54 125.5t-48 136.5z" />
<glyph unicode="]" horiz-adv-x="444" d="M23 -4q23 -1 51 1.5t47.5 6.5t51.5 11t46 10q0 48 -2 140.5t-2 137.5q0 97 1.5 291t1.5 311.5t-3.5 282.5t-11.5 303q-49 -6 -156 -6q-4 35 -4 117q17 0 64.5 -2.5t62.5 -2.5q9 0 43.5 -1t49.5 0t40.5 5t44.5 13q-20 -33 -24 -86t2 -129t6 -94q0 -146 12.5 -353 t24.5 -365t12 -355t-21 -359q-32 -2 -102 -2t-123.5 -4t-99.5 -17q-19 70 -12 146z" />
<glyph unicode="^" horiz-adv-x="1001" d="M37 736q2 9 13 30l9 22q22 60 27 76q45 98 86 176q59 133 182 314q5 8 22 35.5t28 44t27 35t30 24.5q25 14 114 14q39 -99 93.5 -211t95.5 -187t113.5 -204.5t105.5 -189.5q-19 -1 -52.5 -7t-50.5 -7t-39.5 6.5t-39.5 27.5q-16 18 -28.5 44t-24.5 59t-19 49 q-40 70 -102 235q-9 23 -29.5 66.5t-33 79t-15.5 69.5h-62l-280 -639q-15 4 -53.5 7t-71 6t-35.5 6v8q-14 -5 -10 11z" />
<glyph unicode="_" horiz-adv-x="1187" d="M50 -98q1 10 5 33.5t6 39.5q-20 8 3 5q10 -1 37 -6l28 -5q26 -3 68.5 1.5t54.5 4.5q61 -3 178.5 3t173.5 4q209 -14 531 4q27 -92 12 -172q-75 -8 -197 16l-831 4q-24 4 -38.5 11t-21.5 13t-8.5 20t-0.5 24z" />
<glyph unicode="`" horiz-adv-x="256" d="M25 1352q68 127 43 434q48 -17 161 -17q6 -100 -35 -221t-112 -184l12 -8q-18 -4 -69 -4z" />
<glyph unicode="a" horiz-adv-x="755" d="M61 854q7 62 7 176h28q191 100 316 100q9 1 18 0q76 0 139 -38q71 -42 101 -125q12 -32 18 -73q6 -40 6 -68v-16v-64q-2 -52 -2 -70q2 -78 11 -234t11 -232v-39q0 -74 -5 -196q-105 12 -126.5 44t-21.5 141v16q-2 -44 -5.5 -69.5t-13 -53.5t-26.5 -42q-17 -15 -46 -23 q-23 -7 -55 -6h-16q-117 6 -201 68t-116 160q-18 56 -19 116q0 46 11 96q9 38 22.5 69t27.5 55t35 44t38.5 34t45 26t48.5 19.5t54.5 15.5t56 12t61 11.5t63.5 12.5q9 39 9 70q0 30 -8 54q-17 49 -54 77q-37 30 -91 36q-23 3 -46 2q-32 0 -64 -5q-56 -9 -113 -36t-98 -65z M244 266q6 -34 30 -61q36 -39 98 -53q19 -4 36 -4q39 0 67 22q35 30 47 118q10 71 10 134q0 16 -1 30q-3 76 -11 132l-6 -6q-17 4 -33 4q-83 0 -162 -113q-25 -40 -39 -65.5t-28 -64.5q-10 -28 -10 -53q0 -11 2 -20z" />
<glyph unicode="b" horiz-adv-x="788" d="M35 1509l22 -6q17 10 79 22q33 6 53 6t30 -5q27 -16 27 -185q1 -26 1 -54q0 -159 -34 -374q41 65 107 105t143 41l1 -1q78 0 142 -52q122 -110 122 -401q0 -134 -26 -308q-4 -35 -7.5 -56t-11 -55t-15.5 -56t-23 -49.5t-33 -44.5t-45 -31.5t-59 -20.5q-28 -7 -60 -7 q-34 0 -74 8q-76 16 -139.5 61t-80.5 104q0 -13 1 -48.5t0 -59.5t-5 -48q-35 6 -109 6q-4 147 -4 240v36q1 100 4.5 277t3.5 276q0 111 -5 338t-5 342zM187 461q9 -94 42 -164q15 -46 48 -94t71 -60q27 -8 49.5 0.5t38 30t27.5 45.5t23 52q4 11 6 16q57 140 57 313 q0 279 -156 279v22q-81 -22 -133 -94t-67 -162q-9 -56 -9 -114q0 -35 3 -70z" />
<glyph unicode="c" horiz-adv-x="667" d="M33 459q-2 37 -2 72q1 57 5 108q6 83 27.5 173.5t69.5 168t121 133.5q25 20 60.5 28.5t67 8.5t75.5 -7.5t70 -14.5t67.5 -19.5t52.5 -15.5l-10 -156q-72 39 -137 39q-76 0 -145 -53q-100 -78 -142 -235q-22 -81 -22 -155q0 -78 24 -150q38 -112 127 -165q57 -34 141 -45 q33 -4 63 -4q47 0 87 10q-2 -26 -10 -84.5t-11 -83.5q-46 -20 -101 -20q-108 0 -251 78q-98 53 -159.5 164.5t-67.5 224.5z" />
<glyph unicode="d" horiz-adv-x="856" d="M60 517q8 144 57 233q73 139 117 195q65 81 133 104q29 11 57 11q32 0 66 -14q62 -26 96 -83q1 16 1 39q-1 44 -5 114q-5 76 -5 122q0 18 1 32q-2 62 -2 99t2 47q6 42 42 53q28 8 126 8h42q1 -29 1 -81v-59v-45q0 -62 2 -94q3 -58 10.5 -162.5t10.5 -159t6 -158.5 q1 -35 1 -65q0 -59 -4 -98q-5 -59 -16.5 -177.5t-16.5 -176.5q-2 -24 -2 -46q0 -19 1.5 -36t1.5 -37q0 -22 -2 -48q-3 -48 -15 -83q-20 -4 -47 -4q-51 0 -125 14q3 28 8 81t8 81q-16 -63 -90 -97q-67 -31 -143 -32h-15q-84 4 -135 41q-87 60 -131 199q-38 119 -38 242 q1 20 2 41zM243 524q0 -89 13 -151q11 -48 35 -98t60 -93.5t79 -55.5q12 -3 24 -3q32 0 68 22q121 78 121 365q0 51 -11 118t-41 135.5t-71 82.5l12 -2q-69 56 -123 56q-63 0 -106 -77q-59 -105 -60 -299z" />
<glyph unicode="e" horiz-adv-x="870" d="M55 719q10 99 47 188t96.5 157t147.5 97q48 16 99 15q44 0 92 -11q92 -23 164.5 -105.5t106.5 -186.5q28 -86 27 -169q0 -17 -1 -34q-2 -45 -20 -79.5t-45 -55.5t-68 -34t-79 -18t-90 -6h-33q-31 0 -57 1q-38 2 -88.5 4.5t-77.5 2.5q-1 -15 -1 -29q0 -50 11 -90 q14 -50 39.5 -79t64.5 -45q38 -17 78 -21q29 -3 64 -3q12 0 26 1q50 2 91.5 7.5t89.5 11t76 6.5q0 -7 4 -52q2 -26 2 -47q0 -16 -1 -28q-3 -30 -17 -45q-11 -18 -31 -24t-61 -7t-52 -2q-145 -19 -202 -19h-5q-112 3 -176 58q-134 116 -190 286q-38 117 -39 242q0 56 8 113z M246 604l10 -6v6q24 -1 69 -5.5t81 -8.5q32 -3 69 -2h11q44 0 75.5 7.5t57 27.5t34.5 53q7 29 7 59q0 70 -39 143q-46 88 -117 115q-24 9 -47 9q-63 0 -114 -70q-11 -15 -21 -33q-35 -58 -56 -146q-14 -58 -14 -104q0 -24 4 -45h-10z" />
<glyph unicode="f" horiz-adv-x="782" d="M43 976q1 16 8 38q6 21 16 31.5t27.5 12t31.5 -0.5t41.5 -8.5t43.5 -8.5q-5 23 -5 59q0 96 38 283q32 128 160 150q23 3 46 3q102 0 192 -81q94 -86 94 -223q0 -23 -3 -47h-117q12 35 12 67q0 13 -2 26q-7 44 -35 75.5t-61 49.5q-27 14 -55 14q-7 0 -13 -1 q-36 -4 -59 -31q-44 -54 -49 -138v-26q0 -75 21 -173q28 6 63.5 3.5t66 -9.5t45.5 -30.5t1 -58.5q-12 -32 -47.5 -38t-62 1t-74.5 24l-9 3q10 -118 23 -430q0 -164 -6 -248q0 -8 5 -69q4 -51 4 -93v-16q-1 -48 -13 -63q-17 -17 -60 -19h-9q-36 0 -58 12q-16 9 -23.5 14.5 t-10 14.5t-2 15t3 23.5t3.5 33.5q6 56 6 131q0 33 -1 70q-4 119 -11.5 200t-18 200.5t-14.5 201.5q-11 1 -31 1.5t-31.5 1.5t-27.5 3.5t-23.5 8.5t-14 15.5t-5.5 25.5z" />
<glyph unicode="g" horiz-adv-x="753" d="M34 556q4 89 19.5 166.5t63 149t125.5 121.5q62 40 124 46q10 1 19 1q51 0 97 -28q53 -33 83 -103v13q-12 48 -12 88q0 18 2 34q13 -1 76.5 -11.5t95.5 -10.5q-12 -106 -17 -234q-4 -114 -4 -191v-16q1 -80 4.5 -242t4.5 -220v-25q0 -54 -7 -112q-8 -73 -32 -151.5 t-59.5 -142.5t-93.5 -111t-130 -58q-17 -2 -34 -2q-70 0 -154 35q-105 43 -168 106q30 61 45 106q71 -41 174 -55q33 -5 64 -5q64 0 118 20q43 22 69 72t33 112q6 54 6 104v14q-1 55 -9 105q-109 -135 -226 -135q-72 0 -147 51q-23 17 -41.5 36t-30.5 34.5t-21 39t-14 37.5 t-9 43t-5 43t-3 49.5t-3 51.5q-5 54 -5 111q0 31 2 64zM192 582q-4 -41 -4 -82q0 -57 9 -114q16 -97 57 -155q45 -64 98 -73q10 -2 20 -2q41 0 74 31q41 38 58 106q35 134 35 277q0 30 -2 61q-5 64 -35 153q-37 112 -82 112q-3 0 -6 -1q-18 -3 -37 -25h-6 q-74 -26 -120.5 -108.5t-58.5 -179.5z" />
<glyph unicode="h" horiz-adv-x="712" d="M31 6q11 142 11 214q0 24 -1 40l-10 1225q4 27 59 43q30 9 51 8q18 0 31 -6q15 -10 19 -36q2 -14 2 -35q1 -17 -1 -39q-4 -48 -4 -52q2 -50 9.5 -143t9.5 -138q1 -15 1 -36q0 -41 -3 -105q22 51 74 84q53 32 109 36q11 1 21 0q45 0 89 -13q51 -21 85 -53.5t51 -76.5 t23.5 -86.5t8.5 -99.5q4 -84 4 -169.5t-4 -172.5v-8q0 -27 4 -112q3 -54 3 -100q0 -42 -3 -79q-4 -77 -27 -90q-4 -3 -15 -3q-18 1 -53 9q-57 14 -71 23q-15 12 -22 27.5t-8 24t0 36t1 35.5q2 41 12.5 167.5t10.5 198.5q0 7 0.5 41.5t0.5 54.5t-2 58t-5.5 63t-11 57 t-18 52.5t-27.5 37.5t-38 23q-30 7 -54.5 5.5t-45.5 -19.5t-37 -38t-29 -48.5t-21.5 -52.5t-14.5 -49q-18 -81 -18 -192q1 -19 1 -39q4 -136 10 -235q2 -24 2 -49q0 -81 -18 -182q-9 2 -21 2q-21 0 -51 -6q-27 -5 -46 -4q-13 0 -23 2z" />
<glyph unicode="i" horiz-adv-x="350" d="M10 1313q-2 15 -2 29q0 56 25 104q31 60 100 84q24 4 41 4q21 0 31 -6q70 -3 111.5 -69t48.5 -146q1 -12 1 -24q0 -109 -76 -151q-39 -22 -81 -21q-47 0 -97 28q-92 53 -102 168zM94 977l17 2q19 12 49 13.5t48.5 -1.5t55.5 -10q7 -76 7 -220q0 -113 -4 -269 q-7 -269 -8 -408q0 -44 1 -74q-4 -1 -18.5 -3.5t-18 -3t-16 -2.5t-17.5 -2t-16 -1t-17.5 -0.5t-16 1.5t-18.5 2.5t-18 4.5q7 148 7 256q-1 30 -1 57q-2 124 -9 336t-7 322z" />
<glyph unicode="j" horiz-adv-x="509" d="M20 -223q20 -9 40 -9q40 0 77 34q56 52 66 118q43 152 43 343q0 38 -2 77v41q0 65 2 158q3 124 3 232t-9 196q1 0 22.5 7.5t41.5 13t45 8t34 -8.5q8 -9 9 -41q1 -13 1 -27q0 -23 -1 -51q-3 -46 -3 -49q19 -603 19 -762q0 -440 -388 -454q4 25 4 55t-2 65.5t-2 53.5z M119 1315q-2 15 -2 30q0 56 25 103q30 58 100 80q22 6 39.5 6t29.5 -6q69 -3 110 -68.5t48 -144.5q1 -12 1 -24q0 -106 -76 -148q-38 -21 -79 -21q-46 0 -95 28q-91 52 -101 165zM240 967v4v-4z" />
<glyph unicode="k" horiz-adv-x="722" d="M55 1491q35 0 93 19.5t88 19.5q15 -91 15 -206.5t-7 -211.5q-8 -94 -16 -216q-6 -96 -6 -170q0 -20 1 -38q15 24 33 51t30 44t38 50.5t32.5 41.5t39 49t34.5 43q7 9 33.5 46.5t48 58.5t41.5 24q15 1 25 1t32.5 -5.5t36 -10l34.5 -11.5t28 -9q-59 -70 -162 -227 q-27 -38 -81.5 -107t-74.5 -96t-25.5 -49.5t5.5 -44.5t22 -36t39.5 -42.5t42.5 -44.5q205 -244 223 -398q-14 0 -47.5 -6t-54 -8.5t-43.5 4.5q-15 7 -38.5 43.5t-49 82t-35.5 58.5q-44 60 -110 173t-91 151q-3 -82 -6 -248.5t-6 -249.5q-13 -2 -34 -6t-29.5 -5t-22.5 -2 t-19 1.5t-13 7.5t-11 14.5t-6 23.5t-4 34q-32 454 -32 832q0 313 22 575l-7 -23q0 7 -3 14.5t-3 8.5z" />
<glyph unicode="l" horiz-adv-x="495" d="M43 1174q1 19 4 158t12 198h187q3 -54 3 -85v-14q-1 -32 -6 -104t-7 -104q-2 -67 -9 -168t-11 -169q-4 -70 -6 -172q0 -15 -1 -28q0 -84 8 -143q1 -7 10.5 -81.5t20 -121.5t28.5 -78q8 -17 22 -29t27.5 -17.5t35.5 -8t36.5 -2.5t41.5 1t40 1q-2 -12 -5 -37t-5 -37 t-7.5 -31t-13 -30t-21 -23t-32.5 -20q-36 -21 -105 -27q-26 -2 -48 -2q-36 0 -60 6q-37 7 -61.5 26.5t-34.5 43.5t-14 60q-2 23 -2 43q0 12 1 23q2 30 4 70q1 26 1 46v18q-2 62 -17 369q-17 268 -17 409q0 34 1 60z" />
<glyph unicode="m" horiz-adv-x="1323" d="M62 846q1 152 20 282q34 7 143 7q0 -113 -14 -166q24 55 81.5 93t127.5 48q36 5 70 5q32 -1 66 -5q68 -10 119 -51t64 -105q53 95 131 159q70 57 153 57q10 0 21 -1q50 -6 89 -32t62.5 -65.5t39.5 -87t23 -102.5q8 -54 10 -105q2 -36 1 -73v-29q-1 -51 -2 -88 q-1 -11 -1 -16q0 -49 -1.5 -138.5t-1.5 -163t3 -140.5q1 -15 4.5 -38t3.5 -30.5t-4.5 -19t-17 -18t-35.5 -13.5q-9 -4 -17 -6t-17 -2.5t-15 -0.5t-17 2t-15.5 3t-18.5 5t-19 5q6 40 6 181v42v143.5v76.5q0 14 2 75q3 60 4 102v16q0 37 -4 91q-4 65 -14.5 109.5t-33.5 86.5 t-57 62q-26 14 -50 14q-17 0 -35 -8q-40 -19 -73 -66t-53.5 -96.5t-25.5 -86.5q-16 -117 -16 -204q0 -22 1 -42q5 -100 13 -252q5 -84 5 -151q0 -55 -3 -99q-24 -6 -60 -6t-83 6q13 68 15 142q1 29 1 61q0 53 -2 118q-4 105 -4 146q0 26 3 94q2 51 2 89v23q-1 44 -7 102.5 t-26 104t-54 77.5q-38 34 -82 34q-7 -1 -13 -1q-52 -6 -97.5 -35.5t-78.5 -77.5t-40 -94q-11 -63 -11 -164v-17q1 -113 8 -199.5t14 -202t7 -187.5v-7q-22 -6 -58 -6t-85 6q-5 104 -20 277t-23 287q-8 102 -8 234v32z" />
<glyph unicode="n" horiz-adv-x="796" d="M31 1126l18 13q13 8 57 10h16q33 0 60 -6q6 -24 6.5 -77.5t6.5 -80.5q52 60 131 112t139 52h7q43 0 77 -12q37 -13 62.5 -46t42 -59.5t30.5 -80.5t18.5 -77.5t13.5 -81.5q3 -20 5 -30q6 -47 9 -106q4 -58 4 -94v-46v-66q0 -77 -1 -100q0 -32 5 -83q6 -51 10 -91 q4 -33 3 -72v-17q-1 -48 -12 -83q-20 4 -57 4h-9q-3 0 -5 -1q-40 -1 -62 7q-24 8 -37 33q-8 16 -8 50t4 75t4 51q-15 154 -41 563q-4 65 -23 116t-49 75q-28 24 -62 26h-4q-32 -1 -66 -31q-36 -32 -64 -95q-38 -85 -52 -179q-12 -81 -13 -156q1 -13 1 -26q2 -88 8 -173 q4 -55 3 -113q0 -32 -1 -64q-3 -92 -24 -168q-22 3 -65 6t-64 6q-9 86 -9 233v17q0 32 1 61q0 117 -2 193q-12 402 -12 612z" />
<glyph unicode="o" d="M68 596q1 132 45 223q52 102 138 202.5t173 152.5q18 5 36 5q42 -1 88 -25q68 -36 121.5 -97t94 -127.5t53.5 -116.5q19 -88 27 -177q4 -49 3 -101q0 -41 -2 -85q-6 -96 -40 -183t-94 -146q-55 -59 -127 -95t-144 -43q-12 -1 -23 -1q-61 0 -119 30q-70 36 -114 115 q-52 89 -84 213q-32 120 -32 248v8zM284 638q-1 -24 -1 -49q-1 -87 11 -171q14 -108 44 -174q32 -71 70 -100q27 -21 53 -20q11 0 21 3q36 12 67.5 53.5t52.5 106.5q37 101 37 244q0 82 -12 178q-1 13 -3.5 43.5t-4.5 48.5t-7 46t-11.5 45.5t-18.5 38t-27.5 31t-39 17 t-52.5 4.5l-21 -6q-73 -34 -113.5 -130.5t-44.5 -208.5z" />
<glyph unicode="p" horiz-adv-x="854" d="M27 1073q7 1 39 6t55 8t50.5 0t41.5 -14q18 -13 24 -42t6.5 -68t4.5 -56q30 76 90 130t135 64q11 1 21 1l129 -51q73 -63 117.5 -155t57.5 -193q10 -68 10 -136q0 -32 -2 -65q-7 -99 -32 -195q-25 -113 -69.5 -188t-133.5 -117q-57 -25 -115 -25q-35 0 -71 9 q-94 25 -143 116q22 -119 22 -263t-22 -263q-15 0 -44.5 -2.5t-55 -2.5t-48.5 5q0 42 -3 131.5t-3 134.5q0 339 -10 766q0 42 -3 127t-3 127zM236 291q23 -81 67 -128q39 -41 88 -41h13q58 7 110 77q97 126 109 397q1 12 1 25q0 37 -5 73q-6 48 -22 96.5t-48.5 81 t-79.5 39.5q-17 15 -34 15q-50 0 -103 -134q-61 -154 -90 -364q-9 -67 -9 -105q0 -21 3 -32z" />
<glyph unicode="q" horiz-adv-x="897" d="M60 423q-3 42 -3 84q0 78 10 155q15 118 50 200q76 189 284 260q40 16 70 17t53 -10t41 -25.5t46 -33.5t57 -30l18 -16q-6 35 -6 63q0 46 16 72q26 -11 53.5 -16t41.5 -7t27 -16t22 -45q8 -29 8 -68t-2 -84q-2 -32 -2 -55v-16q11 -90 11 -193.5t-5.5 -231.5t-5.5 -198 q0 -38 2 -145q1 -80 1 -133q0 -17 -1 -32q0 -58 -6 -144t-19 -154q-13 -67 -38 -88q-19 -16 -64 -16q-15 0 -33 2q-59 13 -72 35t-16 90q-2 25 -2 55q0 92 19 230q25 182 28 229q-32 -79 -103 -122q-69 -40 -146 -40h-8q-81 2 -148 43q-79 49 -124.5 156t-53.5 228zM281 369 v-16q0 -32 6 -65q8 -41 21.5 -75t45.5 -54q28 -18 68 -18h8q39 1 71.5 22.5t55 57.5t39.5 75.5t28 88t17 82t10 70.5q5 50 5 96q0 72 -12 131q-21 98 -89 186l18 -28q-48 50 -90 50q-71 0 -124 -139q-55 -143 -74 -358q-1 -19 -2 -33q0 -33 -2 -73z" />
<glyph unicode="r" horiz-adv-x="526" d="M29 1092q89 33 129 33q15 0 22 -5q26 -12 32 -44q3 -15 3 -36q1 -22 -3 -50q-6 -54 -7 -62q21 95 119 162q72 49 141 49q25 0 49 -6q-3 -25 -5 -72.5t-6.5 -86.5t-17.5 -69q-41 39 -80 43q-6 1 -12 0q-31 0 -56 -20q-29 -24 -53.5 -60t-40.5 -82.5t-25.5 -87t-12.5 -71.5 q-6 -49 -6 -127q0 -80 6 -188q5 -87 5 -153q0 -101 -11 -159q-10 1 -31 2t-31 2t-26.5 3.5t-25.5 7t-19.5 11.5t-17 17.5t-9.5 24.5z" />
<glyph unicode="s" horiz-adv-x="714" d="M29 811v11q0 80 56 175q60 102 132 138q35 17 75 21q22 3 41 3q15 1 29 -1q32 -4 74 -18.5t66.5 -26t66.5 -32.5l13 -6q-13 -68 -13 -194q-36 45 -103 71q-45 17 -90 17l-44 -5q-67 -12 -92 -71q-9 -18 -9 -38t7 -39.5t20.5 -41t30 -41t37.5 -40.5t41.5 -39t43.5 -37 t42 -33.5t38.5 -30t30.5 -25.5q31 -31 43.5 -44t35 -39t30 -41t17.5 -40t10 -47t-5.5 -50.5t-17.5 -61.5q-43 -112 -125 -161q-77 -46 -187 -46h-14q-174 0 -211 25q-18 13 -26.5 43t-13 74t-7.5 59q121 -51 204 -50q62 0 103 27q61 46 69 118q2 14 2 29q-1 57 -27 109 q-32 64 -87 103q-25 18 -68.5 42t-77 43.5t-67 46t-53 63t-20.5 81.5z" />
<glyph unicode="t" horiz-adv-x="694" d="M32.5 1165q-1.5 21 1 38t8.5 44t7 31q23 0 85 -5q44 -4 68 -4q9 0 15 1q27 170 27 260q45 0 135 -12q15 -54 15 -121t-15 -119q26 -1 59 0t55.5 2t48 0t41.5 -5.5t30 -15.5t19 -29t4 -46.5t-11 -67.5q-81 14 -226 25q-5 -71 -7 -155t-2 -142t0.5 -158.5t0.5 -146.5v-29 q1 -27 0 -55.5t1.5 -57t6 -56t12 -51.5t19.5 -43.5t29 -32t41 -17.5t55 1t70 23q-2 -17 -4 -53.5t-5.5 -56.5t-12.5 -45t-29 -39.5t-52 -20.5q-20 -5 -41 -5q-50 0 -98 30q-68 42 -121 112q-27 43 -45 110t-26 125q-8 60 -10 148q-1 59 -1 97v34q1 43 4 121q2 44 33 344 q-24 6 -57 2q-26 -3 -53 -2h-17q-36 1 -47 13q-9 9 -10.5 30z" />
<glyph unicode="u" horiz-adv-x="843" d="M45 479q-3 39 -3 95q0 90 8 226q8 120 8 209q0 73 -5 124l37 8q0 3 17.5 8.5t40 7.5t42.5 -4q21 -8 31.5 -15.5t13.5 -20t2 -22t-5 -32.5t-5 -41q-6 -97 -10 -282t-6 -228q0 -10 -0.5 -42.5t0.5 -47.5t2 -46t4.5 -48.5t11 -42.5t17.5 -41t26 -31.5t37 -24.5 q32 -16 62 -16q39 0 75 28q62 49 97 134q28 74 39 172q8 74 8 142v43q-4 87 -5 185v39q0 75 3 136q1 8 2 22.5t1 19t1.5 14t3 12t4.5 8.5t6 7.5t9.5 6t13 6.5t16.5 6q10 2 25 2q18 -1 40 -3q44 -6 54 -19q24 -22 30 -94q4 -45 4 -86q0 -26 -2 -50q-2 -28 -2 -53q0 -31 3 -55 q1 -41 1 -91q0 -150 -9 -384q-12 -312 -13 -357q-69 -19 -123 -19q-28 0 -51 5q-5 22 -7 50t-2 48t0.5 55t0.5 50q-30 -18 -57.5 -47t-47 -53t-43.5 -46t-58 -32q-22 -7 -48 -7q-15 0 -31 2q-38 5 -69.5 17t-54.5 28.5t-42.5 42t-32 49t-22.5 57.5t-16 60.5t-10.5 65.5 t-6.5 64.5t-5 65t-5 60.5z" />
<glyph unicode="v" horiz-adv-x="817" d="M23 1153q4 0 71.5 -5.5t100.5 -12.5q77 -319 102 -459q7 -35 24.5 -85t34.5 -90.5t33 -92.5q15 -51 19 -90q1 -11 1 -22q0 -29 -6 -63q184 563 191 920q28 -16 66.5 -24.5t64 -9.5t72.5 -1q-39 -88 -65.5 -195.5t-39 -194.5t-32 -202t-42.5 -200q-10 -43 -72 -132.5 t-71 -107.5q-8 -14 -17 -24.5t-17 -18t-22 -14t-21 -9.5t-25.5 -7t-25.5 -5t-31 -4t-31 -4z" />
<glyph unicode="w" horiz-adv-x="1454" d="M33 1120l153 41q25 -8 39 -36.5t25 -75.5t16 -60q35 -108 66 -264q5 -23 28 -199.5t56 -255.5q34 114 102 371t88 342q4 37 9.5 56t20 32.5t30.5 18.5t53 15l12 3q15 -65 23.5 -129t17.5 -105q114 -366 150 -583q58 440 208 858q32 12 53 4t39 -6t26.5 -15.5t16 -23.5 t7.5 -29.5t0.5 -34.5t-4.5 -38t-8 -40.5t-10 -41.5q-13 -54 -17 -78q-97 -544 -246 -844q-29 7 -63 12t-47 7.5t-29 13.5t-25.5 32t-19.5 60q-28 95 -82.5 361.5t-54.5 367.5v-16q0 -94 -21 -206q-23 -122 -47 -203t-74.5 -229t-66.5 -200q-30 -5 -54 -5q-38 0 -60 12 q-36 19 -48 85q-27 150 -69 316.5t-107 399.5t-86 310z" />
<glyph unicode="x" horiz-adv-x="800" d="M23 18q11 39 39.5 97t59 111.5t63.5 118.5t54 119t31 114q4 23 4 43q0 32 -10 57q-23 61 -99 213t-95 223l4 12q31 0 93 3.5t91 3.5q14 -35 43 -99.5t45.5 -103t35.5 -97t30 -114.5q35 61 67.5 137t69.5 174t57 146q16 -6 50 -22.5t63.5 -26.5t58.5 -13q-25 -27 -48 -64 t-36 -64.5t-33.5 -75t-29.5 -66.5q-9 -17 -66.5 -102.5t-64.5 -116.5q-1 -7 -1 -14q1 -38 19 -93q22 -65 65 -156t48 -104q9 -19 25 -55.5t26 -58.5t26.5 -53t32.5 -56q-27 0 -81.5 -8t-69.5 -9q-23 70 -99 218.5t-98 234.5q1 -14 1 -28q0 -21 -2 -43q-4 -36 -19 -76.5 t-26.5 -68t-33.5 -74.5t-30 -64q-7 -15 -15 -35.5t-12 -29.5t-13 -20.5t-22 -17.5t-33 -10q-11 -2 -27 -2q-25 0 -61 6q-58 10 -77 10z" />
<glyph unicode="y" horiz-adv-x="821" d="M27 1124l217 -6q16 -51 94.5 -405t110.5 -418q74 364 141 846q42 -13 116.5 -23t100.5 -16q-58 -97 -95 -223.5t-68.5 -291t-53.5 -241.5q-110 -400 -324 -633q-8 -7 -20.5 -20.5t-21.5 -22.5t-21.5 -20.5t-23.5 -18t-24 -11t-27 -4t-28 6.5q-62 25 -62 98q0 32 11 72 q18 -3 36 -3q31 0 59 10q45 16 76 50t56 80t36.5 97t17.5 101q3 21 3 41q0 27 -5 50q-13 90 -54 196.5t-93 223.5t-75 190q-72 186 -79 295z" />
<glyph unicode="z" horiz-adv-x="815" d="M23 16q81 185 247.5 520t245.5 439q-47 19 -106 23q-25 2 -48 2q-32 0 -60 -4q-50 -6 -108 -6q-10 0 -21 -1q-47 0 -85 6l-10 109q-18 14 23 23q10 2 102 12q26 3 58 3t71 -1.5t59 -1.5q45 0 131 8t138 11q12 1 25 1q45 0 108 -8q-17 -35 -141.5 -250.5t-236.5 -429 t-134 -305.5q71 -3 216 -3t216 -3q-6 -47 -6 -144q-100 -8 -301 -8q-30 0 -116 -5q-62 -4 -113 -4q-19 0 -39 1q-66 2 -115 16z" />
<glyph unicode="{" horiz-adv-x="585" d="M14 807v102q32 4 67 -5.5t53 -17.5t32 2.5t18 49.5q12 82 0 246q-4 154 4 211q21 167 146 221q27 16 74.5 27t95 7t63.5 -28v-6q2 -7 2 -30t-1 -54t-1 -41q-120 183 -213 24q-61 -105 -89 -298q-6 -38 -7 -62q0 -34 22.5 -88t40 -105t7.5 -88q-9 -31 -22.5 -49t-26 -24.5 t-38 -18t-44.5 -22.5q31 -7 56.5 -22.5t43 -33.5t29.5 -46t19.5 -51t10.5 -59.5t4 -60.5t-1 -63.5t-3.5 -60t-5.5 -58.5q-2 -22 -9 -68q-7 -73 -11.5 -136t40.5 -98t146 -19q-3 -25 -6 -76.5t-6 -77.5q-19 6 -57 16.5t-57 16t-50.5 17t-48.5 22t-40.5 28t-36.5 38t-26 49 t-20 63.5q-13 64 -13.5 135.5t7 127t17 132t11.5 131.5q3 55 -20 112t-66.5 86t-89.5 3z" />
<glyph unicode="|" horiz-adv-x="241" d="M29 -25q-5 294 18 768q22 401 20 568q-2 173 -20 315l12 4l-20 6q97 35 156 13q6 -128 0 -250q-3 -46 4 -162.5t-4 -161.5q-6 -42 -7 -90.5t1 -85t5.5 -91t4.5 -87.5q5 -81 6 -167t-3.5 -183.5t-8 -165t-12 -184t-11.5 -168.5q-37 0 -52 0.5t-36 4t-27 10t-14.5 21 t-10 34.5t-1.5 52z" />
<glyph unicode="}" horiz-adv-x="585" d="M16 1586q0 23 2 30v6q16 24 64 28t95.5 -7t74.5 -27q60 -26 95.5 -76.5t44.5 -108t11.5 -123.5t-2.5 -124q-12 -164 0 -246q4 -39 18 -49.5t32 -2.5t53 17.5t67 5.5v-102q-46 26 -89.5 -3t-66.5 -86t-20 -112q2 -56 11.5 -132t17 -131.5t7.5 -127t-13 -135.5 q-7 -35 -20 -63.5t-26 -49t-36.5 -38t-40.5 -28t-48.5 -22t-50.5 -17t-57 -16t-57 -16.5q-3 26 -6 77.5t-6 76.5q32 -3 58 -5t45.5 5t34 13.5t23.5 21t15 27t8.5 32t2.5 36.5t-2 39.5t-4.5 41t-5.5 42.5q-7 46 -9 68q-4 38 -5.5 58.5t-3.5 60t-1 63.5t4 60.5t10.5 59.5 t19.5 51t29.5 46t43 33.5t56.5 22.5q-19 11 -44.5 22.5t-38 18t-26 24.5t-22.5 49q-10 37 7.5 88t40 105t22.5 88q-5 98 -43 226q-60 207 -146 207q-57 0 -121 -97q0 10 -1 41t-1 54z" />
<glyph unicode="&#xa1;" horiz-adv-x="315" d="M39 -57h20q6 17 20 53.5t23 64.5t13 58q9 69 10 146t-2.5 178t-3.5 149q0 16 -3 75.5t-0.5 101t13.5 75.5q14 46 40.5 53t82.5 -2q-6 -21 -8.5 -48t-2.5 -44.5t0.5 -50t0.5 -43.5q-11 -456 96 -746q-32 0 -141 -15.5t-158 -4.5zM41 1278q10 113 100.5 165.5t173.5 6.5 t74 -172q-7 -79 -48 -144.5t-110 -68.5q-17 -8 -69 0q-68 21 -98.5 80t-22.5 133z" />
<glyph unicode="&#xa2;" horiz-adv-x="837" d="M65.5 777q-5.5 110 38.5 206q25 52 56 102t75.5 107t97.5 90t105 29q0 33 3 100.5t3 101.5q-5 0 -9.5 2t-10 5t-8.5 4q4 0 13.5 1t14.5 1v4v-4q14 0 39 4.5t38.5 6.5t31.5 -3q30 -15 37.5 -26t5.5 -27.5t4 -48.5q8 -43 25 -65t40 -28t47 -8t53.5 -13.5t53.5 -37.5 q-15 -28 -39 -89.5t-37 -88.5q-19 11 -51.5 35t-54.5 38t-51.5 25t-60 4.5t-62.5 -30.5q-89 -69 -133 -254t-11 -295q17 -70 63.5 -123t106 -78t129.5 -15.5t130 56.5q5 -61 0.5 -111t-19.5 -84.5t-56 -51t-110 -9.5q3 -14 10 -49.5t10.5 -56.5t7 -50.5t3.5 -52.5 q-89 0 -118 9q-52 16 -66 69q-14 35 -4 99t36 85q-110 -28 -223 113q-67 83 -107.5 187.5t-46 214.5z" />
<glyph unicode="&#xa3;" horiz-adv-x="884" d="M18 53q349 361 334 695q-52 3 -150 -17t-136 -22q10 29 12 77.5t-6 77.5q26 4 52 0.5t50.5 -6t44.5 -3t34 9.5t17 32q8 40 -11 133.5t-13 134.5q10 77 34 141t64 115.5t102 80t140 28.5q166 0 227 -47v-174q-59 46 -127.5 52t-124 -22t-95.5 -85.5t-46 -129.5 q-5 -43 0.5 -131.5t21.5 -113.5q11 -21 39.5 -30t55 -9t71.5 3t62 3q3 -27 -1.5 -104.5t-4.5 -92.5q-134 70 -185 86q30 -44 37.5 -93t-1.5 -91t-33 -92.5t-48 -87t-56 -85t-48 -77.5q87 -41 260 -56t266 15q4 -31 -10 -93.5t-15 -74.5q-329 0 -495 18q-37 4 -104 7.5 t-119 9t-95 18.5z" />
<glyph unicode="&#xa4;" horiz-adv-x="980" d="M28 965q1 0 5 -4l-2 -7q-5 10 -3 11zM33 961l10 32q13 13 49 57t60 64q54 -40 131 -166q115 94 223.5 81.5t198.5 -132.5q74 132 124 205q18 -11 56 -39.5t59 -40.5q-13 -41 -54.5 -89t-84.5 -75q47 -65 54.5 -158t-17 -181t-70.5 -157q135 -124 182 -251 q-9 -5 -40.5 -28t-51.5 -30q-60 115 -125 172q-42 -51 -107 -83t-132 -37.5t-128.5 28t-93.5 105.5q0 -38 -20.5 -96.5t-48.5 -69.5q-11 -4 -35.5 3t-45 16.5t-48.5 24t-35 17.5q13 26 61.5 78.5t57.5 83.5q8 13 5.5 36.5t-6 37t-11.5 38t-11 39.5q-10 59 -10 123t19.5 132 t54.5 112q-16 18 -33 33.5t-44.5 38t-37.5 30.5q-34 34 -55 46zM363 704.5q-17 -119.5 16.5 -233t107.5 -143.5q127 -50 166 90q30 106 4 256q-9 52 -22 82q-33 75 -87 112t-118 6h6q-56 -50 -73 -169.5z" />
<glyph unicode="&#xa5;" d="M20 1524h19q22 0 64 5.5t74 5.5t56 -11q18 -86 68 -202t90 -225t45 -206q39 69 69 161.5t46 167t44.5 158.5t66.5 142q26 -11 65.5 -11t87.5 5.5t66 5.5q-50 -72 -91 -160.5t-84.5 -201.5t-68.5 -167q-10 -21 -25 -42.5t-25.5 -34t-18 -25t-5 -20.5t16 -16t41.5 -15 q37 -11 120 -11.5t99 -1.5q-12 -21 -24 -48.5t-17 -36.5t-18 -20t-32 -14.5t-53 -5.5q-134 0 -219 13q-60 10 -135 12t-135 -0.5t-139 0.5q-12 85 -7 123q146 -19 269 -10q-120 151 -191 354q-11 28 -56 164.5t-63 167.5zM71 472.5q0 14.5 2 41.5t1 43q76 -1 230 2t276 0.5 t229 -18.5q9 -57 0 -101q-259 11 -297 11q38 -180 6 -445q-39 -4 -172 -4q1 7 6.5 63t7 73t5 65.5t4 75t0 64t-3.5 67.5q-26 5 -84 0t-97.5 -7t-79.5 13q-17 10 -25 26t-8 30.5z" />
<glyph unicode="&#xa6;" horiz-adv-x="256" d="M42 43q0 24 5 82t6 76q0 11 -1 65.5t-1 110t3 115.5t12.5 101.5t25.5 49.5q7 4 20 5t26 0t25 -1.5t19 1t6 7.5l23 -34q3 1 5.5 -22t4 -63.5t2 -86t0.5 -99v-92.5v-76v-41q-2 -26 -2 -78.5t-3.5 -94t-14.5 -74.5q-39 8 -125 8q-19 35 -27.5 76t-8.5 65zM42 1005q0 24 5 82 t6 76q0 11 -1 65.5t-1 110.5t3 116t12.5 101.5t25.5 49.5q7 4 20 5t26 0t25 -1.5t19 1t6 7.5l23 -35q3 1 5.5 -22t4 -63.5t2 -86t0.5 -98.5v-92v-76v-41q-2 -26 -2 -79t-3.5 -94.5t-14.5 -74.5q-39 8 -125 8q-19 35 -27.5 76t-8.5 65z" />
<glyph unicode="&#xa7;" horiz-adv-x="790" d="M29 784q-3 39 3.5 90.5t22.5 106t51 90.5t82 35q-52 65 -65.5 141t20 147t113.5 111q64 34 201.5 24.5t197.5 -50.5l-4 -4q4 -9 5 -28.5t0 -51.5t-1 -39q-54 57 -173 40q-107 -14 -178 -74q-78 -65 -39 -136q14 -25 44 -49q34 -28 92 -48t117 -41t96 -51q53 -41 88 -106 t48 -137q14 -82 -14.5 -143.5t-94.5 -116.5q56 -94 43.5 -212.5t-96.5 -197.5q-41 -40 -88.5 -60.5t-100.5 -21.5t-95.5 4t-105 16.5t-98.5 14.5q-5 29 -10 88t-10 88q63 -24 107.5 -35.5t100.5 -11t109 19.5q74 30 101 94t-19 136q-16 25 -51 46t-61.5 30.5t-78.5 24 t-63 18.5q-99 32 -146 88.5t-50 160.5zM187 892q-1 -15 5 -31t11 -25.5t17 -28.5q3 -5 5 -8q94 -136 187 -181q25 -15 53 -21.5t56 -4t50.5 21t32.5 52.5q9 39 -15 82t-52 69t-70 60q-3 2 -4.5 3.5t-3.5 2.5q-129 107 -203 125l-61 -84q-7 -17 -8 -32z" />
<glyph unicode="&#xa8;" horiz-adv-x="1040" d="M201 1481q-9 44 0 59q1 40 31 71t68.5 45.5t80.5 18.5q107 8 146 -63t-5 -148t-141 -86q-63 -6 -112.5 19.5t-67.5 83.5zM753 1612q39 71 146 63q42 -4 80.5 -18.5t68.5 -45.5t31 -71q9 -15 0 -59q-18 -58 -67.5 -83.5t-112.5 -19.5q-97 9 -141 86t-5 148z" />
<glyph unicode="&#xa9;" horiz-adv-x="1746" d="M43 682q-2 141 18.5 257.5t70.5 223t137.5 194t213.5 154.5q12 2 32 4.5t75 8t103.5 8.5t101.5 3.5t84 -5.5q174 -15 294.5 -66.5t210.5 -173.5q144 -192 144.5 -419t-152.5 -441q-19 -26 -37 -48.5t-31 -38t-33.5 -35t-29.5 -28.5t-35 -30t-34 -27.5t-43 -33t-46 -35.5 q-112 -87 -244 -111t-268 31q-76 33 -124.5 55.5t-110 57t-99.5 66t-79 77t-64 95t-38.5 115t-16.5 142.5zM141 817q-12 -109 32.5 -240.5t136 -239t200.5 -142.5q86 -28 174.5 -28.5t169.5 22.5t157.5 66t140 101t114.5 129t84 148.5t46 161t3.5 164.5t-47.5 162.5 t-103 150.5q-16 18 -36.5 34t-37.5 28.5t-45 24.5t-43 19.5t-49.5 17t-46 13t-51.5 11.5l-47.5 9.5t-51 9t-46.5 7.5q-49 10 -176 -5q-120 -15 -113 -35q1 -3 4 -5q-7 -3 -18.5 -9t-46 -29.5t-66.5 -52t-72.5 -78t-72 -106t-57.5 -138t-36 -171.5zM341.5 883.5 q5.5 68.5 21 130.5t49 115t78 91.5t108 60.5t139.5 22q102 0 310 -52q3 -22 14 -71l20 -6q-12 4 -18 4q9 -39 10 -43q-68 22 -144 37.5t-164.5 21.5t-162.5 -16.5t-110 -75.5q-50 -73 -62 -179t23 -190q11 -30 25 -53t34 -40t37 -28t45 -20.5t46 -14.5t51.5 -13t51.5 -13 q22 -5 71.5 -19t68.5 -17t54.5 -6t67 5t68.5 25q8 -51 8 -162q-72 -9 -136 -12t-135 1.5t-130.5 18.5t-116.5 42.5t-99.5 70t-73 104.5t-42.5 143q-12 70 -6.5 138.5z" />
<glyph unicode="&#xab;" horiz-adv-x="976" d="M23 553q25 40 48.5 80t51.5 91.5t41 76.5t47.5 92t42.5 82l278 14q-59 -40 -106.5 -96.5t-73.5 -107t-65 -120t-76 -118.5q185 -222 360 -383q-40 3 -87.5 -2t-110.5 -16.5t-86 -14.5q-125 269 -264 422zM406 553q62 100 233 422q163 37 219 6l55 8q-59 -40 -105.5 -96.5 t-73 -107t-65.5 -120.5t-75 -118q192 -230 358 -383q-39 3 -85.5 -2t-111 -16.5t-85.5 -14.5q-130 271 -264 422z" />
<glyph unicode="&#xad;" horiz-adv-x="526" d="M27 590l34 22q-1 3 3.5 5t14 3t20.5 2t25.5 2t28 1h30h28h25h18.5q25 -2 78.5 -2t95 -4t74.5 -15q-8 -39 -8 -125q-28 -16 -56.5 -24.5t-60.5 -9.5t-55.5 0t-63.5 5t-63 5q-13 0 -36 -1t-38 -1t-32.5 3t-29.5 12.5t-20 25.5q-4 7 -5 20t0 26t1.5 25t-1 19t-7.5 6z" />
<glyph unicode="&#xae;" horiz-adv-x="884" d="M53 1202q6 69 40 141.5t96.5 127t134.5 51.5q13 2 35 5.5t84 4t115.5 -9t113.5 -40.5t94 -83q71 -119 57 -242t-100 -237q-45 -60 -98 -94t-114 -41.5t-120.5 0.5t-134.5 30q-67 20 -111 57.5t-64.5 90.5t-26.5 110t-1 129zM136 1221q-11 -64 2.5 -131.5t48.5 -121 t95 -88t134 -34.5q64 0 121 33.5t96 86.5t60 119.5t19 130.5t-33.5 122t-90.5 92q-38 21 -82 28.5t-80.5 3.5t-67 -11t-48.5 -14l-17 -7q-65 -31 -105.5 -88t-51.5 -121zM259.5 1208.5q-0.5 48.5 13.5 102.5t46 75q70 44 146 10t89 -99.5t-50 -125.5q6 -10 27 -43 t29.5 -48.5t20 -42t15.5 -50.5q-22 -17 -37 -15t-30.5 17t-27 37t-26.5 46t-30 43t-36.5 28.5t-46.5 3.5l-12 18q3 -17 5 -29t4 -33t1.5 -35.5t-2 -32t-8.5 -28t-16.5 -18t-26 -6.5t-37.5 10q0 21 -5 94t-5.5 121.5zM350 1227q15 -11 44.5 -16t57 7t27.5 46q0 23 -18.5 33.5 t-40 9t-40 -1.5t-18.5 2z" />
<glyph unicode="&#xb1;" horiz-adv-x="1060" d="M41 1028.5q0 11.5 2 28.5t9 23.5t19.5 14t32.5 9t50 0.5q21 -1 113.5 -7.5t113 -6t113.5 3.5q0 44 4.5 197.5t1.5 236.5v16q4 5 64.5 10t94.5 5l-10 -480q56 -18 120.5 -21t146 1.5t122.5 3.5q5 -80 -13.5 -103t-94.5 -26q-6 0 -56 -4t-70 -4.5t-59 0.5t-67.5 8t-52.5 20 q12 -32 17 -73.5t5 -66.5t-3.5 -80t-4.5 -68q-3 -26 -1 -54t-1 -53.5t-10 -45t-26.5 -29.5t-51.5 -5q-45 5 -67 44t-22.5 98t5.5 117.5t13 118.5t5 85q-69 3 -220 -0.5t-220 0.5q0 19 -1 47t-1 39.5zM45 139l35 23q-1 3 34.5 5.5t96 4t129 2t147 0.5h135.5h109h53 q26 -2 79 -2t94.5 -3.5t74.5 -14.5q-8 -39 -8 -125q-35 -19 -76 -27.5t-65 -8.5t-82 5t-76 6q-11 0 -89 -1t-166.5 -1t-182 3t-158 12.5t-72.5 25.5q-4 7 -5 20t0 26t1.5 25t-1 19t-7.5 6z" />
<glyph unicode="&#xb4;" horiz-adv-x="231" d="M39 1786q124 -10 164 0q-59 -303 -4 -436q-54 5 -68 10l12 8q-63 69 -91.5 194t-12.5 224z" />
<glyph unicode="&#xb5;" horiz-adv-x="729" d="M29 1112q0 4 31 15t64.5 13.5t55.5 -16.5q10 -12 10 -55t-5 -96t-5 -62q3 -55 3.5 -201t10 -255.5t39.5 -192.5q21 -56 56 -74.5t73 -2.5t73.5 46.5t64.5 71.5q27 44 42 89t17.5 95.5t1 90t-7 102t-6.5 100.5q0 14 -2 68t-2.5 93t5 84t17.5 67q17 34 43.5 41t77.5 2 q0 -49 12.5 -153.5t12.5 -160.5q0 -62 -2 -118.5t-8.5 -136.5t-17.5 -147t-32 -140t-48.5 -126.5t-70 -96t-94 -58t-122.5 -3t-154 59.5q63 -174 71 -469q-23 -1 -49 -5.5t-41 -7.5t-31 -2.5t-25 7.5t-17 23.5t-13 44.5z" />
<glyph unicode="&#xb6;" horiz-adv-x="839" d="M41 1000q-10 119 22 231q34 94 118.5 163.5t188 101.5t215.5 31.5t203 -36.5q11 -8 13.5 -45.5t-0.5 -75t-8 -63.5q-16 -165 -18 -363.5t4.5 -358.5t12 -367t1.5 -361q-127 -5 -150 145q-11 122 -8 195t11.5 195.5t8.5 189.5q7 186 7 800q-52 0 -95 15q-2 -30 -11 -106.5 t-11 -119.5q-15 -138 -12 -258t9.5 -259t12.5 -259.5t-3 -258t-36 -255.5q-4 0 -51.5 4t-71.5 9q-4 38 -4 81.5t2 96.5t2 82q0 18 5 66t9.5 91t3.5 85.5t-12 58.5q-9 19 -77 47.5t-84 44.5q-91 74 -146 225q-41 109 -51 228z" />
<glyph unicode="&#xb7;" horiz-adv-x="411" d="M27 639q-8 74 22 133t98 80q53 8 70 0q69 -3 110 -68.5t48 -144.5q9 -126 -74 -172t-173.5 6.5t-100.5 165.5z" />
<glyph unicode="&#xb8;" horiz-adv-x="397" d="M16 -440q9 46 36 105.5t54 92.5q-2 -41 27 -63t65.5 -12.5t53.5 47.5q14 30 -2 65t-50 52.5t-65 0.5q12 17 36 73.5t42 72.5l-6 4q1 -1 12.5 -2t28 -4t28.5 -6q-22 -54 -40 -86q61 -16 90 -65t21.5 -105.5t-46.5 -96.5q-65 -63 -131 -81t-154 8zM207 -2z" />
<glyph unicode="&#xbb;" horiz-adv-x="976" d="M25 164q166 153 358 383q-36 48 -75 118t-65.5 120.5t-73.5 107t-106 96.5l56 -8q56 31 219 -6q171 -322 233 -422q-134 -151 -264 -422q-21 3 -85.5 14.5t-111 16.5t-85.5 2zM406 164q175 161 360 383q-37 49 -76 118.5t-65.5 120t-74 107t-106.5 96.5l279 -14 q8 -15 42.5 -82t47.5 -92t41 -76.5t51.5 -91.5t48.5 -80q-139 -153 -264 -422q-23 3 -86 14.5t-110.5 16.5t-87.5 2z" />
<glyph unicode="&#xbf;" horiz-adv-x="524" d="M-112.5 210.5q5.5 49.5 20.5 113.5q18 71 75 191t74 167q11 33 16.5 74.5t6 65.5t-0.5 79.5t-1 71.5q15 0 56 3t71.5 1.5t56.5 -10.5q-6 -47 -7 -138t-3 -127q-7 -91 -35 -149.5t-92 -128.5q-100 -110 -74 -227q16 -65 75 -93.5t127.5 -20t119.5 43.5q4 -15 10 -60 t14 -67l2 -4l-2 -2q2 0 2 -4l-2 4q-76 -49 -143.5 -62.5t-155.5 0.5q-68 11 -113 36.5t-67.5 60t-29 83.5t-1 98.5zM-8 1331.5q8 36.5 31 66.5t56 45.5t76.5 11t86.5 -33.5q42 -29 61.5 -89t5.5 -118.5t-61 -78.5q-26 -24 -67.5 -19.5t-80 23t-59.5 39.5q-33 34 -45 75.5 t-4 78zM389 16q0 -8 6 -14z" />
<glyph unicode="&#xc0;" d="M25 18q36 63 54 144.5t30.5 186t23.5 157.5q27 135 95 380.5t91 344.5q14 48 36.5 149.5t37.5 149.5q45 -33 199 -33q-5 -138 24.5 -287.5t93 -357t81.5 -279.5q49 -187 118 -555q-28 7 -60.5 7t-72 -3.5t-59.5 -3.5q-7 42 -46.5 201t-39.5 240q-34 11 -156 7.5 t-156 -1.5q-6 -25 -34 -171t-52 -220q-3 -11 -5.5 -21.5t-4.5 -16.5t-2.5 -11.5t-3.5 -7.5t-3.5 -4.5t-7 -3t-10 -1t-15.5 -1t-21 -1.5q-16 -3 -39 1t-33.5 6.5t-17.5 -1.5zM326 606l39 -4q0 9 20.5 12t53 0.5t65.5 -6.5t65 -8t45 -4q-13 37 -39.5 207.5t-55 310 t-52.5 139.5q-12 -113 -70 -326.5t-71 -320.5zM334 1630q68 127 43 434q45 -16 162 -16q6 -100 -35.5 -221.5t-112.5 -184.5l12 -8q-18 -4 -69 -4z" />
<glyph unicode="&#xc1;" d="M25 18q36 63 54 144.5t30.5 186t23.5 157.5q27 135 95 380.5t91 344.5q14 48 36.5 149.5t37.5 149.5q45 -33 199 -33q-5 -138 24.5 -287.5t93 -357t81.5 -279.5q49 -187 118 -555q-28 7 -60.5 7t-72 -3.5t-59.5 -3.5q-7 42 -46.5 201t-39.5 240q-34 11 -156 7.5 t-156 -1.5q-6 -25 -34 -171t-52 -220q-3 -11 -5.5 -21.5t-4.5 -16.5t-2.5 -11.5t-3.5 -7.5t-3.5 -4.5t-7 -3t-10 -1t-15.5 -1t-21 -1.5q-16 -3 -39 1t-33.5 6.5t-17.5 -1.5zM326 606l39 -4q0 9 20.5 12t53 0.5t65.5 -6.5t65 -8t45 -4q-13 37 -39.5 207.5t-55 310 t-52.5 139.5q-12 -113 -70 -326.5t-71 -320.5zM373 2064q124 -10 164 0q-59 -305 -5 -436q-53 5 -67 10l12 9q-63 69 -91.5 193.5t-12.5 223.5z" />
<glyph unicode="&#xc2;" d="M25 18q36 63 54 144.5t30.5 186t23.5 157.5q27 135 95 380.5t91 344.5q14 48 36.5 149.5t37.5 149.5q45 -33 199 -33q-5 -138 24.5 -287.5t93 -357t81.5 -279.5q49 -187 118 -555q-28 7 -60.5 7t-72 -3.5t-59.5 -3.5q-7 42 -46.5 201t-39.5 240q-34 11 -156 7.5 t-156 -1.5q-6 -25 -34 -171t-52 -220q-3 -11 -5.5 -21.5t-4.5 -16.5t-2.5 -11.5t-3.5 -7.5t-3.5 -4.5t-7 -3t-10 -1t-15.5 -1t-21 -1.5q-16 -3 -39 1t-33.5 6.5t-17.5 -1.5zM205 1657q45 24 84.5 78t62.5 100.5t55.5 78t69.5 21.5q19 -5 33.5 -13.5t26 -25.5t17.5 -28.5 t17.5 -38t16.5 -37.5q7 -12 22 -42t24.5 -47t27.5 -38t38 -33q-10 0 -40.5 -2.5t-52 -3t-46.5 6t-37 22.5q-21 32 -53 205q-26 -33 -38.5 -60.5t-15 -44t-5 -50.5t-6.5 -60q-22 12 -64 14t-85 -0.5t-52 -1.5zM326 606l39 -4q0 9 20.5 12t53 0.5t65.5 -6.5t65 -8t45 -4 q-13 37 -39.5 207.5t-55 310t-52.5 139.5q-12 -113 -70 -326.5t-71 -320.5z" />
<glyph unicode="&#xc3;" d="M25 18q36 63 54 144.5t30.5 186t23.5 157.5q27 135 95 380.5t91 344.5q14 48 36.5 149.5t37.5 149.5q45 -33 199 -33q-5 -138 24.5 -287.5t93 -357t81.5 -279.5q49 -187 118 -555q-28 7 -60.5 7t-72 -3.5t-59.5 -3.5q-7 42 -46.5 201t-39.5 240q-34 11 -156 7.5 t-156 -1.5q-6 -25 -34 -171t-52 -220q-3 -11 -5.5 -21.5t-4.5 -16.5t-2.5 -11.5t-3.5 -7.5t-3.5 -4.5t-7 -3t-10 -1t-15.5 -1t-21 -1.5q-16 -3 -39 1t-33.5 6.5t-17.5 -1.5zM180 1776.5q2 38.5 21 69.5t53 40q28 7 61 -10t69 -45.5t54 -36.5q77 -36 164 -16q0 22 -3 68.5 t-3 72.5q16 -6 35.5 -6.5t33 1t35.5 6t33 5.5q11 -33 11 -76.5t-11 -85.5t-33 -76t-55 -47.5t-78 0.5q-17 6 -39.5 19.5t-48.5 30.5q-21 14 -32 21t-30 18t-28.5 13t-22.5 3.5t-18.5 -6.5t-10 -21t-3 -37t7.5 -57q-20 0 -65 6t-68 6h-4q-14 27 -20.5 64.5t-4.5 76zM326 606 l39 -4q0 9 20.5 12t53 0.5t65.5 -6.5t65 -8t45 -4q-13 37 -39.5 207.5t-55 310t-52.5 139.5q-12 -113 -70 -326.5t-71 -320.5z" />
<glyph unicode="&#xc4;" d="M23 18q36 63 54 144.5t30.5 186t23.5 157.5q27 135 95 380.5t91 344.5q15 48 37 149.5t37 149.5q45 -33 199 -33q-4 -107 17 -236t48.5 -226.5t70 -240t62.5 -221.5q52 -201 119 -555q-28 7 -60.5 7t-72 -3.5t-59.5 -3.5q-7 42 -46.5 201t-39.5 240q-34 11 -156 7.5 t-156 -1.5q-6 -25 -34 -171t-52 -220q-3 -11 -5.5 -21.5t-4.5 -16.5t-2.5 -11.5t-3.5 -7.5t-3.5 -4.5t-7 -3t-10 -1t-15.5 -1t-21 -1.5q-16 -3 -39 1t-33.5 6.5t-17.5 -1.5zM66 1759q-9 44 0 60q1 40 31 71t68.5 45.5t80.5 18.5q107 8 146 -63t-5 -148t-141 -86 q-63 -6 -112.5 19t-67.5 83zM324 606l38 -4q0 9 20.5 12t53 0.5t66 -6.5t65.5 -8t45 -4q-13 37 -39.5 207.5t-55 310t-52.5 139.5q-12 -113 -70 -326.5t-71 -320.5zM618 1891q39 71 146 63q42 -4 80.5 -18.5t68.5 -45.5t31 -71q9 -16 0 -60q-18 -58 -67.5 -83t-112.5 -19 q-97 9 -141 86t-5 148z" />
<glyph unicode="&#xc5;" d="M25 18q36 63 54 144.5t30.5 186t23.5 157.5q27 135 95 380.5t91 344.5q14 48 36.5 149.5t37.5 149.5q45 -33 199 -33q-5 -138 24.5 -287.5t93 -357t81.5 -279.5q49 -187 118 -555q-28 7 -60.5 7t-72 -3.5t-59.5 -3.5q-7 42 -46.5 201t-39.5 240q-34 11 -156 7.5 t-156 -1.5q-6 -25 -34 -171t-52 -220q-3 -11 -5.5 -21.5t-4.5 -16.5t-2.5 -11.5t-3.5 -7.5t-3.5 -4.5t-7 -3t-10 -1t-15.5 -1t-21 -1.5q-16 -3 -39 1t-33.5 6.5t-17.5 -1.5zM301 1817q-8 74 22 132.5t99 80.5q51 8 70 0q69 -3 109.5 -68t47.5 -145q9 -125 -74 -171t-173.5 6 t-100.5 165zM326 606l39 -4q0 9 20.5 12t53 0.5t65.5 -6.5t65 -8t45 -4q-13 37 -39.5 207.5t-55 310t-52.5 139.5q-12 -113 -70 -326.5t-71 -320.5zM385 1825q5 -59 52 -86t90 -3t38 89q-3 39 -25 73t-57 35q-9 4 -34 0q-36 -12 -52.5 -41.5t-11.5 -66.5z" />
<glyph unicode="&#xc6;" horiz-adv-x="1181" d="M18 35q67 143 122.5 317.5t111.5 385t94 325.5q10 32 44 182.5t69 216.5q12 21 48 36t95.5 22t113.5 11t132.5 3.5t120.5 -1.5t109.5 -4t68.5 -3q0 -25 -8.5 -77.5t-8.5 -80.5q-37 0 -183 4t-183 0q0 -73 9.5 -245.5t6.5 -268.5q38 17 95 16.5t101 -6t99 8.5 q-3 -29 -25.5 -83t-25.5 -81q-140 0 -227 -13q-9 -60 -6.5 -242.5t18.5 -213.5q13 -28 56 -38.5t94 -8t106 2t94 -6.5q-2 -28 -16.5 -89t-16.5 -92q-63 1 -153 -6t-161.5 -5t-149.5 22q-48 246 -39 493q-30 9 -84 4.5t-86 -16.5q-49 -21 -68 -41.5t-51 -83.5 q-21 -45 -37.5 -97.5t-24.5 -87t-20 -99t-19 -95.5q-126 12 -186 12zM385 655v7q170 0 238 -23q-20 34 -28 192t-6.5 293t5.5 260q-4 -40 -37.5 -158t-75.5 -254.5t-51 -168.5q-4 -15 -17 -50.5t-22 -63t-6 -34.5z" />
<glyph unicode="&#xc7;" horiz-adv-x="749" d="M44 647q3 85 10.5 171t29 174.5t51 165.5t77 144.5t105.5 110.5q44 29 98.5 55t125 49t132.5 14t95 -56v-23q5 -22 6.5 -44.5t0.5 -59.5t-1 -45q-127 40 -226 4t-163 -117.5t-96 -200.5q-50 -204 -59 -305q-27 -290 143 -410q29 -19 82 -30t95.5 -14t109 -4.5t85.5 -2.5 q-18 -108 -18 -223h-53.5h-55t-49 1t-52.5 3.5t-47 6.5t-51 11t-46 16.5t-50 22.5t-47 29q-108 80 -161.5 174.5t-65.5 227.5q-8 70 -5 155zM172 -440q9 46 36 105.5t54 92.5q-2 -41 27 -63t65.5 -12.5t53.5 47.5q14 30 -2 65t-50 52.5t-65 0.5q12 17 36 73.5t42 72.5l-7 4 q1 -1 13 -2t28.5 -4t28.5 -6q-19 -47 -41 -86q61 -16 90.5 -65t22 -105.5t-46.5 -96.5q-65 -63 -131 -81t-154 8zM362 -2z" />
<glyph unicode="&#xc8;" horiz-adv-x="608" d="M69.5 1078.5q4.5 221.5 28.5 412.5v6h-12q19 2 147.5 19.5t202.5 13.5q7 0 56 4t84 1.5t51 -15.5q54 -42 16 -164q-298 -10 -364 -10q5 -60 -5 -194.5t-2 -199.5q5 -32 23 -52t44 -27t58 -10t64 -1t63 0q0 -102 -10 -147q-3 0 -20.5 1.5t-23.5 2t-23 2.5t-24.5 3t-23 3.5 t-24.5 4.5t-23 5t-23.5 6.5t-20 7.5t-19.5 9q-9 -272 -33 -529q121 30 291 -12q34 -10 55.5 -17.5t37 -18.5t23 -18t12.5 -24.5t6.5 -30t5 -42t7.5 -52.5q-45 -2 -151 13t-164 6q-17 -3 -55.5 -11.5t-59.5 -12t-52.5 -6t-59 2t-54.5 15.5q10 38 11 76t-4.5 96.5t-6.5 80.5 q-17 245 -25 413t-3.5 389.5zM193 1630q68 127 43 434q45 -16 161 -16q6 -100 -35 -221.5t-112 -184.5l12 -8q-18 -4 -69 -4z" />
<glyph unicode="&#xc9;" horiz-adv-x="608" d="M69.5 1078.5q4.5 221.5 28.5 412.5v6h-12q19 2 147.5 19.5t202.5 13.5q7 0 56 4t84 1.5t51 -15.5q54 -42 16 -164q-298 -10 -364 -10q5 -60 -5 -194.5t-2 -199.5q5 -32 23 -52t44 -27t58 -10t64 -1t63 0q0 -102 -10 -147q-3 0 -20.5 1.5t-23.5 2t-23 2.5t-24.5 3t-23 3.5 t-24.5 4.5t-23 5t-23.5 6.5t-20 7.5t-19.5 9q-9 -272 -33 -529q121 30 291 -12q34 -10 55.5 -17.5t37 -18.5t23 -18t12.5 -24.5t6.5 -30t5 -42t7.5 -52.5q-45 -2 -151 13t-164 6q-17 -3 -55.5 -11.5t-59.5 -12t-52.5 -6t-59 2t-54.5 15.5q10 38 11 76t-4.5 96.5t-6.5 80.5 q-17 245 -25 413t-3.5 389.5zM231 2064q124 -10 164 0q-59 -303 -4 -436q-53 5 -67 10l12 9q-63 69 -92 193.5t-13 223.5z" />
<glyph unicode="&#xca;" horiz-adv-x="608" d="M63 1657q37 20 70 59.5t55 79t44 75t48 54t56 10.5q19 -5 33.5 -14t25.5 -25.5t17.5 -28t17.5 -37.5t16 -38q6 -11 22 -42t25.5 -47t27.5 -37.5t38 -33.5q-10 0 -40.5 -2.5t-52 -3t-46.5 6t-37 22.5q-21 32 -53 205q-26 -33 -38.5 -60.5t-15.5 -44t-5.5 -50.5t-6.5 -60 q-22 12 -64 14t-85 -0.5t-52 -1.5zM69.5 1078.5q4.5 221.5 28.5 412.5v6h-12q19 2 147.5 19.5t202.5 13.5q7 0 56 4t84 1.5t51 -15.5q54 -42 16 -164q-298 -10 -364 -10q5 -60 -5 -194.5t-2 -199.5q5 -32 23 -52t44 -27t58 -10t64 -1t63 0q0 -102 -10 -147q-3 0 -20.5 1.5 t-23.5 2t-23 2.5t-24.5 3t-23 3.5t-24.5 4.5t-23 5t-23.5 6.5t-20 7.5t-19.5 9q-9 -272 -33 -529q121 30 291 -12q34 -10 55.5 -17.5t37 -18.5t23 -18t12.5 -24.5t6.5 -30t5 -42t7.5 -52.5q-45 -2 -151 13t-164 6q-17 -3 -55.5 -11.5t-59.5 -12t-52.5 -6t-59 2t-54.5 15.5 q10 38 11 76t-4.5 96.5t-6.5 80.5q-17 245 -25 413t-3.5 389.5z" />
<glyph unicode="&#xcb;" horiz-adv-x="608" d="M-80 1759q-9 44 0 60q1 40 31 71t68.5 45.5t80.5 18.5q107 8 146 -63t-5 -148t-141 -86q-63 -6 -112.5 19t-67.5 83zM63.5 1078.5q4.5 221.5 28.5 412.5v6h-12q19 2 147.5 19.5t202.5 13.5q7 0 56 4t84 1.5t51 -15.5q54 -42 16 -164q-297 -10 -365 -10q5 -60 -4.5 -194.5 t-1.5 -199.5q5 -32 23 -52t44 -27t58 -10t64 -1t63 0q0 -102 -10 -147q-3 0 -20.5 1.5t-23.5 2t-23 2.5t-24.5 3t-23 3.5t-24.5 4.5t-23 5t-23.5 6.5t-20 7.5t-19.5 9q-9 -272 -33 -529q121 30 291 -12q34 -10 55.5 -17.5t37 -18.5t23 -18t12.5 -24.5t6.5 -30t5 -42 t7.5 -52.5q-45 -2 -151 13t-164 6q-17 -3 -55.5 -11.5t-59.5 -12t-52.5 -6t-59 2t-54.5 15.5q10 38 11 76t-4.5 96.5t-6.5 80.5q-17 245 -25 413t-3.5 389.5zM472 1891q39 71 146 63q42 -4 80.5 -18.5t69 -45.5t31.5 -71q9 -16 0 -60q-18 -58 -68 -83t-113 -19 q-97 9 -141 86t-5 148z" />
<glyph unicode="&#xcc;" horiz-adv-x="231" d="M-6 1630q68 127 43 434q45 -16 162 -16q6 -100 -35.5 -221.5t-112.5 -184.5l12 -8q-18 -4 -69 -4zM45 1530q14 0 61.5 1t80.5 0t61 -5q0 -2 2 -171.5t-2 -170.5q-39 -666 -23 -1184q-47 0 -78 7.5t-49 20t-26.5 39t-10 54t-0.5 76.5q1 50 3.5 165t4.5 179t6.5 157.5 t10.5 171.5q7 101 -16.5 321.5t-8.5 334.5z" />
<glyph unicode="&#xcd;" horiz-adv-x="231" d="M33 2064q124 -10 164 0q-59 -303 -4 -436q-54 5 -68 10l12 9q-63 69 -91.5 193.5t-12.5 223.5zM45 1530q14 0 61.5 1t80.5 0t61 -5q0 -2 2 -171.5t-2 -170.5q-39 -666 -23 -1184q-47 0 -78 7.5t-49 20t-26.5 39t-10 54t-0.5 76.5q1 50 3.5 165t4.5 179t6.5 157.5 t10.5 171.5q7 101 -16.5 321.5t-8.5 334.5z" />
<glyph unicode="&#xce;" horiz-adv-x="231" d="M-139 1657q45 24 84.5 78t62.5 100.5t55.5 78t69.5 21.5q19 -5 33.5 -13.5t26 -25.5t17.5 -28.5t17.5 -38t16.5 -37.5q7 -12 22 -42t24.5 -47t27.5 -38t38 -33q-10 0 -40.5 -2.5t-52 -3t-46.5 6t-37 22.5q-21 32 -53 205q-26 -33 -38.5 -60.5t-15.5 -44t-5.5 -50.5 t-6.5 -60q-22 12 -64 14t-84.5 -0.5t-51.5 -1.5zM41 1530q14 0 61.5 1t80.5 0t61 -5q0 -2 2 -171.5t-2 -170.5q-39 -666 -23 -1184q-47 0 -78 7.5t-49 20t-26.5 39t-10 54t-0.5 76.5q1 50 3.5 165t4.5 179t6.5 157.5t10.5 171.5q7 101 -16.5 321.5t-8.5 334.5z" />
<glyph unicode="&#xcf;" horiz-adv-x="231" d="M-268 1759q-9 44 0 60q1 40 31 71t68.5 45.5t80.5 18.5q107 8 146 -63t-5 -148t-141 -86q-63 -6 -112.5 19t-67.5 83zM51 1530q14 0 61.5 1t80.5 0t61 -5q0 -2 2 -171.5t-2 -170.5q-39 -666 -23 -1184q-59 0 -92.5 9.5t-49.5 36.5t-19.5 58.5t-1.5 92.5q1 56 3.5 166 t4 177t6 160t10.5 170q7 101 -16 321.5t-8 334.5zM284 1891q39 71 146 63q42 -4 80.5 -18.5t68.5 -45.5t31 -71q9 -16 0 -60q-18 -58 -67.5 -83t-112.5 -19q-97 9 -141 86t-5 148z" />
<glyph unicode="&#xd0;" horiz-adv-x="1060" d="M25 745l34 23q0 3 5.5 5t18.5 3.5t25 2t32.5 1t32 0.5h32.5v72q-10 217 10 649q0 32 101 33.5t207 -14.5t139 -29q73 -28 129.5 -76t91.5 -106t58 -128.5t33 -143.5t13 -151.5t1.5 -151.5t-4.5 -144q-2 -42 -3 -62q-4 -72 -41.5 -152t-91.5 -138q-9 -10 -28.5 -31.5 t-29 -31t-25.5 -24.5t-32.5 -26t-36.5 -21q-111 -58 -243 -87t-238 -5q-23 129 -23 297.5t9 300.5h-8q-13 0 -36 -1t-38 -1t-32.5 3t-29.5 12.5t-20 25.5q-4 7 -5 20t0 26t1.5 25t-1 19t-7.5 6zM360 1391q-9 -2 5 -7q1 -66 0.5 -189.5t0.5 -226t5 -190.5q12 0 42.5 -0.5 t46.5 -1t43 -1.5t44 -2t37 -3t34.5 -4.5t24.5 -5.5q-8 -39 -8 -125q-67 -39 -254 -35q2 -58 -4.5 -155.5t-8.5 -155.5t11 -150q115 7 204 72t139 163t74 221t17.5 244.5t-39.5 234.5t-88 190q-54 78 -130 102.5t-189 24.5h-7z" />
<glyph unicode="&#xd1;" horiz-adv-x="833" d="M53 330q-3 97 16 302.5t13 315.5q-1 17 -7.5 105t-8.5 124.5t-4 106.5t2 124t12 105l6 7q-1 5 -0.5 7.5t11.5 3t18.5 0.5t21 -0.5t19.5 -0.5h19h17.5t13.5 -0.5t12.5 -2l10.5 -4.5t11 -7t9.5 -10.5t10.5 -14.5q24 -32 39.5 -130t30.5 -130q113 -259 149 -352 q4 -10 31 -79.5t34.5 -88.5t31 -78.5t37 -89.5t34.5 -78t40.5 -87t39.5 -77q-2 157 -15.5 574.5t-13.5 644.5q58 11 156 0q23 -103 12 -254q-40 -659 -6 -1266q-54 0 -156 12q-21 83 -63 197q-9 28 -18.5 54t-21 54.5t-18.5 47.5t-21.5 50.5t-20.5 45t-23.5 49.5t-22.5 45.5 t-26 52t-25 51.5q-60 109 -115 261t-87 288q0 -200 -5.5 -601t-5.5 -601q-30 0 -85.5 7.5t-82.5 15.5q6 34 6.5 76.5t-1 72t-6 80t-5.5 72.5zM149 1776.5q2 38.5 21 69.5t53 40q28 7 61 -10t69.5 -45.5t54.5 -36.5q77 -36 163 -16q0 22 -3 68.5t-3 72.5q16 -6 35.5 -6.5 t33 1t35.5 6t33 5.5q11 -33 11 -76.5t-10.5 -85.5t-32.5 -76t-55 -47.5t-78 0.5q-17 6 -38.5 19t-49.5 31l-37.5 24t-33.5 19t-31 12t-22.5 -2t-16.5 -17t-4 -39.5t7 -62.5q-20 0 -65 6t-68 6h-4q-14 27 -20.5 64.5t-4.5 76z" />
<glyph unicode="&#xd2;" horiz-adv-x="946" d="M35 807q0 100 12 205q14 120 79 237t175.5 199t235.5 82q104 0 192 -66t141.5 -166.5t83 -211.5t29.5 -209q0 -105 -19.5 -221.5t-61.5 -233t-100 -209.5t-143.5 -151t-183.5 -58q-96 0 -174 53t-126.5 136.5t-81 192.5t-45.5 213.5t-13 207.5zM195 711q0 -62 7 -113 t24 -97t30.5 -75t41 -80t40.5 -78q60 -123 137 -123q71 0 144.5 87t111.5 192q62 195 62 407q0 259 -77.5 394t-183.5 135q-138 0 -237.5 -182t-99.5 -467zM350 1630q68 127 43 434q45 -16 162 -16q6 -100 -35 -221.5t-112 -184.5l12 -8q-18 -4 -70 -4z" />
<glyph unicode="&#xd3;" horiz-adv-x="946" d="M35 807q0 100 12 205q14 120 79 237t175.5 199t235.5 82q104 0 192 -66t141.5 -166.5t83 -211.5t29.5 -209q0 -105 -19.5 -221.5t-61.5 -233t-100 -209.5t-143.5 -151t-183.5 -58q-96 0 -174 53t-126.5 136.5t-81 192.5t-45.5 213.5t-13 207.5zM195 711q0 -62 7 -113 t24 -97t30.5 -75t41 -80t40.5 -78q60 -123 137 -123q71 0 144.5 87t111.5 192q62 195 62 407q0 259 -77.5 394t-183.5 135q-138 0 -237.5 -182t-99.5 -467zM389 2064q124 -10 164 0q-59 -303 -4 -436q-54 5 -68 10l13 9q-63 69 -92 193.5t-13 223.5z" />
<glyph unicode="&#xd4;" horiz-adv-x="946" d="M35 807q0 100 12 205q14 120 79 237t175.5 199t235.5 82q104 0 192 -66t141.5 -166.5t83 -211.5t29.5 -209q0 -105 -19.5 -221.5t-61.5 -233t-100 -209.5t-143.5 -151t-183.5 -58q-96 0 -174 53t-126.5 136.5t-81 192.5t-45.5 213.5t-13 207.5zM195 711q0 -62 7 -113 t24 -97t30.5 -75t41 -80t40.5 -78q60 -123 137 -123q71 0 144.5 87t111.5 192q62 195 62 407q0 259 -77.5 394t-183.5 135q-138 0 -237.5 -182t-99.5 -467zM221 1657q37 20 70 59.5t55 79t44 75t48 54t56 10.5q19 -5 33.5 -14t25.5 -25.5t17.5 -28t17.5 -37.5t16 -38 q6 -11 22 -42t25.5 -47t27.5 -37.5t38 -33.5q-10 0 -40.5 -2.5t-52 -3t-46.5 6t-37 22.5q-22 35 -54 205q-26 -33 -38.5 -60.5t-15 -44t-5 -50.5t-6.5 -60q-22 12 -64 14t-85 -0.5t-52 -1.5z" />
<glyph unicode="&#xd5;" horiz-adv-x="946" d="M35 807q0 100 12 205q14 120 79 237t175.5 199t235.5 82q104 0 192 -66t141.5 -166.5t83 -211.5t29.5 -209q0 -105 -19.5 -221.5t-61.5 -233t-100 -209.5t-143.5 -151t-183.5 -58q-96 0 -174 53t-126.5 136.5t-81 192.5t-45.5 213.5t-13 207.5zM195 711q0 -62 7 -113 t24 -97t30.5 -75t41 -80t40.5 -78q60 -123 137 -123q71 0 144.5 87t111.5 192q62 195 62 407q0 259 -77.5 394t-183.5 135q-138 0 -237.5 -182t-99.5 -467zM196 1776.5q2 38.5 21 69.5t53 40q28 7 61 -10t69.5 -45.5t54.5 -36.5q77 -36 163 -16q0 22 -3 68.5t-3 72.5 q16 -6 35.5 -6.5t33 1t36.5 6t33 5.5q11 -33 11 -76.5t-11 -85.5t-33 -76t-55 -47.5t-78 0.5q-17 6 -38.5 19t-49.5 31l-37.5 24t-33.5 19t-31 12t-22.5 -2t-16.5 -17t-4 -39.5t7 -62.5q-20 0 -65 6t-68 6h-4q-14 27 -20.5 64.5t-4.5 76z" />
<glyph unicode="&#xd6;" horiz-adv-x="946" d="M41 807q0 100 12 205q14 120 79 237t175.5 199t235.5 82q104 0 192 -66t141.5 -166.5t83 -211.5t29.5 -209q0 -105 -19.5 -221.5t-61.5 -233t-100 -209.5t-143.5 -151t-183.5 -58q-96 0 -174 53t-126.5 136.5t-81 192.5t-45.5 213.5t-13 207.5zM90 1759q-9 44 0 60 q1 40 31 71t68.5 45.5t80.5 18.5q107 8 146 -63t-5 -148t-141 -86q-63 -6 -112.5 19t-67.5 83zM201 711q0 -62 7 -113t24 -97t30.5 -75t41 -80t40.5 -78q60 -123 137 -123q71 0 144.5 87t111.5 192q62 195 62 407q0 134 -22.5 238.5t-60 166t-83 93t-94.5 31.5 q-138 0 -238 -182t-100 -467zM642 1891q39 71 146 63q42 -4 80.5 -18.5t69 -45.5t31.5 -71q9 -16 0 -60q-18 -58 -68 -83t-113 -19q-97 9 -141 86t-5 148z" />
<glyph unicode="&#xd8;" horiz-adv-x="978" d="M57.5 747q-19.5 212 16.5 406q32 124 91 211t161 149q90 59 199 43t180 -102l4 19q8 13 17 31t15.5 32.5t14.5 30.5t17 26t21 16.5t28 5t36 -10.5q24 -13 35 -28.5t12 -30t-6 -33.5t-16 -34.5t-21.5 -37.5t-19.5 -37q-10 -23 -14 -41t-1 -37t7.5 -30.5t16.5 -39.5t19 -47 q45 -132 58 -217q28 -269 -35 -469q-11 -31 -29 -92t-33.5 -106.5t-37.5 -98.5t-51.5 -94.5t-65.5 -67.5q-75 -55 -151.5 -62.5t-139.5 19.5t-137 84q-5 -15 -12 -43t-13 -48t-14.5 -43.5t-20 -35t-27 -17.5t-37.5 3.5t-50 34.5q48 93 76 252q16 70 -7 143 q-66 185 -85.5 397zM236 756q1 -16 2 -95.5t5.5 -128.5t14.5 -90l195 531q24 50 91.5 162.5t86.5 156.5q0 -2 2 -2l8 -28q-1 4 -4 14t-4 14l-2 4v-2q-29 62 -93 78t-127 -14t-92 -90q-50 -93 -69 -233.5t-14 -276.5zM319 270q45 -56 107 -72t120.5 9.5t94.5 85.5 q102 162 102 549q0 34 -4 75.5t-8.5 68.5t-13.5 78t-12 71q-51 -70 -92 -161t-70 -182t-57 -181.5t-67 -184.5t-85 -166z" />
<glyph unicode="&#xd9;" horiz-adv-x="792" d="M67.5 504q-0.5 53 0 85t3 92t3.5 87q2 77 13.5 190t20 191t10 191t-15.5 190q119 -23 154 -17l6 7q-16 -118 -18.5 -244.5t11 -288t22.5 -240.5t32 -266q10 -88 66 -187q68 -117 139 -120q63 -3 115 90q36 64 50.5 157.5t12.5 168t-9 184.5t-7 160q0 207 -6 311 q-2 31 1 89t3 108.5t-10 83.5q51 -6 165 -6q24 -208 13 -494q-2 -79 -1 -113t5.5 -110t5.5 -109q5 -146 -38.5 -315t-121.5 -275q-49 -64 -126 -86.5t-153.5 -7t-145.5 58.5t-107 103q-25 37 -43 76.5t-28 84.5t-15.5 81.5t-6 89.5zM279 1630q68 127 43 434q45 -16 161 -16 q6 -100 -35 -221.5t-112 -184.5l12 -8q-18 -4 -69 -4z" />
<glyph unicode="&#xda;" horiz-adv-x="792" d="M67.5 504q-0.5 53 0 85t3 92t3.5 87q2 77 13.5 190t20 191t10 191t-15.5 190q119 -23 154 -17l6 7q-16 -118 -18.5 -244.5t11 -288t22.5 -240.5t32 -266q10 -88 66 -187q68 -117 139 -120q63 -3 115 90q36 64 50.5 157.5t12.5 168t-9 184.5t-7 160q0 207 -6 311 q-2 31 1 89t3 108.5t-10 83.5q51 -6 165 -6q24 -208 13 -494q-2 -79 -1 -113t5.5 -110t5.5 -109q5 -146 -38.5 -315t-121.5 -275q-49 -64 -126 -86.5t-153.5 -7t-145.5 58.5t-107 103q-25 37 -43 76.5t-28 84.5t-15.5 81.5t-6 89.5zM317 2064q124 -10 164 0 q-59 -303 -4 -436q-53 5 -67 10l12 9q-63 69 -92 193.5t-13 223.5z" />
<glyph unicode="&#xdb;" horiz-adv-x="792" d="M67.5 504q-0.5 53 0 85t3 92t3.5 87q2 77 13.5 190t20 191t10 191t-15.5 190q119 -23 154 -17l6 7q-16 -118 -18.5 -244.5t11 -288t22.5 -240.5t32 -266q10 -88 66 -187q68 -117 139 -120q63 -3 115 90q36 64 50.5 157.5t12.5 168t-9 184.5t-7 160q0 207 -6 311 q-2 31 1 89t3 108.5t-10 83.5q51 -6 165 -6q24 -208 13 -494q-2 -79 -1 -113t5.5 -110t5.5 -109q5 -146 -38.5 -315t-121.5 -275q-49 -64 -126 -86.5t-153.5 -7t-145.5 58.5t-107 103q-25 37 -43 76.5t-28 84.5t-15.5 81.5t-6 89.5zM150 1657q45 24 84.5 78t62.5 100.5 t55.5 78t69.5 21.5q19 -5 33.5 -14t25.5 -25.5t17.5 -28t17.5 -37.5t16 -38q6 -11 22 -42t25.5 -47t27.5 -37.5t38 -33.5q-10 0 -40.5 -2.5t-52 -3t-46.5 6t-37 22.5q-21 32 -53 205q-26 -33 -38.5 -60.5t-15.5 -44t-5.5 -50.5t-6.5 -60q-22 12 -64 14t-84.5 -0.5 t-51.5 -1.5z" />
<glyph unicode="&#xdc;" horiz-adv-x="792" d="M12 1759q-9 44 0 60q1 40 31.5 71t69 45.5t80.5 18.5q107 8 146 -63t-5 -148t-141 -86q-63 -6 -113 19t-68 83zM67.5 504q-0.5 53 0 85t3 92t3.5 87q2 77 13.5 190t20 191t10 191t-15.5 190q119 -23 154 -17l6 7q-16 -118 -18.5 -244.5t11 -288t22.5 -240.5t32 -266 q10 -88 66 -187q68 -117 139 -120q63 -3 115 90q36 64 50.5 157.5t12.5 168t-9 184.5t-7 160q0 207 -6 311q-2 31 1 89t3 108.5t-10 83.5q51 -6 165 -6q24 -208 13 -494q-2 -79 -1 -113t5.5 -110t5.5 -109q5 -146 -38.5 -315t-121.5 -275q-49 -64 -126 -86.5t-153.5 -7 t-145.5 58.5t-107 103q-25 37 -43 76.5t-28 84.5t-15.5 81.5t-6 89.5zM565 1891q39 71 146 63q42 -4 80.5 -18.5t68.5 -45.5t31 -71q9 -16 0 -60q-18 -58 -67.5 -83t-112.5 -19q-97 9 -141 86t-5 148z" />
<glyph unicode="&#xdd;" horiz-adv-x="858" d="M47 1485l6 28l37 -5q117 -17 135 -17q12 -83 48 -181.5t74.5 -176t77 -176.5t54.5 -181q12 81 34 175t36.5 148t50 173.5t45.5 154.5q3 11 8.5 29t7 24.5t6 18t7 14t9.5 9t13 7t17 2t23 1t30 -1.5q10 0 34.5 1.5t36.5 0.5t28 -5t24 -16t10 -32q3 -18 -10.5 -54t-34 -79 t-25.5 -58q-19 -81 -51 -160q-48 -117 -82 -219q-45 -137 -86 -200q-5 -12 -28 -30.5t-29 -33.5q-5 -10 -6.5 -24t0 -34t3 -30.5t5.5 -35t4 -25.5q20 -275 6 -496q-31 0 -101 3t-102 3q-12 69 -7 166.5t16.5 184t7.5 180t-33 153.5q-23 56 -101 150.5t-100 148.5 q-10 22 -18.5 48t-14 44t-12 52t-8.5 45.5t-8.5 52t-7.5 47.5q-2 17 -12.5 69.5t-16 91.5t-0.5 46zM342 2064q124 -10 164 0q-59 -303 -4 -436q-54 5 -68 10l12 9q-63 69 -91.5 193.5t-12.5 223.5z" />
<glyph unicode="&#xdf;" horiz-adv-x="983" d="M14 10q5 138 5.5 306t0 315.5t20.5 313.5t66 300q27 77 91.5 139t145 97t171 42.5t168.5 -14.5t138.5 -83.5t80.5 -155.5q8 -39 8.5 -77t-7.5 -73.5t-19.5 -67.5t-31.5 -65.5t-38.5 -60.5t-47 -59.5t-50 -56.5t-53.5 -56q119 -45 189.5 -120.5t88 -159t-1 -173t-69 -165 t-126 -132t-161.5 -76.5q-65 -14 -111 -16t-111 8q11 55 23 166l55 4q96 -37 185.5 21.5t119.5 167.5q17 72 12.5 133.5t-36.5 124.5q-24 41 -65.5 57t-103 25t-99.5 24q-14 44 -21 73.5t-3.5 64t24.5 53.5q21 20 58.5 51.5t66.5 56.5t63 57t54 60.5t33 58.5t7 59.5 t-31 55.5q-146 153 -325 41q-75 -47 -103 -139t-32 -228q-10 -458 -29 -911q-4 0 -51.5 6t-85 9t-62.5 -1z" />
<glyph unicode="&#xe0;" horiz-adv-x="655" d="M72 854q6 53 6 176h28q191 100 316 100q86 5 157 -37.5t101 -125.5q12 -32 18 -73t6.5 -68.5t-1 -79t-1.5 -70.5q2 -78 11 -234t11 -232.5t-5 -234.5q-105 12 -126.5 44t-21.5 141v16q-3 -55 -8 -85t-21 -59.5t-48 -40.5t-84 -9q-117 6 -201.5 68t-117 160.5t-7.5 211.5 q9 38 22.5 69t27.5 55t35 44t39 34t45.5 26t48 19.5t54 15.5t56.5 12t61.5 11.5t63.5 12.5q18 75 1 124t-54 77.5t-91 35t-110.5 -2.5t-113 -36t-97.5 -65zM207 1352q68 127 43 434q48 -17 162 -17q6 -100 -35.5 -221t-112.5 -184l12 -8q-18 -4 -69 -4zM254.5 266.5 q5.5 -33.5 30.5 -61.5q36 -40 98 -53.5t102 18.5q34 29 46.5 117.5t9.5 164t-11 132.5l-6 -6q-59 16 -105 -15.5t-89 -93.5q-25 -40 -39 -65.5t-28 -64.5t-8.5 -72.5z" />
<glyph unicode="&#xe1;" horiz-adv-x="655" d="M72 854q6 53 6 176h28q191 100 316 100q86 5 157 -37.5t101 -125.5q12 -32 18 -73t6.5 -68.5t-1 -79t-1.5 -70.5q2 -78 11 -234t11 -232.5t-5 -234.5q-105 12 -126.5 44t-21.5 141v16q-3 -55 -8 -85t-21 -59.5t-48 -40.5t-84 -9q-117 6 -201.5 68t-117 160.5t-7.5 211.5 q9 38 22.5 69t27.5 55t35 44t39 34t45.5 26t48 19.5t54 15.5t56.5 12t61.5 11.5t63.5 12.5q18 75 1 124t-54 77.5t-91 35t-110.5 -2.5t-113 -36t-97.5 -65zM246 1786q124 -10 164 0q-59 -303 -4 -436q-54 5 -68 10l12 8q-63 69 -91.5 194t-12.5 224zM254.5 266.5 q5.5 -33.5 30.5 -61.5q36 -40 98 -53.5t102 18.5q34 29 46.5 117.5t9.5 164t-11 132.5l-6 -6q-59 16 -105 -15.5t-89 -93.5q-25 -40 -39 -65.5t-28 -64.5t-8.5 -72.5z" />
<glyph unicode="&#xe2;" horiz-adv-x="655" d="M72 854q6 53 6 176h28q191 100 316 100q86 5 157 -37.5t101 -125.5q12 -32 18 -73t6.5 -68.5t-1 -79t-1.5 -70.5q2 -78 11 -234t11 -232.5t-5 -234.5q-105 12 -126.5 44t-21.5 141v16q-3 -55 -8 -85t-21 -59.5t-48 -40.5t-84 -9q-117 6 -201.5 68t-117 160.5t-7.5 211.5 q9 38 22.5 69t27.5 55t35 44t39 34t45.5 26t48 19.5t54 15.5t56.5 12t61.5 11.5t63.5 12.5q18 75 1 124t-54 77.5t-91 35t-110.5 -2.5t-113 -36t-97.5 -65zM78 1378q45 24 84.5 78t62.5 101t55.5 78.5t69.5 21.5q19 -5 33.5 -14t26 -26t17.5 -28.5t17.5 -38t16.5 -37.5 q6 -12 21.5 -42t25 -46.5t27.5 -37.5t38 -33q-3 0 -52 -4.5t-78.5 1t-45.5 25.5q-21 32 -53 205q-26 -33 -38.5 -60.5t-15 -44t-5 -50.5t-6.5 -60q-22 12 -64 14t-85 -0.5t-52 -1.5zM254.5 266.5q5.5 -33.5 30.5 -61.5q36 -40 98 -53.5t102 18.5q34 29 46.5 117.5t9.5 164 t-11 132.5l-6 -6q-59 16 -105 -15.5t-89 -93.5q-25 -40 -39 -65.5t-28 -64.5t-8.5 -72.5z" />
<glyph unicode="&#xe3;" horiz-adv-x="655" d="M55 1498.5q2 38.5 21 69.5t53 40q28 7 61 -10t69 -45.5t54 -36.5q79 -37 164 -17q0 22 -3 68.5t-3 72.5q16 -6 35.5 -6.5t33 1.5t35.5 6.5t33 5.5q11 -33 11 -76.5t-11 -85.5t-33 -76t-55 -47.5t-78 0.5q-17 6 -39.5 19.5t-48.5 30.5q-21 14 -32 21t-30 18t-28.5 13 t-22.5 3.5t-18.5 -6.5t-10 -21t-3 -37t7.5 -57q-20 0 -65 6t-68 6h-4q-14 27 -20.5 64.5t-4.5 76zM74 854q6 53 6 176h29q191 100 315 100q86 5 157 -37.5t101 -125.5q12 -32 18 -73.5t6.5 -67.5t-0.5 -79.5t-1 -70.5q2 -77 11 -234.5t10.5 -232.5t-5.5 -234 q-105 12 -126.5 44t-21.5 141v16q-3 -55 -8 -85t-21 -59.5t-48 -40.5t-84 -9q-117 6 -201.5 68t-117 160.5t-7.5 211.5q9 38 22.5 69t27.5 55t35 44t39 34t45.5 26t48 19.5t54 15.5t56.5 12t61.5 11.5t63.5 12.5q18 75 1 124t-54 77.5t-91 35t-110.5 -2.5t-113 -36 t-97.5 -65zM256.5 266.5q5.5 -33.5 30.5 -61.5q36 -40 98 -53.5t102 18.5q34 29 46.5 117.5t9.5 164t-11 132.5l-6 -6q-59 16 -105 -15.5t-89 -93.5q-25 -40 -39 -65.5t-28 -64.5t-8.5 -72.5z" />
<glyph unicode="&#xe4;" horiz-adv-x="655" d="M-55 1481q-9 44 0 59q1 40 31 71t68.5 45.5t80.5 18.5q107 8 146 -63t-5 -148t-141 -86q-63 -6 -112.5 19.5t-67.5 83.5zM76 854q6 53 6 176h29q191 100 315 100q86 5 157 -37.5t101 -125.5q12 -32 18 -73.5t6.5 -67.5t-0.5 -79.5t-1 -70.5q2 -77 11 -234.5t10.5 -232.5 t-5.5 -234q-105 12 -126.5 44t-21.5 141v16q-3 -55 -8 -85t-21 -59.5t-48 -40.5t-84 -9q-117 6 -201.5 68t-117 160.5t-7.5 211.5q9 38 22.5 69t27.5 55t35 44t39 34t45.5 26t48 19.5t54 15.5t56.5 12t61.5 11.5t63.5 12.5q18 75 1 124t-54 77.5t-91 35t-110.5 -2.5 t-113 -36t-97.5 -65zM258.5 266.5q5.5 -33.5 30.5 -61.5q36 -40 98 -53.5t102 18.5q34 29 47 117.5t10 164t-11 132.5l-7 -6q-59 16 -105 -15.5t-89 -93.5q-25 -40 -39 -65.5t-28 -64.5t-8.5 -72.5zM497 1612q39 71 146 63q42 -4 80.5 -18.5t68.5 -45.5t31 -71q9 -15 0 -59 q-18 -58 -67.5 -83.5t-112.5 -19.5q-97 9 -141 86t-5 148z" />
<glyph unicode="&#xe5;" horiz-adv-x="655" d="M72 854q6 53 6 176h28q191 100 316 100q86 5 157 -37.5t101 -125.5q12 -32 18 -73t6.5 -68.5t-1 -79t-1.5 -70.5q2 -78 11 -234t11 -232.5t-5 -234.5q-105 12 -126.5 44t-21.5 141v16q-3 -55 -8 -85t-21 -59.5t-48 -40.5t-84 -9q-117 6 -201.5 68t-117 160.5t-7.5 211.5 q9 38 22.5 69t27.5 55t35 44t39 34t45.5 26t48 19.5t54 15.5t56.5 12t61.5 11.5t63.5 12.5q18 75 1 124t-54 77.5t-91 35t-110.5 -2.5t-113 -36t-97.5 -65zM172 1538q-8 74 22 132.5t99 80.5q51 8 69 0q69 -3 110 -68t48 -145q9 -125 -74 -171t-173.5 6t-100.5 165z M254.5 266.5q5.5 -33.5 30.5 -61.5q36 -40 98 -53.5t102 18.5q34 29 46.5 117.5t9.5 164t-11 132.5l-6 -6q-59 16 -105 -15.5t-89 -93.5q-25 -40 -39 -65.5t-28 -64.5t-8.5 -72.5zM256 1546q5 -59 52 -86t90 -3t38 89q-4 39 -25.5 73.5t-56.5 35.5q-9 4 -35 0 q-35 -12 -51.5 -42t-11.5 -67z" />
<glyph unicode="&#xe6;" horiz-adv-x="1359" d="M68 444q26 91 118 160.5t202.5 97.5t201.5 9q-8 29 -14.5 72t-12 70.5t-17.5 59.5t-36.5 57t-63.5 44q-53 27 -104 26.5t-84 -15.5t-88 -43.5t-90 -41.5q0 8 -6 143q7 38 115.5 68.5t170.5 30.5q116 6 206 -47.5t143 -155.5q-4 64 43.5 123t117.5 92t136 33 q300 -6 323 -602v-12q0 -36 -0.5 -52.5t-3 -42t-8 -36.5t-16.5 -26t-27 -21t-40 -10.5t-56 -4.5q-84 0 -240 28.5t-188 32.5q-12 -77 36 -161.5t119 -122.5q39 -17 89.5 -20t90 2.5t94.5 13.5t87 10q18 -67 18 -129q-38 -4 -170 -37.5t-203 -26.5q-30 3 -56 11t-45 16.5 t-38.5 24.5t-31.5 27.5t-28.5 34.5t-25.5 36.5t-26.5 42.5t-26.5 43q-7 -9 -30.5 -43.5t-37 -53t-39 -49t-45.5 -47.5t-47.5 -31.5t-54.5 -17.5q-75 -6 -143 37t-108.5 111t-58 147.5t-1.5 144.5zM74 1077v4v-4zM74 1081v15v-13v-2zM242 352.5q-3 -52.5 30 -88.5 q32 -34 70 -49.5t72.5 -12t68 18.5t58 42.5t42.5 61t20.5 73t-7.5 79.5q-22 66 -83 111t-116 10q-34 -11 -70.5 -51t-59 -91t-25.5 -103.5zM764 711q0 -28 4 -86q43 0 124.5 -3t149.5 -3t129 6q8 41 12 67.5t6 61t-2 57.5t-14 50t-28 46t-47 38t-68 34q-30 11 -57 13 t-47.5 -1.5t-39.5 -18.5t-31.5 -27t-26 -39t-20.5 -43t-17 -50.5t-14 -49.5t-13 -52v32v-32z" />
<glyph unicode="&#xe7;" horiz-adv-x="612" d="M39 459q-4 97 2.5 180t28 173.5t69.5 168t121 133.5q25 20 60.5 28.5t67 8.5t75.5 -7.5t70 -14.5t67.5 -19.5t52.5 -15.5l-10 -156q-155 85 -282 -14q-100 -78 -142 -235q-44 -165 2 -305q38 -112 127 -165q57 -34 141 -45t150 6q-2 -26 -10 -84.5t-11 -83.5 q-137 -60 -352 58q-98 53 -159.5 164.5t-67.5 224.5zM104 -440q9 46 36 105t55 93q-2 -41 27 -63t65 -12.5t53 47.5q14 30 -2 65t-50 52.5t-65 0.5q12 17 36 73.5t42 72.5l-6 4q1 -1 13 -2t28.5 -4t28.5 -6q-19 -47 -41 -86q61 -16 90 -65t21.5 -105.5t-46.5 -96.5 q-65 -63 -131 -81t-154 8zM295 -2z" />
<glyph unicode="&#xe8;" horiz-adv-x="798" d="M66 719q10 99 47 188t96 157t147.5 97t190.5 4q92 -23 164.5 -105.5t106 -186.5t26.5 -203q-2 -45 -20 -79.5t-45 -55.5t-67.5 -34t-79.5 -18t-90 -6t-89.5 1t-88.5 4.5t-77 2.5q-4 -68 10 -118.5t39 -79.5t64 -45.5t79 -20.5t90 -2.5t91 7.5t89 11.5t76 6.5q0 -7 4 -52 t1 -75t-17 -45q-9 -14 -26 -21t-32.5 -8t-42.5 -1.5t-42 -2.5q-152 -20 -207 -19q-112 3 -176 58q-135 116 -190.5 286t-30.5 355zM256 604l10 -6v6q24 -1 69 -5.5t81 -8t80.5 -3t76 8t57 27.5t34.5 53q24 98 -31 201q-47 88 -118 116q-91 36 -161 -60q-12 -15 -22 -34 q-35 -58 -56 -146t-10 -149h-10zM279 1352q68 127 43 434q48 -17 161 -17q6 -100 -35 -221t-112 -184l12 -8q-18 -4 -69 -4z" />
<glyph unicode="&#xe9;" horiz-adv-x="798" d="M66 719q10 99 47 188t96 157t147.5 97t190.5 4q92 -23 164.5 -105.5t106 -186.5t26.5 -203q-2 -45 -20 -79.5t-45 -55.5t-67.5 -34t-79.5 -18t-90 -6t-89.5 1t-88.5 4.5t-77 2.5q-4 -68 10 -118.5t39 -79.5t64 -45.5t79 -20.5t90 -2.5t91 7.5t89 11.5t76 6.5q0 -7 4 -52 t1 -75t-17 -45q-9 -14 -26 -21t-32.5 -8t-42.5 -1.5t-42 -2.5q-152 -20 -207 -19q-112 3 -176 58q-135 116 -190.5 286t-30.5 355zM256 604l10 -6v6q24 -1 69 -5.5t81 -8t80.5 -3t76 8t57 27.5t34.5 53q24 98 -31 201q-47 88 -118 116q-91 36 -161 -60q-12 -15 -22 -34 q-35 -58 -56 -146t-10 -149h-10zM317 1786q124 -10 164 0q-59 -303 -4 -436q-53 5 -67 10l12 8q-63 69 -92 194t-13 224z" />
<glyph unicode="&#xea;" horiz-adv-x="798" d="M66 719q10 99 47 188t96 157t147.5 97t190.5 4q92 -23 164.5 -105.5t106 -186.5t26.5 -203q-2 -45 -20 -79.5t-45 -55.5t-67.5 -34t-79.5 -18t-90 -6t-89.5 1t-88.5 4.5t-77 2.5q-4 -68 10 -118.5t39 -79.5t64 -45.5t79 -20.5t90 -2.5t91 7.5t89 11.5t76 6.5q0 -7 4 -52 t1 -75t-17 -45q-9 -14 -26 -21t-32.5 -8t-42.5 -1.5t-42 -2.5q-152 -20 -207 -19q-112 3 -176 58q-135 116 -190.5 286t-30.5 355zM150 1378q45 24 84.5 78t62.5 101t55.5 78.5t69.5 21.5q19 -5 33.5 -14t25.5 -25.5t17.5 -28.5t17 -38t16.5 -38q6 -11 22 -42t25.5 -46.5 t27.5 -37t38 -33.5q-3 0 -52 -4.5t-78.5 1t-45.5 25.5q-21 32 -53 205q-26 -33 -38.5 -60.5t-15.5 -44t-5.5 -50.5t-6.5 -60q-22 12 -64 14t-84.5 -0.5t-51.5 -1.5zM256 604l10 -6v6q24 -1 69 -5.5t81 -8t80.5 -3t76 8t57 27.5t34.5 53q24 98 -31 201q-47 88 -118 116 q-91 36 -161 -60q-12 -15 -22 -34q-35 -58 -56 -146t-10 -149h-10z" />
<glyph unicode="&#xeb;" horiz-adv-x="798" d="M16 1481q-9 44 0 59q1 40 31.5 71t69 45.5t80.5 18.5q107 8 146 -63t-5 -148t-141 -86q-63 -6 -113 19.5t-68 83.5zM70 719q10 99 47 188t96 157t147.5 97t190.5 4q92 -23 164.5 -105.5t106 -186.5t26.5 -203q-2 -45 -20 -79.5t-45 -55.5t-67.5 -34t-79.5 -18t-90 -6 t-89.5 1t-88.5 4.5t-77 2.5q-4 -68 10 -118.5t39 -79.5t64 -45.5t79 -20.5t90 -2.5t91 7.5t89 11.5t76 6.5q0 -7 4 -52t1 -75t-17 -45q-9 -14 -26 -21t-32.5 -8t-42.5 -1.5t-42 -2.5q-152 -20 -207 -19q-112 3 -176 58q-135 116 -190.5 286t-30.5 355zM260 604l10 -6v6 q24 -1 69 -5.5t81 -8t80.5 -3t76 8t57 27.5t34.5 53q24 98 -31 201q-47 88 -118 116q-91 36 -161 -60q-12 -15 -22 -34q-35 -58 -56 -146t-10 -149h-10zM569 1612q39 71 146 63q42 -4 80.5 -18.5t68.5 -45.5t31 -71q9 -15 0 -59q-18 -58 -67.5 -83.5t-112.5 -19.5 q-97 9 -141 86t-5 148z" />
<glyph unicode="&#xec;" horiz-adv-x="266" d="M18 1112q68 127 43 434q45 -16 162 -16q6 -100 -35 -221.5t-112 -184.5l12 -8q-18 -4 -70 -4zM55 977l17 2q19 12 49 13.5t48.5 -1.5t55.5 -10q-1 -65 -10 -290.5t-4 -369.5t31 -290q-16 -3 -43.5 -10.5t-44.5 -12t-44.5 -7t-43.5 4.5q18 85 25 182t3.5 205.5t-9 192 t-16 206.5t-14.5 185z" />
<glyph unicode="&#xed;" horiz-adv-x="247" d="M39 977l16 2q19 12 49 13.5t49 -1.5t56 -10q-1 -69 -10 -291.5t-4.5 -367.5t30.5 -291q-16 -3 -43.5 -10.5t-44.5 -12t-44.5 -7t-43.5 4.5q22 104 27 243.5t0.5 230t-19.5 269t-18 228.5zM41 1554q124 -10 164 0q-59 -303 -4 -436q-54 5 -68 10l12 9q-63 69 -91.5 193.5 t-12.5 223.5z" />
<glyph unicode="&#xee;" horiz-adv-x="522" d="M12 1153q37 20 70 60t55 79t44 75t48 54.5t56 10.5q19 -5 33.5 -14t25.5 -25.5t17.5 -28.5t17 -38t16.5 -38q6 -11 22 -42t25.5 -47t27.5 -37.5t38 -33.5q-10 0 -40.5 -2.5t-52 -3t-46.5 6t-37 22.5q-21 32 -53 205q-26 -33 -38.5 -60.5t-15.5 -44t-5.5 -50.5t-6.5 -60 q-22 12 -64 14t-85 -0.5t-52 -1.5zM178 977l17 2q19 12 49 13.5t48.5 -1.5t55.5 -10q-1 -65 -10 -290.5t-4 -369.5t31 -290q-16 -3 -43.5 -10.5t-45 -12t-45 -7t-43.5 4.5q22 104 27 243.5t0.5 230t-19.5 269t-18 228.5z" />
<glyph unicode="&#xef;" horiz-adv-x="972" d="M25 1247q-8 53 0 70q3 69 68.5 110t144.5 48q126 9 172 -74t-6.5 -174t-165.5 -101q-74 -8 -133 22.5t-80 98.5zM401 977l17 2q19 12 49 13.5t48.5 -1.5t55.5 -10q-1 -65 -10 -290.5t-4 -369.5t31 -290q-16 -3 -43.5 -10.5t-44.5 -12t-44.5 -7t-43.5 4.5q18 85 25 182 t3.5 205.5t-9 192t-16 206.5t-14.5 185zM563 1401q46 83 172 74q79 -7 144.5 -48t68.5 -110q8 -17 0 -70q-21 -68 -80 -98.5t-133 -22.5q-113 10 -165.5 101t-6.5 174z" />
<glyph unicode="&#xf1;" horiz-adv-x="733" d="M49 1126l19 13q13 8 56.5 10t76.5 -6q6 -23 6 -77t6 -81q52 60 131 112t139 52q47 1 84 -12t62.5 -46t42 -59.5t30.5 -80.5t18.5 -77.5t13.5 -81.5q3 -20 5 -30q6 -47 9.5 -107t4 -90.5t0 -116.5t-0.5 -98q0 -32 5 -83t9.5 -91.5t3.5 -88.5t-12 -83q-23 4 -66 3.5 t-66.5 7t-37.5 32.5q-8 16 -8 50t4 75t4 51q-15 154 -41 563q-4 65 -23 116t-48.5 75t-63 26t-69.5 -30.5t-64 -95.5q-38 -84 -52.5 -178.5t-12 -182.5t8 -173t2.5 -177.5t-24 -167.5q-21 3 -64 6t-65 6q-9 91 -9 273.5t-2 230.5q-12 402 -12 612zM100 1498.5 q2 38.5 21 69.5t53 40q28 7 61 -10t69 -45.5t54 -36.5q79 -37 164 -17q0 22 -3 68.5t-3 72.5q16 -6 35.5 -6.5t33 1.5t35.5 6.5t33 5.5q11 -33 11 -76.5t-11 -85.5t-33 -76t-55 -47.5t-78 0.5q-17 6 -39.5 19.5t-48.5 30.5q-21 14 -32 21t-30 18t-28.5 13t-22.5 3.5 t-18.5 -6.5t-10 -21t-3 -37t7.5 -57q-20 0 -65 6t-68 6h-4q-14 27 -20.5 64.5t-4.5 76z" />
<glyph unicode="&#xf2;" horiz-adv-x="780" d="M76.5 596.5q0.5 132.5 44.5 222.5q52 102 138 202.5t173 152.5q57 16 124.5 -19.5t121 -97t94 -128t53.5 -116.5q19 -88 26.5 -177t1.5 -185.5t-40 -183.5t-94 -146q-55 -59 -126 -95t-144 -43t-142 29t-114 115q-52 90 -84.5 213.5t-32 256zM266 1352q68 127 43 434 q48 -17 162 -17q6 -100 -35 -221t-112 -184l12 -8q-18 -4 -70 -4zM292.5 637.5q-4.5 -112.5 10 -220t43.5 -173.5q32 -71 70.5 -100t74 -17t67 53.5t52.5 106.5q59 159 25 422q-1 13 -3.5 43.5t-4.5 48.5t-7 46t-11.5 45.5t-18.5 38t-27.5 31t-39 17t-52.5 4.5l-20 -6 q-73 -34 -113.5 -130.5t-45 -209z" />
<glyph unicode="&#xf3;" horiz-adv-x="780" d="M76.5 596.5q0.5 132.5 44.5 222.5q52 102 138 202.5t173 152.5q57 16 124.5 -19.5t121 -97t94 -128t53.5 -116.5q19 -88 26.5 -177t1.5 -185.5t-40 -183.5t-94 -146q-55 -59 -126 -95t-144 -43t-142 29t-114 115q-52 90 -84.5 213.5t-32 256zM292.5 637.5 q-4.5 -112.5 10 -220t43.5 -173.5q32 -71 70.5 -100t74 -17t67 53.5t52.5 106.5q59 159 25 422q-1 13 -3.5 43.5t-4.5 48.5t-7 46t-11.5 45.5t-18.5 38t-27.5 31t-39 17t-52.5 4.5l-20 -6q-73 -34 -113.5 -130.5t-45 -209zM305 1786q124 -10 164 0q-59 -303 -4 -436 q-54 5 -68 10l13 8q-63 69 -92 194t-13 224z" />
<glyph unicode="&#xf4;" horiz-adv-x="780" d="M76.5 596.5q0.5 132.5 44.5 222.5q52 102 138 202.5t173 152.5q57 16 124.5 -19.5t121 -97t94 -128t53.5 -116.5q19 -88 26.5 -177t1.5 -185.5t-40 -183.5t-94 -146q-55 -59 -126 -95t-144 -43t-142 29t-114 115q-52 90 -84.5 213.5t-32 256zM137 1378q37 20 70 60t55 79 t44 75t48 54.5t56 10.5q19 -5 33.5 -14t25.5 -25.5t17.5 -28.5t17 -38t16.5 -38q6 -11 22 -42t25.5 -46.5t27.5 -37t38 -33.5q-3 0 -52 -4.5t-78.5 1t-45.5 25.5q-22 35 -54 205q-26 -33 -38.5 -60.5t-15 -44t-5 -50.5t-6.5 -60q-22 12 -64 14t-85 -0.5t-52 -1.5z M292.5 637.5q-4.5 -112.5 10 -220t43.5 -173.5q32 -71 70.5 -100t74 -17t67 53.5t52.5 106.5q59 159 25 422q-1 13 -3.5 43.5t-4.5 48.5t-7 46t-11.5 45.5t-18.5 38t-27.5 31t-39 17t-52.5 4.5l-20 -6q-73 -34 -113.5 -130.5t-45 -209z" />
<glyph unicode="&#xf5;" horiz-adv-x="780" d="M76.5 596.5q0.5 132.5 44.5 222.5q52 102 138 202.5t173 152.5q57 16 124.5 -19.5t121 -97t94 -128t53.5 -116.5q19 -88 26.5 -177t1.5 -185.5t-40 -183.5t-94 -146q-55 -59 -126 -95t-144 -43t-142 29t-114 115q-52 90 -84.5 213.5t-32 256zM112 1498.5q2 38.5 21 69.5 t53 40q28 7 61 -10t69.5 -45.5t54.5 -36.5q79 -37 164 -17q0 22 -3.5 68.5t-3.5 72.5q16 -6 35.5 -6.5t33.5 1.5t36 6.5t33 5.5q11 -33 11 -76.5t-11 -85.5t-33 -76t-55 -47.5t-78 0.5q-17 6 -38.5 19t-49.5 31l-37.5 24t-33.5 19t-31 12t-22.5 -2t-16.5 -17t-4 -39.5 t7 -62.5q-20 0 -65 6t-68 6h-4q-14 27 -20.5 64.5t-4.5 76zM292.5 637.5q-4.5 -112.5 10 -220t43.5 -173.5q32 -71 70.5 -100t74 -17t67 53.5t52.5 106.5q59 159 25 422q-1 13 -3.5 43.5t-4.5 48.5t-7 46t-11.5 45.5t-18.5 38t-27.5 31t-39 17t-52.5 4.5l-20 -6 q-73 -34 -113.5 -130.5t-45 -209z" />
<glyph unicode="&#xf6;" horiz-adv-x="780" d="M6 1481q-9 44 0 59q1 40 31 71t68.5 45.5t80.5 18.5q107 8 146 -63t-5 -148t-141 -86q-63 -6 -112.5 19.5t-67.5 83.5zM82.5 596.5q0.5 132.5 44.5 222.5q52 102 138 202.5t173 152.5q57 16 124.5 -19.5t121 -97t94 -128t53.5 -116.5q19 -88 26.5 -177t1.5 -185.5 t-40 -183.5t-94 -146q-55 -59 -126 -95t-144 -43t-142 29t-114 115q-52 90 -84.5 213.5t-32 256zM298.5 637.5q-4.5 -112.5 10 -220t43.5 -173.5q32 -71 70.5 -100t74 -17t67 53.5t52.5 106.5q59 159 25 422q-1 13 -3.5 43.5t-4.5 48.5t-7 46t-11.5 45.5t-18.5 38t-27.5 31 t-39 17t-52.5 4.5l-20 -6q-73 -34 -113.5 -130.5t-45 -209zM559 1612q39 71 146 63q42 -4 80.5 -18.5t68.5 -45.5t31 -71q9 -15 0 -59q-18 -58 -67.5 -83.5t-112.5 -19.5q-97 9 -141 86t-5 148z" />
<glyph unicode="&#xf7;" horiz-adv-x="798" d="M23 678l34 22q-1 3 22 5.5t64.5 4t85.5 2.5t99.5 1h91.5h76h41q25 -2 78.5 -2t94.5 -4t74 -15q-8 -39 -8 -125q-28 -16 -56.5 -24.5t-60.5 -9.5t-55.5 0t-63.5 5t-63 5q-11 0 -65.5 -1t-110 -1t-115.5 3t-101.5 12.5t-49.5 25.5q-4 7 -5 20t0 26t1.5 25t-1 19t-7.5 6z M205 184q10 113 100.5 165.5t173.5 6.5t74 -172q-7 -79 -48 -144.5t-110 -68.5q-17 -8 -69 0q-68 21 -98.5 80t-22.5 133zM205 1051q-8 74 22.5 133t98.5 80q52 8 69 0q69 -3 110 -68.5t48 -144.5q9 -126 -74 -172t-173.5 6.5t-100.5 165.5z" />
<glyph unicode="&#xf8;" d="M68 596q1 132 45 223q52 102 138 202.5t173 152.5q61 17 135 -27q31 96 55 123q18 16 59 28t75 9q-39 -148 -64 -213l-14 -39q53 -58 93.5 -126t53.5 -116q19 -88 26.5 -177t1.5 -185.5t-40 -183.5t-94 -146q-73 -76 -170 -113.5t-185 -17.5l-22 -72q-31 -84 -55.5 -104 t-102.5 -34q-5 -1 -8 -1.5t-8.5 -1.5t-9.5 -2q9 49 45 134.5t45 115.5l8 22q-36 29 -64 80q-52 90 -84.5 213.5t-31.5 255.5zM285.5 489.5q6.5 -98.5 27.5 -178.5q52 248 74 322q53 186 113 348q-10 2 -37 2l-21 -6q-65 -31 -104.5 -111t-49 -179t-3 -197.5zM403 147 q56 -44 111 -3.5t88 143.5q59 159 25 422q-1 8 -7 65.5t-12 87.5q-29 -93 -77 -265.5t-58 -207.5q-3 -10 -70 -242z" />
<glyph unicode="&#xf9;" horiz-adv-x="761" d="M61 479q-9 102 6 321.5t3 332.5l36 8q0 3 18 8.5t40.5 7.5t42.5 -4q21 -8 31.5 -15.5t13.5 -20t2 -22t-5 -32.5t-5 -41q-6 -98 -11 -288.5t-6 -221.5q0 -8 -0.5 -42.5t0 -48t2 -45.5t5.5 -48.5t11 -42.5t17.5 -41t26.5 -31t37 -25q74 -37 136 12t97 134q28 74 39 172 t7.5 185t-4.5 185.5t3 174.5q5 63 10 73q10 16 48 29q20 5 64 -0.5t54 -19.5q23 -22 29.5 -94t2.5 -136t1 -108q4 -164 -7.5 -481.5t-12.5 -350.5q-106 -29 -175 -14q-5 22 -7 50t-2 48t0.5 55t0.5 50q-30 -18 -57 -47t-47 -53t-43.5 -46t-57.5 -32.5t-79 -4.5 q-38 5 -69.5 17.5t-55 28.5t-42.5 41.5t-31.5 49t-23 57.5t-16 60.5t-10.5 65.5t-7 64.5t-5 65t-5 60.5zM266 1352q68 127 43 434q48 -17 162 -17q6 -100 -35 -221t-112 -184l12 -8q-18 -4 -70 -4z" />
<glyph unicode="&#xfa;" horiz-adv-x="761" d="M61 479q-9 102 6 321.5t3 332.5l36 8q0 3 18 8.5t40.5 7.5t42.5 -4q21 -8 31.5 -15.5t13.5 -20t2 -22t-5 -32.5t-5 -41q-6 -98 -11 -288.5t-6 -221.5q0 -8 -0.5 -42.5t0 -48t2 -45.5t5.5 -48.5t11 -42.5t17.5 -41t26.5 -31t37 -25q74 -37 136 12t97 134q28 74 39 172 t7.5 185t-4.5 185.5t3 174.5q5 63 10 73q10 16 48 29q20 5 64 -0.5t54 -19.5q23 -22 29.5 -94t2.5 -136t1 -108q4 -164 -7.5 -481.5t-12.5 -350.5q-106 -29 -175 -14q-5 22 -7 50t-2 48t0.5 55t0.5 50q-30 -18 -57 -47t-47 -53t-43.5 -46t-57.5 -32.5t-79 -4.5 q-38 5 -69.5 17.5t-55 28.5t-42.5 41.5t-31.5 49t-23 57.5t-16 60.5t-10.5 65.5t-7 64.5t-5 65t-5 60.5zM305 1786q124 -10 164 0q-59 -303 -4 -436q-54 5 -68 10l13 8q-63 69 -92 194t-13 224z" />
<glyph unicode="&#xfb;" horiz-adv-x="761" d="M61 479q-9 102 6 321.5t3 332.5l36 8q0 3 18 8.5t40.5 7.5t42.5 -4q21 -8 31.5 -15.5t13.5 -20t2 -22t-5 -32.5t-5 -41q-6 -98 -11 -288.5t-6 -221.5q0 -8 -0.5 -42.5t0 -48t2 -45.5t5.5 -48.5t11 -42.5t17.5 -41t26.5 -31t37 -25q74 -37 136 12t97 134q28 74 39 172 t7.5 185t-4.5 185.5t3 174.5q5 63 10 73q10 16 48 29q20 5 64 -0.5t54 -19.5q23 -22 29.5 -94t2.5 -136t1 -108q4 -164 -7.5 -481.5t-12.5 -350.5q-106 -29 -175 -14q-5 22 -7 50t-2 48t0.5 55t0.5 50q-30 -18 -57 -47t-47 -53t-43.5 -46t-57.5 -32.5t-79 -4.5 q-38 5 -69.5 17.5t-55 28.5t-42.5 41.5t-31.5 49t-23 57.5t-16 60.5t-10.5 65.5t-7 64.5t-5 65t-5 60.5zM137 1378q37 20 70 60t55 79t44 75t48 54.5t56 10.5q19 -5 33.5 -14t25.5 -25.5t17.5 -28.5t17 -38t16.5 -38q6 -11 22 -42t25.5 -46.5t27.5 -37t38 -33.5 q-3 0 -52 -4.5t-78.5 1t-45.5 25.5q-22 35 -54 205q-26 -33 -38.5 -60.5t-15 -44t-5 -50.5t-6.5 -60q-22 12 -64 14t-85 -0.5t-52 -1.5z" />
<glyph unicode="&#xfc;" horiz-adv-x="761" d="M-2 1481q-9 44 0 59q1 40 31 71t68.5 45.5t80.5 18.5q107 8 146 -63t-5 -148t-141 -86q-63 -6 -112.5 19.5t-67.5 83.5zM59 479q-9 102 6 321.5t3 332.5l36 8q0 3 18 8.5t40.5 7.5t42.5 -4q21 -8 31.5 -15.5t13.5 -20t2 -22t-5 -32.5t-5 -41q-6 -98 -11 -288.5t-6 -221.5 q0 -8 -0.5 -42.5t0 -48t2 -45.5t5.5 -48.5t11 -42.5t17.5 -41t26.5 -31t37 -25q74 -37 136 12t97 134q28 74 39 172t7.5 185t-4.5 185.5t3 174.5q1 8 2 22.5t1 19t1.5 14t3 12t4.5 8.5t6 7.5t9.5 6t13 6.5t16.5 6q20 5 64.5 -0.5t54.5 -19.5q23 -22 29.5 -94t2.5 -136 t1 -108q4 -164 -7.5 -481.5t-12.5 -350.5q-106 -29 -175 -14q-5 22 -7 50t-2 48t0.5 55t0.5 50q-30 -18 -57 -47t-47 -53t-43.5 -46t-57.5 -32.5t-79 -4.5q-38 5 -69.5 17.5t-55 28.5t-42.5 41.5t-31.5 49t-23 57.5t-16 60.5t-10.5 65.5t-7 64.5t-5 65t-5 60.5zM550 1612 q39 71 146 63q42 -4 80.5 -18.5t69 -45.5t31.5 -71q9 -15 0 -59q-18 -58 -68 -83.5t-113 -19.5q-97 9 -141 86t-5 148z" />
<glyph unicode="&#xfd;" horiz-adv-x="786" d="M39 1124l217 -6q16 -51 94.5 -405t110.5 -418q74 364 141 846q42 -13 116.5 -23t100.5 -16q-58 -97 -95 -223.5t-68.5 -291t-53.5 -241.5q-111 -402 -323 -633q-8 -7 -20.5 -20.5t-21.5 -22.5t-21.5 -20.5t-23.5 -18t-24 -11t-27 -4t-28 6.5q-26 10 -41.5 30t-18.5 45 t-1 48t9 47q51 -9 95.5 7t75.5 50t56 80t36.5 97t17.5 101t-2 91q-13 90 -53.5 196.5t-92.5 223.5t-75 190q-73 189 -80 295zM313 1786q124 -10 164 0q-59 -303 -4 -436q-53 5 -67 10l12 8q-63 69 -92 194t-13 224z" />
<glyph unicode="&#xff;" horiz-adv-x="786" d="M10 1481q-9 44 0 59q1 40 31 71t68.5 45.5t80.5 18.5q107 8 146 -63t-5 -148t-141 -86q-63 -6 -112.5 19.5t-67.5 83.5zM41 1124l217 -6q16 -51 94.5 -405t110.5 -418q74 364 141 846q42 -13 116.5 -23t100.5 -16q-58 -97 -95 -223.5t-68.5 -291t-53.5 -241.5 q-111 -402 -323 -633q-8 -7 -20.5 -20.5t-21.5 -22.5t-21.5 -20.5t-23.5 -18t-24 -11t-27 -4t-28 6.5q-26 10 -41.5 30t-18.5 45t-1 48t9 47q51 -9 95.5 7t75.5 50t56 80t36.5 97t17.5 101t-2 91q-13 90 -53.5 196.5t-92.5 223.5t-75 190q-73 189 -80 295zM563 1612 q39 71 146 63q42 -4 80.5 -18.5t68.5 -45.5t31 -71q9 -15 0 -59q-18 -58 -67.5 -83.5t-112.5 -19.5q-97 9 -141 86t-5 148z" />
<glyph unicode="&#x152;" horiz-adv-x="1253" d="M43 745q-1 98 10 199t42 196t79 160q177 246 457 232q30 -2 112 -7t130.5 -8.5t119 -9t129.5 -13.5t109 -17v-13q-10 0 -10 -21.5t3 -53.5t1 -46q-57 3 -182 -6.5t-193 -3.5q-21 -82 -21 -225q1 -23 0 -58t-1 -54t4 -43.5t13 -38.5t28.5 -26t48.5 -18q3 0 16.5 -2 t22 -3.5t23.5 -4.5t24.5 -7t21 -9.5t16.5 -13t8 -16.5t-1 -21.5t-15 -26.5q-13 -15 -59.5 -17t-89.5 4t-66 13q24 -98 33 -209q4 -59 -1.5 -114t-19 -124t-18.5 -110q250 -7 414 -27q-8 -25 -11.5 -82t-11.5 -84q-22 -1 -115 -6.5t-143 -5.5t-121.5 12t-115.5 39 q-14 -4 -57.5 -15t-62 -15.5t-58 -13t-61 -10t-55 -2t-56.5 5t-49.5 16.5t-47.5 28q-31 25 -56.5 54t-43 55t-32.5 62t-23.5 61.5t-17.5 67.5t-13 67t-11.5 73t-11.5 72q-13 86 -14 184zM216.5 692.5q-20.5 -243.5 45.5 -418.5q22 -50 61 -78.5t84.5 -29t90 19.5t82 69.5 t57.5 119.5q19 65 29.5 150.5t13 141.5t4 164.5t2.5 143.5q0 142 -1 168q-15 253 -118 241q-14 -1 -30 -8l6 -4q-74 68 -221 -260q-4 -7 -5 -10q-80 -166 -100.5 -409.5z" />
<glyph unicode="&#x153;" horiz-adv-x="1589" d="M80 613q-15 170 53 284q61 97 154 175.5t190 92.5q92 12 181 -41t124 -143q6 57 51.5 103t105.5 67.5t126 20t111 -30.5q48 -31 86 -76.5t64.5 -104.5t42.5 -105.5t34 -113.5q1 -5 11 -55.5t14.5 -80t2 -69.5t-17.5 -61q-9 -16 -24 -25t-38.5 -10t-38.5 -0.5t-47 5.5 t-42 6q-11 1 -55.5 7t-86.5 11t-89 9t-80 1.5t-42 -12.5q-21 -21 14 -112.5t58 -114.5q52 -64 134.5 -87.5t159.5 -15t157 36.5q-14 -67 -33 -186q-51 3 -163.5 -6t-164.5 2q-56 6 -104 33.5t-77.5 62.5t-50.5 68.5t-33 58t-15 26.5v-6q-8 -64 -42 -115.5t-82 -78 t-105 -30.5t-111 26q-128 70 -192 140.5t-93 190.5q-41 181 -47 253zM312 508q4 -57 10 -90q3 -23 6.5 -43.5t9.5 -47t13.5 -49t18 -46t22.5 -41.5t28.5 -32.5t35.5 -22t42.5 -7.5t50.5 10q30 12 53.5 34.5t38.5 51t25.5 63t15 70.5t8 73.5t2.5 72t0 66.5v30q0 48 -1.5 80 t-7 78.5t-18 79t-33 65.5t-54 54t-78.5 30l39 -6q-143 84 -199 -113q-41 -143 -28 -360zM846 653l31 -20q69 4 199 -23.5t190 -27.5q7 44 5 96t-23.5 105.5t-50.5 95.5t-75.5 64.5t-99.5 14.5t-96 -63t-63 -121.5t-17 -120.5z" />
<glyph unicode="&#x178;" horiz-adv-x="858" d="M45 1759q-9 44 0 60q1 40 31 71t68.5 45.5t80.5 18.5q107 8 146 -63t-5 -148t-141 -86q-63 -6 -112.5 19t-67.5 83zM55 1485l6 28l37 -5q117 -17 135 -17q12 -83 48 -181.5t74.5 -176t77 -176.5t54.5 -181q12 81 34 175t36.5 148t50 173.5t45.5 154.5q3 11 8.5 29t7 24.5 t6 18t7 14t9.5 9t13 7t17 2t23 1t30 -1.5q10 0 34.5 1.5t36.5 0.5t28 -5t24 -16t10 -32q3 -18 -10.5 -54t-33.5 -79t-25 -58q-18 -75 -52 -160q-44 -105 -81 -219q-44 -134 -87 -200q-5 -12 -28 -30.5t-29 -33.5q-5 -10 -6.5 -24t0 -34t3 -30.5t5.5 -35t4 -25.5 q20 -275 6 -496q-31 0 -101 3t-101 3q-12 69 -7 166.5t16.5 184t7 180t-33.5 153.5q-23 56 -100.5 150.5t-99.5 148.5q-9 19 -16 38t-13.5 44t-10 38t-9.5 44.5t-7 38.5t-7.5 45.5t-6.5 40.5q-2 17 -12.5 69.5t-16 91.5t-0.5 46zM597 1891q39 71 146 63q42 -4 80.5 -18.5 t69 -45.5t31.5 -71q9 -16 0 -60q-18 -58 -68 -83t-113 -19q-97 9 -141 86t-5 148z" />
<glyph unicode="&#x2c6;" horiz-adv-x="528" d="M14 1378q37 20 70 60t55 79t44 75t48 54.5t56 10.5q19 -5 33.5 -14t25.5 -25.5t17.5 -28.5t17 -38t16.5 -38q6 -11 22 -42t25.5 -46.5t27.5 -37t38 -33.5q-3 0 -52 -4.5t-78.5 1t-45.5 25.5q-21 32 -53 205q-26 -33 -38.5 -60.5t-15.5 -44t-5.5 -50.5t-6.5 -60 q-22 12 -64 14t-85 -0.5t-52 -1.5z" />
<glyph unicode="&#x2dc;" horiz-adv-x="653" d="M43 1498.5q2 38.5 21 69.5t53 40q28 7 61 -10t69 -45.5t54 -36.5q79 -37 164 -17q0 22 -3 68.5t-3 72.5q16 -6 35.5 -6.5t33 1.5t35.5 6.5t33 5.5q11 -33 11 -76.5t-11 -85.5t-33 -76t-55 -47.5t-78 0.5q-17 6 -39.5 19.5t-48.5 30.5q-21 14 -32 21t-30 18t-28.5 13 t-22.5 3.5t-18.5 -6.5t-10 -21t-3 -37t7.5 -57q-20 0 -65 6t-68 6h-4q-14 27 -20.5 64.5t-4.5 76z" />
<glyph unicode="&#x2000;" horiz-adv-x="1032" />
<glyph unicode="&#x2001;" horiz-adv-x="2064" />
<glyph unicode="&#x2002;" horiz-adv-x="1032" />
<glyph unicode="&#x2003;" horiz-adv-x="2064" />
<glyph unicode="&#x2004;" horiz-adv-x="688" />
<glyph unicode="&#x2005;" horiz-adv-x="516" />
<glyph unicode="&#x2006;" horiz-adv-x="344" />
<glyph unicode="&#x2007;" horiz-adv-x="344" />
<glyph unicode="&#x2008;" horiz-adv-x="258" />
<glyph unicode="&#x2009;" horiz-adv-x="412" />
<glyph unicode="&#x200a;" horiz-adv-x="114" />
<glyph unicode="&#x2010;" horiz-adv-x="526" d="M27 590l34 22q-1 3 3.5 5t14 3t20.5 2t25.5 2t28 1h30h28h25h18.5q25 -2 78.5 -2t95 -4t74.5 -15q-8 -39 -8 -125q-28 -16 -56.5 -24.5t-60.5 -9.5t-55.5 0t-63.5 5t-63 5q-13 0 -36 -1t-38 -1t-32.5 3t-29.5 12.5t-20 25.5q-4 7 -5 20t0 26t1.5 25t-1 19t-7.5 6z" />
<glyph unicode="&#x2011;" horiz-adv-x="526" d="M27 590l34 22q-1 3 3.5 5t14 3t20.5 2t25.5 2t28 1h30h28h25h18.5q25 -2 78.5 -2t95 -4t74.5 -15q-8 -39 -8 -125q-28 -16 -56.5 -24.5t-60.5 -9.5t-55.5 0t-63.5 5t-63 5q-13 0 -36 -1t-38 -1t-32.5 3t-29.5 12.5t-20 25.5q-4 7 -5 20t0 26t1.5 25t-1 19t-7.5 6z" />
<glyph unicode="&#x2012;" horiz-adv-x="526" d="M27 590l34 22q-1 3 3.5 5t14 3t20.5 2t25.5 2t28 1h30h28h25h18.5q25 -2 78.5 -2t95 -4t74.5 -15q-8 -39 -8 -125q-28 -16 -56.5 -24.5t-60.5 -9.5t-55.5 0t-63.5 5t-63 5q-13 0 -36 -1t-38 -1t-32.5 3t-29.5 12.5t-20 25.5q-4 7 -5 20t0 26t1.5 25t-1 19t-7.5 6z" />
<glyph unicode="&#x2013;" horiz-adv-x="815" d="M27 590l34 22q-1 3 22 5.5t64.5 4t85.5 2.5t99.5 1h91.5h76h41q25 -2 78.5 -2t94.5 -4t74 -15q-8 -39 -8 -125q-28 -16 -56.5 -24.5t-60.5 -9.5t-55.5 0t-63.5 5t-63 5q-11 0 -65.5 -1t-110 -1t-115.5 3t-101.5 12.5t-49.5 25.5q-4 7 -5 20t0 26t1.5 25t-1 19t-7.5 6z " />
<glyph unicode="&#x2014;" horiz-adv-x="1040" d="M27 590l34 22q-1 3 17 5t50 3t71.5 2t87.5 2t92.5 1h91.5h79h61h32q26 -2 109.5 -2t156 -4t105.5 -15q-8 -39 -8 -125q-28 -16 -67.5 -24.5t-95 -9.5t-88 -0.5t-98 5.5t-73.5 5q-11 0 -76 -1t-135.5 -1t-146 3t-127.5 12.5t-60 25.5q-4 7 -5 20t0 26t1.5 25t-1 19t-7.5 6 z" />
<glyph unicode="&#x2022;" horiz-adv-x="411" d="M27 639q-8 74 22 133t98 80q53 8 70 0q69 -3 110 -68.5t48 -144.5q9 -126 -74 -172t-173.5 6.5t-100.5 165.5z" />
<glyph unicode="&#x2026;" horiz-adv-x="1619" d="M31 190q-8 74 22.5 133t98.5 80q52 8 69 0q69 -3 110 -68.5t48 -144.5q9 -126 -74 -172t-173.5 6.5t-100.5 165.5zM631 190q-8 74 22.5 133t98.5 80q52 8 69 0q69 -3 110 -68.5t48 -144.5q9 -126 -74 -172t-173.5 6.5t-100.5 165.5zM1231 190q-8 74 22.5 133t98.5 80 q52 8 69 0q69 -3 110 -68.5t48 -144.5q9 -126 -74 -172t-173.5 6.5t-100.5 165.5z" />
<glyph unicode="&#x202f;" horiz-adv-x="412" />
<glyph unicode="&#x2039;" horiz-adv-x="587" d="M18 553q75 118 232 422l278 14q-59 -40 -106.5 -96.5t-73.5 -107t-65 -120t-76 -118.5q185 -222 360 -383q-40 3 -87.5 -2t-110.5 -16.5t-86 -14.5q-124 266 -265 422z" />
<glyph unicode="&#x203a;" horiz-adv-x="587" d="M20 164q179 165 361 383q-37 49 -76 118.5t-65.5 120t-74 107t-106.5 96.5l279 -14q8 -15 42.5 -82t47.5 -92t41 -76.5t51.5 -91.5t48.5 -80q-139 -153 -264 -422q-23 3 -86.5 14.5t-111 16.5t-87.5 2z" />
<glyph unicode="&#x205f;" horiz-adv-x="516" />
<glyph unicode="&#x20ac;" horiz-adv-x="962" d="M16 721q123 -21 390.5 -6t390.5 -13q4 -21 1.5 -62t-7.5 -62q-70 -3 -201 10.5t-189 13.5q4 -48 2 -89.5t1.5 -81.5t13 -74t36.5 -66t72 -58q56 -34 122.5 -42t143 -6.5t126.5 -10.5q0 -14 1 -38.5t1 -35.5t-2 -28t-7.5 -25.5t-16 -18t-27 -14.5t-40.5 -8 q-130 -15 -248.5 24t-203.5 117.5t-135 193t-50 245.5q-39 0 -149 14q-3 10 -4.5 35t-2.5 44t-3 19l10 17zM27.5 880.5q0.5 11.5 1 32.5t0.5 35q27 0 84 -6t84 -6q11 76 20 122.5t28.5 112t43.5 110.5t65 93t95 84q111 70 237 77t242 -58q0 -2 -3 -10t-3 -15l12 6 q0 -24 -3 -75t-3 -74q-99 58 -186.5 48.5t-156.5 -68.5t-114 -144.5t-59 -177.5q46 -24 103.5 -30t150.5 -0.5t112 5.5q3 -21 12.5 -65.5t12.5 -65.5q-90 2 -242.5 -2.5t-285 -4t-240.5 14.5q-4 17 -6 33.5t-1.5 28zM29 696q0 2 2 2z" />
<glyph unicode="&#x25fc;" horiz-adv-x="1177" d="M0 0v1178h1178v-1178h-1178z" />
<glyph unicode="&#xfb01;" horiz-adv-x="878" d="M20 938q0 19 3.5 56.5t3.5 56.5q12 1 33.5 2t27.5 2t18 4t17 10t12.5 18.5t14.5 30.5q13 33 29.5 104t31.5 107q54 120 162.5 163t261.5 38q59 0 116.5 -16t84.5 -50v-12q7 -28 4.5 -52.5t-9 -67.5t-6.5 -64q-81 72 -166.5 91t-152 -10t-111.5 -103t-51 -179 q140 -24 447 -10q13 -103 13 -294.5t3 -297.5q1 -17 5 -105t5 -125t0.5 -102.5t-4.5 -116.5q-2 0 -27.5 -4t-44 -5.5t-43.5 -3t-43 1.5t-26 11q-15 16 -16.5 67.5t4.5 119.5t6 78q0 150 12 462q0 19 -0.5 49t-1 47t1.5 43t6 52q-20 1 -74.5 4t-84 4t-72.5 -0.5t-76 -7.5 q-10 -79 -12 -179.5t0.5 -179t-0.5 -178.5q-3 -71 6.5 -204t9.5 -187q-22 0 -51 -2.5t-44 -3.5t-33.5 2t-28 11.5t-17 27.5t-10.5 49q-4 52 -4 110.5t2 130t2 111.5q0 54 -3.5 154.5t-3.5 181.5t7 150q-72 10 -134 10z" />
<glyph unicode="&#xfb02;" horiz-adv-x="907" d="M47 1008q9 39 13 43q6 6 45 2q52 -5 102 -6q0 79 12.5 153.5t51.5 153t100 116.5q88 57 203.5 65t203.5 -48q17 3 29.5 -1t19.5 -15.5t11.5 -24t5.5 -32.5t1 -33t-0.5 -33t-0.5 -27q3 -91 -6 -288.5t-4 -305.5q6 -75 7.5 -214.5t2.5 -164.5q1 -14 15 -145t7 -197 q-8 0 -56 -1t-78 0.5t-58 6.5q-3 39 -3 84.5t1.5 100.5t1.5 84q0 84 -5 245t-5 240q0 51 8.5 131t16 142.5t7 138.5t-15.5 133q-22 83 -97 58q-66 -23 -128 -106q-70 -93 -63 -167l1 -11q74 0 170 -28q-1 -7 -2 -57.5t-6.5 -89t-17.5 -50.5q-8 -14 -90 -8t-99 2 q-3 -87 1 -210.5t9.5 -220t3 -213.5t-17.5 -210q-9 1 -37.5 4.5t-49.5 7.5t-40 11q-3 63 2.5 187t3.5 181q-2 45 -8.5 157.5t-6.5 152.5t5 163q-121 -3 -154.5 27t-11.5 117z" />
<glyph unicode="&#xfb03;" horiz-adv-x="1658" d="M60 976q1 16 8 38q6 21 16 31.5t27 12t31 -0.5t41.5 -8t43.5 -9q-20 85 33 342q32 128 161 149.5t238 -78t91 -269.5h-117q17 49 10 93t-35 75.5t-61 49t-68.5 13.5t-58.5 -31q-44 -54 -49 -137.5t20 -199.5q27 1 44.5 0.5t67.5 -2.5t81 -3q94 7 199 6t147 -8 q-20 85 33 342q32 128 160.5 149.5t237.5 -78t91 -269.5h-117q17 49 10 93t-35 75.5t-61 49t-68.5 13.5t-58.5 -31q-44 -54 -48.5 -137.5t20.5 -199.5q42 2 120.5 2.5t164 -17.5t100.5 -51h2v-8v-15q-1 -76 -7.5 -227.5t-8.5 -241.5t5 -219t27 -239q-16 -3 -43.5 -10.5 t-44.5 -12t-44.5 -7t-43.5 4.5q14 66 21 146t9 143t-2.5 161.5t-8 148t-13 161t-12.5 145.5q-65 0 -136.5 10.5t-101.5 20.5q10 -118 23 -430q0 -164 -6 -248q0 -8 5 -69t4 -109t-13 -63q-17 -17 -60 -18.5t-67 11.5q-16 9 -23.5 14.5t-10 14.5t-2 15t3 23.5t3.5 33.5 q9 81 5 200.5t-11.5 200.5t-18 200.5t-14.5 201.5l-205 16q-162 -14 -315 6q8 -94 22 -430q0 -164 -6 -248q0 -8 5 -69t4 -109t-13 -63q-17 -17 -60 -18.5t-67 11.5q-16 9 -23.5 14.5t-10 14.5t-2 15t3 23.5t3.5 33.5q9 81 5 200.5t-11 200t-17.5 200.5t-14.5 202 q-11 1 -31 1.5t-31.5 1.5t-27.5 3.5t-23.5 8.5t-14 15.5t-5.5 25.5z" />
<glyph unicode="&#xfb04;" horiz-adv-x="1925" d="M62 976q1 16 8 38q6 21 16 31.5t27 12t31 -0.5t41.5 -8t43.5 -9q-20 85 33 342q32 128 161 149.5t238 -78t91 -269.5h-117q17 49 10 93t-35 75.5t-61 49t-68.5 13.5t-58.5 -31q-44 -54 -49 -137.5t20 -199.5q27 1 44.5 0.5t67.5 -2.5t81 -3q94 7 199 6t147 -8 q-20 85 33 342q20 81 86 119.5t146.5 27.5t145.5 -63q3 34 9 64h207q4 -66 2.5 -99t-7 -104t-6.5 -104q-2 -67 -8.5 -168.5t-11 -169.5t-6 -170.5t7.5 -171.5q4 -25 6 -86t9 -113t24 -82q8 -17 22 -29t27.5 -17.5t35.5 -8t36.5 -2.5t41.5 1t40 1q-2 -12 -5 -37t-5 -37 t-7.5 -31t-13 -30t-21 -23t-32.5 -20q-36 -21 -105 -27t-108 4q-44 8 -70 32t-33.5 62.5t-8 73t2.5 85t2 77.5q-4 123 -16 369q-22 342 -17 469q2 39 2 133q-18 47 -59.5 78t-82 31t-71.5 -32q-44 -54 -48.5 -137.5t20.5 -199.5q28 6 63.5 3.5t66 -9.5t45.5 -30.5t1 -58.5 q-12 -32 -47.5 -38t-62 1t-74.5 24l-9 3q10 -118 23 -430q0 -164 -6 -248q0 -8 5 -69t4 -109t-13 -63q-17 -17 -60 -18.5t-67 11.5q-16 9 -23.5 14.5t-10 14.5t-2 15t3 23.5t3.5 33.5q9 81 5 200.5t-11.5 200.5t-18 200.5t-14.5 201.5l-205 16q-162 -14 -315 6 q8 -94 22 -430q0 -164 -6 -248q0 -8 5 -69t4 -109t-13 -63q-17 -17 -60 -18.5t-67 11.5q-16 9 -23.5 14.5t-10 14.5t-2 15t3 23.5t3.5 33.5q9 81 5 200.5t-11 200t-17.5 200.5t-14.5 202q-11 1 -31 1.5t-31.5 1.5t-27.5 3.5t-23.5 8.5t-14 15.5t-5.5 25.5z" />
</font>
</defs>
</svg>
