<?xml version="1.0" standalone="no"?>
<!DOCTYPE svg PUBLIC "-//W3C//DTD SVG 1.1//EN" "http://www.w3.org/Graphics/SVG/1.1/DTD/svg11.dtd" >
<svg xmlns="http://www.w3.org/2000/svg" xmlns:xlink="http://www.w3.org/1999/xlink" version="1.1">
<metadata></metadata>
<defs>
<font id="gregs_other_handregular" horiz-adv-x="956" >
<font-face units-per-em="2048" ascent="1638" descent="-410" />
<missing-glyph horiz-adv-x="768" />
<glyph horiz-adv-x="0" />
<glyph unicode="&#xd;" horiz-adv-x="768" />
<glyph unicode=" "  horiz-adv-x="768" />
<glyph unicode="&#x09;" horiz-adv-x="768" />
<glyph unicode="&#xa0;" horiz-adv-x="768" />
<glyph unicode="!" horiz-adv-x="454" d="M63 1358q0 147 27 274q-6 37 45 37q94 0 94 -248q0 -33 -2 -78v-55q0 -152 31 -362q29 -180 57 -363q6 -35 7 -67q0 -136 -76 -136q-72 0 -107 70q-27 53 -26 125q0 35 6 103.5t6 103.5q0 82 -31 285.5t-31 310.5zM127 61q0 8 31 117q51 57 92 58q35 0 84 -27 q57 -33 57 -70q0 -59 -31 -110q-37 -62 -96 -62q-80 0 -129 58q-8 18 -8 36z" />
<glyph unicode="&#x22;" horiz-adv-x="675" d="M63 1812q0 29 15 52q20 37 65 37q23 0 41 -13q59 -33 60 -153q-1 -46 -21 -189q-8 -59 19 -88q-8 -74 -33 -118t-66 -44q-14 0 -26 9q-39 23 -39 145q0 72 14 98.5t14 59.5q0 35 -21.5 104.5t-21.5 99.5zM371 1384q0 -31 14 -53q20 -35 66 -35q23 0 41 13q59 33 59 153 q-1 46 -21 189q-8 57 19 86q-8 76 -32.5 120t-65.5 44q-14 0 -27 -9q-39 -23 -39 -147q0 -72 14.5 -97.5t14.5 -60.5q0 -33 -21.5 -102.5t-21.5 -100.5z" />
<glyph unicode="#" horiz-adv-x="1314" d="M-98 684q0 27 41 59q33 27 67 37q29 -6 41 -20q35 16 78 26q84 14 96 25q31 23 31 102q0 43 -6 128t-6 126q0 168 69 168q100 0 101 -221q0 -31 -2 -75t-2 -54q0 -70 14 -119q12 4 37.5 9.5t23.5 11.5q29 109 47 301q20 211 39 297q4 14 24.5 23.5t39.5 17.5 q133 -2 133 -144q0 -74 12.5 -218t12.5 -216q6 -10 24 -16q195 33 256 47q147 33 244 82q25 12 33 12q35 0 53 -31.5t18 -62.5q0 -84 -98 -117q-65 -20 -219 -26q-139 -4 -176 -13q-117 -23 -117 -96q0 -53 20 -92q23 -47 66 -47q63 0 244 71q37 14 47 15q43 0 82 -43 t39 -86q0 -92 -189 -92q-31 0 -73.5 3t-51.5 3q-68 0 -118 -21q-6 -6 -7 -18q0 -66 2 -58q4 -39 33 -129q25 -82 25 -133q0 -45 -19 -86q-25 -51 -65 -51q-88 0 -109 111q-4 25 -4 178q0 100 -24 164q-12 -4 -54 -8q-16 0 -39 -13q-33 -53 -59 -166q-20 -88 -41 -176 q-55 -229 -162 -229q-90 0 -90 115q0 59 22.5 173.5t22.5 172.5q0 33 -6 61q-82 -20 -231 -20q-37 0 -72 22q-41 25 -41 66q0 18 10 37q14 27 37 26q16 0 35.5 -16.5t26.5 -18.5q106 12 116 15q70 14 99 53q18 10 18 61q0 98 -72 99q-39 0 -110.5 -24.5t-110.5 -24.5 q-29 0 -67.5 18t-38.5 45zM434 678q0 -43 15 -92q8 12 8 76q0 10 6 27.5t8 23.5l-6 8q-12 4 -19 4l-8 -4q-4 -20 -4 -43zM606 596q0 -49 56 -49q41 0 40 33v12q-16 150 -32 176q-25 2 -45 -16q2 -12 2 -29q0 -20 -10.5 -62.5t-10.5 -64.5z" />
<glyph unicode="$" horiz-adv-x="858" d="M-51 1229q0 205 196 293q145 66 363 59q8 51 10 127q0 106 2 129q4 70 31 145q29 33 59 33q123 0 123 -106q0 -68 -45 -164q6 12 6 14l-6 -14q-27 -78 -26 -133q0 -51 77 -113q72 -57 142 -115q78 -76 77 -161q0 -31 -27.5 -73t-60.5 -42q-84 0 -84 88q0 16 10.5 28.5 t20.5 24.5q-51 109 -166 109q-14 0 -28 -2q-47 -209 -140 -625q160 -174 160 -387q0 -225 -209 -305q12 -111 12 -227q0 -39 -29.5 -67t-62.5 -28q-92 0 -92 101q0 25 5 74t5 73q0 61 -67.5 82t-132.5 37q-70 31 -70 113q0 68 21 118q29 70 86 70q37 0 73 -20q45 -25 45 -58 q0 -12 -6 -35.5t-6 -35.5q0 -31 47 -31l29 12q-8 -4 -8 25q0 35 16 149q18 129 23 166q4 63 16 111q-33 39 -109 116q-133 135 -182 203q-98 131 -98 242zM135 1233q0 -88 92 -197l152 -172q41 102 61 262q16 133 35 267q-33 16 -72 16q-82 0 -170 -51q-98 -55 -98 -125z M424 338q0 -37 12 -80q49 37 49 96q1 29 -26 99q-35 -49 -35 -115z" />
<glyph unicode="%" horiz-adv-x="1032" d="M0 993q0 168 129 314q4 4 18 86q10 61 60 61q164 0 264 -139q88 -123 88 -287q0 -102 -88 -162q-78 -51 -180 -51q-133 0 -213 59q-25 27 -51.5 57t-26.5 62zM176 1040q0 -47 117 -47q20 0 52 8.5t32 22.5q-1 -2 -15 2q-29 8 -36 20.5t-9 49.5q-2 53 -2 59q-10 33 -45 33 q-8 0 -51 -68.5t-43 -79.5zM268 -174q0 121 45 272q4 12 90 260q174 500 428 1270q63 186 119 187q76 0 76 -60q0 -82 -178 -551q-61 -160 -230 -581q-154 -387 -153 -592q0 -10 10 -58q-35 -129 -39 -141q-37 -92 -96 -92q-45 0 -59 24q-12 16 -13 62zM694 342 q0 43 20.5 111.5t45.5 101.5q39 51 39 53q0 10 -21 25l-14 12q-45 33 -45 78q0 39 30.5 70.5t71.5 31.5q92 0 195 -141q98 -133 98 -238q0 -98 -70 -180q-74 -88 -172 -88q-76 0 -127 45t-51 119zM864 395l10 -4q10 -2 19 -2q4 0 18 10l7 4q12 23 12 46q0 30 -25 63 q-37 -49 -41 -117z" />
<glyph unicode="&#x26;" horiz-adv-x="1382" d="M63 676q0 84 60 180q20 35 115 154q0 4 -6.5 14t-6.5 18v7q0 4 2 10q-43 33 -74.5 97.5t-31.5 117.5q0 152 160 280q150 123 305 123q158 0 231 -147q-23 -43 -47 -43q-12 8 -64.5 20.5t-64.5 12.5q-127 0 -229 -64q-117 -74 -117 -190q0 -53 41 -80q33 -2 59 -29 q18 -4 37 -4q43 0 127 33t131 33q59 0 101 -45l-17 -19q-2 2 35 4q-2 -4 -29 -65q-14 -39 -30 -45q-53 -23 -187 -60q-123 -31 -182 -61q-150 -78 -150 -338q0 -2 29 0q0 -117 121 -209q113 -82 231 -82q82 0 172 45q104 51 105 119q0 45 -45 94l-15 -14q-37 51 -94 69 q-33 10 -114 19q-74 8 -105 22q-43 23 -43 72q0 51 39 76q61 37 219 63q182 31 238 51l176 66q127 49 162 74q33 33 68.5 67.5t80.5 34.5h60q39 -18 38 -98q0 -47 -47 -74q-346 -147 -542 -207q-53 -45 -54 -51v-2q145 -127 146 -248q0 -137 -148 -241q-135 -94 -274 -95 q-45 0 -92 11q-205 47 -295 126.5t-170 280.5q0 20 -7.5 59t-7.5 58z" />
<glyph unicode="'" horiz-adv-x="434" d="M63 1812q0 29 15 52q20 37 65 37q23 0 41 -13q59 -33 60 -153q-1 -46 -21 -189q-8 -59 19 -88q-8 -74 -33 -118t-66 -44q-14 0 -26 9q-39 23 -39 145q0 72 14 98.5t14 59.5q0 35 -21.5 104.5t-21.5 99.5z" />
<glyph unicode="(" horiz-adv-x="497" d="M-53 797q0 389 155 637q61 100 123 202q84 106 203 107q117 0 117 -109q0 -133 -92 -133q-14 0 -42 6t-42 6q-6 0 -15 -4q-154 -125 -217 -331q-49 -160 -49 -404q0 -451 272 -782q49 -49 144 -152q12 -12 12 -39q0 -29 -19.5 -53t-52.5 -24q-20 0 -49 18 q-229 147 -348 469q-100 270 -100 586z" />
<glyph unicode=")" horiz-adv-x="409" d="M-12 78q0 41 35 63q264 178 264 650q0 203 -72 448q-33 111 -152 430q-4 12 -4 23q0 51 64 51q33 0 53 -19q92 -82 146 -235q39 -117 61 -301q16 -141 31 -283q14 -100 14 -190q0 -193 -61 -389q-66 -211 -183 -346q-31 -37 -82 -37t-82.5 43t-31.5 92z" />
<glyph unicode="*" horiz-adv-x="804" d="M-63 762l12 51q41 18 82 18q43 0 124 -28.5t124 -28.5q61 0 88 49q18 31 32.5 119t30.5 121q31 63 102 63q45 0 46 -51q0 -31 -16.5 -90t-16.5 -90q0 -33 12 -33q10 0 58.5 40t82.5 40q53 0 54 -43q0 -18 -17 -45q-16 -8 -85.5 -62.5t-84.5 -70.5l8 -10q25 -10 114 -16.5 t126 -20.5q61 -23 61 -78q0 -104 -129 -104q-49 0 -139 32.5t-139 30.5q-37 -145 -37 -301q0 -61 -27 -121q-31 -72 -88 -72t-90 52q-25 43 -24 98q0 23 9 63.5t9 61.5q0 8 -10 18q-14 -8 -35 -28l-12 -15q-39 -39 -76 -39q-43 0 -73.5 28t-30.5 73t106 127q78 53 156 108 q-31 35 -156 56q-113 18 -151 98z" />
<glyph unicode="+" horiz-adv-x="960" d="M-100 731q0 2 12 37q88 57 225 74q119 12 238 22q-33 219 -33 334q0 193 72 340l73 -18q18 -98 19 -342q0 -217 31 -312q2 -10 16 -10q43 0 133 31q68 25 137 49q51 14 82 14q55 0 96 -39t41 -94q0 -24 -18 -51q-84 -43 -211 -43q-31 0 -92.5 3t-93.5 3q-53 0 -95 -8 q12 -68 53.5 -205t51.5 -211q-6 -25 -36 -52.5t-54 -27.5q-45 0 -79 35t-38 78q-10 123 -43 369q-35 -6 -164 -35q-100 -25 -166 -25q-158 0 -157 84z" />
<glyph unicode="," horiz-adv-x="436" d="M129 -27q0 31 47 117t47 131t-42 77t-42 71q0 43 34 72.5t77 29.5q63 0 96 -72q27 -57 27 -131q0 -96 -52.5 -184t-138.5 -137q-18 2 -35.5 6t-17.5 20z" />
<glyph unicode="-" horiz-adv-x="743" d="M63 829q0 53 70 72q27 8 111 14q33 4 49 5q23 0 29 -6.5t28 -6.5q16 0 49 2q74 6 96.5 26t96.5 26q86 8 86 -74q0 -74 -82 -103q-45 -16 -147 -26q-63 -4 -111 12l-25 -2q-57 -4 -61 -8q14 -2 29 -6q-8 -4 -62 -9q-53 -4 -98 13q-57 23 -58 71z" />
<glyph unicode="." horiz-adv-x="372" d="M63 332q0 49 53.5 94t104.5 45q35 0 61.5 -31.5t26.5 -66.5q0 -51 -47 -93t-96 -42q-102 0 -103 94z" />
<glyph unicode="/" horiz-adv-x="565" d="M-193 -10q0 211 285 837q213 471 381 760q14 25 45 76q68 100 111 100q37 0 68.5 -30.5t31.5 -67.5q0 -23 -10 -41l-23 -37q-25 -41 -90 -116.5t-92 -122.5q-162 -281 -387 -811q-45 -96 -119 -291q-14 -70 -31 -142q-18 -80 -47 -129q-14 -27 -49 -71q-18 -16 -39 -4 q-35 18 -35 90z" />
<glyph unicode="0" horiz-adv-x="884" d="M-41 604q0 436 317 803q0 -2 -2 -2q-27 10 -63 39q-8 12 -8 51q0 49 67 76q53 20 111 20q88 0 164 -53q178 -125 280 -303q109 -188 109 -399q0 -264 -150 -480q-170 -239 -426 -239q-199 0 -307 151q-92 133 -92 336zM96 604q0 -139 66 -225q72 -96 205 -96 q168 0 301 204q121 186 120 369q1 154 -73 281q-27 -23 -56 -25l-30 10q-20 27 -29 119q-6 74 -68 98l-86 -18q-166 -129 -258 -318.5t-92 -398.5z" />
<glyph unicode="1" horiz-adv-x="335" d="M16 1442q0 102 56 102q98 0 170 -530q59 -420 59 -684q0 -90 -14 -129q-25 -70 -97 -70q-39 0 -69.5 27.5t-30.5 66.5q0 4 2 11l6 18q39 137 39 201q0 213 -47 592q-6 51 -43 196q-31 123 -31 199z" />
<glyph unicode="2" horiz-adv-x="913" d="M-53 795q35 229 275.5 455.5t467.5 226.5q145 0 205 -91q47 -70 47 -219q0 -172 -194 -419q-160 -182 -320 -363q66 -29 143 -29q53 0 117 17q80 20 105 53q14 20 26 43q20 23 43 23q125 0 125 -86q0 -53 -18 -107q-25 -66 -66 -78q-154 -43 -403 -43q-104 0 -197 27 q-131 39 -131 117q0 33 96 133q258 276 312 344q182 233 182 395q0 45 -25.5 79t-66.5 34q-154 0 -357 -213q-31 -33 -282 -344q-78 2 -84 45z" />
<glyph unicode="3" horiz-adv-x="1005" d="M-90 1171q0 23 24 80q66 141 265 236q96 45 348 117q33 10 61 10q66 0 116 -41t50 -109q0 -96 -76 -194q-39 -51 -151 -154q96 -41 192 -80q113 -51 168 -118q176 -219 176 -408q0 -272 -264 -340q-94 -23 -237 -27h-240q-37 -2 -66 43q-23 37 -22 72q0 39 47 88t86 49 q8 0 96 -43q82 -41 170 -41q260 0 260 234q0 133 -128 258t-261 125q-33 0 -93 -16.5t-93 -16.5q-106 0 -125 90q2 20 5 42t18 36q51 57 155 149q113 100 158 148l12 41l-6 16q-16 6 -31 6q-4 0 -94 -32q-152 -53 -233 -107q-96 -59 -191 -172q-12 -14 -31 -14 q-27 0 -46 23.5t-19 49.5z" />
<glyph unicode="4" horiz-adv-x="866" d="M-70 936q0 86 256 350q47 49 340 328q4 4 39 63q27 43 56 43q49 0 73 -106q16 -72 17 -154q0 -74 -16.5 -218t-16.5 -218q0 -72 10 -135h8q16 4 23 4q39 0 67.5 -36t28.5 -73q0 -51 -63 -94q-29 -16 -66 -53q-29 -78 -29 -211q0 -68 13.5 -202t13.5 -201 q0 -33 -26.5 -55.5t-59.5 -22.5q-41 0 -67.5 32.5t-26.5 71.5q0 68 11 204t11 204q0 115 -14 215q-86 39 -221 63q-217 39 -228 41q-55 14 -94 58.5t-39 101.5zM143 967q0 -29 68 -38t113 -34q74 -43 143 -43q88 0 88 104q0 31 -8 89.5t-8 87.5q0 35 5 100t5 100q0 43 -6 78 q-109 -117 -217 -233q-182 -197 -183 -211z" />
<glyph unicode="5" horiz-adv-x="999" d="M-78 1024q0 233 66 475q43 51 55 60q29 20 82 20q27 0 78 -7t78 -7q152 0 385 45q317 63 383 71q33 -12 34 -53l-12 -29q-96 -109 -428 -163q-63 -10 -481 -54q-6 -25 -33 -118q-20 -72 -20 -119q0 -39 12 -76q66 45 184 80q113 35 189 35q215 0 380 -144 q174 -150 175 -362q0 -289 -265 -479q-238 -170 -534 -170q-266 0 -266 98q0 41 47 109q51 76 90 75q57 0 84 -61q20 -45 88 -45q221 0 393 129q188 139 188 348q0 129 -124 225q-115 92 -252 92q-106 0 -197 -49q-80 -55 -162 -110q-47 -33 -82 -33q-14 0 -30 4 q-74 -12 -95 74q-10 35 -10 139z" />
<glyph unicode="6" horiz-adv-x="856" d="M-18 594q0 74 127 164q70 47 92 80q47 72 82 200q2 10 45 213q70 317 202 467q43 -4 52 -8q27 -10 26 -41q0 -92 -78 -375q-74 -262 -129 -391q6 -2 4 -5t3 -3q39 0 114.5 22.5t114.5 22.5q98 0 198.5 -92t100.5 -191q0 -219 -117 -413q-135 -230 -350 -230 q-92 0 -184 55.5t-117 190.5q-14 117 -31 232q-18 -8 -39 -9q-43 0 -79.5 33t-36.5 78zM309 418q0 -207 158 -207q104 0 199 129q88 123 88 238q-1 172 -183 172q-106 0 -241 -76q-2 -41 -11.5 -127t-9.5 -129z" />
<glyph unicode="7" horiz-adv-x="962" d="M-109 1483l11 24q408 123 745 123q168 0 252 -16q63 -12 64 -88q0 -43 -23 -86q-129 -264 -209 -641q-66 -330 -131 -662q-4 -37 -20 -106q-23 -61 -99 -62q-27 0 -63 15q-45 20 -45 45q0 78 49 172q55 106 63 157q8 45 62 312q37 180 47 313q6 84 63 238q53 147 58 235 q-227 -2 -482 -43q-6 0 -100 -20q-59 -12 -100 -13q-135 0 -142 103z" />
<glyph unicode="8" horiz-adv-x="772" d="M-4 1409q0 135 81 209t218 74q229 0 358 -164q119 -152 119 -398q0 -32 -6 -79l-27 6l-45 -33q10 25 11 37q-25 -51 -134 -182q-74 -90 -73 -203q0 -82 43 -214t43 -216q0 -131 -103 -211q-92 -74 -225 -74q-207 0 -207 141q0 158 125 385q98 174 98 261q0 72 -71 194 q-68 111 -133 219q-72 137 -72 248zM186 1440q0 -154 224 -576q49 45 95 138.5t46 152.5q0 113 -45 158q-35 37 -37 39q-14 20 -14 55q0 12 9 33.5t9 29.5q0 49 -145 50q-141 0 -142 -80zM238 188q0 -35 61 -34q63 0 100 45t37 112q0 51 -20 121q-21 58 -41 115 q-39 -66 -88 -193t-49 -166z" />
<glyph unicode="9" horiz-adv-x="804" d="M-70 1272q0 147 123 254q119 100 266 100q143 0 216 -59q37 -31 40 -33q14 -6 56 -2q57 6 63 6q57 0 56 -59v-13.5v-13.5q0 -217 59 -645t59 -643q0 -53 -22 -96q-29 -56 -86 -56q-106 0 -107 127q0 39 26 114t23 114q-29 346 -36 407q-29 233 -84 400 q-233 -147 -385 -148q-104 0 -183 70q-84 72 -84 176zM123 1288q0 -76 67 -76q70 0 191 48q137 55 137 110q0 56 -74 68q-29 6 -71 6q-12 0 -35 -2h-29q-74 0 -127 -41q-59 -43 -59 -113z" />
<glyph unicode=":" horiz-adv-x="397" d="M63 973q0 49 53.5 94t104.5 45q35 0 61.5 -31.5t26.5 -66.5q0 -51 -47 -93t-96 -42q-102 0 -103 94zM90 332q0 49 53.5 94t104.5 45q35 0 61.5 -31.5t26.5 -66.5q0 -51 -47 -93t-96 -42q-102 0 -103 94z" />
<glyph unicode=";" horiz-adv-x="385" d="M63 973q0 49 53.5 94t104.5 45q35 0 61.5 -31.5t26.5 -66.5q0 -51 -47 -93t-96 -42q-102 0 -103 94zM78 -27q0 31 47 117t47 131t-42 77t-42 71q0 43 34 72.5t77 29.5q63 0 96 -72q27 -57 27 -131q0 -96 -52.5 -184t-138.5 -137q-18 2 -35.5 6t-17.5 20z" />
<glyph unicode="&#x3c;" horiz-adv-x="925" d="M-84 1042q0 76 70 95q197 51 340 124.5t303 204.5q80 68 159 136q119 92 173 92q27 0 26 -64q0 -23 -8 -35q-121 -170 -358 -340q-209 -150 -437 -249q25 -92 97 -193q66 -84 131 -170q80 -117 161 -233q129 -170 191 -170q25 0 54.5 25.5t47.5 25.5q37 0 69 -45t36 -86 l-43 -74q-66 -37 -140 -37q-123 0 -206 98q-72 84 -187 242q-129 176 -182 244q-43 53 -231 252q-66 68 -66 157z" />
<glyph unicode="=" horiz-adv-x="1230" d="M-68 993q0 39 21 56q72 63 473 106q264 23 528 47q35 0 67 -31.5t32 -68.5q0 -86 -119 -86q-29 0 -84 6t-84 6q-55 0 -279 -39q-215 -37 -282 -55q-133 -39 -152 -39q-47 0 -80 25q-41 27 -41 73zM-43 700q0 43 72 82q61 33 104 33q25 0 41 -20q10 -12 25 -13q2 0 6 2 l6 4q45 31 264 56q137 12 275 26q80 4 215 15q88 8 231 57l76 -20q33 -33 33 -70q0 -35 -28 -66.5t-63 -35.5q-68 -2 -198 -9q-158 -10 -404 -36q-57 -6 -237 -43q-147 -29 -240 -29q-178 0 -178 67z" />
<glyph unicode="&#x3e;" horiz-adv-x="1079" d="M-47 1712q-10 -119 72 -166q10 2 45 6q27 4 43 2q23 -2 34 -12q59 -57 179 -170q260 -238 315 -291q174 -170 285 -321q-135 -129 -398 -283q-326 -190 -417 -256q-10 -8 -23 -35q-2 -27 14.5 -49t42.5 -24q84 -8 301 141q233 160 623 389q61 35 66 90q7 99 -91 203 q-106 113 -448 401q-291 244 -428 426q-41 53 -94 60q-109 8 -121 -111z" />
<glyph unicode="?" horiz-adv-x="884" d="M-74 1206q0 203 224 326q184 102 407 102q123 0 236 -37q156 -47 155 -141q0 -78 -80 -162q-25 -29 -170 -153q-119 -102 -172 -183q-78 -117 -77 -247q0 -80 49 -147.5t49 -78.5q0 -39 -23.5 -67.5t-62.5 -28.5q-78 0 -131 127q-41 102 -41 197q0 174 96 309 q31 43 221 238q90 92 148 186q-96 31 -187 31q-197 0 -424 -117q-6 -66 -51 -150q-51 -90 -98 -90q-68 0 -68 86zM475 178q0 49 53.5 94t104.5 45q35 0 61.5 -31.5t26.5 -66.5q0 -51 -47.5 -93t-98.5 -42q-100 0 -100 94z" />
<glyph unicode="@" horiz-adv-x="1693" d="M-12 981q0 350 301 575q274 207 633 207q342 0 596 -172q293 -197 292 -526q0 -188 -112 -322q-121 -143 -309 -143q-174 0 -281 158q-197 -154 -332 -154q-84 0 -147.5 56.5t-63.5 142.5q0 23 6 47q57 193 181 319q143 147 327 148q113 0 209 -62q115 -72 115 -182 q0 -12 -14.5 -54t-22.5 -42q-29 0 -45 18q-8 10 -10 11q-6 0 -35 -58q-6 -16 -12 -22q-6 -16 -7 -31q0 -49 41 -80t95 -31q109 0 179 85t70 194q0 256 -235 414q-207 137 -479 137q-309 0 -541 -166q-256 -182 -256 -475q0 -328 259 -599.5t585 -271.5q88 0 123 17 q18 12 92 86q20 6 39 6q94 0 94 -76q0 -92 -98 -149q-80 -47 -174 -47q-430 0 -746.5 307t-316.5 735zM754 823q0 -23 43 -22q102 0 170 59q41 37 106.5 140.5t128.5 103.5q57 0 90 -64l4 -10q6 10 7 23q0 51 -60 86q-51 30 -110 30q-129 0 -252 -106q-127 -113 -127 -240z " />
<glyph unicode="A" d="M-23 41q0 57 43 199q43 150 48 213q-31 35 -31 77q0 41 78 82q63 244 129 486q90 334 166 446q33 47 98 47q61 0 98 -53q25 -33 47 -108q10 -23 25 -66q33 -94 80 -334q47 -225 82 -317q18 -23 51 -64q0 -12 -7 -38.5t-7 -41.5q0 -20 75.5 -222t75.5 -245 q0 -45 -25.5 -77.5t-70.5 -32.5t-96 45q-43 39 -66 84l-2 24v6q0 32 20 60q35 14 35 39q0 8 -43 162.5t-51 171.5q-106 -2 -258 -35q-190 -43 -215 -100l-31 -27q-18 -111 -35 -223q-27 -154 -57 -207q-14 -25 -74 -39q-82 12 -82 88zM283 664q51 2 346 59h39q24 2 24 20 q0 8 -39 146q-45 154 -49 172q-47 195 -106 305l-6 -6l-11 -27q-20 -96 -106 -334q-74 -209 -92 -335z" />
<glyph unicode="B" horiz-adv-x="1026" d="M-45 1325q0 33 45 61q53 33 59 48q10 31 19 61q14 39 47 39q18 0 37.5 -14.5t30.5 -14.5h14q31 18 96 49q201 76 315 76q68 0 119 -28q61 -33 62 -97q0 -104 -117 -231q-96 -98 -193 -195q8 -16 31 -18h37q43 4 86 4q141 0 238 -51q123 -64 123 -193q0 -63 -31 -125 q-66 -135 -238 -278q-98 -84 -303 -221q-86 -61 -172 -123q-119 -80 -184 -80q-29 0 -54.5 34.5t-25.5 65.5q0 25 20 56q16 23 33 47q8 147 8 303q0 109 -7 325.5t-7 325.5q0 55 -8 104q-80 20 -80 70zM180 696q0 -55 15 -225q16 -188 26 -201.5t29 -13.5q25 0 53 20 q158 119 318 238q198 170 210 311q-31 78 -235 78q-84 0 -207 -43q-166 -59 -203 -67q-6 -45 -6 -97zM180 1085q0 -31 6 -57l11 -2l231 215q184 168 184 213q0 23 -26 23q-74 0 -201 -56l-192 -94l-9 -24q8 -27 9 -60q0 -27 -6.5 -79t-6.5 -79z" />
<glyph unicode="C" horiz-adv-x="851" d="M0 715q0 227 117 536q141 375 327 375q29 0 91 -20q52 -17 86 -17h4q51 -18 53 -88q133 -244 133 -491q0 -293 -162 -293q-94 0 -139 147q-31 100 -31 228q0 137 17 221q2 12 12 45t10 51l-4 29q-29 20 -43 20q-115 0 -233 -325q-100 -285 -101 -433q0 -195 99 -350 q113 -180 296 -180q150 0 226 88q27 16 55 16q35 0 62.5 -28.5t27.5 -65.5q0 -84 -143 -135q-111 -39 -213 -39q-260 0 -414 236q-133 203 -133 473zM627 1106q0 -72 22 -166l15 68q0 113 -25 241q-12 -90 -12 -143z" />
<glyph unicode="D" horiz-adv-x="890" d="M-77.5 394.5q22.5 29.5 54.5 29.5q12 0 32 -6t28 -6q14 0 20 6q20 49 21 123q0 113 -20.5 336t-20.5 335q0 109 14 193q12 23 29 45q10 0 10 2h-1q-9 0 -89 26q-90 30 -90 76q0 10 6 33q31 31 86 31h93h-3h20q260 0 527 -195q291 -217 291 -481q0 -221 -248 -405 q-127 -94 -446 -240q-12 -16 -33 -145q-18 -98 -84 -99q-41 0 -73 32t-32 73q0 8 5.5 25.5t5.5 25.5l-2 12q-68 12 -89 27q-34 22 -34 79q0 38 22.5 67.5zM141 1458q61 -49 76 -373q2 -59 2 -426q0 -152 12 -190q14 2 148 61q164 74 266 183q127 132 127 288q0 154 -233 316 q-217 147 -375 147z" />
<glyph unicode="E" horiz-adv-x="942" d="M-53 1358q0 43 67.5 62.5t67.5 64.5q18 12 45 12q23 0 50.5 -29.5t47.5 -29.5q92 0 473 73q43 -8 74 -48t31 -85q0 -27 -18.5 -51t-45.5 -24q-25 0 -73 18t-74 18q-18 0 -50 -11t-42 -23q14 -18 74.5 -54.5t87.5 -62.5q45 -47 45 -109q0 -111 -175 -190 q-131 -47 -262 -92q-10 -37 -10 -64q0 -104 1 -104l1 4q8 -36 8 -119v-35v-15q0 -87 21 -134l37 -2h15q235 0 441 118q23 12 35 82q12 57 53 58q47 0 79 -38t32 -85q0 -80 -51 -121q-92 -76 -268 -121q-147 -31 -293 -61q-8 0 -58 -15q-37 -12 -55 -12q-68 0 -113 43 t-45 111q0 39 9.5 118.5t9.5 120.5q0 35 4 103.5t4 101.5q0 18 -27 23q-18 2 -39 4h-8q-8 0 -22.5 10t-18.5 12q-14 16 -14 39q0 18 10 33q109 4 109 115q0 25 -6 92q-6 43 -6 73q0 11 1 21l-6 45q-2 27 -22 39q-68 12 -94 31q-37 27 -37 90zM260 1208q0 -100 16 -223 q72 2 224 92l2 21l-13 18q-102 80 -229 92z" />
<glyph unicode="F" horiz-adv-x="882" d="M-72 1391q0 16 17 36q14 6 51 43q31 31 53 31q20 0 41 -16q61 16 185 20t184 21q18 -4 37 -4q37 0 107.5 23.5t107.5 23.5q77 -1 108 -103q-4 -63 -61 -106q-51 -35 -103 -70q-31 -31 -172 -137q-109 -84 -157 -152q8 -8 18 -8q-10 0 301 60q96 -18 96 -107 q0 -53 -45 -69q-20 -6 -88 -7q-98 0 -241 -39q-131 -35 -232 -81q-10 -53 -10 -119q0 -43 9 -127t9 -125q0 -143 -86 -143q-33 0 -47 16t-30 35l-15 51q18 215 19 332q0 31 -5.5 91t-5.5 89q0 31 8.5 92.5t8.5 91.5l2 234q0 25 -32 62.5t-32 60.5zM125 1315l8 -176 q4 -6 4 -33q0 -16 17 -19q74 59 145 119q82 70 129 133l-2 9q-96 -2 -291 -15z" />
<glyph unicode="G" horiz-adv-x="905" d="M-51 741q0 207 133 500q154 344 336 344q141 0 237 -147q86 -129 86 -279q0 -184 -10 -246q-26 -163 -114 -163h-7l-24 2q-55 29 -70 88q-6 25 -10 116q-4 106 -10 211q-3 53 -3 99q0 63 5 114q-18 37 -66 37q-137 0 -256 -313q-100 -262 -100 -432q0 -207 120.5 -336 t323.5 -129q68 0 144 31q92 37 92 94l-2 16q-113 23 -265 23q-27 0 -75.5 -8.5t-73.5 -8.5q-18 0 -35 4q-57 47 -57 72q0 102 84 102q16 0 50 -4t52 -4q47 0 170 8q97 7 157 7h15q12 4 27 4q61 0 102 -47.5t41 -108.5q0 -154 -141 -250q-127 -86 -285 -86q-70 0 -108 8 q-268 66 -373 242q-90 150 -90 440z" />
<glyph unicode="H" horiz-adv-x="1073" d="M-29 807q0 74 43 119q10 25 11 55q0 20 -5.5 59t-5.5 60q0 8 -2 52t-2 75q0 168 56 168q59 0 79 -203q23 -223 48 -246l71 -2h36q213 0 452 43q39 8 39 84q0 57 -13.5 175t-13.5 175q0 186 86 187q80 0 102 -107q9 -37 9 -108v-15q-1 -56 -1 -87.5t1 -37.5q2 -74 32 -520 q0 -154 25 -450q16 -93 16 -105q0 -57 -20 -102q-27 -57 -76 -58q-41 0 -68.5 27t-27.5 70q0 23 7 69.5t7 70.5t8 73t8 73q0 53 -10 160t-10 162q0 29 2 57l-18 37q-61 6 -129 6q-178 0 -502 -49q-4 -12 -4 -26q0 -35 9 -108t9 -110q0 -150 -55 -251q-33 -25 -70 -25 q-49 0 -90 51q-12 39 -16 88q-1 11 -1 25q0 27 3 65q2 70 2 90q0 39 -10.5 117t-10.5 117z" />
<glyph unicode="I" horiz-adv-x="419" d="M76 514q0 63 22 111v24q0 82 -7 241t-7 236q0 74 20 164q31 119 78 119q51 0 66 -70q4 -25 4 -108q0 -70 -10.5 -207t-10.5 -205q0 -74 17.5 -224t17.5 -224q0 -88 -80 -88q-74 0 -98 84q-12 43 -12 147z" />
<glyph unicode="J" horiz-adv-x="1165" d="M-61 1444q0 70 71 84q61 6 125 10q117 20 246 21q74 0 224.5 2t225.5 2q131 0 230 16q10 0 49 12q33 8 47 8q39 0 65.5 -29.5t26.5 -66.5q0 -94 -237 -94q-27 0 -70 2h-49q-33 0 -62 -8l13 -12q154 -49 209 -107q69 -71 69 -217q0 -131 -90 -373q-96 -260 -184 -323 q-61 -96 -162.5 -153.5t-212.5 -57.5q-164 0 -293 121q-115 106 -172 272q-29 14 -31 53v-3v71q0 23 -8 71t-8 72q0 254 113 254q65 0 65 -95q0 -34 -5 -97.5t-5 -94.5q0 -160 84 -305q98 -170 246 -170q190 0 344 230q127 190 164 405v12q0 20 4 62.5t4 62.5q0 74 -70 109 q-131 68 -363.5 123t-377.5 55q-68 0 -129 -12q-33 12 -64.5 27.5t-31.5 60.5z" />
<glyph unicode="K" horiz-adv-x="1060" d="M20.5 809q83.5 37 83.5 74q0 78 -16 233.5t-16 233.5q0 217 82 247h3q56 0 74 -63q8 -33 9 -113q0 -55 -7.5 -163.5t-7.5 -163.5q0 -154 31 -154q6 0 10 4q51 41 154 121q289 209 594 311q72 -8 90 -18q33 -20 33 -86q-29 -80 -215 -187q-104 -59 -367 -182 q-227 -106 -289 -149q-8 -12 -8 -21l6 -16q201 -86 613 -148q39 20 73 21q25 0 56.5 -21.5t31.5 -44.5q0 -129 -131 -129q-18 0 -291 68q-264 70 -307 84q-41 -4 -41 -23q0 -31 5.5 -95t5.5 -95q0 -82 -23 -141q-30 -80 -93 -80h-3h-21q-70 37 -92 118q-10 31 -20 154 q-10 98 -41 150q-4 23 -27 81q-22 49 -22 81q0 75 83.5 112z" />
<glyph unicode="L" horiz-adv-x="946" d="M0 1550q0 27 29.5 49.5t56.5 22.5q33 0 61.5 -24.5t32.5 -57.5q10 -63 13 -151q1 -32 1 -72.5t-1 -91.5q-2 -129 -3 -154q0 -330 -26 -596q2 -53 6 -106q5 -66 41 -66q6 0 14 2q150 37 297 74q276 70 293 86q27 78 27 80q20 43 63 47q6 4 17 4q10 0 61 -27q27 -30 27 -75 q0 -74 -29 -150q-18 -55 -102 -55q-16 0 -46 2t-40 2q-98 0 -330 -85t-301 -85q-156 0 -156 254q0 86 16.5 257t16.5 257q0 111 -19.5 330t-19.5 329z" />
<glyph unicode="M" horiz-adv-x="1296" d="M-31 829q0 279 90 484l47 26q14 49 27 101q20 53 80 53q39 0 66 -23q37 -35 124 -307q94 -291 156 -370l19 -5l14 9q25 68 74 172q61 129 77 168q18 57 56 170q57 151 156 151h1q121 0 140 -297q6 -94 32 -248q33 -190 41 -245q12 -18 37 -107q14 -53 82 -72 q60 -14 60 -86q0 -39 -39 -80.5t-78 -41.5t-62 22q-57 57 -139 420q-53 238 -104 473q-23 0 -35 -35q-16 -43 -25 -51q-49 -158 -100 -317q-85 -244 -155 -244h-1h-16q-76 8 -139 115q-10 16 -84 176q-41 86 -109 260l-10 2q-10 -8 -10 -17q-14 -74 -15 -196q0 -45 2 -137.5 t2 -135.5q0 -141 -20 -217q-6 -27 -38 -55.5t-58 -28.5q-37 0 -70 25q-76 156 -76 489z" />
<glyph unicode="N" horiz-adv-x="1196" d="M0 627q0 305 10 424q27 297 119 374q20 102 82 103q39 0 65 -23q45 -41 84 -182q25 -102 50 -205q55 -188 196 -430q168 -283 299 -346q43 20 72 221q20 152 20 258q0 121 -26 254q-41 223 -43 242q-8 61 -72.5 83.5t-64.5 74.5q0 45 40.5 91t88.5 46q104 0 165 -402 q45 -284 45 -499q0 -545 -192 -545q-170 0 -406 399q-135 231 -272 553q-25 4 -31 -25.5t-10 -54.5q-39 -381 -39 -696q0 -113 -96 -113q-27 0 -66 50q-6 47 -6 184q0 27 -6 82t-6 82z" />
<glyph unicode="O" horiz-adv-x="958" d="M-27 717q0 223 70 432q84 252 238 354q37 66 139 66q31 0 63 -4q219 -31 357 -426q67 -195 67 -340q0 -219 -167 -383t-386 -164q-381 0 -381 465zM119 741q0 -154 37 -229q53 -104 196 -104q180 0 293 124q111 120 111 302q0 180 -117 378q-43 10 -74 97q-27 80 -108 80 q-162 0 -260 -254q-78 -197 -78 -394z" />
<glyph unicode="P" horiz-adv-x="872" d="M-66 1151q0 231 109 332q78 70 322 137q45 14 122 14q139 0 275 -55q172 -69 172 -188q0 -145 -162 -256q-109 -76 -342 -160q-256 -94 -307 -123q-10 -84 -10 -180q0 -78 16 -369q2 -33 15.5 -105.5t13.5 -111.5q0 -104 -74 -104q-66 0 -84 61q-10 33 -10 117 q0 51 10 94q-10 84 -16 270q-4 178 -19 275q-31 211 -31 352zM150 1352q0 -43 24.5 -124t24.5 -124q37 -37 67 -41q141 39 293 121q199 111 203 205l-19 34q-88 59 -213 60q-98 0 -206 -31q-129 -37 -174 -100z" />
<glyph unicode="Q" horiz-adv-x="1146" d="M-96 604q0 166 104 389q92 197 217 346q-2 2 -28 50q-16 29 -17 51q0 59 99 114q90 48 151 48h2l23 -3q27 -14 98.5 -16t97.5 -12q47 -16 55.5 -70.5t34.5 -83.5q43 -47 54 -65q174 -309 174 -566q0 -111 -39 -213q14 -53 176 -149q109 -63 219 -125q82 27 98 27 q45 0 96.5 -72t51.5 -119q0 -27 -25.5 -53.5t-52.5 -26.5q-49 0 -333 183q-280 180 -307 180h-1q-264 -246 -537 -246q-168 0 -289.5 131t-121.5 301zM55 631q0 -143 78 -227.5t221 -84.5q186 0 351 152l16 33q-47 55 -129 100q-6 -2 -8 -8v-10q2 -8 2 -13 q0 -18 -10.5 -38.5t-28.5 -20.5q-51 0 -72 68q-10 37 -66.5 98t-56.5 102q0 14 6 37q27 33 78 33q117 0 205 -76q113 -96 160 -112q16 75 16 149q0 139 -57 283q-61 162 -162 231q-35 78 -90 82q-166 -113 -307 -348q-145 -244 -146 -430z" />
<glyph unicode="R" horiz-adv-x="944" d="M-37 549q0 154 25 258q28 117 28 155q0 35 -5 101q-5 65 -5 98q0 190 86 191q27 0 45 -23l31 -41q20 10 45 37q31 37 39 43q205 178 491 178q72 0 125 -37q59 -43 60 -114q0 -106 -262 -279q-90 -61 -363 -213v-14q0 -12 39 -31q25 -10 51 -20q143 -72 405 -130 q245 -55 405 -55h22q2 2 39 27q25 20 39 20h2q74 0 90 -77q-25 -86 -31 -95q-22 -34 -94 -34h-4q-92 0 -340 47q-223 41 -344 75q-66 25 -199 68q-61 14 -186 47l-21 -14q0 -47 15.5 -134t15.5 -132q0 -150 -101 -150h-10h-16q-117 80 -117 248zM195 1032q84 16 279.5 143 t240.5 199l-33 15h-16h-6q-116 0 -244 -75q-131 -77 -185 -181q-37 -76 -36 -84v-17z" />
<glyph unicode="S" horiz-adv-x="964" d="M-102 1231q0 180 137 293q128 108 308 108h3q205 0 410 -100q250 -121 250 -299q0 -117 -97.5 -208t-214.5 -91q-45 0 -53 49q8 29 113 82q96 47 96 113q0 133 -174 225q-150 80 -293 80q-125 0 -211 -51q-104 -63 -104 -179q0 -33 6 -73q63 -119 274 -289 q332 -266 344 -279q168 -156 168 -276q0 -123 -141 -221q-131 -88 -262 -88q-70 0 -139.5 54t-69.5 124q0 100 102 100q25 0 74 -8t76 -8q14 0 37.5 -33t42.5 -37q114 49 114 153v9q-59 115 -272 274q-311 233 -350 271q-174 160 -174 305z" />
<glyph unicode="T" horiz-adv-x="937" d="M-121 1300q0 88 86 111q57 14 264 31q244 18 283 22q199 25 395 47q377 51 408 88q47 61 115 80q102 -16 102 -84q0 -18 -6 -39q-20 -80 -185 -106q-70 -12 -376 -43q-264 -27 -349 -49q-26 -8 -26 -66q0 -44 -4 -118t-4 -111q0 -117 24 -377q22 -212 22 -340 q0 -20 -1 -39l-2 -71q-61 -84 -103 -84q-33 0 -71 34q-41 78 -72 226q-37 174 -57 229q-49 150 -101 297q-70 180 -160 264q-12 12 -106 33q-76 16 -76 65zM231 1274q47 -96 109 -244l98 -246l2 494q0 41 -34 41q-74 0 -175 -45z" />
<glyph unicode="U" horiz-adv-x="1056" d="M-6 1225q0 86 10 155q41 74 84 74q102 0 102 -131q0 -20 -4 -60t-4 -61q0 -252 6 -317q20 -190 105 -291q158 -193 260 -193q88 0 162 129q53 94 78 209q35 195 114 584q-4 29 -4 57q0 63 31 125q39 74 98 74q33 0 60.5 -23.5t27.5 -56.5q0 -86 -63 -174 q-29 -104 -78 -430q-43 -274 -96 -420q-33 -82 -111 -162q-92 -92 -170 -92q-106 0 -240 76q-190 111 -290 414q-78 240 -78 514z" />
<glyph unicode="V" horiz-adv-x="1064" d="M-66 1399q0 66 27 123q30 22 57 22h2q45 0 66 -55q8 -25 18 -96q31 -238 125 -453q82 -182 238 -410q25 -35 84 -94q57 39 207 428l186 492q2 68 27 123q33 73 87 73h1q29 0 55.5 -20t26.5 -49q0 -25 -99 -258q-53 -121 -104 -242q-59 -168 -178 -504q-47 -133 -66 -170 q-56 -108 -126 -108h-1q-10 0 -28.5 7t-44.5 30q-6 6 -105 159q-344 530 -444 916q-10 43 -11 86z" />
<glyph unicode="W" horiz-adv-x="1228" d="M-39 1028q0 25 14.5 105.5t14.5 123.5q0 41 -3 120t-3 118q0 156 86 156q98 0 98 -119q0 -59 -10.5 -178t-10.5 -178q0 -303 109 -541q74 23 180 700q6 35 31 67t55 32q31 0 55.5 -24t24.5 -54q0 -27 -7 -83t-7 -85q0 -133 37 -252q49 -147 139 -207q53 -35 82 -35 q59 0 106 232q37 182 37 286q0 51 -28 88q-4 25 -5 50q0 76 41 127q31 16 70 20q70 -20 70 -96q0 -190 -23 -385q-27 -254 -80 -369q-20 -47 -70.5 -86t-99.5 -39q-117 0 -219 107q-86 88 -135 215l-25 6q-20 -61 -55 -219q-31 -139 -59 -217q-49 -53 -92 -54q-18 0 -68 43 q-88 182 -121 273q-49 137 -70 293q-59 33 -59 59z" />
<glyph unicode="X" horiz-adv-x="1064" d="M-43 236q0 88 98 184q137 135 156 164q63 88 184 274l2 14q2 27 -84 148q-115 168 -157 246q-86 156 -86 264q0 33 55 47q76 -10 137 -94q94 -133 103 -140q53 -51 86 -102q4 -47 -74 -59q12 -35 45 -84q49 -78 53 -81t14 -3q18 0 150 239q152 274 162 287q31 45 86 45 q61 0 78 -74q-27 -106 -56 -213q-30 -121 -30 -213v-6q0 -254 129 -534q14 -31 14 -88q0 -55 -27.5 -96.5t-81.5 -41.5q-33 0 -216 220.5t-203 220.5q-27 0 -121 -170q-90 -160 -105 -211q-8 -33 -51 -64q-53 -43 -65 -55q-23 -33 -46 -65q-33 -39 -65 -39q-31 0 -57.5 24.5 t-26.5 55.5zM573 887q43 -55 86 -111q52 -61 105 -90q-30 207 -30 363q0 34 1 65l-10 2q-43 -53 -86 -108q-49 -66 -66 -121z" />
<glyph unicode="Y" horiz-adv-x="839" d="M-137 1559q0 69 52 69h1q27 0 59 -22q94 -172 187 -344q115 -195 266 -289l18 10q98 498 297 666q12 10 72 20q39 -4 64.5 -40t25.5 -77q0 -51 -39 -135q-51 -115 -57 -131q-141 -449 -457 -975q-27 -41 -55 -84q-29 -47 -29 -85v-9l4 -29q-20 -51 -63 -102 q-53 -63 -98 -63q-90 0 -88 84v34q35 70 132 191t132 190q4 10 84 152q49 92 71 158l-12 24q-197 166 -352 356q-215 262 -215 431z" />
<glyph unicode="Z" horiz-adv-x="1153" d="M-86 1376q0 -14 6 37q43 47 136.5 87t158.5 40q211 0 242 -2q51 -2 237 -25q150 -18 240 -18q66 0 125 8q61 -25 67 -59q8 -12 9 -29q0 -23 -17.5 -50.5t-32.5 -51.5q-293 -250 -403 -352q-252 -236 -358 -394q6 -22 139 -22h12q252 0 504 57q41 10 82 86q39 70 82 70 q39 0 63.5 -25.5t24.5 -62.5q0 -137 -168 -201q-121 -47 -285 -47q-86 0 -259 -20.5t-261 -20.5q-23 0 -65.5 -10.5t-65.5 -10.5q-41 0 -71 24q-28 22 -27 60v5v12q6 45 55 86q78 68 80 67q160 186 627 641q4 12 23.5 31t19.5 31l-7 18q-86 10 -172 21q-100 12 -172 12 l-155 -2q-68 0 -196 -23.5t-157 -23.5q-20 0 -40.5 18.5t-20.5 38.5z" />
<glyph unicode="[" horiz-adv-x="3454" d="M102 432v100l7 13q-6 12 -7 35q0 12 4.5 39.5t4.5 42.5l-2 8l-5 4q4 47 5 110q0 61 -5 142q16 29 64 28q16 0 29 -8q53 10 61 10l16 -8q12 8 33 8q12 0 23 -10q0 -8 3 -23.5t3 -23.5l-8 -31q8 -12 8 -63v-95v-48q0 -14 -2 -7l-6 -8v-8l6 -8v-8q2 -8 -4 -19l6 -20 q25 0 43 -2q8 4 24 4l7 -4q14 4 22 4q6 0 8 -2l15 6q33 -6 32 -60q0 -4 -8 -20l4 -14l-2 -13q6 -9 6 -32q0 -10 -2 -41q-10 -10 -34 -13l-48 -2l-6 6q-39 -4 -55 -4l-10 4q-45 -8 -39 -8q-74 0 -113 8q-12 -8 -47 -8l-12 4l-15 21q-2 4 -4 14zM131 584q0 -133 4 -152l10 -6 q25 4 37 6q14 -6 37 -6q47 0 57 6l19 -6q29 6 45 8l8 -6q33 2 51 4l7 -4q25 10 28 10q4 0 19 -4l6 6q0 8 -4 25.5t-4 28.5q0 6 3 19t3 19l-2 13l-4 6h-23l-4 -6q-18 0 -33 10q-47 -4 -76 2l-2 -6l-12 -2l-4 4l4 35q2 18 0 35l-4 8l-2 12q0 16 6 47t6 45q-4 12 -8 21 q2 14 2 22l-4 4q0 8 5 22.5t5 22.5q0 16 -12 31q0 4 4 16.5t4 16.5v27l-4 6q-12 0 -35.5 2t-34.5 2q-4 0 -12 -4t-10 -4q-6 0 -31 4q-16 2 -31 0l-8 -11v-51l10 -10v-12q0 -25 -6 -73t-6 -73l6 -22q0 -14 -5 -44t-5 -44zM549 672q12 14 12 33q0 68 27 110l10 2q2 20 25.5 44 t44.5 28q4 27 75 51q63 23 101 23q96 0 125 -31q57 -10 96 -55l6 -3q6 -8 21 -16l6 -22l18 -11q31 -61 33 -80l-4 -4q0 -12 6 -37.5t6 -37.5q0 -55 -22 -74q2 -31 -15.5 -62.5t-46.5 -40.5q-6 -18 -43 -45.5t-59 -27.5l-8 2q-31 -27 -99 -27q-49 0 -67 10l-2 -2 q-33 0 -101 27l-8 16q-27 6 -53 31q-4 6 -39 49l2 13q-14 20 -33 59l2 12q-14 43 -16 66zM582 655q0 -57 36.5 -110t90.5 -78q18 -43 172 -43q41 0 161 65q4 10 37 43q27 29 27 64v4q10 14 18 25q0 10 3 28.5t3 26.5q0 57 -36 125l-15 6q-31 55 -100 90q-61 29 -131 29 q-53 0 -139 -37q-14 -33 -47 -39q-12 -20 -33 -35q-2 -25 -24.5 -79t-22.5 -85zM754 678q0 6 4 18.5t4 18.5q0 14 -4 20q2 23 24.5 45.5t44.5 24.5l4 6q10 4 19 4q12 0 32.5 -13.5t22.5 -23.5l19 -6q12 -20 20 -29q0 -69 8 -92q-29 -70 -37 -80q-23 -33 -77 -32 q-33 18 -47 24q-20 25 -27 29q0 14 -5 43t-5 43zM782 674q0 -4 4 -15q6 -35 7 -51q8 -12 20 -28q4 0 14.5 -5.5t16.5 -5.5q-16 0 20 6q14 12 37 62q14 34 14 22q0 2 -2 7v57q-4 18 -28.5 37.5t-42.5 19.5l-4 -2q-23 -12 -33 -14q-4 -18 -17 -23q-4 14 -4 -51q0 -4 2 -8z M913 1382q0 92 45 166q51 86 140 86q94 0 127 -129l26 -200q14 -10 52 -19q51 383 129 383l16 -10q-27 -59 -68 -186q-14 -78 -14 -134q0 -43 4 -63l31 4l10 -12l-10 -21l-25 -12q16 -49 45 -150q-10 -18 -37.5 -41.5t-44.5 -23.5q-47 0 -47 219q-18 4 -47 10 q-37 -236 -112 -235q-63 0 -64 33l4 10q47 117 82 213q-88 55 -88 84q0 31 33 39q14 -4 59 -43l2 63q2 53 -16 105q-25 63 -72 63q-57 0 -90 -65q-27 -53 -27 -119q0 -33 17 -70q20 -45 49 -45q8 0 20.5 6t20.5 6q18 0 18 -34q0 -41 -51 -41q-117 0 -117 163zM950 80 q0 51 31 90t82 39q12 0 27 -2q-4 72 -5 100q0 133 50 133q37 0 36 -26q0 -57 -3 -170t-3 -170q0 -74 19 -74l24 23l6 2l7 -9q0 -23 -18.5 -45t-41.5 -22q-12 0 -45 22q-49 -25 -76 -24q-90 0 -90 133zM1022 92q0 -109 53 -108q19 0 19 16l-2 166q0 18 -17 18q-53 0 -53 -92z M1221 836q0 66 4 82q10 39 55 38l37 -8l12 8h17q33 0 47 -8q16 6 28 10q39 0 39 -43q0 -18 -6 -30q4 -49 4 -72l25 -4q6 0 28 4q6 82 7 68q0 8 -5 18q6 37 11 45q12 18 43 19l10 -9q16 4 35 4q18 0 39 -4l10 4l18 -4q10 4 23 4q16 0 35 -8q8 -12 8 -28q0 -12 -4 -39t-4 -41 l6 -8q2 -106 -8 -134q10 -29 10 -53q0 -113 -12 -127q12 -39 12 -86q0 -33 -49 -37q-6 -2 -82 -2q-14 0 -29 8l-18 -6q-53 2 -64 45v93q0 37 2 65l-14 12q-8 0 -33 -6q-6 -31 -6 -47q0 -6 3 -18.5t3 -18.5q0 -29 -6 -43q6 -39 8 -49q0 -37 -30 -37q-12 0 -29 4 q-14 -6 -33 -6q-6 0 -33 10q-25 -10 -59 -10q-16 0 -35 4q-14 29 -14 39q0 25 5 72t5 72q0 33 -2 99t-2 101q0 10 -6 28.5t-6 29.5zM1225 74q0 57 34.5 98t90.5 41q92 0 92 -104q0 -63 -43 -64q-47 0 -86 51q0 -111 63 -110q43 0 97 77q8 0 8 -18q0 -39 -47.5 -69.5 t-90.5 -30.5q-119 0 -118 129zM1253 911q0 -27 9 -41l-7 -39l2 -4q2 -137 11 -153q-6 -25 -4 -47q4 -37 6 -47q0 -25 -5 -71t-5 -69l6 -16l16 -2h127l16 4l2 16q0 8 -2 23.5t-2 21.5q8 16 9 25q0 10 -4.5 29.5t-4.5 27.5q0 -6 11 62q47 10 71 12l15 -8l14 2l4 -12 q4 -35 -4 -101q4 -57 2 -86l6 -10l43 6q12 -6 27 -6q8 0 23.5 2t23.5 2l8 -4q10 2 21 2q10 0 20 -2l10 4q-12 49 -12 94q0 8 6 27.5t6 30.5q0 20 -6 60t-6 61q0 4 5 14t5 12q0 10 -4 30.5t-4 29.5l6 12q0 59 2 90l-2 33l-20 2l-11 -4q-27 2 -38 0l-11 6q-23 2 -63 -6l-10 6 l-13 -4q-8 -70 -8 -125l4 -17q-8 0 -25.5 -3t-27.5 -3q-8 0 -37 6q-4 -6 -16 -10l-6 8q4 78 -9 95q4 33 9 47l-7 4l-24 -13l-15 3l-10 10h-49l-65 -2l-7 -4zM1313 106q4 10 16 11q6 0 18.5 -10.5t18.5 -10.5q14 0 14 45q0 43 -30 43q-31 0 -37 -78zM1430 1145q0 51 31.5 100 t80.5 49q102 0 103 -34v-136q0 -31 6 -30q6 0 26 43l9 -4q2 -9 4 -11q0 -31 -21.5 -62.5t-50.5 -31.5q-33 0 -41 25q-18 -27 -55 -27q-92 0 -92 119zM1483 2q0 35 39 35q-4 -14 -4 -29q0 -33 28 -33q29 0 29 48q0 59 -37 59q-6 -10 -25 -27q-12 4 -12 15q12 29 33 67 q4 10 10 56q4 29 19 28h8q2 -18 12 -47l39 -61q18 -39 10 -72l21 33q10 0 10 -8q0 -43 -35 -83t-78 -40q-25 0 -46 17t-21 42zM1507 1147q0 -82 37 -82q29 0 29 16v160q0 29 -12 29q-53 0 -54 -123zM1669 129q0 78 60 78q29 0 28 -62q0 -16 -3 -47.5t-3 -46.5q0 -43 10 -43 q18 0 31 27q8 12 16 28q7 0 7 -10q0 -37 -26 -69.5t-60 -32.5q-55 0 -56 110q0 12 -2 35t-2 33zM1679 266q0 55 43 56q29 0 29 -39q0 -55 -43 -56q-29 0 -29 39zM1694 1239q0 57 49 57q31 0 24 -69q33 70 62 69q37 0 37 -47q0 -20 -12.5 -46.5t-30.5 -26.5q-10 0 -27 38 q-18 -25 -24 -112q-4 -68 -41 -68q-31 0 -33 53q2 -37 2 76q0 12 -3 37t-3 39zM1810 918q6 12 15 28q8 8 37 8q20 0 41 -6q18 8 47 8l22 -8l21 8q20 0 37 -20h6q25 -33 24 -47v-2l15 -6q20 -35 24 -47q18 -2 33 -23l6 4q-6 25 -6 43q0 14 6 27l-10 10q0 45 7 56.5t48 11.5 q39 0 53 -11q10 4 21 6l8 -4q14 10 45 11q8 0 23 -17q2 -39 2 -45l-2 -45l-6 -4q6 -12 8 -18q0 -39 -13 -84l9 -15q-4 -102 -11 -129l11 -47l-11 -63q10 -47 11 -74q-16 -25 -56 -25q-12 0 -24 7q-41 -8 -60 -9q-12 0 -31.5 27t-23.5 43q-39 20 -51 57q-20 14 -49 45 q-8 -53 -8 -80l10 -24q-10 -43 -8 -64q-20 -6 -35 -6q-6 0 -13 2q-6 -4 -12 -4q-10 0 -20 8l-21 -8h-78q-35 4 -34 53q0 23 8 43q-8 20 -8 46q0 29 10 63l-10 23q0 72 8 86l-6 14q6 16 6 88q0 31 -4 49l2 4l2 23q-12 8 -15 33zM1821 66q0 145 110 145q8 0 35 -12 q35 10 59 10q18 0 19 -76v-24q-2 -23 -2 -37v-62q29 41 29 74q18 -5 18 -21t-27 -77l-51 -117q-41 -76 -96 -76q-31 0 -53.5 24.5t-22.5 53.5q0 51 27 51q6 -4 10 -6l8 -51q8 -39 41 -39q45 0 45 108q0 10 -4 23v23q-29 -31 -57 -31q-88 0 -88 117zM1847 909q12 -12 13 -110 q-4 -18 -7 -47q-2 -29 7 -47l-9 -17q0 -16 5.5 -47t5.5 -47q0 -18 -7.5 -63.5t-5.5 -69.5v-21l6 -10q16 -2 33 -2q-14 0 2 2h49h56q6 20 8 37l-10 16q2 12 8 25q-6 25 6 78l-12 4q6 16 14 26h6l17 -12q20 0 79.5 -61.5t61.5 -83.5q25 -20 31 -27q-10 0 4 2h39h41l6 10v9 q0 6 -4 59l8 23q0 49 -8 69q14 49 14 230q0 -4 -8 26l10 27l-2 41l-12 2l-23 -8q-23 8 -96 8q-6 -2 -8 -4v-23q6 -10 6 -41q0 -43 -10 -76q10 -16 10 -26l-2 -4l-2 -2l-17 2l-10 8l-2 10q-31 8 -63 43q-6 6 -45 60q4 41 -35 45q-12 -6 -25 -7q-14 12 -26 11h-13 q-6 -10 -22 -11q-8 0 -24.5 4.5t-22.5 4.5l-15 -6v-9zM1872 1163q0 133 113 133q96 0 106 -116q18 12 27 12q8 0 14 -4q0 -25 -43 -55q-23 -104 -117 -105q-49 0 -78 45q-23 39 -22 90zM1894 66q0 -80 37 -80q31 0 31 41v102q-4 47 -29 47q-39 0 -39 -110zM1954 1165 q0 -109 35 -108q26 0 26 80q0 135 -37 135q-25 0 -24 -107zM2097 86v37q0 90 45 90q35 0 35 -23q0 -6 -2 -15t-2 -13q0 -8 2 -15q33 74 68 74q63 0 63 -84q0 -16 -2 -48t-2 -48q0 -23 10 -23l6 7q6 4 17 10q6 -9 8 -19q-29 -70 -82 -69q-33 0 -35 71q-2 31 2 97q2 35 -16 39 q-8 -10 -31 -119q-16 -84 -53 -84q-10 0 -17 4q-14 8 -14 131zM2142 1241q0 242 15 285q10 25 47 24q12 0 24 -6q4 -12 4 -20q0 -63 -6 -189.5t-6 -189.5q0 -61 21 -62q14 0 22 29q6 -8 6 -20q0 -23 -20.5 -44.5t-42.5 -21.5q-63 0 -64 215zM2284 1163q0 53 30.5 92t81.5 39 q12 0 27 -4q-4 72 -4 101q0 133 49 133q37 0 37 -27q0 -57 -3 -170t-3 -168q0 -76 18 -76q-4 0 25 23l6 2l6 -6q0 -25 -18.5 -47.5t-38.5 -22.5q-14 0 -48 23q-49 -25 -75 -25q-90 0 -90 133zM2345 2q0 35 41 35q-6 -14 -6 -29q0 -33 28 -33q27 0 27 48q0 59 -35 59 q-6 -10 -24 -27q-14 4 -15 15q51 96 52 141q0 10 12 10h8q2 -18 12 -47q59 -92 52 -133l18 33q12 0 12 -8q0 -43 -35.5 -83t-76.5 -40q-27 0 -48.5 16t-21.5 43zM2353 1176q0 -109 55 -109q19 0 19 16l-2 166q-2 20 -17 21q-55 0 -55 -94zM2394 444q0 23 8 37q-6 20 -6 41 q0 23 10 45q-6 14 -6 109q0 100 8 115q-6 25 -6 43q0 23 11 34q-8 12 -9 39q0 16 2 39q20 12 31 12q18 0 37 -12l14 8q150 -8 185 -8q8 0 24.5 5t24.5 5q35 0 35 -24q0 -14 -9 -23q6 -14 7 -26q0 -14 -7 -29q6 -18 7 -29q0 -35 -72 -34q-92 0 -39 2q-25 0 -31 -19l4 -12 l29 -6q10 0 38 4t42 2h4l16 -10q2 -10 2 -29l-10 -14q10 -20 10 -37q0 -39 -73 -39l-29 4q-14 2 -27 -4v-17l-8 -10l10 -26h93q51 0 51 -31q0 -18 -8 -33q6 -14 6 -29q0 -12 -8 -22q4 -16 4 -31q0 -39 -54 -35l-6 4q-43 -6 -76 -6q-137 0 -196 -4l-14 8q-18 51 -19 43z M2425 446q4 -12 8 -20q8 0 23.5 3t23.5 3q203 0 242 -6l8 4q-2 25 -4 37l8 12v21q-8 6 -8 16q0 6 4 16.5t4 12.5q-12 6 -68.5 4t-76.5 16l2 13q-8 14 -8 28v6q12 12 12 33l-4 14l8 7q10 -2 27 0q18 2 26 2q10 -2 19 -6q12 6 26 6l8 -4l13 4q0 8 -4 22.5t-4 20.5l4 14l-4 6 q-4 0 -15 2h-18q-4 0 -14.5 -3t-16.5 -3q-4 0 -22.5 4t-26.5 2h-10l-4 8l6 17q-6 8 -6 20q0 4 6 13l-2 18l10 8q-8 0 2 2l125 8l2 11q0 8 -4 18q6 12 6 31q0 4 -8 24l4 9l-4 4q-10 0 -26.5 -4.5t-24.5 -4.5t-20.5 4.5t-20.5 4.5q-14 0 -42 -3t-42 -3l-15 6q-12 2 -18 2 q-4 0 -14.5 -4t-14.5 -4h-14l-17 8h-8l-8 -11q0 -8 5 -24.5t5 -24.5t-6 -24.5t-6 -24.5q0 -4 5 -14t5 -15q0 -23 -6 -68.5t-6 -70.5q0 -18 4 -33l-4 -18q0 -10 6 -33l-6 -37q0 -8 2 -25.5t2 -25.5q-10 -23 -10 -31zM2828 563q0 16 11 41q-4 16 -5 45q0 37 7 92l-9 15 q8 61 11 90q-12 10 -13 41q0 68 37 67q10 -4 21 -8q12 10 26 10q72 0 88 -8q18 10 86 8l7 -6q10 0 27.5 3t25.5 3q53 0 71 -26q23 6 62 -29l2 -14q53 -51 53 -74l-2 -14q14 -23 14 -49q0 -57 -20 -72q6 -51 -41 -70l-4 -10l-33 -8q14 -10 35 -15q18 16 29 17q14 0 30 -6 l9 -15q0 -37 -9 -51q4 -14 4 -24q0 -23 -14 -37l14 -33q0 -35 -75 -35q-20 0 -35 10q-20 -10 -29 -10q-35 0 -141 88h-6l-4 -24q2 -8 4 -27q4 -35 -31 -35q-29 0 -45 8q-12 -6 -31 -6q-16 0 -35 6q-20 -6 -45 -6q-14 0 -30 6l-13 21v8q0 16 4 100zM2859 565q0 -8 5 -25.5 t5 -27.5q0 -12 -3 -36.5t-3 -37.5q0 -16 21 -16q12 0 32 16h11q14 -14 32 -14q6 0 17.5 4t17.5 4q2 0 10.5 -4t10.5 -4h16l4 6l2 10q-8 16 -4 33q8 23 8 31v8l11 10l2 8l4 2l4 -4l-2 -18q10 2 46 -24.5t44 -28.5q14 -29 65 -35q12 8 27 8q6 0 20.5 -6t22.5 -6q14 0 29 6l2 6 l-13 25l19 90v12l-6 2q-12 -10 -25 -18q-57 20 -86 34l-6 7v10q23 16 33 24q53 2 69 48q-2 8 -2 14q0 10 19 33q2 37 2 53l-17 18l-2 15q0 8 7 18q-10 29 -43 49q-6 23 -23 31q-10 2 -41 6q-18 27 -121 27q-12 0 -33.5 -5t-33.5 -5t-38 4t-40 4q-8 0 -25.5 -5.5t-25.5 -5.5 l-13 3l-10 -11v-8q0 12 16 -59q-14 -23 -14 -49q0 -39 12 -48q0 -10 -7 -27.5t-7 -21.5l10 -100q-12 -14 -12 -29zM3029 715q0 6 4 21.5t4 21.5v2q-8 12 -8 26q0 6 8 17l-4 6l4 6h6l9 -4q14 16 36 16q39 0 43 -22q16 -6 17 -25q0 -4 -2 -6l4 -8q0 -8 3 -24.5t3 -22.5 q-6 -27 -12 -70q-33 -51 -62 -51q-6 6 -12 8q-14 -10 -27 -12l-8 2l-2 10l6 12q-2 20 -2 25q0 4 2 8v15q0 6 -5 22.5t-5 26.5zM3058 702q0 -4 12 -63l10 -6q37 6 37 43v18q0 2 4 10.5t4 12.5q-6 6 -6 20q0 61 -31 62l-26 -13l-2 -8l6 -6v-8q0 -10 -4 -30.5t-4 -31.5z" />
<glyph unicode="\" horiz-adv-x="1443" d="M102 664q18 111 54 176l-15 4q23 66 58 90l10 -16q-27 -18 -45 -66q23 35 55 43q68 104 160 158q-45 -12 -84 -58h2l-8 -8q-25 -23 -51 -61l-15 12q10 16 21 27q-16 -12 -29 -33l-14 10q12 20 26 35l-22 -12q-66 -49 -72 -150l-18 2q6 104 75 160v2h3q6 49 106 92l2 4h2 q98 82 221 84q201 4 445 -160q98 -68 176 -187.5t104 -238.5q35 -47 43 -106l-18 -4q-8 59 -41 102q-47 215 -242 389q-139 127 -362 174q-63 12 -111 13q-104 -2 -207 -84q-18 -35 -53 -60q8 4 21 7q43 53 96 67q43 45 139 47q113 2 240 -47q240 -90 362 -276 q76 -115 105 -220q57 -80 63 -198h-18q-4 70 -31 133q14 -68 16 -123q0 -61 -16 -94l-16 8q14 29 14 86q-2 61 -23 154q-23 100 -51 147q-39 68 -61 100q-35 53 -72 91q-98 106 -278 176q-125 47 -236 45q-84 -2 -125 -43q55 33 131 33q137 2 281 -80q4 2 8 2 q53 0 165.5 -92.5t198.5 -294.5q43 -100 46 -228q2 -51 -7 -102l-18 4q6 45 6 107q-2 164 -103.5 334.5t-244.5 240.5q129 -90 220 -239.5t114 -305.5l2 -2l-2 -2q4 -27 4 -51q2 -104 -60 -176q-35 -43 -51 -58q-33 -31 -65 -43q-51 -55 -107 -55q-84 -2 -160 109 q-49 72 -115.5 231.5t-88.5 194.5q10 -113 127 -338q111 -211 239 -209q80 2 164 78l12 -15q-37 -35 -71 -53q61 25 131 64l10 -17q-184 -102 -293 -102q-16 -2 -29 2q-14 -4 -28 -6q-92 0 -164 100t-86 123q-47 72 -70 131v6q0 29 -14 51q16 -111 70 -198q84 -133 112 -162 q70 -72 178 -70h45q35 2 84 27q76 39 170 67l9 3l6 -17l-10 -2q-92 -29 -164 -67q-55 -27 -95 -29q-113 -2 -174 28.5t-122 126.5q-119 182 -132 314l-4 2l4 4q-39 117 -40 209q-2 61 14 108l18 -6q-14 -43 -14 -100q2 -90 39 -207q41 -33 39 -86q51 -131 166 -262 q66 -76 133 -74q16 0 30 4q12 -4 31 -2q29 0 64 8h-15q-156 -4 -260 220q-125 262 -131 348q0 12 -2 37h2q-4 27 -6 51q-2 111 74 129q25 4 69 14q-23 10 -43 10q-27 0 -51 -20l-10 14q31 25 65 25q20 0 58 -17q113 -53 207 -206q18 -29 80 -156q27 -55 77 -168q6 -12 9 -29 q2 8 2 23q0 10 -4 24l-7 9l4 4q-10 35 -32 80q-4 6 -11 20q-12 31 -34 92q-98 236 -262 320q-53 27 -117 26q-131 -2 -131 -127h-19q0 141 144 144q74 2 131 -27q168 -88 270 -326q10 -31 35 -94q4 -8 14 -24q23 -49 33 -88q8 -12 14 -13q6 0 6 21q-131 365 -245 457 q-76 61 -105 77q-43 23 -125 35l4 19q82 -14 127 -37q33 -16 109 -80q121 -94 254 -469q-2 -41 -23 -43q-6 0 -12 6v-6q2 -63 -51 -64q-53 -2 -105 97q-102 205 -110 219q-98 172 -141 172l-5 -2q-8 -23 -6 -41q0 -31 36 -88.5t159 -278.5q76 -135 147 -133q18 0 37 12h2 q88 63 86 125q0 76 -86 252q-82 170 -141 230q-113 117 -256 159q-10 -12 -74 -16q-74 -6 -119 -35q-68 -45 -104 -153l-16 6q59 182 247 200q20 2 52 9v-2v-3l6 9q-8 -2 -21 -2q-16 2 -47 6q-43 0 -92 -21q-182 -72 -178 -356q2 -63 10 -113q29 -154 86 -299 q80 -203 166 -239q8 -8 20 -9q12 0 31 9q20 -37 111 -33l2 -19h-10q-63 -4 -97 17v-6q-20 -6 -41 -6q-39 0 -80 18l9 16q37 -16 71 -16q18 0 29 4l-2 2q-12 -4 -23 -4q-14 0 -30 10q-35 20 -52 37q-76 74 -137 242q-53 141 -71 272q-8 72 -11 117q-4 272 162 360 q-193 -74 -188 -305q0 -43 10 -131q39 -389 252 -573l-12 -15q-164 139 -230 414q-25 100 -37 277q-2 -43 -2 -89q6 -375 215 -557l-12 -14q-127 113 -176 264q-41 121 -45 314q-4 272 90 399q-63 -66 -100 -217q-29 -125 -27 -242q0 -45 6 -92l-18 -2q-6 49 -6 92 q-2 102 22 225q31 141 80 213l-21 -30v-6h-4q-84 -133 -90 -314h-18q4 168 78 299q-51 -45 -78 -205zM125 934l33 57h2l47 64l14 -13l-49 -63l-31 -53zM150 1026q39 66 79 66q8 0 17 -2q127 102 266 104q53 2 102 -12q12 -4 37 -11q43 -8 129 -32q268 -100 418 -369 q64 -4 111 -160l-19 -6q-33 111 -78 141q68 -121 78 -190l-18 -4q-10 76 -84 201h-2q-2 6 -6 12q-68 123 -184.5 221t-247.5 143q-27 10 -103 25q-12 4 -35 12q-47 12 -96 11q-55 0 -145 -33q-98 -37 -119 -76h-2l-19 -18l-12 14l10 10q-29 -2 -61 -57zM164 1090 q180 119 242 124q39 8 116 17q63 0 142 -25q102 -33 137 -47q76 -29 131 -63q192 -123 385 -414l-14 -10q-250 377 -527 479q-39 12 -116.5 36.5t-137.5 24.5q-92 -2 -182 -43q-57 -25 -166 -94zM174 520q0 33 2 64l19 -2q-2 -31 -2 -64q5 -295 120 -434l-14 -12 q-119 139 -125 448zM215 991q37 20 64 49q-51 -27 -64 -49zM219 1159q45 41 70 41h10v-18q-27 0 -68 -37zM233 1214q90 55 150 56q29 2 45 -8l70 14l4 -19l-68 -14q-12 -29 -55 -29q-35 -2 -72 -24l-8 16q39 25 90 27q18 0 27 14q-14 6 -31 6q-53 0 -141 -55zM250 1266 q109 39 184 41q26 0 49 -4l-4 -19q-18 4 -41 4q-78 -2 -184 -39zM260 821q39 82 120 130t173 46h8v-8q25 -6 45 -6q21 0 29 10q-78 25 -143 23q-170 -2 -232 -195zM268 1311q57 29 131 28q33 2 62 -2l-2 -18q-31 4 -64 4q-66 -2 -119 -29zM285 950q98 102 243 107 q37 0 136 -21q23 -4 65 -16q84 -33 201 -154t151 -207q45 -113 76 -176q-35 166 -146.5 314.5t-260.5 218.5q-123 57 -230 55q-129 -2 -235 -121zM307 1399l88 12l2 -14q14 8 37 14l4 -18q-31 -8 -43 -21q14 -6 25 -6q6 0 16 10l10 -14q-14 -12 -30 -12q-14 -2 -33 6l-2 -2 l-4 4l-64 -15l-4 19l64 14q8 10 20 17l-84 -13zM309 633q-2 57 4 110l19 -2q-8 -70 -6 -139q6 -356 206 -592q32 -37 52 -55l-13 -12q-127 109 -198 315q-61 178 -64 375zM313 45l17 8q16 -35 73 -76l-12 -14q-59 43 -78 82zM340 1440l18 2q307 8 660 -180q178 -97 305 -199 l-12 -14q-190 160 -455 266q-285 115 -514 106zM342 637q-2 90 43 184q14 31 18 37q14 23 31 29l8 -17q-23 -10 -43 -65l-8 4l6 -6q-39 -43 -37 -164q2 -160 54 -338q23 -82 90 -192q76 -123 137 -156q35 -20 113 -19q43 0 96 11l2 -19q-51 -10 -94 -10q-88 -2 -125 21 q-68 37 -144 161q-70 111 -94 199q-51 180 -53 340zM342 1462l2 19q178 0 369 -56q295 -86 397 -180l8 -2q-41 45 -135 98q-213 115 -567 170l2 19q479 -74 688 -250q12 -14 43 -41l49 -6q27 -12 74 -43l-12 -14q-20 16 -66 41l-18 2q36 -33 114 -86l-8 -17q-31 14 -141 107 l-39 4q-51 49 -187 106q-113 49 -208 74q-209 55 -365 55zM377 610q-6 311 198 314q12 2 29 0v-19h-20q-193 -2 -189 -289q2 -61 11 -120q25 -154 106 -318q102 -207 215 -217v-18l-10 2q-35 2 -86 43q-174 137 -244 504q-10 55 -10 118zM438 670q0 20 2 43h19q-2 -20 0 -43 q4 -240 153 -447q-10 59 -90 226q-51 109 -53 227q-4 170 131 190l2 -18q-117 -16 -115 -168q2 -113 52 -223q96 -211 92 -256q39 -49 81 -100.5t101 -71.5l-6 -19q-66 25 -110 78t-85 105l-2 2v2q-166 203 -172 473zM442 1544v19q190 -4 424 -103q203 -86 383 -215l-12 -14 q-164 121 -377 211q-240 98 -418 102zM475 1368h14q43 2 103 -43q283 0 575 -256h7q53 0 124 -74l-12 -12q-61 61 -100 68q88 -80 145 -154l-14 -12q-68 88 -154 164l-4 -2l-2 6q-289 250 -563 254l-2 -4l-6 4q-25 25 -99 18l-2 18q18 2 37 0q-25 10 -43 7zM475 1382l4 19 q297 -49 525 -170q47 -25 143 -90q88 -61 141 -88l-8 -17q-53 27 -141 88q-96 66 -144 90q-225 121 -520 168zM492 1034q55 2 140 -21.5t128 -54.5l4 3v-3q63 -4 98 -67q18 -12 92 -96q63 -74 119 -203q8 -20 25 -62q6 -10 16 -30q39 -70 39 -127q2 -41 -16 -74 q-10 -68 -90 -125q-8 -47 -76 -49q-88 0 -213 199q12 -47 76 -117l-15 -12q-80 90 -82 141q0 10 2 18q-143 242 -145 332q-2 51 31 51q10 0 22 -6q6 2 12 2q55 2 156 -170q61 -106 117 -229q39 -88 86 -86q-12 8 -25 28q-2 2 -57 105q-45 86 -139 258q-74 125 -158 125 q-68 -2 -66 -68q0 -33 19 -73q92 -229 125 -293q109 -217 194 -236l-4 -16q-123 25 -258 352q-31 74 -88 221v2q-6 20 -6 41q-2 86 84 88q96 2 174 -133q20 -37 139 -260q18 -35 58 -104q12 -18 20 -23q0 10 -6 31q-2 0 -37 82q-84 182 -121 243q-84 139 -188 191 q-12 -12 -38 -16.5t-48 -8.5q-63 -16 -62 -104q0 -31 13 -68q20 -23 96 -200q61 -145 100 -209q84 -137 166 -135q35 0 70 26h-12q-76 -2 -129 80l14 10q47 -74 117 -71q18 0 34 6l9 8l4 -4q51 25 112 106q47 62 45 154q0 23 -4 45q-20 29 -53 111q-45 111 -47 114 q-14 29 -66 101q-145 197 -278 250q-16 6 -59 14q-104 20 -134 18q-18 0 -36 -2zM496 1305h10q309 8 600 -234q145 -121 235 -252l-14 -10q-135 201 -360 338q-244 145 -469 139zM510 1247v19q154 -4 291 -64q57 0 141 -45q180 -99 391 -375l-14 -10q-238 311 -430 391 q231 -127 434 -434l-16 -10q-96 147 -228 274q-156 150 -291 195q-133 55 -278 59zM518 -131l4 18q33 -6 60 -6q25 0 53 8l6 -18q-31 -8 -57 -8q-33 0 -66 6zM518 1577l2 18q307 -18 684 -278l-10 -17q-141 102 -324 181q-203 88 -352 96zM557 1612l4 18q332 -63 572 -223 l-11 -14q-233 156 -565 219zM600 -166l115 10l2 -18l-115 -10zM610 694q2 -98 138 -317q141 -233 225 -232q33 1 47 15q-14 -4 -27 -4q-98 -2 -184 180q-37 80 -139 242q-37 59 -37 96q-2 18 4 41q-6 2 -12 2q-14 0 -15 -23zM637 971q160 -47 268 -166q123 -135 228 -465 q2 15 2 29q0 39 -18.5 77.5t-35.5 75.5q-6 16 -18 51q-47 123 -123 209q-27 33 -84 90l-2 -4q-82 33 -102 74q-29 20 -99 45q-4 -12 -16 -16zM649 1632l4 19q143 -23 242 -90q84 -9 160 -72l-13 -14q-74 59 -153 67q-94 68 -240 90zM659 686l17 8l4 -6q98 -166 162 -276 q25 -43 73 -127q45 -72 86 -70q41 0 86 61l17 -10q-49 -70 -100 -71q-53 0 -105 81q-23 39 -68 119q-63 111 -165 283zM680 -195h20q96 0 164 31l8 -16q-72 -31 -174 -31l-18 -2v18zM721 -154q51 4 149 27l7 -16q-35 -14 -154 -29zM725 -106q227 10 414 133l10 -15 q-184 -123 -422 -137zM760 356zM776 938q17 -21 62 -41q-27 33 -62 41zM786 995l7 -2l-7 4v-2zM793 993l4 -2zM883 -129q31 12 86 41l12 -16q-23 -14 -92 -41zM989 -84l96 39l9 -16l-97 -39zM1055 127q104 57 123 145l18 -4q-8 -37 -31 -67q18 12 41 65l17 -8 q-25 -57 -49 -76l-11 13q-35 -47 -98 -84zM1098 121q35 14 67 61l15 -10q-37 -53 -76 -68zM1276 547l18 4l15 -49l-19 -4zM1309 653l18 4l14 -43l-18 -6z" />
<glyph unicode="]" horiz-adv-x="5120" d="M92 1552q0 -55 23 -102q29 -59 78 -59t77 59q20 47 21 102q0 55 -21 103q-28 59 -77 59t-78 -59q-23 -47 -23 -103zM113 1552q0 47 16 86q23 49 64 50q41 0 61 -50q18 -39 18 -86t-18 -84q-20 -51 -61 -51t-64 51q-16 37 -16 84zM139 1552q0 -96 56 -96q41 0 47 70h-25 q0 -10 -6 -23l-16 -10q-27 10 -27 57q0 51 27 62l12 -6q8 -14 10 -29h27q-8 72 -51 72q-53 0 -54 -97zM309 1391q2 72 49.5 129t47.5 92q0 47 -27 47q-29 0 -29 -62h-39q4 115 66 115q68 0 67 -102q0 -51 -30 -90q-49 -63 -56 -74h86v-55h-135zM473 1546q0 -164 68 -164 t67 164q0 166 -67 166q-68 0 -68 -166zM510 1085h55l31 -172l27 172h53l31 -172l28 172h56l-58 -239h-53l-31 174l-31 -174h-53zM512 1546q0 115 29 115q27 0 26 -115q0 -113 -26 -112q-29 0 -29 112zM635 1546q0 -164 67 -164q68 0 68 164q0 166 -68 166q-67 0 -67 -166z M674 1546q-1 115 28 115t29 -115q0 -113 -29 -112q-29 0 -28 112zM797 1085h55l31 -172l28 172h52l30 -172l31 172h53l-57 -239h-53l-31 174l-31 -174h-53zM797 1391q2 72 49 129t47 92q0 47 -27 47t-28 -62h-37q2 115 63 115q68 0 68 -102q0 -51 -31 -90q-49 -63 -55 -74 h86v-55h-135zM930 301v324h55v-123h102v123h56v-324h-56v145h-102v-145h-55zM1059 1391v323h41v-123h78v123h41v-323h-41v145h-78v-145h-41zM1083 1085h56l32 -172l27 172h53l29 -172l31 172h55l-57 -239h-54l-30 174l-31 -174h-55zM1196 301v324h55v-267h133v-57h-188z M1253 1454q0 -72 47 -72q27 0 46 37l4 -28h43v8l-7 8q2 -12 3 119q0 111 -68 110q-59 0 -61 -84h36q2 33 25 33l18 -4q6 -12 7 -20l-9 -19q-31 -12 -61 -24q-23 -15 -23 -64zM1292 1458q0 12 8 27q18 6 46 22v-26q0 -44 -35 -54l-13 9q-6 12 -6 22zM1393 846v65h55v-65h-55z M1407 420q0 -127 100 -127t101 127q-1 129 -101 129t-100 -129zM1425 1391v239h37v-41q18 49 45 47h4v-65l-10 2q-41 0 -41 -105q0 -23 2 -51t2 -26h-39zM1460 420q0 76 47 76q45 0 45 -76t-45 -76q-47 0 -47 76zM1497 846v323h51v-114q21 37 58 37q68 0 67 -93v-153h-51 q0 -4 3 30.5t3 63.5q0 100 -39 100q-47 0 -47 -110q0 -25 3 -55.5t3 -28.5h-51zM1534 1509q0 -127 76 -127t76 127q0 129 -76 129t-76 -129zM1575 1509q0 76 35 76t35 -76q0 -74 -35 -73q-35 -1 -35 73zM1645 301v324h51v-115q20 37 57 37q70 0 70 -92v-154h-54q0 -4 3.5 31 t3.5 61q0 102 -39 103q-45 0 -45 -111q0 -25 2 -55.5t2 -28.5h-51zM1708 909q0 -72 61 -71q37 0 64 36q0 -16 4 -28h55v8l-6 8q0 72 -2 144q-4 86 -84 86q-82 0 -86 -84h51q4 33 33 32q10 0 25 -6q8 -10 8 -18q0 -18 -31 -25q-47 -8 -59 -16q-33 -19 -33 -66zM1722 1391v323 h37v-323h-37zM1761 913q0 25 27 33q39 12 43 17v-27q0 -53 -45 -53l-19 8q-6 12 -6 22zM1796 1503q0 -121 62 -121q29 0 45 41v-32h36v323h-38v-115q-12 37 -41 37q-64 0 -64 -133zM1837 1509q0 72 33 72t33 -74q0 -72 -33 -71q-33 -1 -33 73zM1870 301v240h51v-35 q20 41 57 41q70 0 70 -82v-164h-51q0 -2 3 33t3 63q0 96 -41 97q-45 0 -45 -107q0 -25 2 -56.5t2 -29.5h-51zM1927 846v239h49v-41q25 50 60 48h6v-66l-14 2q-53 4 -54 -96q0 -20 2 -51t2 -35h-51zM2060 965q0 -127 101 -127q100 0 100 127q0 129 -100 129t-101 -129z M2073 1391v323h41v-266h100v-57h-141zM2081 418q0 -125 94 -125q35 0 60.5 22.5t29.5 55.5h-53q-14 -27 -35 -27q-43 0 -45 59h135q0 143 -94 144q-92 0 -92 -129zM2114 965q0 76 47 75q45 0 45 -75q0 -76 -45 -76q-47 0 -47 76zM2134 444q4 51 39 52q39 -1 41 -52h-80z M2238 1509q0 -127 76 -127t76 127q0 129 -76 129t-76 -129zM2279 1509q0 76 35 76t35 -76q0 -74 -35 -73q-35 -1 -35 73zM2298 846v323h53v-323h-53zM2302 301v240h49v-41q24 49 57 47h7v-66l-15 2q-53 4 -53 -96q0 -20 3 -51t3 -35h-51zM2388 958q0 -43 18 -77 q23 -43 64 -43q39 0 59 41v-33h49v323h-51v-114q-18 37 -55 37q-84 -1 -84 -134zM2425 1391v323h39v-115q14 37 43 37q51 0 51 -88v-157h-39q0 207 2 127q-2 68 -27 67q-29 0 -32 -69q2 27 2 -125h-39zM2441 965q0 72 43 71q45 0 45 -73q0 -72 -45 -72q-43 0 -43 74z M2458 461q0 -72 39.5 -121t109.5 -49q66 0 117 51l-12 25q-47 -43 -103 -43q-57 0 -91 38.5t-34 96.5q0 59 37 102t96 43q102 0 103 -104q0 -90 -47 -90l-11 6l-4 12q0 8 29 123h-35l-6 -29q-8 37 -41 37q-35 0 -55.5 -37t-20.5 -73q0 -72 51 -72q34 0 52 41v-6 q-2 -35 34 -35q37 0 62 43q20 37 20 78q0 59 -36.5 98t-98.5 39q-70 0 -112.5 -52.5t-42.5 -121.5zM2568 444q0 25 12.5 54.5t32.5 29.5l17 -8l6 -20q0 -23 -13 -54q-14 -38 -32 -38l-17 10q-6 16 -6 26zM2603 1391v239h37v-35q16 41 45 41q51 0 51 -82v-163h-39v145 q0 47 -24 47q-29 0 -33 -67q2 29 2 -125h-39zM2613 922h53q4 -35 44 -35q10 0 22 4l10 16l-8 17q-37 14 -76 29.5t-39 58.5q0 80 82 80q80 0 86 -80h-51q-8 33 -35 32q-10 0 -22 -6l-8 -16l8 -14q37 -14 76 -27q39 -20 38 -63q0 -80 -88 -80q-92 0 -92 84zM2769 1507 q0 -125 72 -125q61 0 67 78h-41q-8 -23 -26 -26l-19 8q-12 14 -14 51h102q0 143 -71 143q-70 0 -70 -129zM2793 365q0 -72 62 -72q35 0 61 37q0 -16 4 -29h58v8l-8 8v144q-6 86 -86 86t-84 -84h49q4 33 33 33q10 0 24 -7q8 -10 8 -20q0 -16 -30 -23q-45 -8 -60 -16 q-31 -18 -31 -65zM2810 1534q2 43 29 51q28 -8 30 -51h-59zM2812 1038v45h29q0 49 8 66q12 27 55 25l21 -3v-51l-15 2l-14 -6q-6 -12 -4 -33h33v-45h-33v-192h-51v192h-29zM2845 369q0 25 26 32q39 12 43 17v-27q0 -53 -45 -53l-18 8q-6 12 -6 23zM2943 965q0 -127 100 -127 t101 127q-1 129 -101 129t-100 -129zM2943 1391v239h37v-41q18 49 43 47h6v-65l-12 2q-39 0 -39 -105q0 -23 2 -51t2 -26h-39zM2996 965q0 76 47 75q47 0 47 -75q0 -76 -47 -76t-47 76zM3000 420q0 -127 101 -127q100 0 100 127q0 129 -100 129t-101 -129zM3054 420 q0 76 47 76q45 0 45 -76t-45 -76q-47 0 -47 76zM3142 1477q-1 -95 65 -95q31 0 53 35l15 -26h47l-37 71q23 43 23 97h-33q-2 -31 -10 -54l-29 58q33 31 33 77q0 74 -50 74q-53 0 -53 -76q0 -33 19 -67q-43 -41 -43 -94zM3181 846v239h49v-34q22 41 59 41q70 0 70 -80v-166 h-54q0 -2 4.5 32.5t4.5 63.5q0 96 -41 96q-45 0 -45 -106q0 -25 2 -56.5t2 -29.5h-51zM3181 1479q-1 26 24 53l37 -74l-14 -16l-19 -6q-29 8 -28 43zM3203 1640q0 11 6 23l10 4l13 -8q4 -18 4 -19q0 -16 -19 -41q-14 29 -14 41zM3238 301v324h51v-324h-51zM3340 301v66h54 v-66h-54zM3385 1038v45h29v68h51v-68h31v-45h-31v-127q0 -10 2 -18q10 -4 29 -2v-47l-31 -2q-51 -2 -51 49v147h-29zM3432 416q0 131 93 131q82 0 88 -92h-52q-6 39 -34 39q-41 0 -41 -76q0 -74 39 -74q33 0 34 43h54q-6 -94 -88 -94q-92 0 -93 123zM3432 1550q0 172 99 172 q80 1 86 -108h-39q-8 53 -47 53q-55 0 -56 -119q0 -109 56 -108q43 0 51 69h-47v56h84v-174h-29l-4 41q-25 -49 -61 -50q-49 0 -74 62q-18 47 -19 106zM3518 922h52q4 -35 43 -35q10 0 24 4l8 16l-8 17q-37 14 -75.5 29.5t-38.5 58.5q0 80 81 80q82 0 89 -80h-52 q-8 33 -34 32q-12 0 -25 -6l-8 -16l8 -14q39 -14 76 -27q39 -20 39 -63q0 -80 -88 -80q-91 0 -91 84zM3637 420q0 -127 101 -127q100 0 100 127q0 129 -100 129t-101 -129zM3664 1391v239h37v-41q18 49 43 47h6v-65l-12 2q-41 0 -41 -105q0 -23 3 -51t3 -26h-39zM3690 420 q0 76 48 76q45 0 45 -76t-45 -76q-48 0 -48 76zM3734 846v65h55v-65h-55zM3768 1507q0 -125 72 -125q61 0 66 78h-39q-8 -23 -27 -26l-18 8q-14 14 -15 51h101q2 143 -70 143q-70 0 -70 -129zM3807 1534q4 43 31 51q29 -8 31 -51h-62zM3826 961q0 131 94 131q80 -1 88 -93 h-53q-4 39 -33 39q-41 0 -41 -75q0 -74 39 -74q31 0 35 43h53q-6 -94 -88 -94q-94 0 -94 123zM3873 301v240h51v-35q20 41 55 41q41 0 56 -41q18 41 59 41q61 0 61 -94v-152h-53q0 2 3 39t3 61q0 92 -35 93q-39 0 -38 -103q0 -33 6 -90h-54q8 53 9 92q0 98 -37 99 q-39 0 -39 -95q0 -27 3 -61l3 -35h-53zM3934 1509q0 -121 62 -120q29 0 43 38v-16q0 -72 -33 -72q-10 0 -23 9l-4 16h-43q4 -72 68 -72q72 0 72 107v231h-37v-35q-14 41 -43 41q-62 0 -62 -127zM3973 1509q0 72 33 72t33 -70t-33 -69q-33 -1 -33 67zM4030 965 q0 -127 103 -127q100 0 100 127q0 129 -100 129q-102 0 -103 -129zM4086 965q0 76 47 75q45 0 45 -75q0 -76 -45 -76q-47 0 -47 76zM4200 1491h39q4 -53 43 -53q41 0 41 43q0 10 -8 24q-41 18 -77 38t-36 81q0 100 78 100q74 0 76 -106h-39q-2 49 -41 49q-35 0 -35 -39 q0 -27 31 -39q51 -18 60 -24q31 -25 30 -80q0 -102 -80 -103q-82 0 -82 109zM4268 846v239h51v-34q20 41 56 41q41 0 53 -41q20 41 61 41q61 0 62 -95v-151h-54q0 2 3.5 39t3.5 61q0 92 -35 92q-39 0 -39 -102q0 -33 6 -90h-53q6 53 6 92q0 98 -35 98q-41 0 -41 -94 q0 -27 4 -62l4 -34h-53zM4399 1391v239h37v-35q16 41 43 41q31 0 39 -41q16 41 47 41l18 -6q27 -27 27 -88v-151h-39q0 -14 2 57q4 57 0 88q-6 47 -24 47q-25 0 -27 -67q2 61 2 -125h-39q0 215 2 127q-2 63 -24 63q-27 0 -29 -68q4 117 4 -122h-39zM4655 1391v239h39v-239 h-39zM4655 1659v57h39v-57h-39zM4725 1583v45h20v68h39v-68h23v-45h-23v-127q0 -10 2 -18q12 -4 21 -2v-47l-23 -3q-39 -2 -39 50v147h-20zM4841 1391v323h37v-115q16 37 43 37q53 0 54 -88v-157h-41q0 207 4 127q-2 68 -27 67q-29 0 -33 -69q0 27 0 -125h-37z" />
<glyph unicode="^" horiz-adv-x="727" d="M-6 678q0 121 115.5 388t115.5 419q0 76 33 143q41 84 115 84q66 0 114 -78q41 -63 97 -248q18 -55 116 -200q84 -121 84 -209q0 -25 -18 -45.5t-45 -20.5q-72 0 -191 213q-51 98 -137 267q-145 -360 -194 -625q0 -45 -21 -129q-31 -53 -92 -53q-92 0 -92 94z" />
<glyph unicode="`" horiz-adv-x="942" d="M90 1901q6 -68 117 -119q41 -19 178 -62q55 -16 70 -51q72 -27 120 -22q78 8 74 69q-4 37 -88 83t-125 42q-57 -4 -143 74t-135 74q-31 -2 -51.5 -29t-16.5 -59z" />
<glyph unicode="a" d="M-23 41q0 57 43 199q43 150 48 213q-31 35 -31 77q0 41 78 82q63 244 129 486q90 334 166 446q33 47 98 47q61 0 98 -53q25 -33 47 -108q10 -23 25 -66q33 -94 80 -334q47 -225 82 -317q18 -23 51 -64q0 -12 -7 -38.5t-7 -41.5q0 -20 75.5 -222t75.5 -245 q0 -45 -25.5 -77.5t-70.5 -32.5t-96 45q-43 39 -66 84l-2 24v6q0 32 20 60q35 14 35 39q0 8 -43 162.5t-51 171.5q-106 -2 -258 -35q-190 -43 -215 -100l-31 -27q-18 -111 -35 -223q-27 -154 -57 -207q-14 -25 -74 -39q-82 12 -82 88zM283 664q51 2 346 59h39q24 2 24 20 q0 8 -39 146q-45 154 -49 172q-47 195 -106 305l-6 -6l-11 -27q-20 -96 -106 -334q-74 -209 -92 -335z" />
<glyph unicode="b" horiz-adv-x="1032" d="M45 1044q0 41 15.5 121t15.5 119q0 27 -4 51q16 72 57 72q10 0 30.5 -11.5t33.5 -11.5q66 63 194 99q106 30 212 30h7q139 0 244 -59q123 -72 123 -201q0 -104 -72 -184q-76 -66 -151 -133l6 -21l30 3h15q77 0 131 -38q58 -42 59 -126q0 -102 -96 -226q-25 -33 -172 -188 q-59 -63 -203 -162q-161 -112 -218 -112h-1q-70 0 -115 44t-63 173q-10 98 -21 196q-57 360 -57 565zM219 1126q0 -29 9.5 -89t9.5 -91q0 -18 -5 -37l15 -22h16h4q122 0 316 123q205 128 221 241q-47 104 -217 105q-123 0 -234 -56q-135 -68 -135 -174zM268 682l41 -373 l13 -28q127 6 292 168q158 151 201 284l-18 21q-47 10 -105 10q-262 0 -424 -82z" />
<glyph unicode="c" horiz-adv-x="851" d="M0 715q0 227 117 536q141 375 327 375q29 0 91 -20q52 -17 86 -17h4q51 -18 53 -88q133 -244 133 -491q0 -293 -162 -293q-94 0 -139 147q-31 100 -31 228q0 137 17 221q2 12 12 45t10 51l-4 29q-29 20 -43 20q-115 0 -233 -325q-100 -285 -101 -433q0 -195 99 -350 q113 -180 296 -180q150 0 226 88q27 16 55 16q35 0 62.5 -28.5t27.5 -65.5q0 -84 -143 -135q-111 -39 -213 -39q-260 0 -414 236q-133 203 -133 473zM627 1106q0 -72 22 -166l15 68q0 113 -25 241q-12 -90 -12 -143z" />
<glyph unicode="d" horiz-adv-x="890" d="M-77.5 394.5q22.5 29.5 54.5 29.5q12 0 32 -6t28 -6q14 0 20 6q20 49 21 123q0 113 -20.5 336t-20.5 335q0 109 14 193q12 23 29 45q10 0 10 2h-1q-9 0 -89 26q-90 30 -90 76q0 10 6 33q31 31 86 31h93h-3h20q260 0 527 -195q291 -217 291 -481q0 -221 -248 -405 q-127 -94 -446 -240q-12 -16 -33 -145q-18 -98 -84 -99q-41 0 -73 32t-32 73q0 8 5.5 25.5t5.5 25.5l-2 12q-68 12 -89 27q-34 22 -34 79q0 38 22.5 67.5zM141 1458q61 -49 76 -373q2 -59 2 -426q0 -152 12 -190q14 2 148 61q164 74 266 183q127 132 127 288q0 154 -233 316 q-217 147 -375 147z" />
<glyph unicode="e" horiz-adv-x="942" d="M-53 1358q0 43 67.5 62.5t67.5 64.5q18 12 45 12q23 0 50.5 -29.5t47.5 -29.5q92 0 473 73q43 -8 74 -48t31 -85q0 -27 -18.5 -51t-45.5 -24q-25 0 -73 18t-74 18q-18 0 -50 -11t-42 -23q14 -18 74.5 -54.5t87.5 -62.5q45 -47 45 -109q0 -111 -175 -190 q-131 -47 -262 -92q-10 -37 -10 -64q0 -104 1 -104l1 4q8 -36 8 -119v-35v-15q0 -87 21 -134l37 -2h15q235 0 441 118q23 12 35 82q12 57 53 58q47 0 79 -38t32 -85q0 -80 -51 -121q-92 -76 -268 -121q-147 -31 -293 -61q-8 0 -58 -15q-37 -12 -55 -12q-68 0 -113 43 t-45 111q0 39 9.5 118.5t9.5 120.5q0 35 4 103.5t4 101.5q0 18 -27 23q-18 2 -39 4h-8q-8 0 -22.5 10t-18.5 12q-14 16 -14 39q0 18 10 33q109 4 109 115q0 25 -6 92q-6 43 -6 73q0 11 1 21l-6 45q-2 27 -22 39q-68 12 -94 31q-37 27 -37 90zM260 1208q0 -100 16 -223 q72 2 224 92l2 21l-13 18q-102 80 -229 92z" />
<glyph unicode="f" horiz-adv-x="882" d="M-72 1391q0 16 17 36q14 6 51 43q31 31 53 31q20 0 41 -16q61 16 185 20t184 21q18 -4 37 -4q37 0 107.5 23.5t107.5 23.5q77 -1 108 -103q-4 -63 -61 -106q-51 -35 -103 -70q-31 -31 -172 -137q-109 -84 -157 -152q8 -8 18 -8q-10 0 301 60q96 -18 96 -107 q0 -53 -45 -69q-20 -6 -88 -7q-98 0 -241 -39q-131 -35 -232 -81q-10 -53 -10 -119q0 -43 9 -127t9 -125q0 -143 -86 -143q-33 0 -47 16t-30 35l-15 51q18 215 19 332q0 31 -5.5 91t-5.5 89q0 31 8.5 92.5t8.5 91.5l2 234q0 25 -32 62.5t-32 60.5zM125 1315l8 -176 q4 -6 4 -33q0 -16 17 -19q74 59 145 119q82 70 129 133l-2 9q-96 -2 -291 -15z" />
<glyph unicode="g" horiz-adv-x="905" d="M-51 741q0 207 133 500q154 344 336 344q141 0 237 -147q86 -129 86 -279q0 -184 -10 -246q-26 -163 -114 -163h-7l-24 2q-55 29 -70 88q-6 25 -10 116q-4 106 -10 211q-3 53 -3 99q0 63 5 114q-18 37 -66 37q-137 0 -256 -313q-100 -262 -100 -432q0 -207 120.5 -336 t323.5 -129q68 0 144 31q92 37 92 94l-2 16q-113 23 -265 23q-27 0 -75.5 -8.5t-73.5 -8.5q-18 0 -35 4q-57 47 -57 72q0 102 84 102q16 0 50 -4t52 -4q47 0 170 8q97 7 157 7h15q12 4 27 4q61 0 102 -47.5t41 -108.5q0 -154 -141 -250q-127 -86 -285 -86q-70 0 -108 8 q-268 66 -373 242q-90 150 -90 440z" />
<glyph unicode="h" horiz-adv-x="1073" d="M-29 807q0 74 43 119q10 25 11 55q0 20 -5.5 59t-5.5 60q0 8 -2 52t-2 75q0 168 56 168q59 0 79 -203q23 -223 48 -246l71 -2h36q213 0 452 43q39 8 39 84q0 57 -13.5 175t-13.5 175q0 186 86 187q80 0 102 -107q9 -37 9 -108v-15q-1 -56 -1 -87.5t1 -37.5q2 -74 32 -520 q0 -154 25 -450q16 -93 16 -105q0 -57 -20 -102q-27 -57 -76 -58q-41 0 -68.5 27t-27.5 70q0 23 7 69.5t7 70.5t8 73t8 73q0 53 -10 160t-10 162q0 29 2 57l-18 37q-61 6 -129 6q-178 0 -502 -49q-4 -12 -4 -26q0 -35 9 -108t9 -110q0 -150 -55 -251q-33 -25 -70 -25 q-49 0 -90 51q-12 39 -16 88q-1 11 -1 25q0 27 3 65q2 70 2 90q0 39 -10.5 117t-10.5 117z" />
<glyph unicode="i" horiz-adv-x="419" d="M76 514q0 63 22 111v24q0 82 -7 241t-7 236q0 74 20 164q31 119 78 119q51 0 66 -70q4 -25 4 -108q0 -70 -10.5 -207t-10.5 -205q0 -74 17.5 -224t17.5 -224q0 -88 -80 -88q-74 0 -98 84q-12 43 -12 147z" />
<glyph unicode="j" horiz-adv-x="1165" d="M-61 1444q0 70 71 84q61 6 125 10q117 20 246 21q74 0 224.5 2t225.5 2q131 0 230 16q10 0 49 12q33 8 47 8q39 0 65.5 -29.5t26.5 -66.5q0 -94 -237 -94q-27 0 -70 2h-49q-33 0 -62 -8l13 -12q154 -49 209 -107q69 -71 69 -217q0 -131 -90 -373q-96 -260 -184 -323 q-61 -96 -162.5 -153.5t-212.5 -57.5q-164 0 -293 121q-115 106 -172 272q-29 14 -31 53v-3v71q0 23 -8 71t-8 72q0 254 113 254q65 0 65 -95q0 -34 -5 -97.5t-5 -94.5q0 -160 84 -305q98 -170 246 -170q190 0 344 230q127 190 164 405v12q0 20 4 62.5t4 62.5q0 74 -70 109 q-131 68 -363.5 123t-377.5 55q-68 0 -129 -12q-33 12 -64.5 27.5t-31.5 60.5z" />
<glyph unicode="k" horiz-adv-x="1060" d="M20.5 809q83.5 37 83.5 74q0 78 -16 233.5t-16 233.5q0 217 82 247h3q56 0 74 -63q8 -33 9 -113q0 -55 -7.5 -163.5t-7.5 -163.5q0 -154 31 -154q6 0 10 4q51 41 154 121q289 209 594 311q72 -8 90 -18q33 -20 33 -86q-29 -80 -215 -187q-104 -59 -367 -182 q-227 -106 -289 -149q-8 -12 -8 -21l6 -16q201 -86 613 -148q39 20 73 21q25 0 56.5 -21.5t31.5 -44.5q0 -129 -131 -129q-18 0 -291 68q-264 70 -307 84q-41 -4 -41 -23q0 -31 5.5 -95t5.5 -95q0 -82 -23 -141q-30 -80 -93 -80h-3h-21q-70 37 -92 118q-10 31 -20 154 q-10 98 -41 150q-4 23 -27 81q-22 49 -22 81q0 75 83.5 112z" />
<glyph unicode="l" horiz-adv-x="946" d="M0 1550q0 27 29.5 49.5t56.5 22.5q33 0 61.5 -24.5t32.5 -57.5q10 -63 13 -151q1 -32 1 -72.5t-1 -91.5q-2 -129 -3 -154q0 -330 -26 -596q2 -53 6 -106q5 -66 41 -66q6 0 14 2q150 37 297 74q276 70 293 86q27 78 27 80q20 43 63 47q6 4 17 4q10 0 61 -27q27 -30 27 -75 q0 -74 -29 -150q-18 -55 -102 -55q-16 0 -46 2t-40 2q-98 0 -330 -85t-301 -85q-156 0 -156 254q0 86 16.5 257t16.5 257q0 111 -19.5 330t-19.5 329z" />
<glyph unicode="m" horiz-adv-x="1296" d="M-31 829q0 279 90 484l47 26q14 49 27 101q20 53 80 53q39 0 66 -23q37 -35 124 -307q94 -291 156 -370l19 -5l14 9q25 68 74 172q61 129 77 168q18 57 56 170q57 151 156 151h1q121 0 140 -297q6 -94 32 -248q33 -190 41 -245q12 -18 37 -107q14 -53 82 -72 q60 -14 60 -86q0 -39 -39 -80.5t-78 -41.5t-62 22q-57 57 -139 420q-53 238 -104 473q-23 0 -35 -35q-16 -43 -25 -51q-49 -158 -100 -317q-85 -244 -155 -244h-1h-16q-76 8 -139 115q-10 16 -84 176q-41 86 -109 260l-10 2q-10 -8 -10 -17q-14 -74 -15 -196q0 -45 2 -137.5 t2 -135.5q0 -141 -20 -217q-6 -27 -38 -55.5t-58 -28.5q-37 0 -70 25q-76 156 -76 489z" />
<glyph unicode="n" horiz-adv-x="1196" d="M0 627q0 305 10 424q27 297 119 374q20 102 82 103q39 0 65 -23q45 -41 84 -182q25 -102 50 -205q55 -188 196 -430q168 -283 299 -346q43 20 72 221q20 152 20 258q0 121 -26 254q-41 223 -43 242q-8 61 -72.5 83.5t-64.5 74.5q0 45 40.5 91t88.5 46q104 0 165 -402 q45 -284 45 -499q0 -545 -192 -545q-170 0 -406 399q-135 231 -272 553q-25 4 -31 -25.5t-10 -54.5q-39 -381 -39 -696q0 -113 -96 -113q-27 0 -66 50q-6 47 -6 184q0 27 -6 82t-6 82z" />
<glyph unicode="o" horiz-adv-x="958" d="M-27 717q0 223 70 432q84 252 238 354q37 66 139 66q31 0 63 -4q219 -31 357 -426q67 -195 67 -340q0 -219 -167 -383t-386 -164q-381 0 -381 465zM119 741q0 -154 37 -229q53 -104 196 -104q180 0 293 124q111 120 111 302q0 180 -117 378q-43 10 -74 97q-27 80 -108 80 q-162 0 -260 -254q-78 -197 -78 -394z" />
<glyph unicode="p" horiz-adv-x="872" d="M-66 1151q0 231 109 332q78 70 322 137q45 14 122 14q139 0 275 -55q172 -69 172 -188q0 -145 -162 -256q-109 -76 -342 -160q-256 -94 -307 -123q-10 -84 -10 -180q0 -78 16 -369q2 -33 15.5 -105.5t13.5 -111.5q0 -104 -74 -104q-66 0 -84 61q-10 33 -10 117 q0 51 10 94q-10 84 -16 270q-4 178 -19 275q-31 211 -31 352zM150 1352q0 -43 24.5 -124t24.5 -124q37 -37 67 -41q141 39 293 121q199 111 203 205l-19 34q-88 59 -213 60q-98 0 -206 -31q-129 -37 -174 -100z" />
<glyph unicode="q" horiz-adv-x="1146" d="M-96 604q0 166 104 389q92 197 217 346q-2 2 -28 50q-16 29 -17 51q0 59 99 114q90 48 151 48h2l23 -3q27 -14 98.5 -16t97.5 -12q47 -16 55.5 -70.5t34.5 -83.5q43 -47 54 -65q174 -309 174 -566q0 -111 -39 -213q14 -53 176 -149q109 -63 219 -125q82 27 98 27 q45 0 96.5 -72t51.5 -119q0 -27 -25.5 -53.5t-52.5 -26.5q-49 0 -333 183q-280 180 -307 180h-1q-264 -246 -537 -246q-168 0 -289.5 131t-121.5 301zM55 631q0 -143 78 -227.5t221 -84.5q186 0 351 152l16 33q-47 55 -129 100q-6 -2 -8 -8v-10q2 -8 2 -13 q0 -18 -10.5 -38.5t-28.5 -20.5q-51 0 -72 68q-10 37 -66.5 98t-56.5 102q0 14 6 37q27 33 78 33q117 0 205 -76q113 -96 160 -112q16 75 16 149q0 139 -57 283q-61 162 -162 231q-35 78 -90 82q-166 -113 -307 -348q-145 -244 -146 -430z" />
<glyph unicode="r" horiz-adv-x="872" d="M2 770q16 57 18 217q0 147 21 195q6 18 33 32q20 12 41 25q53 125 172 217q129 100 256 100q133 0 255 -102t122 -233q0 -109 -125 -187q-106 -55 -215 -108q-31 -18 -107 -38t-111 -44q12 -31 330 -229.5t350 -198.5q20 0 54 16.5t53 16.5q35 0 56.5 -32t21.5 -67 q0 -115 -121 -137q-31 6 -82 36t-74 38q-41 31 -149 90q-47 25 -287 172q-172 104 -295 153l-14 -10q10 -57 10 -127q0 -96 -6 -127q-16 -82 -76 -82q-96 0 -117 168q-8 123 -14 246zM178 985q-2 -29 17 -29q45 0 475 185q25 20 52.5 44.5t27.5 55.5q0 55 -93 107 q-82 43 -145 43q-68 0 -132.5 -47.5t-90.5 -112.5q-39 -39 -66 -117q-23 -63 -45 -129z" />
<glyph unicode="s" horiz-adv-x="964" d="M-102 1231q0 180 137 293q128 108 308 108h3q205 0 410 -100q250 -121 250 -299q0 -117 -97.5 -208t-214.5 -91q-45 0 -53 49q8 29 113 82q96 47 96 113q0 133 -174 225q-150 80 -293 80q-125 0 -211 -51q-104 -63 -104 -179q0 -33 6 -73q63 -119 274 -289 q332 -266 344 -279q168 -156 168 -276q0 -123 -141 -221q-131 -88 -262 -88q-70 0 -139.5 54t-69.5 124q0 100 102 100q25 0 74 -8t76 -8q14 0 37.5 -33t42.5 -37q114 49 114 153v9q-59 115 -272 274q-311 233 -350 271q-174 160 -174 305z" />
<glyph unicode="t" horiz-adv-x="937" d="M-121 1300q0 88 86 111q57 14 264 31q244 18 283 22q199 25 395 47q377 51 408 88q47 61 115 80q102 -16 102 -84q0 -18 -6 -39q-20 -80 -185 -106q-70 -12 -376 -43q-264 -27 -349 -49q-26 -8 -26 -66q0 -44 -4 -118t-4 -111q0 -117 24 -377q22 -212 22 -340 q0 -20 -1 -39l-2 -71q-61 -84 -103 -84q-33 0 -71 34q-41 78 -72 226q-37 174 -57 229q-49 150 -101 297q-70 180 -160 264q-12 12 -106 33q-76 16 -76 65zM231 1274q47 -96 109 -244l98 -246l2 494q0 41 -34 41q-74 0 -175 -45z" />
<glyph unicode="u" horiz-adv-x="1056" d="M-6 1225q0 86 10 155q41 74 84 74q102 0 102 -131q0 -20 -4 -60t-4 -61q0 -252 6 -317q20 -190 105 -291q158 -193 260 -193q88 0 162 129q53 94 78 209q35 195 114 584q-4 29 -4 57q0 63 31 125q39 74 98 74q33 0 60.5 -23.5t27.5 -56.5q0 -86 -63 -174 q-29 -104 -78 -430q-43 -274 -96 -420q-33 -82 -111 -162q-92 -92 -170 -92q-106 0 -240 76q-190 111 -290 414q-78 240 -78 514z" />
<glyph unicode="v" horiz-adv-x="1064" d="M-66 1399q0 66 27 123q30 22 57 22h2q45 0 66 -55q8 -25 18 -96q31 -238 125 -453q82 -182 238 -410q25 -35 84 -94q57 39 207 428l186 492q2 68 27 123q33 73 87 73h1q29 0 55.5 -20t26.5 -49q0 -25 -99 -258q-53 -121 -104 -242q-59 -168 -178 -504q-47 -133 -66 -170 q-56 -108 -126 -108h-1q-10 0 -28.5 7t-44.5 30q-6 6 -105 159q-344 530 -444 916q-10 43 -11 86z" />
<glyph unicode="w" horiz-adv-x="1228" d="M-39 1028q0 25 14.5 105.5t14.5 123.5q0 41 -3 120t-3 118q0 156 86 156q98 0 98 -119q0 -59 -10.5 -178t-10.5 -178q0 -303 109 -541q74 23 180 700q6 35 31 67t55 32q31 0 55.5 -24t24.5 -54q0 -27 -7 -83t-7 -85q0 -133 37 -252q49 -147 139 -207q53 -35 82 -35 q59 0 106 232q37 182 37 286q0 51 -28 88q-4 25 -5 50q0 76 41 127q31 16 70 20q70 -20 70 -96q0 -190 -23 -385q-27 -254 -80 -369q-20 -47 -70.5 -86t-99.5 -39q-117 0 -219 107q-86 88 -135 215l-25 6q-20 -61 -55 -219q-31 -139 -59 -217q-49 -53 -92 -54q-18 0 -68 43 q-88 182 -121 273q-49 137 -70 293q-59 33 -59 59z" />
<glyph unicode="x" horiz-adv-x="1064" d="M-43 236q0 88 98 184q137 135 156 164q63 88 184 274l2 14q2 27 -84 148q-115 168 -157 246q-86 156 -86 264q0 33 55 47q76 -10 137 -94q94 -133 103 -140q53 -51 86 -102q4 -47 -74 -59q12 -35 45 -84q49 -78 53 -81t14 -3q18 0 150 239q152 274 162 287q31 45 86 45 q61 0 78 -74q-27 -106 -56 -213q-30 -121 -30 -213v-6q0 -254 129 -534q14 -31 14 -88q0 -55 -27.5 -96.5t-81.5 -41.5q-33 0 -216 220.5t-203 220.5q-27 0 -121 -170q-90 -160 -105 -211q-8 -33 -51 -64q-53 -43 -65 -55q-23 -33 -46 -65q-33 -39 -65 -39q-31 0 -57.5 24.5 t-26.5 55.5zM573 887q43 -55 86 -111q52 -61 105 -90q-30 207 -30 363q0 34 1 65l-10 2q-43 -53 -86 -108q-49 -66 -66 -121z" />
<glyph unicode="y" horiz-adv-x="839" d="M-137 1559q0 69 52 69h1q27 0 59 -22q94 -172 187 -344q115 -195 266 -289l18 10q98 498 297 666q12 10 72 20q39 -4 64.5 -40t25.5 -77q0 -51 -39 -135q-51 -115 -57 -131q-141 -449 -457 -975q-27 -41 -55 -84q-29 -47 -29 -85v-9l4 -29q-20 -51 -63 -102 q-53 -63 -98 -63q-90 0 -88 84v34q35 70 132 191t132 190q4 10 84 152q49 92 71 158l-12 24q-197 166 -352 356q-215 262 -215 431z" />
<glyph unicode="z" horiz-adv-x="1153" d="M-86 1376q0 -14 6 37q43 47 136.5 87t158.5 40q211 0 242 -2q51 -2 237 -25q150 -18 240 -18q66 0 125 8q61 -25 67 -59q8 -12 9 -29q0 -23 -17.5 -50.5t-32.5 -51.5q-293 -250 -403 -352q-252 -236 -358 -394q6 -22 139 -22h12q252 0 504 57q41 10 82 86q39 70 82 70 q39 0 63.5 -25.5t24.5 -62.5q0 -137 -168 -201q-121 -47 -285 -47q-86 0 -259 -20.5t-261 -20.5q-23 0 -65.5 -10.5t-65.5 -10.5q-41 0 -71 24q-28 22 -27 60v5v12q6 45 55 86q78 68 80 67q160 186 627 641q4 12 23.5 31t19.5 31l-7 18q-86 10 -172 21q-100 12 -172 12 l-155 -2q-68 0 -196 -23.5t-157 -23.5q-20 0 -40.5 18.5t-20.5 38.5z" />
<glyph unicode="&#xa1;" horiz-adv-x="583" d="M63 1241q0 57 31 111q37 61 96 61q80 0 132 -57q6 -18 6 -39q0 -6 -29 -115q-51 -57 -92 -57q-35 0 -84 26q-59 31 -60 70zM135 709q0 147 27 274q-6 37 43 37q96 0 96 -248q0 -33 -2 -78t-2 -53q0 -154 31 -365q31 -180 59 -360q4 -37 4 -70q0 -135 -76 -135 q-70 0 -106 70q-25 53 -25 125q0 35 6.5 103.5t6.5 103.5q0 82 -31 285.5t-31 310.5z" />
<glyph unicode="&#xa2;" horiz-adv-x="851" d="M-12 719q0 180 115.5 347t285.5 218q33 246 39 277q43 205 119 204q43 0 77.5 -26.5t34.5 -69.5q0 -57 -45 -180q-51 -142 -59 -189q106 -12 185 -99t79 -195q0 -94 -78 -95q-37 18 -61 78q-35 82 -47 96q-35 45 -103 45q-16 -129 -59 -749q29 -2 61 -2q90 0 173 47 t108 47q39 0 70.5 -28.5t31.5 -67.5q0 -96 -188 -141q-147 -37 -266 -25l-2 -31q0 -49 13 -143t13 -141q0 -41 -10 -97q-14 -74 -39 -73q-133 0 -129 516q-158 53 -241 182q-78 123 -78 295zM150 707q-1 -205 161 -285q14 297 56 668q-100 -51 -158.5 -159t-58.5 -224z" />
<glyph unicode="&#xa3;" horiz-adv-x="1034" d="M12 717q0 57 78 90q31 14 125 39q0 354 37 487q80 276 346 277q117 0 208 -91.5t91 -209.5q0 -100 -84 -99q-41 18 -84 127q-39 90 -121 90q-178 0 -209 -204q-10 -70 -8 -174q4 -154 4 -175q68 29 137 58q94 39 136 39q66 0 65 -68q0 -117 -342 -207h-2 q-12 -244 -12 -256q-12 -170 -33 -247q66 12 270 88q190 68 252 67q98 0 117 -86l-6 -31q-266 -133 -361 -170q-190 -70 -393 -69q-98 0 -98 110q0 27 8 62q70 264 80 508q-47 -6 -86 -6q-115 0 -115 51z" />
<glyph unicode="&#xa5;" horiz-adv-x="1064" d="M53 1413q0 57 27 113q37 29 70 28q76 0 94 -141q25 -176 104 -358q84 -193 197 -320q74 111 145 322q92 270 121 332q4 59 31 108q35 63 86 64q37 0 65.5 -25t28.5 -59q0 -4 -125 -334q-135 -352 -152 -398q211 23 193 23q31 0 55.5 -34t24.5 -66q0 -88 -96 -88 q-23 0 -67 7t-67 7q-27 0 -106 -14l-18 -33q-2 -37 -11 -113q70 8 142 19q57 8 145 53l47 -19q20 -33 21 -69q0 -88 -58 -103q-47 -12 -147 -18q-115 -8 -154 -12q2 -23 15 -135q10 -82 10 -136q0 -41 -26.5 -69.5t-65.5 -28.5q-115 0 -115 207q0 49 16 88v12v27 q-170 -53 -223 -53q-115 0 -115 67q0 35 39 75t74 40q18 0 27 -21l14 -12q78 45 174 62q-2 68 2 118l-6 6q-16 -4 -131 -40q-94 -31 -121 -31q-41 0 -68.5 27.5t-27.5 70.5q0 66 94 100q39 14 152 37q-313 492 -314 717z" />
<glyph unicode="&#xa7;" horiz-adv-x="2560" />
<glyph unicode="&#xa8;" d="M166 1767q0 51 47 94.5t96 43.5q102 0 103 -97q0 -49 -53.5 -93t-104.5 -44q-35 0 -61.5 31t-26.5 65zM602 1790q0 49 53.5 94t102.5 45q35 0 61.5 -30.5t26.5 -67.5q0 -49 -46.5 -92t-97.5 -43q-100 0 -100 94z" />
<glyph unicode="&#xab;" horiz-adv-x="1245" d="M33 649q0 61 57 78q82 25 164 88q74 61 145 123q45 37 88 74q61 47 99 47q12 0 28.5 -25.5t16.5 -38.5q0 -70 -164 -213q-143 -127 -229 -168q12 -33 122.5 -157.5t126.5 -124.5q23 27 52 26q35 0 58.5 -33.5t25.5 -72.5l-31 -53q-47 -27 -92 -27q-74 0 -127 61 q-96 98 -299 316q-41 45 -41 100zM530 616q0 49 50 80q121 90 243 181q195 139 238 139q23 0 40 -19.5t17 -44.5q0 -35 -180 -174q-113 -86 -227 -172q59 -78 137 -137q111 -84 151 -123l50 4q59 -33 59 -106q0 -37 -21.5 -67t-56.5 -27h-16q-37 0 -70 40q-25 31 -244 213 q-170 141 -170 213z" />
<glyph unicode="&#xad;" horiz-adv-x="743" d="M63 829q0 53 70 72q27 8 111 14q33 4 49 5q23 0 29 -6.5t28 -6.5q16 0 49 2q74 6 96.5 26t96.5 26q86 8 86 -74q0 -74 -82 -103q-45 -16 -147 -26q-63 -4 -111 12l-25 -2q-57 -4 -61 -8q14 -2 29 -6q-8 -4 -62 -9q-53 -4 -98 13q-57 23 -58 71z" />
<glyph unicode="&#xb4;" horiz-adv-x="942" d="M98 1704q0 39 80 91t121 52q55 0 134 86t130 86q31 0 53.5 -24.5t22.5 -57.5q0 -68 -109 -129q-37 -20 -170 -75q-53 -23 -65 -60q-70 -31 -119 -31q-78 0 -78 62z" />
<glyph unicode="&#xb6;" horiz-adv-x="2560" />
<glyph unicode="&#xb7;" horiz-adv-x="372" d="M63 766q0 49 53.5 94t104.5 45q35 0 61.5 -30.5t26.5 -67.5q0 -49 -47 -92t-96 -43q-102 0 -103 94z" />
<glyph unicode="&#xb8;" horiz-adv-x="851" d="M395 -285q0 27 44 105t44 119q0 39 -37.5 68.5t-37.5 62.5q0 41 30.5 67.5t67.5 26.5q57 0 88 -66q23 -51 22 -116q0 -193 -172 -291q-49 10 -49 24z" />
<glyph unicode="&#xbb;" horiz-adv-x="1245" d="M129 254q0 37 178 176l230 172q-61 76 -140 135q-111 86 -151 123l-47 -4q-61 35 -62 109q0 37 21.5 65.5t56.5 28.5h16q37 0 72 -43q23 -29 242 -211q170 -141 170 -213q0 -49 -47 -80l-246 -180q-195 -142 -238 -142q-23 0 -39 20.5t-16 43.5zM614 213q0 70 164 213 q144 127 232 168q-14 33 -124 158t-128 125q-20 -27 -51 -27q-35 0 -60 37q-23 31 -24 67l30 54q47 29 92 28q76 0 127 -61q96 -98 302 -316q41 -45 40 -102q0 -59 -59 -78q-82 -25 -164 -86q-72 -61 -145 -123q-45 -37 -88 -73q-61 -47 -99 -47q-12 0 -28.5 25.5 t-16.5 37.5z" />
<glyph unicode="&#xbf;" horiz-adv-x="884" d="M-123 51q6 78 92 156q27 25 185 137q125 90 186 166q88 109 98 242q8 78 -35 149.5t-43 81.5q4 39 30 65.5t63 22.5q80 -6 120 -137q33 -106 25 -201q-14 -172 -123 -299q-35 -41 -242 -215q-98 -86 -163 -176q121 -47 245 -47q170 0 371 80q10 66 66.5 147.5t101.5 79.5 q68 -6 61 -92q-16 -186 -215 -289q-166 -84 -381 -84q-37 0 -69 2q-123 10 -232 56q-150 61 -141 155zM211 1264q4 51 54.5 88.5t101.5 33.5q100 -8 92 -102q-4 -49 -61.5 -89t-106.5 -36q-35 2 -59.5 36t-20.5 69z" />
<glyph unicode="&#xc0;" d="M-23 41q0 57 43 199q43 150 48 213q-31 35 -31 77q0 41 78 82q63 244 129 486q90 334 166 446q33 47 98 47q61 0 98 -53q25 -33 47 -108q10 -23 25 -66q33 -94 80 -334q47 -225 82 -317q18 -23 51 -64q0 -12 -7 -38.5t-7 -41.5q0 -20 75.5 -222t75.5 -245 q0 -45 -25.5 -77.5t-70.5 -32.5t-96 45q-43 39 -66 84l-2 24q-2 35 20 66q35 14 35 39q0 8 -43 162.5t-51 171.5q-106 -2 -258 -35q-190 -43 -215 -100l-31 -27q-18 -111 -35 -223q-27 -154 -57 -207q-14 -25 -74 -39q-82 12 -82 88zM244 1901q6 -68 117 -119 q41 -19 178 -62q55 -16 70 -51q72 -27 120 -22q78 8 74 69q-4 37 -88 83t-125 42q-57 -4 -143 74t-135 74q-31 -2 -51.5 -29t-16.5 -59zM283 664q51 2 346 59h39q24 2 24 20q0 8 -39 146q-45 154 -49 172q-47 195 -106 305l-6 -6l-11 -27q-20 -96 -106 -334 q-74 -209 -92 -335z" />
<glyph unicode="&#xc1;" d="M-23 41q0 57 43 199q43 150 48 213q-31 35 -31 77q0 41 78 82q63 244 129 486q90 334 166 446q33 47 98 47q61 0 98 -53q25 -33 47 -108q10 -23 25 -66q33 -94 80 -334q47 -225 82 -317q18 -23 51 -64q0 -12 -7 -38.5t-7 -41.5q0 -20 75.5 -222t75.5 -245 q0 -45 -25.5 -77.5t-70.5 -32.5t-96 45q-43 39 -66 84l-2 24q-2 35 20 66q35 14 35 39q0 8 -43 162.5t-51 171.5q-106 -2 -258 -35q-190 -43 -215 -100l-31 -27q-18 -111 -35 -223q-27 -154 -57 -207q-14 -25 -74 -39q-82 12 -82 88zM227 1704q0 39 80 91t121 52 q55 0 134 86t130 86q31 0 53.5 -24.5t22.5 -57.5q0 -68 -109 -129q-37 -20 -170 -75q-53 -23 -65 -60q-70 -31 -119 -31q-78 0 -78 62zM283 664q51 2 346 59h39q24 2 24 20q0 8 -39 146q-45 154 -49 172q-47 195 -106 305l-6 -6l-11 -27q-20 -96 -106 -334 q-74 -209 -92 -335z" />
<glyph unicode="&#xc2;" d="M-23 41q0 57 43 199q43 150 48 213q-31 35 -31 77q0 41 78 82q63 244 129 486q90 334 166 446q33 47 98 47q61 0 98 -53q25 -33 47 -108q10 -23 25 -66q33 -94 80 -334q47 -225 82 -317q18 -23 51 -64q0 -12 -7 -38.5t-7 -41.5q0 -20 75.5 -222t75.5 -245 q0 -45 -25.5 -77.5t-70.5 -32.5t-96 45q-43 39 -66 84l-2 24q-2 35 20 66q35 14 35 39q0 8 -43 162.5t-51 171.5q-106 -2 -258 -35q-190 -43 -215 -100l-31 -27q-18 -111 -35 -223q-27 -154 -57 -207q-14 -25 -74 -39q-82 12 -82 88zM248 1640q12 49 71 129q55 74 58 142 q2 33 39 71.5t78 38.5q59 -2 94 -98q8 -27 78 -115q55 -74 53 -122q0 -44 -47 -44q-37 2 -94 72q-49 59 -78 117q-18 -35 -37 -62q-25 -35 -51 -69q-27 -41 -37 -76q-18 -61 -82 -49q-57 10 -45 65zM283 664q51 2 346 59h39q24 2 24 20q0 8 -39 146q-45 154 -49 172 q-47 195 -106 305l-6 -6l-11 -27q-20 -96 -106 -334q-74 -209 -92 -335z" />
<glyph unicode="&#xc3;" d="M-23 41q0 57 43 199q43 150 48 213q-31 35 -31 77q0 41 78 82q63 244 129 486q90 334 166 446q33 47 98 47q61 0 98 -53q25 -33 47 -108q10 -23 25 -66q33 -94 80 -334q47 -225 82 -317q18 -23 51 -64q0 -12 -7 -38.5t-7 -41.5q0 -20 75.5 -222t75.5 -245 q0 -45 -25.5 -77.5t-70.5 -32.5t-96 45q-43 39 -66 84l-2 24q-2 35 20 66q35 14 35 39q0 8 -43 162.5t-51 171.5q-106 -2 -258 -35q-190 -43 -215 -100l-31 -27q-18 -111 -35 -223q-27 -154 -57 -207q-14 -25 -74 -39q-82 12 -82 88zM141 1761q0 125 238 125l14 2 q29 0 108 -38t122 -38q49 0 85.5 49.5t82.5 49.5q39 0 65.5 -32t26.5 -71q0 -70 -86 -108q-68 -33 -148 -33q-78 0 -162 45t-110 45q-47 0 -80 -44t-76 -44q-33 0 -56.5 28.5t-23.5 63.5zM283 664q51 2 346 59h39q24 2 24 20q0 8 -39 146q-45 154 -49 172q-47 195 -106 305 l-6 -6l-11 -27q-20 -96 -106 -334q-74 -209 -92 -335z" />
<glyph unicode="&#xc4;" d="M-23 41q0 57 43 199q43 150 48 213q-31 35 -31 77q0 41 78 82q63 244 129 486q90 334 166 446q33 47 98 47q61 0 98 -53q25 -33 47 -108q10 -23 25 -66q33 -94 80 -334q47 -225 82 -317q18 -23 51 -64q0 -12 -7 -38.5t-7 -41.5q0 -20 75.5 -222t75.5 -245 q0 -45 -25.5 -77.5t-70.5 -32.5t-96 45q-43 39 -66 84l-2 24q-2 35 20 66q35 14 35 39q0 8 -43 162.5t-51 171.5q-106 -2 -258 -35q-190 -43 -215 -100l-31 -27q-18 -111 -35 -223q-27 -154 -57 -207q-14 -25 -74 -39q-82 12 -82 88zM166 1767q0 51 47 94.5t96 43.5 q102 0 103 -97q0 -49 -53.5 -93t-104.5 -44q-35 0 -61.5 31t-26.5 65zM283 664q51 2 346 59h39q24 2 24 20q0 8 -39 146q-45 154 -49 172q-47 195 -106 305l-6 -6l-11 -27q-20 -96 -106 -334q-74 -209 -92 -335zM602 1790q0 49 53.5 94t102.5 45q35 0 61.5 -30.5t26.5 -67.5 q0 -49 -46.5 -92t-97.5 -43q-100 0 -100 94z" />
<glyph unicode="&#xc5;" d="M-23 41q0 57 43 199q43 150 48 213q-31 35 -31 77q0 41 78 82q63 244 129 486q90 334 166 446q33 47 98 47q61 0 98 -53q25 -33 47 -108q10 -23 25 -66q33 -94 80 -334q47 -225 82 -317q18 -23 51 -64q0 -12 -7 -38.5t-7 -41.5q0 -20 75.5 -222t75.5 -245 q0 -45 -25.5 -77.5t-70.5 -32.5t-96 45q-43 39 -66 84l-2 24q-2 35 20 66q35 14 35 39q0 8 -43 162.5t-51 171.5q-106 -2 -258 -35q-190 -43 -215 -100l-31 -27q-18 -111 -35 -223q-27 -154 -57 -207q-14 -25 -74 -39q-82 12 -82 88zM274 1745q0 57 32 100t65 84q6 6 16 68 q6 43 43 43q121 0 192.5 -74t71.5 -194q0 -76 -65 -121q-57 -39 -137 -39q-70 0 -136 30q-82 39 -82 103zM283 664q51 2 346 59h39q24 2 24 20q0 8 -39 146q-45 154 -49 172q-47 195 -106 305l-6 -6l-11 -27q-20 -96 -106 -334q-74 -209 -92 -335zM408 1780q0 -35 88 -35 q61 0 61 24q-43 2 -43 52q-2 20 -6 20l-31 -2z" />
<glyph unicode="&#xc6;" horiz-adv-x="1468" d="M-63 139q0 47 57 174q68 147 76 187q-14 23 -15 51q0 53 80 94q41 84 148 334q88 211 153 330q-12 27 -12 49q0 35 31 51q29 10 59 21l31 28l4 27q18 12 43 12q23 0 43 -18q41 -6 63 -41q100 2 236 26q115 25 229 47q43 -8 80 -49t37 -84q0 -76 -59 -75q-27 0 -75 18 t-75 18q-33 0 -98 -8q-80 -12 -92 -26q168 -61 202 -82q127 -74 127 -181q0 -104 -147 -215q-102 -80 -242 -139q-16 -35 -16 -57q0 -72 41 -291l14 -10l66 -2q96 -2 217 30q131 35 198 88q20 14 29 84q8 55 47 56q49 0 86 -41t37 -92q0 -98 -117 -166q-88 -47 -249 -84 q-111 -20 -222 -43q-31 -8 -59 -17q-37 -10 -64 -10q-30 -37 -77 -37q-43 0 -82 41q-35 35 -49 80q4 55 34 88l15 8q2 8 7 27.5t5 30.5q0 113 -29 284q-104 -33 -211 -65q-164 -55 -190 -101l-31 -22l-74 -234q-66 -168 -141 -167q-29 0 -49 22.5t-20 50.5zM311 692 q143 84 312 107q18 20 18 39q0 174 -59 387l-15 12q-33 -78 -131 -270q-90 -170 -125 -275zM752 1208q10 -119 47 -346q70 2 149 56q88 59 88 126q0 70 -110 119q-82 35 -174 45z" />
<glyph unicode="&#xc7;" horiz-adv-x="851" d="M0 715q0 227 117 536q141 375 327 375q29 0 91 -20q55 -18 90 -17q51 -18 53 -88q133 -244 133 -491q0 -293 -162 -293q-94 0 -139 147q-31 100 -31 228q0 137 17 221q2 12 12 45t10 51l-4 29q-29 20 -43 20q-115 0 -233 -325q-100 -285 -101 -433q0 -195 99 -350 q113 -180 296 -180q150 0 226 88q27 16 55 16q35 0 62.5 -28.5t27.5 -65.5q0 -84 -143 -135q-111 -39 -213 -39q-260 0 -414 236q-133 203 -133 473zM395 -285q0 27 44 105t44 119q0 39 -37.5 68.5t-37.5 62.5q0 41 30.5 67.5t67.5 26.5q57 0 88 -66q23 -51 22 -116 q0 -193 -172 -291q-49 10 -49 24zM627 1106q0 -72 22 -166l15 68q0 113 -25 241q-12 -90 -12 -143z" />
<glyph unicode="&#xc8;" horiz-adv-x="942" d="M-53 1358q0 43 67.5 62.5t67.5 64.5q18 12 45 12q23 0 50.5 -29.5t47.5 -29.5q92 0 473 73q43 -8 74 -48t31 -85q0 -27 -18.5 -51t-45.5 -24q-25 0 -73 18t-74 18q-18 0 -50 -11t-42 -23q14 -18 74.5 -54.5t87.5 -62.5q45 -47 45 -109q0 -111 -175 -190 q-131 -47 -262 -92q-10 -37 -10 -64q0 -125 2 -100q10 -43 8 -154q-2 -98 21 -149l37 -2q244 -4 456 118q23 12 35 82q12 57 53 58q47 0 79 -38t32 -85q0 -80 -51 -121q-92 -76 -268 -121q-147 -31 -293 -61q-8 0 -58 -15q-37 -12 -55 -12q-68 0 -113 43t-45 111 q0 39 9.5 118.5t9.5 120.5q0 35 4 103.5t4 101.5q0 18 -27 23q-18 2 -39 4h-8q-8 0 -22.5 10t-18.5 12q-14 16 -14 39q0 18 10 33q109 4 109 115q0 25 -6 92q-8 59 -5 94l-6 45q-2 27 -22 39q-68 12 -94 31q-37 27 -37 90zM90 1901q6 -68 117 -119q41 -19 178 -62 q55 -16 70 -51q72 -27 120 -22q78 8 74 69q-4 37 -88 83t-125 42q-57 -4 -143 74t-135 74q-31 -2 -51.5 -29t-16.5 -59zM260 1208q0 -100 16 -223q72 2 224 92l2 21l-13 18q-102 80 -229 92z" />
<glyph unicode="&#xc9;" horiz-adv-x="942" d="M-53 1358q0 43 67.5 62.5t67.5 64.5q18 12 45 12q23 0 50.5 -29.5t47.5 -29.5q92 0 473 73q43 -8 74 -48t31 -85q0 -27 -18.5 -51t-45.5 -24q-25 0 -73 18t-74 18q-18 0 -50 -11t-42 -23q14 -18 74.5 -54.5t87.5 -62.5q45 -47 45 -109q0 -111 -175 -190 q-131 -47 -262 -92q-10 -37 -10 -64q0 -125 2 -100q10 -43 8 -154q-2 -98 21 -149l37 -2q244 -4 456 118q23 12 35 82q12 57 53 58q47 0 79 -38t32 -85q0 -80 -51 -121q-92 -76 -268 -121q-147 -31 -293 -61q-8 0 -58 -15q-37 -12 -55 -12q-68 0 -113 43t-45 111 q0 39 9.5 118.5t9.5 120.5q0 35 4 103.5t4 101.5q0 18 -27 23q-18 2 -39 4h-8q-8 0 -22.5 10t-18.5 12q-14 16 -14 39q0 18 10 33q109 4 109 115q0 25 -6 92q-8 59 -5 94l-6 45q-2 27 -22 39q-68 12 -94 31q-37 27 -37 90zM98 1704q0 39 80 91t121 52q55 0 134 86t130 86 q31 0 53.5 -24.5t22.5 -57.5q0 -68 -109 -129q-37 -20 -170 -75q-53 -23 -65 -60q-70 -31 -119 -31q-78 0 -78 62zM260 1208q0 -100 16 -223q72 2 224 92l2 21l-13 18q-102 80 -229 92z" />
<glyph unicode="&#xca;" horiz-adv-x="942" d="M-53 1358q0 43 67.5 62.5t67.5 64.5q18 12 45 12q23 0 50.5 -29.5t47.5 -29.5q92 0 473 73q43 -8 74 -48t31 -85q0 -27 -18.5 -51t-45.5 -24q-25 0 -73 18t-74 18q-18 0 -50 -11t-42 -23q14 -18 74.5 -54.5t87.5 -62.5q45 -47 45 -109q0 -111 -175 -190 q-131 -47 -262 -92q-10 -37 -10 -64q0 -125 2 -100q10 -43 8 -154q-2 -98 21 -149l37 -2q244 -4 456 118q23 12 35 82q12 57 53 58q47 0 79 -38t32 -85q0 -80 -51 -121q-92 -76 -268 -121q-147 -31 -293 -61q-8 0 -58 -15q-37 -12 -55 -12q-68 0 -113 43t-45 111 q0 39 9.5 118.5t9.5 120.5q0 35 4 103.5t4 101.5q0 18 -27 23q-18 2 -39 4h-8q-8 0 -22.5 10t-18.5 12q-14 16 -14 39q0 18 10 33q109 4 109 115q0 25 -6 92q-8 59 -5 94l-6 45q-2 27 -22 39q-68 12 -94 31q-37 27 -37 90zM197 1640q12 49 71 129q55 74 58 142q2 33 39 71.5 t78 38.5q59 -2 94 -98q8 -27 78 -115q55 -74 53 -122q0 -44 -47 -44q-37 2 -94 72q-49 59 -78 117q-18 -35 -37 -62q-25 -35 -51 -69q-27 -41 -37 -76q-18 -61 -82 -49q-57 10 -45 65zM260 1208q0 -100 16 -223q72 2 224 92l2 21l-13 18q-102 80 -229 92z" />
<glyph unicode="&#xcb;" horiz-adv-x="942" d="M-53 1358q0 43 67.5 62.5t67.5 64.5q18 12 45 12q23 0 50.5 -29.5t47.5 -29.5q92 0 473 73q43 -8 74 -48t31 -85q0 -27 -18.5 -51t-45.5 -24q-25 0 -73 18t-74 18q-18 0 -50 -11t-42 -23q14 -18 74.5 -54.5t87.5 -62.5q45 -47 45 -109q0 -111 -175 -190 q-131 -47 -262 -92q-10 -37 -10 -64q0 -125 2 -100q10 -43 8 -154q-2 -98 21 -149l37 -2q244 -4 456 118q23 12 35 82q12 57 53 58q47 0 79 -38t32 -85q0 -80 -51 -121q-92 -76 -268 -121q-147 -31 -293 -61q-8 0 -58 -15q-37 -12 -55 -12q-68 0 -113 43t-45 111 q0 39 9.5 118.5t9.5 120.5q0 35 4 103.5t4 101.5q0 18 -27 23q-18 2 -39 4h-8q-8 0 -22.5 10t-18.5 12q-14 16 -14 39q0 18 10 33q109 4 109 115q0 25 -6 92q-8 59 -5 94l-6 45q-2 27 -22 39q-68 12 -94 31q-37 27 -37 90zM64 1767q0 51 47 94.5t96 43.5q102 0 103 -97 q0 -49 -53.5 -93t-104.5 -44q-35 0 -61.5 31t-26.5 65zM260 1208q0 -100 16 -223q72 2 224 92l2 21l-13 18q-102 80 -229 92zM500 1790q0 49 53.5 94t102.5 45q35 0 61.5 -30.5t26.5 -67.5q0 -49 -46.5 -92t-97.5 -43q-100 0 -100 94z" />
<glyph unicode="&#xcc;" horiz-adv-x="419" d="M-115 1901q6 -68 117 -119q41 -19 178 -62q55 -16 70 -51q72 -27 120 -22q78 8 74 69q-4 37 -88 83t-125 42q-57 -4 -143 74t-135 74q-31 -2 -51.5 -29t-16.5 -59zM76 514q0 63 22 111v24q0 82 -7 241t-7 236q0 74 20 164q31 119 78 119q51 0 66 -70q4 -25 4 -108 q0 -70 -10.5 -207t-10.5 -205q0 -74 17.5 -224t17.5 -224q0 -88 -80 -88q-74 0 -98 84q-12 43 -12 147z" />
<glyph unicode="&#xcd;" horiz-adv-x="419" d="M-56 1704q0 39 80 91t121 52q55 0 134 86t130 86q31 0 53.5 -24.5t22.5 -57.5q0 -68 -109 -129q-37 -20 -170 -75q-53 -23 -65 -60q-70 -31 -119 -31q-78 0 -78 62zM76 514q0 63 22 111v24q0 82 -7 241t-7 236q0 74 20 164q31 119 78 119q51 0 66 -70q4 -25 4 -108 q0 -70 -10.5 -207t-10.5 -205q0 -74 17.5 -224t17.5 -224q0 -88 -80 -88q-74 0 -98 84q-12 43 -12 147z" />
<glyph unicode="&#xce;" horiz-adv-x="419" d="M-59 1640q12 49 71 129q55 74 58 142q2 33 39 71.5t78 38.5q59 -2 94 -98q8 -27 78 -115q55 -74 53 -122q0 -44 -47 -44q-37 2 -94 72q-49 59 -78 117q-18 -35 -37 -62q-25 -35 -51 -69q-27 -41 -37 -76q-18 -61 -82 -49q-57 10 -45 65zM76 514q0 63 22 111v24 q0 82 -7 241t-7 236q0 74 20 164q31 119 78 119q51 0 66 -70q4 -25 4 -108q0 -70 -10.5 -207t-10.5 -205q0 -74 17.5 -224t17.5 -224q0 -88 -80 -88q-74 0 -98 84q-12 43 -12 147z" />
<glyph unicode="&#xcf;" horiz-adv-x="419" d="M-141 1767q0 51 47 94.5t96 43.5q102 0 103 -97q0 -49 -53.5 -93t-104.5 -44q-35 0 -61.5 31t-26.5 65zM76 514q0 63 22 111v24q0 82 -7 241t-7 236q0 74 20 164q31 119 78 119q51 0 66 -70q4 -25 4 -108q0 -70 -10.5 -207t-10.5 -205q0 -74 17.5 -224t17.5 -224 q0 -88 -80 -88q-74 0 -98 84q-12 43 -12 147zM295 1790q0 49 53.5 94t102.5 45q35 0 61.5 -30.5t26.5 -67.5q0 -49 -46.5 -92t-97.5 -43q-100 0 -100 94z" />
<glyph unicode="&#xd0;" horiz-adv-x="890" d="M-193 856q0 84 244 100q-14 154 -14 256q0 96 14 181l29 43q0 29 -85 50t-85 68q0 8 6 33q31 31 86 31h90q279 -2 547 -197q291 -213 291 -479q0 -221 -248 -405q-127 -94 -446 -240q-10 -16 -33 -145q-16 -98 -84 -99q-41 0 -73 32t-32 73q0 8 5.5 24.5t5.5 26.5l-2 12 q-68 12 -89 27q-35 23 -34 82q0 35 22.5 64.5t54.5 29.5q10 0 30 -6t30 -6l20 6q20 51 21 123q0 109 -17 282q-29 -4 -65 -14h8q14 2 21 -2q-39 -16 -105 -16q-113 0 -113 65zM141 1446q72 -59 80 -471q98 47 133 47q68 0 68 -61q0 -96 -201 -132q0 -37 -2 -124v-127 q0 -66 12 -109q23 4 148 61q393 182 393 471q0 152 -231 308q-215 143 -377 143z" />
<glyph unicode="&#xd1;" horiz-adv-x="1196" d="M0 627q0 305 10 424q27 297 119 374q20 102 82 103q39 0 65 -23q45 -41 84 -182q25 -102 50 -205q55 -188 196 -430q168 -283 299 -346q43 20 72 221q20 152 20 258q0 121 -26 254q-41 223 -43 242q-8 61 -72.5 83.5t-64.5 74.5q0 45 40.5 91t88.5 46q104 0 165 -402 q45 -284 45 -499q0 -545 -192 -545q-170 0 -406 399q-135 231 -272 553q-25 4 -31 -25.5t-10 -54.5q-39 -381 -39 -696q0 -113 -96 -113q-27 0 -66 50q-6 47 -6 184q0 27 -6 82t-6 82zM141 1761q0 125 238 125l14 2q29 0 108 -38t122 -38q49 0 85.5 49.5t82.5 49.5 q39 0 65.5 -32t26.5 -71q0 -70 -86 -108q-68 -33 -148 -33q-78 0 -162 45t-110 45q-47 0 -80 -44t-76 -44q-33 0 -56.5 28.5t-23.5 63.5z" />
<glyph unicode="&#xd2;" horiz-adv-x="958" d="M-27 717q0 223 70 432q84 252 238 354q37 66 139 66q31 0 63 -4q219 -31 357 -426q67 -195 67 -340q0 -219 -167 -383t-386 -164q-381 0 -381 465zM119 741q0 -154 37 -229q53 -104 196 -104q180 0 293 124q111 120 111 302q0 180 -117 378q-43 10 -74 97q-27 80 -108 80 q-162 0 -260 -254q-78 -197 -78 -394zM168 1901q6 -68 117 -119q41 -19 178 -62q55 -16 70 -51q72 -27 120 -22q78 8 74 69q-4 37 -88 83t-125 42q-57 -4 -143 74t-135 74q-31 -2 -51.5 -29t-16.5 -59z" />
<glyph unicode="&#xd3;" horiz-adv-x="958" d="M-27 717q0 223 70 432q84 252 238 354q37 66 139 66q31 0 63 -4q219 -31 357 -426q67 -195 67 -340q0 -219 -167 -383t-386 -164q-381 0 -381 465zM119 741q0 -154 37 -229q53 -104 196 -104q180 0 293 124q111 120 111 302q0 180 -117 378q-43 10 -74 97q-27 80 -108 80 q-162 0 -260 -254q-78 -197 -78 -394zM176 1704q0 39 80 91t121 52q55 0 134 86t130 86q31 0 53.5 -24.5t22.5 -57.5q0 -68 -109 -129q-37 -20 -170 -75q-53 -23 -65 -60q-70 -31 -119 -31q-78 0 -78 62z" />
<glyph unicode="&#xd4;" horiz-adv-x="958" d="M-27 717q0 223 70 432q84 252 238 354q37 66 139 66q31 0 63 -4q219 -31 357 -426q67 -195 67 -340q0 -219 -167 -383t-386 -164q-381 0 -381 465zM119 741q0 -154 37 -229q53 -104 196 -104q180 0 293 124q111 120 111 302q0 180 -117 378q-43 10 -74 97q-27 80 -108 80 q-162 0 -260 -254q-78 -197 -78 -394zM170 1640q12 49 71 129q55 74 58 142q2 33 39 71.5t78 38.5q59 -2 94 -98q8 -27 78 -115q55 -74 53 -122q0 -44 -47 -44q-37 2 -94 72q-49 59 -78 117q-18 -35 -37 -62q-25 -35 -51 -69q-27 -41 -37 -76q-18 -61 -82 -49q-57 10 -45 65 z" />
<glyph unicode="&#xd5;" horiz-adv-x="958" d="M-27 717q0 223 70 432q84 252 238 354q37 66 139 66q31 0 63 -4q219 -31 357 -426q67 -195 67 -340q0 -219 -167 -383t-386 -164q-381 0 -381 465zM63 1761q0 125 238 125l14 2q29 0 108 -38t122 -38q49 0 85.5 49.5t82.5 49.5q39 0 65.5 -32t26.5 -71q0 -70 -86 -108 q-68 -33 -148 -33q-78 0 -162 45t-110 45q-47 0 -80 -44t-76 -44q-33 0 -56.5 28.5t-23.5 63.5zM119 741q0 -154 37 -229q53 -104 196 -104q180 0 293 124q111 120 111 302q0 180 -117 378q-43 10 -74 97q-27 80 -108 80q-162 0 -260 -254q-78 -197 -78 -394z" />
<glyph unicode="&#xd6;" horiz-adv-x="958" d="M-27 717q0 223 70 432q84 252 238 354q37 66 139 66q31 0 63 -4q219 -31 357 -426q67 -195 67 -340q0 -219 -167 -383t-386 -164q-381 0 -381 465zM64 1767q0 51 47 94.5t96 43.5q102 0 103 -97q0 -49 -53.5 -93t-104.5 -44q-35 0 -61.5 31t-26.5 65zM119 741 q0 -154 37 -229q53 -104 196 -104q180 0 293 124q111 120 111 302q0 180 -117 378q-43 10 -74 97q-27 80 -108 80q-162 0 -260 -254q-78 -197 -78 -394zM500 1790q0 49 53.5 94t102.5 45q35 0 61.5 -30.5t26.5 -67.5q0 -49 -46.5 -92t-97.5 -43q-100 0 -100 94z" />
<glyph unicode="&#xd8;" horiz-adv-x="958" d="M-27 717q0 225 70 432q82 252 238 354q37 66 139 66q133 0 223 -82q104 184 154 184q35 0 63.5 -27.5t28.5 -62.5q0 -33 -60 -113q-45 -51 -88 -104q66 -113 115 -274q51 -168 51 -291q0 -217 -167 -382t-386 -165q-68 0 -123 14q-66 -281 -125 -280q-47 0 -47 88 q0 86 54 252q-139 113 -140 391zM119 741q0 -176 51 -254q141 367 389 842q-20 59 -102 60q-162 0 -260 -252q-78 -199 -78 -396zM281 416q33 -8 71 -8q178 0 293 124q111 119 111 302q0 177 -113 372q-141 -262 -362 -790z" />
<glyph unicode="&#xd9;" horiz-adv-x="1056" d="M-6 1225q0 86 10 155q41 74 84 74q102 0 102 -131q0 -20 -4 -60t-4 -61q0 -252 6 -317q20 -190 105 -291q158 -193 260 -193q88 0 162 129q53 94 78 209q35 195 114 584q-4 29 -4 57q0 63 31 125q39 74 98 74q33 0 60.5 -23.5t27.5 -56.5q0 -86 -63 -174 q-29 -104 -78 -430q-43 -274 -96 -420q-33 -82 -111 -162q-92 -92 -170 -92q-106 0 -240 76q-190 111 -290 414q-78 240 -78 514zM244 1901q6 -68 117 -119q41 -19 178 -62q55 -16 70 -51q72 -27 120 -22q78 8 74 69q-4 37 -88 83t-125 42q-57 -4 -143 74t-135 74 q-31 -2 -51.5 -29t-16.5 -59z" />
<glyph unicode="&#xda;" horiz-adv-x="1056" d="M-6 1225q0 86 10 155q41 74 84 74q102 0 102 -131q0 -20 -4 -60t-4 -61q0 -252 6 -317q20 -190 105 -291q158 -193 260 -193q88 0 162 129q53 94 78 209q35 195 114 584q-4 29 -4 57q0 63 31 125q39 74 98 74q33 0 60.5 -23.5t27.5 -56.5q0 -86 -63 -174 q-29 -104 -78 -430q-43 -274 -96 -420q-33 -82 -111 -162q-92 -92 -170 -92q-106 0 -240 76q-190 111 -290 414q-78 240 -78 514zM252 1704q0 39 80 91t121 52q55 0 134 86t130 86q31 0 53.5 -24.5t22.5 -57.5q0 -68 -109 -129q-37 -20 -170 -75q-53 -23 -65 -60 q-70 -31 -119 -31q-78 0 -78 62z" />
<glyph unicode="&#xdb;" horiz-adv-x="1056" d="M-6 1225q0 86 10 155q41 74 84 74q102 0 102 -131q0 -20 -4 -60t-4 -61q0 -252 6 -317q20 -190 105 -291q158 -193 260 -193q88 0 162 129q53 94 78 209q35 195 114 584q-4 29 -4 57q0 63 31 125q39 74 98 74q33 0 60.5 -23.5t27.5 -56.5q0 -86 -63 -174 q-29 -104 -78 -430q-43 -274 -96 -420q-33 -82 -111 -162q-92 -92 -170 -92q-106 0 -240 76q-190 111 -290 414q-78 240 -78 514zM299 1640q12 49 71 129q55 74 58 142q2 33 39 71.5t78 38.5q59 -2 94 -98q8 -27 78 -115q55 -74 53 -122q0 -44 -47 -44q-37 2 -94 72 q-49 59 -78 117q-18 -35 -37 -62q-25 -35 -51 -69q-27 -41 -37 -76q-18 -61 -82 -49q-57 10 -45 65z" />
<glyph unicode="&#xdc;" horiz-adv-x="1056" d="M-6 1225q0 86 10 155q41 74 84 74q102 0 102 -131q0 -20 -4 -60t-4 -61q0 -252 6 -317q20 -190 105 -291q158 -193 260 -193q88 0 162 129q53 94 78 209q35 195 114 584q-4 29 -4 57q0 63 31 125q39 74 98 74q33 0 60.5 -23.5t27.5 -56.5q0 -86 -63 -174 q-29 -104 -78 -430q-43 -274 -96 -420q-33 -82 -111 -162q-92 -92 -170 -92q-106 0 -240 76q-190 111 -290 414q-78 240 -78 514zM166 1767q0 51 47 94.5t96 43.5q102 0 103 -97q0 -49 -53.5 -93t-104.5 -44q-35 0 -61.5 31t-26.5 65zM602 1790q0 49 53.5 94t102.5 45 q35 0 61.5 -30.5t26.5 -67.5q0 -49 -46.5 -92t-97.5 -43q-100 0 -100 94z" />
<glyph unicode="&#xdd;" horiz-adv-x="839" d="M-137 1559q0 70 53 69q27 0 59 -22q94 -172 187 -344q115 -195 266 -289l18 10q98 498 297 666q12 10 72 20q39 -4 64.5 -40t25.5 -77q0 -51 -39 -135q-51 -115 -57 -131q-141 -449 -457 -975q-27 -41 -55 -84q-33 -53 -29 -94l4 -29q-20 -51 -63 -102q-53 -63 -98 -63 q-90 0 -88 84v34q35 70 132 191t132 190q4 10 84 152q49 92 71 158l-12 24q-197 166 -352 356q-215 262 -215 431zM98 1704q0 39 80 91t121 52q55 0 134 86t130 86q31 0 53.5 -24.5t22.5 -57.5q0 -68 -109 -129q-37 -20 -170 -75q-53 -23 -65 -60q-70 -31 -119 -31 q-78 0 -78 62z" />
<glyph unicode="&#xde;" horiz-adv-x="1011" d="M-14 1573q0 30 2 59q8 76 96 68q90 -8 90 -152q0 -45 -8 -108q-6 -41 -10 -80q-4 -29 2 -174q76 51 213 81.5t231 22.5q141 -12 270 -78q164 -84 154 -202q-12 -145 -182 -242q-115 -66 -355 -129q-264 -70 -319 -94l-8 -53q-4 -25 -4 -54q0 -35 12 -127q10 -80 6 -127 q-10 -102 -82 -96q-106 8 -106 164q0 43 8 106q6 43 10 84q0 4 6 4l2 5q2 4 -2 79q-10 190 -10 224q0 66 10.5 203t10.5 208q0 66 -18.5 203t-18.5 205zM156 733q29 -27 49 -28q92 -8 358 110q281 125 293 207q-14 51 -94 84q-59 25 -129 31q-96 8 -244 -27 q-166 -39 -217 -98l-4 -39q2 -80 -12 -240z" />
<glyph unicode="&#xdf;" horiz-adv-x="1554" d="M-102 1231q0 180 137 293q129 109 311 108q205 0 410 -100q250 -121 250 -299q0 -117 -97.5 -208t-214.5 -91q-45 0 -53 49q8 29 113 82q96 47 96 113q0 133 -174 225q-150 80 -293 80q-125 0 -211 -51q-104 -63 -104 -179q0 -33 6 -73q63 -119 274 -289 q332 -266 344 -279q168 -156 168 -276q0 -123 -141 -221q-131 -88 -262 -88q-70 0 -139.5 54t-69.5 124q0 100 102 100q25 0 74 -8t76 -8q14 0 37.5 -33t42.5 -37q119 51 114 162q-59 115 -272 274q-311 233 -350 271q-174 160 -174 305zM537 1057q0 172 133 280 q123 102 297 103q195 0 391 -94q236 -115 235 -287q0 -111 -92 -199t-205 -88q-45 0 -53 49q8 31 109 80q90 45 90 107q0 123 -164 211q-141 76 -279 75q-117 0 -198 -49q-96 -59 -96 -168q0 -29 4 -67q51 -96 196 -219q25 -23 234 -187q156 -121 223 -198q96 -106 96 -199 q0 -119 -137 -211q-125 -86 -250 -86q-68 0 -134.5 53t-66.5 119q0 98 101 98q23 0 69.5 -8t71.5 -8q14 0 36.5 -31t39.5 -35q109 49 106 152q-47 92 -194 211q-119 88 -236 174q-158 117 -227 199q-100 115 -100 223z" />
<glyph unicode="&#xe0;" d="M-23 41q0 57 43 199q43 150 48 213q-31 35 -31 77q0 41 78 82q63 244 129 486q90 334 166 446q33 47 98 47q61 0 98 -53q25 -33 47 -108q10 -23 25 -66q33 -94 80 -334q47 -225 82 -317q18 -23 51 -64q0 -12 -7 -38.5t-7 -41.5q0 -20 75.5 -222t75.5 -245 q0 -45 -25.5 -77.5t-70.5 -32.5t-96 45q-43 39 -66 84l-2 24q-2 35 20 66q35 14 35 39q0 8 -43 162.5t-51 171.5q-106 -2 -258 -35q-190 -43 -215 -100l-31 -27q-18 -111 -35 -223q-27 -154 -57 -207q-14 -25 -74 -39q-82 12 -82 88zM244 1901q6 -68 117 -119 q41 -19 178 -62q55 -16 70 -51q72 -27 120 -22q78 8 74 69q-4 37 -88 83t-125 42q-57 -4 -143 74t-135 74q-31 -2 -51.5 -29t-16.5 -59zM283 664q51 2 346 59h39q24 2 24 20q0 8 -39 146q-45 154 -49 172q-47 195 -106 305l-6 -6l-11 -27q-20 -96 -106 -334 q-74 -209 -92 -335z" />
<glyph unicode="&#xe1;" d="M-23 41q0 57 43 199q43 150 48 213q-31 35 -31 77q0 41 78 82q63 244 129 486q90 334 166 446q33 47 98 47q61 0 98 -53q25 -33 47 -108q10 -23 25 -66q33 -94 80 -334q47 -225 82 -317q18 -23 51 -64q0 -12 -7 -38.5t-7 -41.5q0 -20 75.5 -222t75.5 -245 q0 -45 -25.5 -77.5t-70.5 -32.5t-96 45q-43 39 -66 84l-2 24q-2 35 20 66q35 14 35 39q0 8 -43 162.5t-51 171.5q-106 -2 -258 -35q-190 -43 -215 -100l-31 -27q-18 -111 -35 -223q-27 -154 -57 -207q-14 -25 -74 -39q-82 12 -82 88zM227 1704q0 39 80 91t121 52 q55 0 134 86t130 86q31 0 53.5 -24.5t22.5 -57.5q0 -68 -109 -129q-37 -20 -170 -75q-53 -23 -65 -60q-70 -31 -119 -31q-78 0 -78 62zM283 664q51 2 346 59h39q24 2 24 20q0 8 -39 146q-45 154 -49 172q-47 195 -106 305l-6 -6l-11 -27q-20 -96 -106 -334 q-74 -209 -92 -335z" />
<glyph unicode="&#xe2;" d="M-23 41q0 57 43 199q43 150 48 213q-31 35 -31 77q0 41 78 82q63 244 129 486q90 334 166 446q33 47 98 47q61 0 98 -53q25 -33 47 -108q10 -23 25 -66q33 -94 80 -334q47 -225 82 -317q18 -23 51 -64q0 -12 -7 -38.5t-7 -41.5q0 -20 75.5 -222t75.5 -245 q0 -45 -25.5 -77.5t-70.5 -32.5t-96 45q-43 39 -66 84l-2 24q-2 35 20 66q35 14 35 39q0 8 -43 162.5t-51 171.5q-106 -2 -258 -35q-190 -43 -215 -100l-31 -27q-18 -111 -35 -223q-27 -154 -57 -207q-14 -25 -74 -39q-82 12 -82 88zM248 1640q12 49 71 129q55 74 58 142 q2 33 39 71.5t78 38.5q59 -2 94 -98q8 -27 78 -115q55 -74 53 -122q0 -44 -47 -44q-37 2 -94 72q-49 59 -78 117q-18 -35 -37 -62q-25 -35 -51 -69q-27 -41 -37 -76q-18 -61 -82 -49q-57 10 -45 65zM283 664q51 2 346 59h39q24 2 24 20q0 8 -39 146q-45 154 -49 172 q-47 195 -106 305l-6 -6l-11 -27q-20 -96 -106 -334q-74 -209 -92 -335z" />
<glyph unicode="&#xe3;" d="M-23 41q0 57 43 199q43 150 48 213q-31 35 -31 77q0 41 78 82q63 244 129 486q90 334 166 446q33 47 98 47q61 0 98 -53q25 -33 47 -108q10 -23 25 -66q33 -94 80 -334q47 -225 82 -317q18 -23 51 -64q0 -12 -7 -38.5t-7 -41.5q0 -20 75.5 -222t75.5 -245 q0 -45 -25.5 -77.5t-70.5 -32.5t-96 45q-43 39 -66 84l-2 24q-2 35 20 66q35 14 35 39q0 8 -43 162.5t-51 171.5q-106 -2 -258 -35q-190 -43 -215 -100l-31 -27q-18 -111 -35 -223q-27 -154 -57 -207q-14 -25 -74 -39q-82 12 -82 88zM141 1761q0 125 238 125l14 2 q29 0 108 -38t122 -38q49 0 85.5 49.5t82.5 49.5q39 0 65.5 -32t26.5 -71q0 -70 -86 -108q-68 -33 -148 -33q-78 0 -162 45t-110 45q-47 0 -80 -44t-76 -44q-33 0 -56.5 28.5t-23.5 63.5zM283 664q51 2 346 59h39q24 2 24 20q0 8 -39 146q-45 154 -49 172q-47 195 -106 305 l-6 -6l-11 -27q-20 -96 -106 -334q-74 -209 -92 -335z" />
<glyph unicode="&#xe4;" d="M-23 41q0 57 43 199q43 150 48 213q-31 35 -31 77q0 41 78 82q63 244 129 486q90 334 166 446q33 47 98 47q61 0 98 -53q25 -33 47 -108q10 -23 25 -66q33 -94 80 -334q47 -225 82 -317q18 -23 51 -64q0 -12 -7 -38.5t-7 -41.5q0 -20 75.5 -222t75.5 -245 q0 -45 -25.5 -77.5t-70.5 -32.5t-96 45q-43 39 -66 84l-2 24q-2 35 20 66q35 14 35 39q0 8 -43 162.5t-51 171.5q-106 -2 -258 -35q-190 -43 -215 -100l-31 -27q-18 -111 -35 -223q-27 -154 -57 -207q-14 -25 -74 -39q-82 12 -82 88zM166 1767q0 51 47 94.5t96 43.5 q102 0 103 -97q0 -49 -53.5 -93t-104.5 -44q-35 0 -61.5 31t-26.5 65zM283 664q51 2 346 59h39q24 2 24 20q0 8 -39 146q-45 154 -49 172q-47 195 -106 305l-6 -6l-11 -27q-20 -96 -106 -334q-74 -209 -92 -335zM602 1790q0 49 53.5 94t102.5 45q35 0 61.5 -30.5t26.5 -67.5 q0 -49 -46.5 -92t-97.5 -43q-100 0 -100 94z" />
<glyph unicode="&#xe5;" d="M-23 41q0 57 43 199q43 150 48 213q-31 35 -31 77q0 41 78 82q63 244 129 486q90 334 166 446q33 47 98 47q61 0 98 -53q25 -33 47 -108q10 -23 25 -66q33 -94 80 -334q47 -225 82 -317q18 -23 51 -64q0 -12 -7 -38.5t-7 -41.5q0 -20 75.5 -222t75.5 -245 q0 -45 -25.5 -77.5t-70.5 -32.5t-96 45q-43 39 -66 84l-2 24q-2 35 20 66q35 14 35 39q0 8 -43 162.5t-51 171.5q-106 -2 -258 -35q-190 -43 -215 -100l-31 -27q-18 -111 -35 -223q-27 -154 -57 -207q-14 -25 -74 -39q-82 12 -82 88zM274 1745q0 57 32 100t65 84q6 6 16 68 q6 43 43 43q121 0 192.5 -74t71.5 -194q0 -76 -65 -121q-57 -39 -137 -39q-70 0 -136 30q-82 39 -82 103zM283 664q51 2 346 59h39q24 2 24 20q0 8 -39 146q-45 154 -49 172q-47 195 -106 305l-6 -6l-11 -27q-20 -96 -106 -334q-74 -209 -92 -335zM408 1780q0 -35 88 -35 q61 0 61 24q-43 2 -43 52q-2 20 -6 20l-31 -2z" />
<glyph unicode="&#xe6;" horiz-adv-x="1468" d="M-63 139q0 47 57 174q68 147 76 187q-14 23 -15 51q0 53 80 94q41 84 148 334q88 211 153 330q-12 27 -12 49q0 35 31 51q29 10 59 21l31 28l4 27q18 12 43 12q23 0 43 -18q41 -6 63 -41q100 2 236 26q115 25 229 47q43 -8 80 -49t37 -84q0 -76 -59 -75q-27 0 -75 18 t-75 18q-33 0 -98 -8q-80 -12 -92 -26q168 -61 202 -82q127 -74 127 -181q0 -104 -147 -215q-102 -80 -242 -139q-16 -35 -16 -57q0 -72 41 -291l14 -10l66 -2q96 -2 217 30q131 35 198 88q20 14 29 84q8 55 47 56q49 0 86 -41t37 -92q0 -98 -117 -166q-88 -47 -249 -84 q-111 -20 -222 -43q-31 -8 -59 -17q-37 -10 -64 -10q-30 -37 -77 -37q-43 0 -82 41q-35 35 -49 80q4 55 34 88l15 8q2 8 7 27.5t5 30.5q0 113 -29 284q-104 -33 -211 -65q-164 -55 -190 -101l-31 -22l-74 -234q-66 -168 -141 -167q-29 0 -49 22.5t-20 50.5zM311 692 q143 84 312 107q18 20 18 39q0 174 -59 387l-15 12q-33 -78 -131 -270q-90 -170 -125 -275zM752 1208q10 -119 47 -346q70 2 149 56q88 59 88 126q0 70 -110 119q-82 35 -174 45z" />
<glyph unicode="&#xe7;" horiz-adv-x="851" d="M0 715q0 227 117 536q141 375 327 375q29 0 91 -20q55 -18 90 -17q51 -18 53 -88q133 -244 133 -491q0 -293 -162 -293q-94 0 -139 147q-31 100 -31 228q0 137 17 221q2 12 12 45t10 51l-4 29q-29 20 -43 20q-115 0 -233 -325q-100 -285 -101 -433q0 -195 99 -350 q113 -180 296 -180q150 0 226 88q27 16 55 16q35 0 62.5 -28.5t27.5 -65.5q0 -84 -143 -135q-111 -39 -213 -39q-260 0 -414 236q-133 203 -133 473zM395 -285q0 27 44 105t44 119q0 39 -37.5 68.5t-37.5 62.5q0 41 30.5 67.5t67.5 26.5q57 0 88 -66q23 -51 22 -116 q0 -193 -172 -291q-49 10 -49 24zM627 1106q0 -72 22 -166l15 68q0 113 -25 241q-12 -90 -12 -143z" />
<glyph unicode="&#xe8;" horiz-adv-x="942" d="M-53 1358q0 43 67.5 62.5t67.5 64.5q18 12 45 12q23 0 50.5 -29.5t47.5 -29.5q92 0 473 73q43 -8 74 -48t31 -85q0 -27 -18.5 -51t-45.5 -24q-25 0 -73 18t-74 18q-18 0 -50 -11t-42 -23q14 -18 74.5 -54.5t87.5 -62.5q45 -47 45 -109q0 -111 -175 -190 q-131 -47 -262 -92q-10 -37 -10 -64q0 -125 2 -100q10 -43 8 -154q-2 -98 21 -149l37 -2q244 -4 456 118q23 12 35 82q12 57 53 58q47 0 79 -38t32 -85q0 -80 -51 -121q-92 -76 -268 -121q-147 -31 -293 -61q-8 0 -58 -15q-37 -12 -55 -12q-68 0 -113 43t-45 111 q0 39 9.5 118.5t9.5 120.5q0 35 4 103.5t4 101.5q0 18 -27 23q-18 2 -39 4h-8q-8 0 -22.5 10t-18.5 12q-14 16 -14 39q0 18 10 33q109 4 109 115q0 25 -6 92q-8 59 -5 94l-6 45q-2 27 -22 39q-68 12 -94 31q-37 27 -37 90zM90 1901q6 -68 117 -119q41 -19 178 -62 q55 -16 70 -51q72 -27 120 -22q78 8 74 69q-4 37 -88 83t-125 42q-57 -4 -143 74t-135 74q-31 -2 -51.5 -29t-16.5 -59zM260 1208q0 -100 16 -223q72 2 224 92l2 21l-13 18q-102 80 -229 92z" />
<glyph unicode="&#xe9;" horiz-adv-x="942" d="M-53 1358q0 43 67.5 62.5t67.5 64.5q18 12 45 12q23 0 50.5 -29.5t47.5 -29.5q92 0 473 73q43 -8 74 -48t31 -85q0 -27 -18.5 -51t-45.5 -24q-25 0 -73 18t-74 18q-18 0 -50 -11t-42 -23q14 -18 74.5 -54.5t87.5 -62.5q45 -47 45 -109q0 -111 -175 -190 q-131 -47 -262 -92q-10 -37 -10 -64q0 -125 2 -100q10 -43 8 -154q-2 -98 21 -149l37 -2q244 -4 456 118q23 12 35 82q12 57 53 58q47 0 79 -38t32 -85q0 -80 -51 -121q-92 -76 -268 -121q-147 -31 -293 -61q-8 0 -58 -15q-37 -12 -55 -12q-68 0 -113 43t-45 111 q0 39 9.5 118.5t9.5 120.5q0 35 4 103.5t4 101.5q0 18 -27 23q-18 2 -39 4h-8q-8 0 -22.5 10t-18.5 12q-14 16 -14 39q0 18 10 33q109 4 109 115q0 25 -6 92q-8 59 -5 94l-6 45q-2 27 -22 39q-68 12 -94 31q-37 27 -37 90zM98 1704q0 39 80 91t121 52q55 0 134 86t130 86 q31 0 53.5 -24.5t22.5 -57.5q0 -68 -109 -129q-37 -20 -170 -75q-53 -23 -65 -60q-70 -31 -119 -31q-78 0 -78 62zM260 1208q0 -100 16 -223q72 2 224 92l2 21l-13 18q-102 80 -229 92z" />
<glyph unicode="&#xea;" horiz-adv-x="942" d="M-53 1358q0 43 67.5 62.5t67.5 64.5q18 12 45 12q23 0 50.5 -29.5t47.5 -29.5q92 0 473 73q43 -8 74 -48t31 -85q0 -27 -18.5 -51t-45.5 -24q-25 0 -73 18t-74 18q-18 0 -50 -11t-42 -23q14 -18 74.5 -54.5t87.5 -62.5q45 -47 45 -109q0 -111 -175 -190 q-131 -47 -262 -92q-10 -37 -10 -64q0 -125 2 -100q10 -43 8 -154q-2 -98 21 -149l37 -2q244 -4 456 118q23 12 35 82q12 57 53 58q47 0 79 -38t32 -85q0 -80 -51 -121q-92 -76 -268 -121q-147 -31 -293 -61q-8 0 -58 -15q-37 -12 -55 -12q-68 0 -113 43t-45 111 q0 39 9.5 118.5t9.5 120.5q0 35 4 103.5t4 101.5q0 18 -27 23q-18 2 -39 4h-8q-8 0 -22.5 10t-18.5 12q-14 16 -14 39q0 18 10 33q109 4 109 115q0 25 -6 92q-8 59 -5 94l-6 45q-2 27 -22 39q-68 12 -94 31q-37 27 -37 90zM197 1640q12 49 71 129q55 74 58 142q2 33 39 71.5 t78 38.5q59 -2 94 -98q8 -27 78 -115q55 -74 53 -122q0 -44 -47 -44q-37 2 -94 72q-49 59 -78 117q-18 -35 -37 -62q-25 -35 -51 -69q-27 -41 -37 -76q-18 -61 -82 -49q-57 10 -45 65zM260 1208q0 -100 16 -223q72 2 224 92l2 21l-13 18q-102 80 -229 92z" />
<glyph unicode="&#xeb;" horiz-adv-x="942" d="M-53 1358q0 43 67.5 62.5t67.5 64.5q18 12 45 12q23 0 50.5 -29.5t47.5 -29.5q92 0 473 73q43 -8 74 -48t31 -85q0 -27 -18.5 -51t-45.5 -24q-25 0 -73 18t-74 18q-18 0 -50 -11t-42 -23q14 -18 74.5 -54.5t87.5 -62.5q45 -47 45 -109q0 -111 -175 -190 q-131 -47 -262 -92q-10 -37 -10 -64q0 -125 2 -100q10 -43 8 -154q-2 -98 21 -149l37 -2q244 -4 456 118q23 12 35 82q12 57 53 58q47 0 79 -38t32 -85q0 -80 -51 -121q-92 -76 -268 -121q-147 -31 -293 -61q-8 0 -58 -15q-37 -12 -55 -12q-68 0 -113 43t-45 111 q0 39 9.5 118.5t9.5 120.5q0 35 4 103.5t4 101.5q0 18 -27 23q-18 2 -39 4h-8q-8 0 -22.5 10t-18.5 12q-14 16 -14 39q0 18 10 33q109 4 109 115q0 25 -6 92q-8 59 -5 94l-6 45q-2 27 -22 39q-68 12 -94 31q-37 27 -37 90zM64 1767q0 51 47 94.5t96 43.5q102 0 103 -97 q0 -49 -53.5 -93t-104.5 -44q-35 0 -61.5 31t-26.5 65zM260 1208q0 -100 16 -223q72 2 224 92l2 21l-13 18q-102 80 -229 92zM500 1790q0 49 53.5 94t102.5 45q35 0 61.5 -30.5t26.5 -67.5q0 -49 -46.5 -92t-97.5 -43q-100 0 -100 94z" />
<glyph unicode="&#xec;" horiz-adv-x="419" d="M-115 1901q6 -68 117 -119q41 -19 178 -62q55 -16 70 -51q72 -27 120 -22q78 8 74 69q-4 37 -88 83t-125 42q-57 -4 -143 74t-135 74q-31 -2 -51.5 -29t-16.5 -59zM76 514q0 63 22 111v24q0 82 -7 241t-7 236q0 74 20 164q31 119 78 119q51 0 66 -70q4 -25 4 -108 q0 -70 -10.5 -207t-10.5 -205q0 -74 17.5 -224t17.5 -224q0 -88 -80 -88q-74 0 -98 84q-12 43 -12 147z" />
<glyph unicode="&#xed;" horiz-adv-x="419" d="M-56 1704q0 39 80 91t121 52q55 0 134 86t130 86q31 0 53.5 -24.5t22.5 -57.5q0 -68 -109 -129q-37 -20 -170 -75q-53 -23 -65 -60q-70 -31 -119 -31q-78 0 -78 62zM76 514q0 63 22 111v24q0 82 -7 241t-7 236q0 74 20 164q31 119 78 119q51 0 66 -70q4 -25 4 -108 q0 -70 -10.5 -207t-10.5 -205q0 -74 17.5 -224t17.5 -224q0 -88 -80 -88q-74 0 -98 84q-12 43 -12 147z" />
<glyph unicode="&#xee;" horiz-adv-x="419" d="M-59 1640q12 49 71 129q55 74 58 142q2 33 39 71.5t78 38.5q59 -2 94 -98q8 -27 78 -115q55 -74 53 -122q0 -44 -47 -44q-37 2 -94 72q-49 59 -78 117q-18 -35 -37 -62q-25 -35 -51 -69q-27 -41 -37 -76q-18 -61 -82 -49q-57 10 -45 65zM76 514q0 63 22 111v24 q0 82 -7 241t-7 236q0 74 20 164q31 119 78 119q51 0 66 -70q4 -25 4 -108q0 -70 -10.5 -207t-10.5 -205q0 -74 17.5 -224t17.5 -224q0 -88 -80 -88q-74 0 -98 84q-12 43 -12 147z" />
<glyph unicode="&#xef;" horiz-adv-x="419" d="M-141 1767q0 51 47 94.5t96 43.5q102 0 103 -97q0 -49 -53.5 -93t-104.5 -44q-35 0 -61.5 31t-26.5 65zM76 514q0 63 22 111v24q0 82 -7 241t-7 236q0 74 20 164q31 119 78 119q51 0 66 -70q4 -25 4 -108q0 -70 -10.5 -207t-10.5 -205q0 -74 17.5 -224t17.5 -224 q0 -88 -80 -88q-74 0 -98 84q-12 43 -12 147zM295 1790q0 49 53.5 94t102.5 45q35 0 61.5 -30.5t26.5 -67.5q0 -49 -46.5 -92t-97.5 -43q-100 0 -100 94z" />
<glyph unicode="&#xf0;" horiz-adv-x="890" d="M-193 856q0 84 244 100q-14 154 -14 256q0 96 14 181l29 43q0 29 -85 50t-85 68q0 8 6 33q31 31 86 31h90q279 -2 547 -197q291 -213 291 -479q0 -221 -248 -405q-127 -94 -446 -240q-10 -16 -33 -145q-16 -98 -84 -99q-41 0 -73 32t-32 73q0 8 5.5 24.5t5.5 26.5l-2 12 q-68 12 -89 27q-35 23 -34 82q0 35 22.5 64.5t54.5 29.5q10 0 30 -6t30 -6l20 6q20 51 21 123q0 109 -17 282q-29 -4 -65 -14h8q14 2 21 -2q-39 -16 -105 -16q-113 0 -113 65zM141 1446q72 -59 80 -471q98 47 133 47q68 0 68 -61q0 -96 -201 -132q0 -37 -2 -124v-127 q0 -66 12 -109q23 4 148 61q393 182 393 471q0 152 -231 308q-215 143 -377 143z" />
<glyph unicode="&#xf1;" horiz-adv-x="942" d="M-53 1358q0 43 67.5 62.5t67.5 64.5q18 12 45 12q23 0 50.5 -29.5t47.5 -29.5q92 0 473 73q43 -8 74 -48t31 -85q0 -27 -18.5 -51t-45.5 -24q-25 0 -73 18t-74 18q-18 0 -50 -11t-42 -23q14 -18 74.5 -54.5t87.5 -62.5q45 -47 45 -109q0 -111 -175 -190 q-131 -47 -262 -92q-10 -37 -10 -64q0 -125 2 -100q10 -43 8 -154q-2 -98 21 -149l37 -2q244 -4 456 118q23 12 35 82q12 57 53 58q47 0 79 -38t32 -85q0 -80 -51 -121q-92 -76 -268 -121q-147 -31 -293 -61q-8 0 -58 -15q-37 -12 -55 -12q-68 0 -113 43t-45 111 q0 39 9.5 118.5t9.5 120.5q0 35 4 103.5t4 101.5q0 18 -27 23q-18 2 -39 4h-8q-8 0 -22.5 10t-18.5 12q-14 16 -14 39q0 18 10 33q109 4 109 115q0 25 -6 92q-8 59 -5 94l-6 45q-2 27 -22 39q-68 12 -94 31q-37 27 -37 90zM98 1704q0 39 80 91t121 52q55 0 134 86t130 86 q31 0 53.5 -24.5t22.5 -57.5q0 -68 -109 -129q-37 -20 -170 -75q-53 -23 -65 -60q-70 -31 -119 -31q-78 0 -78 62zM260 1208q0 -100 16 -223q72 2 224 92l2 21l-13 18q-102 80 -229 92z" />
<glyph unicode="&#xf2;" horiz-adv-x="958" d="M-27 717q0 223 70 432q84 252 238 354q37 66 139 66q31 0 63 -4q219 -31 357 -426q67 -195 67 -340q0 -219 -167 -383t-386 -164q-381 0 -381 465zM119 741q0 -154 37 -229q53 -104 196 -104q180 0 293 124q111 120 111 302q0 180 -117 378q-43 10 -74 97q-27 80 -108 80 q-162 0 -260 -254q-78 -197 -78 -394zM168 1901q6 -68 117 -119q41 -19 178 -62q55 -16 70 -51q72 -27 120 -22q78 8 74 69q-4 37 -88 83t-125 42q-57 -4 -143 74t-135 74q-31 -2 -51.5 -29t-16.5 -59z" />
<glyph unicode="&#xf3;" horiz-adv-x="958" d="M-27 717q0 223 70 432q84 252 238 354q37 66 139 66q31 0 63 -4q219 -31 357 -426q67 -195 67 -340q0 -219 -167 -383t-386 -164q-381 0 -381 465zM119 741q0 -154 37 -229q53 -104 196 -104q180 0 293 124q111 120 111 302q0 180 -117 378q-43 10 -74 97q-27 80 -108 80 q-162 0 -260 -254q-78 -197 -78 -394zM176 1704q0 39 80 91t121 52q55 0 134 86t130 86q31 0 53.5 -24.5t22.5 -57.5q0 -68 -109 -129q-37 -20 -170 -75q-53 -23 -65 -60q-70 -31 -119 -31q-78 0 -78 62z" />
<glyph unicode="&#xf4;" horiz-adv-x="958" d="M-27 717q0 223 70 432q84 252 238 354q37 66 139 66q31 0 63 -4q219 -31 357 -426q67 -195 67 -340q0 -219 -167 -383t-386 -164q-381 0 -381 465zM119 741q0 -154 37 -229q53 -104 196 -104q180 0 293 124q111 120 111 302q0 180 -117 378q-43 10 -74 97q-27 80 -108 80 q-162 0 -260 -254q-78 -197 -78 -394zM170 1640q12 49 71 129q55 74 58 142q2 33 39 71.5t78 38.5q59 -2 94 -98q8 -27 78 -115q55 -74 53 -122q0 -44 -47 -44q-37 2 -94 72q-49 59 -78 117q-18 -35 -37 -62q-25 -35 -51 -69q-27 -41 -37 -76q-18 -61 -82 -49q-57 10 -45 65 z" />
<glyph unicode="&#xf5;" horiz-adv-x="958" d="M-27 717q0 223 70 432q84 252 238 354q37 66 139 66q31 0 63 -4q219 -31 357 -426q67 -195 67 -340q0 -219 -167 -383t-386 -164q-381 0 -381 465zM63 1761q0 125 238 125l14 2q29 0 108 -38t122 -38q49 0 85.5 49.5t82.5 49.5q39 0 65.5 -32t26.5 -71q0 -70 -86 -108 q-68 -33 -148 -33q-78 0 -162 45t-110 45q-47 0 -80 -44t-76 -44q-33 0 -56.5 28.5t-23.5 63.5zM119 741q0 -154 37 -229q53 -104 196 -104q180 0 293 124q111 120 111 302q0 180 -117 378q-43 10 -74 97q-27 80 -108 80q-162 0 -260 -254q-78 -197 -78 -394z" />
<glyph unicode="&#xf6;" horiz-adv-x="958" d="M-27 717q0 223 70 432q84 252 238 354q37 66 139 66q31 0 63 -4q219 -31 357 -426q67 -195 67 -340q0 -219 -167 -383t-386 -164q-381 0 -381 465zM64 1767q0 51 47 94.5t96 43.5q102 0 103 -97q0 -49 -53.5 -93t-104.5 -44q-35 0 -61.5 31t-26.5 65zM119 741 q0 -154 37 -229q53 -104 196 -104q180 0 293 124q111 120 111 302q0 180 -117 378q-43 10 -74 97q-27 80 -108 80q-162 0 -260 -254q-78 -197 -78 -394zM500 1790q0 49 53.5 94t102.5 45q35 0 61.5 -30.5t26.5 -67.5q0 -49 -46.5 -92t-97.5 -43q-100 0 -100 94z" />
<glyph unicode="&#xf8;" horiz-adv-x="958" d="M-27 717q0 225 70 432q82 252 238 354q37 66 139 66q133 0 223 -82q104 184 154 184q35 0 63.5 -27.5t28.5 -62.5q0 -33 -60 -113q-45 -51 -88 -104q66 -113 115 -274q51 -168 51 -291q0 -217 -167 -382t-386 -165q-68 0 -123 14q-66 -281 -125 -280q-47 0 -47 88 q0 86 54 252q-139 113 -140 391zM119 741q0 -176 51 -254q141 367 389 842q-20 59 -102 60q-162 0 -260 -252q-78 -199 -78 -396zM281 416q33 -8 71 -8q178 0 293 124q111 119 111 302q0 177 -113 372q-141 -262 -362 -790z" />
<glyph unicode="&#xf9;" horiz-adv-x="1056" d="M-6 1225q0 86 10 155q41 74 84 74q102 0 102 -131q0 -20 -4 -60t-4 -61q0 -252 6 -317q20 -190 105 -291q158 -193 260 -193q88 0 162 129q53 94 78 209q35 195 114 584q-4 29 -4 57q0 63 31 125q39 74 98 74q33 0 60.5 -23.5t27.5 -56.5q0 -86 -63 -174 q-29 -104 -78 -430q-43 -274 -96 -420q-33 -82 -111 -162q-92 -92 -170 -92q-106 0 -240 76q-190 111 -290 414q-78 240 -78 514zM244 1901q6 -68 117 -119q41 -19 178 -62q55 -16 70 -51q72 -27 120 -22q78 8 74 69q-4 37 -88 83t-125 42q-57 -4 -143 74t-135 74 q-31 -2 -51.5 -29t-16.5 -59z" />
<glyph unicode="&#xfa;" horiz-adv-x="1056" d="M-6 1225q0 86 10 155q41 74 84 74q102 0 102 -131q0 -20 -4 -60t-4 -61q0 -252 6 -317q20 -190 105 -291q158 -193 260 -193q88 0 162 129q53 94 78 209q35 195 114 584q-4 29 -4 57q0 63 31 125q39 74 98 74q33 0 60.5 -23.5t27.5 -56.5q0 -86 -63 -174 q-29 -104 -78 -430q-43 -274 -96 -420q-33 -82 -111 -162q-92 -92 -170 -92q-106 0 -240 76q-190 111 -290 414q-78 240 -78 514zM252 1704q0 39 80 91t121 52q55 0 134 86t130 86q31 0 53.5 -24.5t22.5 -57.5q0 -68 -109 -129q-37 -20 -170 -75q-53 -23 -65 -60 q-70 -31 -119 -31q-78 0 -78 62z" />
<glyph unicode="&#xfb;" horiz-adv-x="1056" d="M-6 1225q0 86 10 155q41 74 84 74q102 0 102 -131q0 -20 -4 -60t-4 -61q0 -252 6 -317q20 -190 105 -291q158 -193 260 -193q88 0 162 129q53 94 78 209q35 195 114 584q-4 29 -4 57q0 63 31 125q39 74 98 74q33 0 60.5 -23.5t27.5 -56.5q0 -86 -63 -174 q-29 -104 -78 -430q-43 -274 -96 -420q-33 -82 -111 -162q-92 -92 -170 -92q-106 0 -240 76q-190 111 -290 414q-78 240 -78 514zM299 1640q12 49 71 129q55 74 58 142q2 33 39 71.5t78 38.5q59 -2 94 -98q8 -27 78 -115q55 -74 53 -122q0 -44 -47 -44q-37 2 -94 72 q-49 59 -78 117q-18 -35 -37 -62q-25 -35 -51 -69q-27 -41 -37 -76q-18 -61 -82 -49q-57 10 -45 65z" />
<glyph unicode="&#xfc;" horiz-adv-x="958" d="M-27 717q0 223 70 432q84 252 238 354q37 66 139 66q31 0 63 -4q219 -31 357 -426q67 -195 67 -340q0 -219 -167 -383t-386 -164q-381 0 -381 465zM64 1767q0 51 47 94.5t96 43.5q102 0 103 -97q0 -49 -53.5 -93t-104.5 -44q-35 0 -61.5 31t-26.5 65zM119 741 q0 -154 37 -229q53 -104 196 -104q180 0 293 124q111 120 111 302q0 180 -117 378q-43 10 -74 97q-27 80 -108 80q-162 0 -260 -254q-78 -197 -78 -394zM500 1790q0 49 53.5 94t102.5 45q35 0 61.5 -30.5t26.5 -67.5q0 -49 -46.5 -92t-97.5 -43q-100 0 -100 94z" />
<glyph unicode="&#xfd;" horiz-adv-x="839" d="M-137 1559q0 70 53 69q27 0 59 -22q94 -172 187 -344q115 -195 266 -289l18 10q98 498 297 666q12 10 72 20q39 -4 64.5 -40t25.5 -77q0 -51 -39 -135q-51 -115 -57 -131q-141 -449 -457 -975q-27 -41 -55 -84q-33 -53 -29 -94l4 -29q-20 -51 -63 -102q-53 -63 -98 -63 q-90 0 -88 84v34q35 70 132 191t132 190q4 10 84 152q49 92 71 158l-12 24q-197 166 -352 356q-215 262 -215 431zM98 1704q0 39 80 91t121 52q55 0 134 86t130 86q31 0 53.5 -24.5t22.5 -57.5q0 -68 -109 -129q-37 -20 -170 -75q-53 -23 -65 -60q-70 -31 -119 -31 q-78 0 -78 62z" />
<glyph unicode="&#xfe;" horiz-adv-x="1011" d="M-14 1573q0 30 2 59q8 76 96 68q90 -8 90 -152q0 -45 -8 -108q-6 -41 -10 -80q-4 -29 2 -174q76 51 213 81.5t231 22.5q141 -12 270 -78q164 -84 154 -202q-12 -145 -182 -242q-115 -66 -355 -129q-264 -70 -319 -94l-8 -53q-4 -25 -4 -54q0 -35 12 -127q10 -80 6 -127 q-10 -102 -82 -96q-106 8 -106 164q0 43 8 106q6 43 10 84q0 4 6 4l2 5q2 4 -2 79q-10 190 -10 224q0 66 10.5 203t10.5 208q0 66 -18.5 203t-18.5 205zM156 733q29 -27 49 -28q92 -8 358 110q281 125 293 207q-14 51 -94 84q-59 25 -129 31q-96 8 -244 -27 q-166 -39 -217 -98l-4 -39q2 -80 -12 -240z" />
<glyph unicode="&#xff;" horiz-adv-x="839" d="M-137 1559q0 70 53 69q27 0 59 -22q94 -172 187 -344q115 -195 266 -289l18 10q98 498 297 666q12 10 72 20q39 -4 64.5 -40t25.5 -77q0 -51 -39 -135q-51 -115 -57 -131q-141 -449 -457 -975q-27 -41 -55 -84q-33 -53 -29 -94l4 -29q-20 -51 -63 -102q-53 -63 -98 -63 q-90 0 -88 84v34q35 70 132 191t132 190q4 10 84 152q49 92 71 158l-12 24q-197 166 -352 356q-215 262 -215 431zM12 1767q0 51 47 94.5t96 43.5q102 0 103 -97q0 -49 -53.5 -93t-104.5 -44q-35 0 -61.5 31t-26.5 65zM448 1790q0 49 53.5 94t102.5 45q35 0 61.5 -30.5 t26.5 -67.5q0 -49 -46.5 -92t-97.5 -43q-100 0 -100 94z" />
<glyph unicode="&#x152;" horiz-adv-x="1583" d="M-27 666q0 227 70 432q82 252 238 354q23 39 70.5 65.5t94.5 26.5q143 0 230 -65q47 14 45 57q20 12 47 12q20 0 48 -29.5t48 -29.5q102 0 240 27q117 23 235 47q43 -8 74 -47t31 -86q0 -27 -18.5 -51.5t-47.5 -24.5q-27 0 -74 18.5t-73 18.5q-55 0 -90 -35 q23 -31 80 -64q68 -35 86 -55q41 -39 41 -107q0 -111 -172 -188q-131 -47 -265 -94q-12 -35 -12 -64q0 -47 5 -139t5 -139q0 -76 23 -125l51 -2q104 -2 229 29q139 35 211 90q23 16 37 84q12 55 51 55q47 0 80 -38t33 -85q0 -102 -125 -170q-90 -51 -258 -88 q-117 -23 -230.5 -47.5t-111.5 -24.5q-80 0 -122 50.5t-36 130.5q-168 -164 -387 -164q-381 0 -381 465zM119 690q0 -156 39 -229q53 -104 194 -105q365 1 406 445l-56 8h-8q-20 0 -37.5 20.5t-17.5 40.5q0 18 10 33q109 2 109 115q0 209 -96 282l-50 31q-74 33 -129 33 q-164 0 -274 -266q-90 -215 -90 -408zM899 1260q0 -102 16 -224q74 2 224 92l4 21l-13 18q-104 80 -231 93z" />
<glyph unicode="&#x153;" horiz-adv-x="1583" d="M-27 666q0 227 70 432q82 252 238 354q23 39 70.5 65.5t94.5 26.5q143 0 230 -65q47 14 45 57q20 12 47 12q20 0 48 -29.5t48 -29.5q102 0 240 27q117 23 235 47q43 -8 74 -47t31 -86q0 -27 -18.5 -51.5t-47.5 -24.5q-27 0 -74 18.5t-73 18.5q-55 0 -90 -35 q23 -31 80 -64q68 -35 86 -55q41 -39 41 -107q0 -111 -172 -188q-131 -47 -265 -94q-12 -35 -12 -64q0 -47 5 -139t5 -139q0 -76 23 -125l51 -2q104 -2 229 29q139 35 211 90q23 16 37 84q12 55 51 55q47 0 80 -38t33 -85q0 -102 -125 -170q-90 -51 -258 -88 q-117 -23 -230.5 -47.5t-111.5 -24.5q-80 0 -122 50.5t-36 130.5q-168 -164 -387 -164q-381 0 -381 465zM119 690q0 -156 39 -229q53 -104 194 -105q365 1 406 445l-56 8h-8q-20 0 -37.5 20.5t-17.5 40.5q0 18 10 33q109 2 109 115q0 209 -96 282l-50 31q-74 33 -129 33 q-164 0 -274 -266q-90 -215 -90 -408zM899 1260q0 -102 16 -224q74 2 224 92l4 21l-13 18q-104 80 -231 93z" />
<glyph unicode="&#x178;" horiz-adv-x="839" d="M-137 1559q0 70 53 69q27 0 59 -22q94 -172 187 -344q115 -195 266 -289l18 10q98 498 297 666q12 10 72 20q39 -4 64.5 -40t25.5 -77q0 -51 -39 -135q-51 -115 -57 -131q-141 -449 -457 -975q-27 -41 -55 -84q-33 -53 -29 -94l4 -29q-20 -51 -63 -102q-53 -63 -98 -63 q-90 0 -88 84v34q35 70 132 191t132 190q4 10 84 152q49 92 71 158l-12 24q-197 166 -352 356q-215 262 -215 431zM12 1767q0 51 47 94.5t96 43.5q102 0 103 -97q0 -49 -53.5 -93t-104.5 -44q-35 0 -61.5 31t-26.5 65zM448 1790q0 49 53.5 94t102.5 45q35 0 61.5 -30.5 t26.5 -67.5q0 -49 -46.5 -92t-97.5 -43q-100 0 -100 94z" />
<glyph unicode="&#x2c6;" horiz-adv-x="964" d="M248 1640q12 49 71 129q55 74 58 142q2 33 39 71.5t78 38.5q59 -2 94 -98q8 -27 78 -115q55 -74 53 -122q0 -44 -47 -44q-37 2 -94 72q-49 59 -78 117q-18 -35 -37 -62q-25 -35 -51 -69q-27 -41 -37 -76q-18 -61 -82 -49q-57 10 -45 65z" />
<glyph unicode="&#x2dc;" horiz-adv-x="1196" d="M141 1761q0 125 238 125l14 2q29 0 108 -38t122 -38q49 0 85.5 49.5t82.5 49.5q39 0 65.5 -32t26.5 -71q0 -70 -86 -108q-68 -33 -148 -33q-78 0 -162 45t-110 45q-47 0 -80 -44t-76 -44q-33 0 -56.5 28.5t-23.5 63.5z" />
<glyph unicode="&#x2000;" horiz-adv-x="1020" />
<glyph unicode="&#x2001;" horiz-adv-x="2040" />
<glyph unicode="&#x2002;" horiz-adv-x="1020" />
<glyph unicode="&#x2003;" horiz-adv-x="2040" />
<glyph unicode="&#x2004;" horiz-adv-x="680" />
<glyph unicode="&#x2005;" horiz-adv-x="510" />
<glyph unicode="&#x2006;" horiz-adv-x="340" />
<glyph unicode="&#x2007;" horiz-adv-x="340" />
<glyph unicode="&#x2008;" horiz-adv-x="255" />
<glyph unicode="&#x2009;" horiz-adv-x="408" />
<glyph unicode="&#x200a;" horiz-adv-x="113" />
<glyph unicode="&#x2010;" horiz-adv-x="743" d="M63 829q0 53 70 72q27 8 111 14q33 4 49 5q23 0 29 -6.5t28 -6.5q16 0 49 2q74 6 96.5 26t96.5 26q86 8 86 -74q0 -74 -82 -103q-45 -16 -147 -26q-63 -4 -111 12l-25 -2q-57 -4 -61 -8q14 -2 29 -6q-8 -4 -62 -9q-53 -4 -98 13q-57 23 -58 71z" />
<glyph unicode="&#x2011;" horiz-adv-x="743" d="M63 829q0 53 70 72q27 8 111 14q33 4 49 5q23 0 29 -6.5t28 -6.5q16 0 49 2q74 6 96.5 26t96.5 26q86 8 86 -74q0 -74 -82 -103q-45 -16 -147 -26q-63 -4 -111 12l-25 -2q-57 -4 -61 -8q14 -2 29 -6q-8 -4 -62 -9q-53 -4 -98 13q-57 23 -58 71z" />
<glyph unicode="&#x2012;" horiz-adv-x="743" d="M63 829q0 53 70 72q27 8 111 14q33 4 49 5q23 0 29 -6.5t28 -6.5q16 0 49 2q74 6 96.5 26t96.5 26q86 8 86 -74q0 -74 -82 -103q-45 -16 -147 -26q-63 -4 -111 12l-25 -2q-57 -4 -61 -8q14 -2 29 -6q-8 -4 -62 -9q-53 -4 -98 13q-57 23 -58 71z" />
<glyph unicode="&#x2013;" horiz-adv-x="999" d="M63 819q0 51 70 72q27 6 111 14q33 2 49 2q23 0 29 -6t28 -6q16 0 49 2q74 8 224.5 38t224.5 38q86 6 86 -74q0 -74 -82 -104q-45 -16 -147 -25q-63 -6 -111 12l-25 -2q-80 -8 -111.5 -18t-109.5 -17q-72 -6 -162 7q-123 18 -123 67z" />
<glyph unicode="&#x2014;" horiz-adv-x="1255" d="M63 807q0 53 70 72q27 8 111 14q68 6 205 8t208.5 8t222 37t224.5 37q86 8 86 -74q0 -74 -82 -104q-45 -14 -147 -25q-63 -4 -111 13l-25 -2q-160 -20 -477 -58q-72 -6 -162 8q-123 18 -123 66z" />
<glyph unicode="&#x2018;" horiz-adv-x="499" d="M63 1382q0 29 48.5 116t48.5 132q0 43 -42 76t-42 70q0 45 33.5 74.5t76.5 29.5q63 0 97 -74q27 -57 26 -129q0 -98 -52 -185t-140 -138q-16 2 -35 7t-19 21z" />
<glyph unicode="&#x2019;" horiz-adv-x="499" d="M63 1382q0 29 48.5 116t48.5 132q0 43 -42 76t-42 70q0 45 33.5 74.5t76.5 29.5q63 0 97 -74q27 -57 26 -129q0 -98 -52 -185t-140 -138q-16 2 -35 7t-19 21z" />
<glyph unicode="&#x201a;" horiz-adv-x="436" d="M129 -27q0 31 47 117t47 131t-42 77t-42 71q0 43 34 72.5t77 29.5q63 0 96 -72q27 -57 27 -131q0 -96 -52.5 -184t-138.5 -137q-18 2 -35.5 6t-17.5 20z" />
<glyph unicode="&#x201c;" horiz-adv-x="851" d="M193 1569q0 98 51 185t139 138q16 -2 34.5 -7t18.5 -21q0 -31 -48 -117t-48 -131q0 -43 42 -76t42 -70q0 -45 -34 -74.5t-77 -29.5q-61 0 -96 74q-25 57 -24 129zM557 1571q0 94 49 177t131 130q51 -10 51 -27q0 -29 -45 -109.5t-45 -125.5q0 -41 40 -72t40 -65 q0 -43 -32.5 -72t-73.5 -29q-59 0 -90 70q-25 55 -25 123z" />
<glyph unicode="&#x201d;" horiz-adv-x="851" d="M63 1395q0 27 46.5 108.5t46.5 126.5q0 41 -40 72t-40 65q0 43 31.5 71t72.5 28q59 0 92 -70q25 -53 25 -121q0 -94 -49 -177t-133 -132q-51 12 -52 29zM416 1407q0 31 48 117t48 131t-42 76.5t-42 70.5q0 43 34 73t77 30q63 0 96 -72q27 -57 27 -131q0 -96 -52.5 -184.5 t-140.5 -137.5q-16 2 -34.5 6.5t-18.5 20.5z" />
<glyph unicode="&#x201e;" horiz-adv-x="851" d="M63 -14q0 27 46.5 108.5t46.5 126.5q0 41 -40 72t-40 65q0 43 31.5 71t72.5 28q59 0 92 -70q25 -53 25 -121q0 -94 -49 -177t-133 -132q-51 12 -52 29zM416 -2q0 31 48 117t48 131t-42 76.5t-42 70.5q0 43 34 73t77 30q63 0 96 -72q27 -57 27 -131q0 -96 -52.5 -184.5 t-140.5 -137.5q-16 2 -34.5 6.5t-18.5 20.5z" />
<glyph unicode="&#x2022;" horiz-adv-x="495" d="M63 756q0 74 80 141.5t156 67.5q53 0 92 -47.5t39 -100.5q0 -76 -69.5 -139.5t-145.5 -63.5q-66 0 -109 38t-43 104z" />
<glyph unicode="&#x202f;" horiz-adv-x="408" />
<glyph unicode="&#x2039;" horiz-adv-x="727" d="M33 700q0 63 57 78q170 45 309 160q45 37 88 74q63 47 99 47q16 0 30.5 -25.5t14.5 -38.5q0 -23 -10 -37q-119 -168 -383 -292q8 -20 100 -146q35 -53 72 -106q59 -82 77 -82q2 0 2 2q29 25 50 24q37 0 59.5 -35.5t24.5 -70.5l-31 -53q-47 -27 -92 -27q-76 0 -127 61 q-61 82 -187 244q-20 25 -112 123q-41 43 -41 100z" />
<glyph unicode="&#x203a;" horiz-adv-x="845" d="M33 1077q0 41 24.5 69t69.5 23q41 -2 70 -41q68 -90 213 -210q170 -143 223 -201t53 -117q0 -51 -47 -80q-195 -113 -311.5 -192.5t-171.5 -75.5q-57 4 -58 63q0 31 25 50q51 35 194 118q125 72 189 129q-66 84 -277 279q-41 41 -88 82q14 0 -49 -4q-59 33 -59 108z" />
<glyph unicode="&#x205f;" horiz-adv-x="510" />
<glyph unicode="&#x20ac;" horiz-adv-x="1042" d="M-135 782q0 55 92 82q68 14 137 29l-2 18l29 -12l-4 -4q29 0 88 4q43 242 131 440q133 293 299 293q121 0 201 -127q68 -109 67 -235q0 -57 -18 -105q-23 -63 -70 -63q-100 0 -100 205q0 49 8 79q-41 43 -82 44q-92 0 -180 -209q-55 -131 -94 -306q6 0 165 27 q98 16 166 16q39 0 74 -28.5t35 -69.5q0 -31 -21 -61l-71 -33q-117 18 -183 18q-37 0 -100 -11t-94 -13q-4 -37 -4 -60q0 -51 10 -108q29 6 121 33q76 20 125 20q84 0 84 -74q0 -80 -121 -104q-63 -6 -170 -18q109 -272 340 -273q72 0 125 25q6 2 104 61q29 18 52 19 q39 0 67.5 -31t28.5 -70q0 -88 -146 -139q-113 -41 -217 -41q-188 0 -325 127q-123 113 -183 301q-135 -14 -182 -14q-147 0 -147 90q0 49 45 78q37 23 86 22q31 0 82 -8q59 -8 80 -10q-10 80 -9 153q-176 -41 -196 -41q-39 0 -76 21q-47 25 -47 63z" />
<glyph unicode="&#x25fc;" horiz-adv-x="1587" d="M0 0v1587h1587v-1587h-1587z" />
</font>
</defs>
</svg>
